<?xml version="1.0" encoding="UTF-8" standalone="no"?>
<svg
   xmlns:dc="http://purl.org/dc/elements/1.1/"
   xmlns:cc="http://creativecommons.org/ns#"
   xmlns:rdf="http://www.w3.org/1999/02/22-rdf-syntax-ns#"
   xmlns:svg="http://www.w3.org/2000/svg"
   xmlns="http://www.w3.org/2000/svg"
   viewBox="0 0 3492.1467 2028"
   height="2028"
   width="3492.1467"
   xml:space="preserve"
   id="svg2"
   version="1.1"><metadata
     id="metadata8"><rdf:RDF><cc:Work
         rdf:about=""><dc:format>image/svg+xml</dc:format><dc:type
           rdf:resource="http://purl.org/dc/dcmitype/StillImage" /></cc:Work></rdf:RDF></metadata><defs
     id="defs6"><clipPath
       id="clipPath18"
       clipPathUnits="userSpaceOnUse"><path
         id="path16"
         d="M 0,1521 H 2619.105 V 0 H 0 Z" /></clipPath><clipPath
       id="clipPath310"
       clipPathUnits="userSpaceOnUse"><path
         id="path308"
         d="m 2186.571,1359.007 c -0.361,-0.844 -0.648,-1.9 -0.627,-3.009 v 0 c 0.031,-2.147 1.24,-4.536 5.432,-6.252 v 0 c 2.923,-1.191 5.085,-1.214 6.656,-0.666 v 0 c 1.783,0.605 2.831,1.945 3.403,3.158 v 0 c 0.634,1.365 0.724,2.605 0.724,2.605 v 0 c -5.882,2.386 -8.73,3.694 -14.187,6.539 v 0 c 0,0 -0.817,-0.955 -1.401,-2.375" /></clipPath><clipPath
       id="clipPath322"
       clipPathUnits="userSpaceOnUse"><path
         id="path320"
         d="M 0,1521 H 2619.105 V 0 H 0 Z" /></clipPath><clipPath
       id="clipPath396"
       clipPathUnits="userSpaceOnUse"><path
         id="path394"
         d="M 0,1521 H 2619.105 V 0 H 0 Z" /></clipPath><clipPath
       id="clipPath672"
       clipPathUnits="userSpaceOnUse"><path
         id="path670"
         d="m 807.858,662.764 c -0.417,-0.972 -0.747,-2.191 -0.723,-3.47 v 0 c 0.035,-2.477 1.431,-5.233 6.266,-7.213 v 0 c 3.372,-1.375 5.866,-1.401 7.68,-0.768 v 0 c 2.056,0.698 3.265,2.244 3.926,3.643 v 0 c 0.73,1.574 0.834,3.005 0.834,3.005 v 0 c -6.785,2.752 -10.071,4.262 -16.366,7.544 v 0 c 0,0 -0.943,-1.103 -1.617,-2.741" /></clipPath><clipPath
       id="clipPath684"
       clipPathUnits="userSpaceOnUse"><path
         id="path682"
         d="M 0,1521 H 2619.105 V 0 H 0 Z" /></clipPath></defs><g
     transform="matrix(1.3333333,0,0,-1.3333333,0,2028)"
     id="g10"><g
       id="g12"><g
         clip-path="url(#clipPath18)"
         id="g14"><g
           transform="translate(2077.8445,957.5644)"
           id="g20"><path
             id="path22"
             style="fill:none;stroke:#f4c500;stroke-width:14;stroke-linecap:round;stroke-linejoin:round;stroke-miterlimit:10;stroke-dasharray:10, 30;stroke-dashoffset:0;stroke-opacity:1"
             d="m 0,0 c 47.947,35.839 90.803,100.797 154.114,112.9 153.263,29.298 172.289,-142.546 207.69,-233.72 16.523,-42.553 3.085,-89.068 10.64,-133.157 4.509,-26.313 26.101,-54.049 49.261,-71.847 20.072,-15.425 48.781,-24.607 74.072,-12.436 32.584,15.68 18.807,59.366 0.753,80.101 -32.336,37.134 -95.793,14.376 -120.144,-16.836 -35.399,-45.374 -41.722,-99.183 -54.247,-150.746 -14.734,-60.659 -29.65,-121.201 -53.448,-179.972 -55.346,-136.684 -198.454,-159.262 -390.533,-156.506 0,0 -164.727,12.574 -140.112,-150.89" /></g><g
           transform="translate(2209.5654,1009.5355)"
           id="g24"><path
             id="path26"
             style="fill:#ffec00;fill-opacity:1;fill-rule:nonzero;stroke:none"
             d="m 0,0 c 4.537,-4.645 -6.566,-42.886 -7.687,-48.412 -8.231,-40.558 -20.131,-80.417 -35.484,-118.755 -44.138,-110.217 -118.277,-205.011 -223.351,-259.586 -83.241,-43.235 -173.677,-52.296 -265.473,-55.35 -155.216,-5.164 -310.407,-5.425 -465.678,-5.425 -51.717,0.51 -103.512,1.095 -155.186,3.511 l -1.421,200.805 c 118.218,0 236.435,0.039 354.653,0 68.517,-0.023 137.074,-1.418 205.56,1.384 66.805,2.734 134.464,5.088 195.089,36.57 82.227,42.699 144.308,115.479 182.24,200.66 3.011,6.763 29.743,79.27 28.354,79.563 C -188.384,34.965 5.118,-5.24 0,0" /></g><g
           transform="translate(1052.6041,728.0002)"
           id="g28"><path
             id="path30"
             style="fill:#efc700;fill-opacity:1;fill-rule:nonzero;stroke:none"
             d="m 0,0 c -17.034,0.537 -32.248,-45.492 -33.982,-102.809 -1.734,-57.316 10.669,-104.216 27.702,-104.753 17.034,-0.537 32.248,45.492 33.982,102.809 C 29.436,-47.437 17.034,-0.537 0,0" /></g><g
           transform="translate(2016.7145,1059.7552)"
           id="g32"><path
             id="path34"
             style="fill:#efc700;fill-opacity:1;fill-rule:nonzero;stroke:none"
             d="m 0,0 c -3.892,-16.937 37.287,-41.284 91.977,-54.381 54.69,-13.097 102.181,-9.984 106.073,6.953 3.892,16.937 -37.288,41.284 -91.978,54.381 C 51.382,20.049 3.892,16.937 0,0" /></g><g
           transform="translate(2204.1428,1037.1255)"
           id="g36"><path
             id="path38"
             style="fill:none;stroke:#000000;stroke-width:4;stroke-linecap:butt;stroke-linejoin:miter;stroke-miterlimit:10;stroke-dasharray:none;stroke-opacity:1"
             d="m 0,0 c 4.537,-4.645 -7.245,-42.299 -8.366,-47.825 -8.231,-40.558 -23.662,-80.198 -39.015,-118.535 -44.139,-110.217 -118.277,-205.011 -223.351,-259.586 -83.241,-43.235 -173.677,-52.296 -265.473,-55.35 -155.217,-5.165 -310.407,-5.425 -465.678,-5.425 -51.717,0.51 -103.512,1.094 -155.187,3.51" /></g><g
           transform="translate(1045.6531,754.7202)"
           id="g40"><path
             id="path42"
             style="fill:none;stroke:#000000;stroke-width:4;stroke-linecap:butt;stroke-linejoin:miter;stroke-miterlimit:10;stroke-dasharray:none;stroke-opacity:1"
             d="m 0,0 c 118.217,0 236.435,0.039 354.652,0 68.518,-0.023 137.075,-1.418 205.561,1.385 66.805,2.733 134.464,5.088 195.089,36.569 82.227,42.7 144.308,115.479 182.239,200.66 3.012,6.763 26.015,81.644 24.625,81.938" /></g><g
           transform="translate(2006.7563,1074.6674)"
           id="g44"><path
             id="path46"
             style="fill:none;stroke:#000000;stroke-width:4;stroke-linecap:butt;stroke-linejoin:miter;stroke-miterlimit:10;stroke-dasharray:none;stroke-opacity:1"
             d="m 0,0 c -3.266,-17.074 38.781,-39.824 93.915,-50.813 55.133,-10.99 102.475,-6.057 105.741,11.017 3.266,17.074 -38.781,39.824 -93.915,50.813 C 50.608,22.007 3.266,17.074 0,0 Z" /></g><g
           transform="translate(1046.7261,755.1484)"
           id="g48"><path
             id="path50"
             style="fill:none;stroke:#000000;stroke-width:4;stroke-linecap:butt;stroke-linejoin:miter;stroke-miterlimit:10;stroke-dasharray:none;stroke-opacity:1"
             d="m 0,0 c -17.034,0.537 -32.096,-43.412 -33.83,-100.729 -1.734,-57.316 10.668,-104.216 27.702,-104.753 17.034,-0.537 32.248,45.492 33.982,102.808 C 29.588,-45.357 17.034,-0.537 0,0 Z" /></g><g
           transform="translate(1178.9747,752.6112)"
           id="g52"><path
             id="path54"
             style="fill:none;stroke:#000000;stroke-width:4;stroke-linecap:butt;stroke-linejoin:miter;stroke-miterlimit:10;stroke-dasharray:none;stroke-opacity:1"
             d="M 0,0 V -160.218" /></g><g
           transform="translate(1255.1644,755.7222)"
           id="g56"><path
             id="path58"
             style="fill:none;stroke:#000000;stroke-width:4;stroke-linecap:butt;stroke-linejoin:miter;stroke-miterlimit:10;stroke-dasharray:none;stroke-opacity:1"
             d="M 0,0 V -121.33" /></g><g
           transform="translate(1326.7827,754.1667)"
           id="g60"><path
             id="path62"
             style="fill:none;stroke:#000000;stroke-width:4;stroke-linecap:butt;stroke-linejoin:miter;stroke-miterlimit:10;stroke-dasharray:none;stroke-opacity:1"
             d="M 0,0 V -160.218" /></g><g
           transform="translate(1402.9724,757.2777)"
           id="g64"><path
             id="path66"
             style="fill:none;stroke:#000000;stroke-width:4;stroke-linecap:butt;stroke-linejoin:miter;stroke-miterlimit:10;stroke-dasharray:none;stroke-opacity:1"
             d="M 0,0 V -121.33" /></g><g
           transform="translate(1474.5907,755.7222)"
           id="g68"><path
             id="path70"
             style="fill:none;stroke:#000000;stroke-width:4;stroke-linecap:butt;stroke-linejoin:miter;stroke-miterlimit:10;stroke-dasharray:none;stroke-opacity:1"
             d="M 0,0 V -160.218" /></g><g
           transform="translate(1550.7804,758.8333)"
           id="g72"><path
             id="path74"
             style="fill:none;stroke:#000000;stroke-width:4;stroke-linecap:butt;stroke-linejoin:miter;stroke-miterlimit:10;stroke-dasharray:none;stroke-opacity:1"
             d="M 0,0 V -121.33" /></g><g
           transform="translate(1622.3988,757.2777)"
           id="g76"><path
             id="path78"
             style="fill:none;stroke:#000000;stroke-width:4;stroke-linecap:butt;stroke-linejoin:miter;stroke-miterlimit:10;stroke-dasharray:none;stroke-opacity:1"
             d="M 0,0 V -160.218" /></g><g
           transform="translate(1698.5885,760.3887)"
           id="g80"><path
             id="path82"
             style="fill:none;stroke:#000000;stroke-width:4;stroke-linecap:butt;stroke-linejoin:miter;stroke-miterlimit:10;stroke-dasharray:none;stroke-opacity:1"
             d="M 0,0 V -121.33" /></g><g
           transform="translate(1774.7782,782.1659)"
           id="g84"><path
             id="path86"
             style="fill:none;stroke:#000000;stroke-width:4;stroke-linecap:butt;stroke-linejoin:miter;stroke-miterlimit:10;stroke-dasharray:none;stroke-opacity:1"
             d="M 0,0 V -160.218" /></g><g
           transform="translate(1843.3489,819.4982)"
           id="g88"><path
             id="path90"
             style="fill:none;stroke:#000000;stroke-width:4;stroke-linecap:butt;stroke-linejoin:miter;stroke-miterlimit:10;stroke-dasharray:none;stroke-opacity:1"
             d="M 0,0 V -121.33" /></g><g
           transform="translate(1905.8245,873.9411)"
           id="g92"><path
             id="path94"
             style="fill:none;stroke:#000000;stroke-width:4;stroke-linecap:butt;stroke-linejoin:miter;stroke-miterlimit:10;stroke-dasharray:none;stroke-opacity:1"
             d="M 0,0 V -189.772" /></g><g
           transform="translate(1957.6335,942.3837)"
           id="g96"><path
             id="path98"
             style="fill:none;stroke:#000000;stroke-width:4;stroke-linecap:butt;stroke-linejoin:miter;stroke-miterlimit:10;stroke-dasharray:none;stroke-opacity:1"
             d="M 0,0 V -164.884" /></g><g
           transform="translate(2000.6807,1043.8809)"
           id="g100"><path
             id="path102"
             style="fill:none;stroke:#000000;stroke-width:4;stroke-linecap:butt;stroke-linejoin:miter;stroke-miterlimit:10;stroke-dasharray:none;stroke-opacity:1"
             d="M 0,0 V -152.44" /></g><g
           transform="translate(1794.14,49.9207)"
           id="g104"><path
             id="path106"
             style="fill:none;stroke:#ffbf1f;stroke-width:14;stroke-linecap:round;stroke-linejoin:round;stroke-miterlimit:10;stroke-dasharray:none;stroke-opacity:1"
             d="M 0,0 22.095,-24.643 41.211,1.634" /></g><g
           transform="translate(898.7202,813.3529)"
           id="g108"><path
             id="path110"
             style="fill:#000000;fill-opacity:1;fill-rule:nonzero;stroke:none"
             d="m 0,0 c -0.197,0.291 -4.847,7.162 -7.639,10.106 -0.486,0.51 -1.283,0.527 -1.789,0.047 -0.507,-0.48 -0.529,-1.281 -0.049,-1.788 2.651,-2.794 7.333,-9.711 7.38,-9.781 0.115,-0.17 0.266,-0.305 0.435,-0.398 0.402,-0.223 0.915,-0.218 1.322,0.057 C 0.239,-1.365 0.391,-0.578 0,0" /></g><g
           transform="translate(905.7357,824.8771)"
           id="g112"><path
             id="path114"
             style="fill:#000000;fill-opacity:1;fill-rule:nonzero;stroke:none"
             d="m 0,0 c 0.579,0.392 0.731,1.179 0.34,1.757 -0.198,0.291 -4.848,7.162 -7.639,10.106 -0.486,0.51 -1.283,0.527 -1.79,0.047 -0.507,-0.48 -0.528,-1.281 -0.048,-1.788 2.651,-2.794 7.333,-9.711 7.379,-9.781 0.116,-0.17 0.267,-0.305 0.435,-0.398 C -0.92,-0.28 -0.408,-0.274 0,0" /></g><g
           transform="translate(877.3571,841.2494)"
           id="g116"><path
             id="path118"
             style="fill:#000000;fill-opacity:1;fill-rule:nonzero;stroke:none"
             d="m 0,0 -23.904,-43.164 c -1.69,-3.052 -0.582,-6.909 2.469,-8.599 l 55.339,-30.646 c 3.052,-1.69 6.909,-0.582 8.599,2.469 l 23.904,43.165 c 0.338,0.61 0.117,1.381 -0.494,1.719 -0.611,0.338 -1.381,0.117 -1.72,-0.494 L 40.289,-78.714 c -1.013,-1.831 -3.328,-2.495 -5.159,-1.482 l -26.562,14.711 1.441,2.602 c 1.663,-0.183 5.818,-0.838 9.865,-3.079 9.675,-5.358 16.138,-11.746 16.203,-11.809 0.083,-0.084 0.177,-0.155 0.279,-0.211 0.238,-0.132 0.515,-0.185 0.791,-0.146 0.392,0.056 0.737,0.293 0.929,0.64 l 26.969,48.698 c 0.273,0.494 0.186,1.11 -0.214,1.508 -0.272,0.272 -6.762,6.694 -16.763,12.232 -5.73,3.173 -11.503,3.449 -11.746,3.461 -0.479,0.019 -0.928,-0.233 -1.16,-0.652 L 11.709,-54.59 C 9.4,-50.803 3.886,-42.148 -2.216,-35.339 L 21.579,7.628 c 6.326,-7.779 11.435,-16.946 11.488,-17.043 0.34,-0.612 1.11,-0.832 1.72,-0.493 0.612,0.339 0.832,1.109 0.493,1.72 -0.059,0.105 -5.931,10.643 -12.947,18.869 -0.272,0.317 -0.679,0.48 -1.09,0.437 -0.414,-0.041 -0.78,-0.282 -0.981,-0.646 l -25.13,-45.378 c -0.264,-0.477 -0.193,-1.067 0.175,-1.469 7.937,-8.634 15.276,-21.257 15.349,-21.383 0.228,-0.395 0.652,-0.637 1.108,-0.632 0.455,0.004 0.873,0.254 1.094,0.652 l 24.12,43.554 c 1.672,-0.184 5.829,-0.845 9.864,-3.079 7.864,-4.355 13.605,-9.39 15.515,-11.158 L 36.651,-74.838 c -2.344,2.133 -7.928,6.868 -15.552,11.09 -4.763,2.638 -9.557,3.274 -11.178,3.42 -1.168,1.348 -5.028,5.555 -9.85,8.226 -7.418,4.107 -13.647,6 -16.52,6.731 L 9.207,0.957 c 0.406,-0.129 0.93,-0.3 1.554,-0.509 0.662,-0.222 1.379,0.134 1.601,0.798 0.222,0.661 -0.136,1.38 -0.796,1.601 C 9.932,3.396 8.957,3.683 8.957,3.683 8.388,3.852 7.779,3.601 7.492,3.082 l -26.969,-48.698 c -0.196,-0.355 -0.211,-0.784 -0.037,-1.152 0.175,-0.369 0.517,-0.63 0.911,-0.704 0.077,-0.014 7.806,-1.505 17.448,-6.844 4.143,-2.295 7.618,-5.939 8.919,-7.397 l -1.41,-2.546 -26.563,14.71 c -1.83,1.014 -2.495,3.328 -1.481,5.159 L 2.214,-1.226 C 2.552,-0.615 2.332,0.155 1.72,0.494 1.108,0.833 0.339,0.611 0,0" /></g><g
           transform="translate(902.3978,819.9936)"
           id="g120"><path
             id="path122"
             style="fill:#000000;fill-opacity:1;fill-rule:nonzero;stroke:none"
             d="m 0,0 c -0.197,0.291 -4.847,7.162 -7.639,10.106 -0.486,0.51 -1.283,0.527 -1.789,0.047 -0.507,-0.48 -0.529,-1.281 -0.049,-1.788 2.651,-2.794 7.333,-9.711 7.38,-9.781 0.115,-0.17 0.266,-0.305 0.435,-0.398 0.402,-0.223 0.915,-0.218 1.322,0.057 C 0.239,-1.365 0.391,-0.578 0,0" /></g><g
           transform="translate(895.0427,806.7123)"
           id="g124"><path
             id="path126"
             style="fill:#000000;fill-opacity:1;fill-rule:nonzero;stroke:none"
             d="m 0,0 c -0.197,0.291 -4.847,7.162 -7.639,10.106 -0.486,0.51 -1.283,0.527 -1.789,0.047 -0.507,-0.48 -0.529,-1.281 -0.049,-1.788 2.651,-2.794 7.333,-9.711 7.38,-9.781 0.115,-0.17 0.266,-0.305 0.434,-0.398 0.403,-0.223 0.916,-0.218 1.323,0.057 C 0.239,-1.365 0.391,-0.578 0,0" /></g><g
           transform="translate(913.8192,815.6209)"
           id="g128"><path
             id="path130"
             style="fill:#000000;fill-opacity:1;fill-rule:nonzero;stroke:none"
             d="m 0,0 c -0.19,-0.673 0.204,-1.373 0.873,-1.562 7.116,-2.01 13.504,-8.118 13.567,-8.18 0.082,-0.079 0.172,-0.144 0.267,-0.197 0.488,-0.271 1.115,-0.193 1.522,0.228 0.485,0.504 0.471,1.305 -0.032,1.789 C 15.919,-7.653 9.284,-1.309 1.562,0.872 0.889,1.062 0.19,0.671 0,0" /></g><g
           transform="translate(910.1416,808.9802)"
           id="g132"><path
             id="path134"
             style="fill:#000000;fill-opacity:1;fill-rule:nonzero;stroke:none"
             d="m 0,0 c -0.19,-0.673 0.204,-1.373 0.873,-1.562 7.116,-2.01 13.504,-8.118 13.567,-8.18 0.082,-0.079 0.172,-0.144 0.267,-0.197 0.488,-0.271 1.115,-0.193 1.522,0.228 0.485,0.504 0.471,1.305 -0.032,1.79 C 15.919,-7.653 9.284,-1.31 1.562,0.872 0.889,1.062 0.19,0.671 0,0" /></g><g
           transform="translate(891.3652,800.0716)"
           id="g136"><path
             id="path138"
             style="fill:#000000;fill-opacity:1;fill-rule:nonzero;stroke:none"
             d="m 0,0 c -0.197,0.291 -4.847,7.162 -7.639,10.106 -0.486,0.51 -1.283,0.527 -1.789,0.047 -0.507,-0.48 -0.529,-1.281 -0.049,-1.788 2.651,-2.794 7.333,-9.711 7.38,-9.781 0.115,-0.17 0.266,-0.305 0.434,-0.398 0.403,-0.223 0.916,-0.218 1.323,0.057 C 0.239,-1.365 0.391,-0.578 0,0" /></g><g
           transform="translate(906.4641,802.3396)"
           id="g140"><path
             id="path142"
             style="fill:#000000;fill-opacity:1;fill-rule:nonzero;stroke:none"
             d="m 0,0 c -0.19,-0.673 0.204,-1.373 0.873,-1.562 7.116,-2.01 13.504,-8.118 13.567,-8.18 0.082,-0.079 0.171,-0.146 0.266,-0.198 0.488,-0.271 1.116,-0.192 1.523,0.229 0.485,0.504 0.47,1.305 -0.032,1.789 C 15.92,-7.652 9.284,-1.31 1.562,0.872 0.889,1.062 0.19,0.671 0,0" /></g><g
           transform="translate(899.109,789.0582)"
           id="g144"><path
             id="path146"
             style="fill:#000000;fill-opacity:1;fill-rule:nonzero;stroke:none"
             d="m 0,0 c -0.19,-0.673 0.205,-1.372 0.873,-1.562 7.116,-2.01 13.504,-8.118 13.567,-8.18 0.082,-0.079 0.171,-0.146 0.266,-0.198 0.488,-0.271 1.116,-0.192 1.523,0.229 0.485,0.504 0.47,1.305 -0.032,1.789 C 15.919,-7.653 9.284,-1.309 1.562,0.872 0.889,1.062 0.19,0.671 0,0" /></g><g
           transform="translate(902.7866,795.6989)"
           id="g148"><path
             id="path150"
             style="fill:#000000;fill-opacity:1;fill-rule:nonzero;stroke:none"
             d="m 0,0 c -0.19,-0.673 0.204,-1.373 0.873,-1.562 7.116,-2.01 13.504,-8.118 13.567,-8.18 0.082,-0.079 0.171,-0.146 0.266,-0.198 0.488,-0.271 1.116,-0.192 1.523,0.229 0.485,0.504 0.47,1.305 -0.032,1.789 C 15.92,-7.652 9.284,-1.309 1.562,0.872 0.889,1.062 0.19,0.671 0,0" /></g><g
           transform="translate(2196.6099,1339.5438)"
           id="g152"><path
             id="path154"
             style="fill:#ffffff;fill-opacity:1;fill-rule:nonzero;stroke:none"
             d="m 0,0 -10.685,-23.64 c 0,0 -0.6,-10 -3.639,-10.651 -3.038,-0.651 -10.634,-2.17 -10.634,-2.17 L -42.321,-10.2 -25.68,19.921 Z" /></g><g
           transform="translate(2196.6099,1339.5438)"
           id="g156"><path
             id="path158"
             style="fill:none;stroke:#000000;stroke-width:2;stroke-linecap:butt;stroke-linejoin:miter;stroke-miterlimit:10;stroke-dasharray:none;stroke-opacity:1"
             d="m 0,0 -10.685,-23.64 c 0,0 -0.6,-10 -3.639,-10.651 -3.038,-0.651 -10.634,-2.17 -10.634,-2.17 L -42.321,-10.2 -25.68,19.921 Z" /></g><g
           transform="translate(2113.7065,988.6692)"
           id="g160"><path
             id="path162"
             style="fill:#ff3e3e;fill-opacity:1;fill-rule:nonzero;stroke:none"
             d="m 0,0 c 0,0 -18.674,-9.46 -17.598,-16.427 1.077,-6.967 22.652,-35.443 22.652,-35.443 0,0 40.417,-35.429 42.816,-24.124 2.399,11.306 -16.072,31.19 -20.032,41.484 -3.96,10.294 -2.333,15.096 -2.333,15.096 z" /></g><g
           transform="translate(2118.533,989.0831)"
           id="g164"><path
             id="path166"
             style="fill:none;stroke:#000000;stroke-width:2;stroke-linecap:butt;stroke-linejoin:miter;stroke-miterlimit:10;stroke-dasharray:none;stroke-opacity:1"
             d="m 0,0 c 0,0 -17.903,-9.007 -16.845,-15.691 1.058,-6.685 21.877,-34.064 21.877,-34.064 0,0 38.939,-34.111 41.204,-23.279 2.265,10.833 -15.543,29.963 -19.381,39.847 -3.839,9.885 -2.293,14.483 -2.293,14.483 z" /></g><g
           transform="translate(2222.6023,983.8008)"
           id="g168"><path
             id="path170"
             style="fill:#ff3e3e;fill-opacity:1;fill-rule:nonzero;stroke:none"
             d="m 0,0 c 0,0 -8.342,-18.222 -3.337,-22.778 5.005,-4.555 38.371,-12.907 38.371,-12.907 0,0 51.718,-2.278 46.713,7.592 -5.005,9.871 -30.864,13.667 -40.039,18.982 -9.176,5.315 -10.844,9.87 -10.844,9.87 z" /></g><g
           transform="translate(2223.136,988.7134)"
           id="g172"><path
             id="path174"
             style="fill:none;stroke:#000000;stroke-width:2;stroke-linecap:butt;stroke-linejoin:miter;stroke-miterlimit:10;stroke-dasharray:none;stroke-opacity:1"
             d="m 0,0 c 0,0 -8.342,-18.222 -3.337,-22.778 5.005,-4.555 38.371,-12.907 38.371,-12.907 0,0 51.718,-2.278 46.713,7.592 -5.005,9.871 -30.864,13.667 -40.039,18.982 -9.176,5.315 -10.844,9.87 -10.844,9.87 z" /></g><g
           transform="translate(2182.3518,1186.9797)"
           id="g176"><path
             id="path178"
             style="fill:#ffffff;fill-opacity:1;fill-rule:nonzero;stroke:none"
             d="m 0,0 c 0,0 113.122,-46.252 113.122,-57.706 0,-11.453 -33.687,-144.701 -33.687,-144.701 l -37.373,5.183 17.229,107.448 -106.518,81.321 z" /></g><g
           transform="translate(2182.3518,1186.9797)"
           id="g180"><path
             id="path182"
             style="fill:none;stroke:#000000;stroke-width:3;stroke-linecap:round;stroke-linejoin:round;stroke-miterlimit:10;stroke-dasharray:none;stroke-opacity:1"
             d="m 0,0 c 0,0 113.122,-46.252 113.122,-57.706 0,-11.453 -33.687,-144.701 -33.687,-144.701 l -37.373,5.183 17.229,107.448 -106.518,81.321 z" /></g><g
           transform="translate(2139.4204,966.0638)"
           id="g184"><path
             id="path186"
             style="fill:#ffffff;fill-opacity:1;fill-rule:nonzero;stroke:none"
             d="m 0,0 125.621,123.027 c 2.944,2.883 3.125,7.564 0.411,10.666 l -83.488,87.223 -69.296,-9.678 3.203,-35.122 L 52.41,132.295 -24.911,24.052 Z" /></g><g
           transform="translate(2139.4204,966.0638)"
           id="g188"><path
             id="path190"
             style="fill:none;stroke:#000000;stroke-width:3;stroke-linecap:round;stroke-linejoin:round;stroke-miterlimit:10;stroke-dasharray:none;stroke-opacity:1"
             d="m 0,0 125.621,123.027 c 2.944,2.883 3.125,7.564 0.411,10.666 l -83.488,87.223 -69.296,-9.678 3.203,-35.122 L 52.41,132.295 -24.911,24.052 Z" /></g><g
           transform="translate(2140.9814,1306.9008)"
           id="g192"><path
             id="path194"
             style="fill:#ff3e3e;fill-opacity:1;fill-rule:nonzero;stroke:none"
             d="m 0,0 71.565,-56.365 109.564,-16.467 -4.433,-15.199 -140.597,2.533 -48.765,79.165" /></g><g
           transform="translate(2112.6162,1176.7295)"
           id="g196"><path
             id="path198"
             style="fill:#ff3e3e;fill-opacity:1;fill-rule:nonzero;stroke:none"
             d="m 0,0 69.745,10.704 c 0,0 2.625,20.002 10.453,48.122 8.197,29.465 19.597,79.903 19.035,84.308 -0.561,4.403 -17.371,12.497 -17.371,12.497 l -9.982,-10.374 -11.503,-9.984 -9.942,33.525 c -1.417,0.468 -13.471,-0.143 -16.791,-0.501 -3.452,0.74 -14.877,-1.724 -18.44,-2.622 -4.28,-1.057 -8.959,-1.72 -12.442,-5.076 -3.439,-3.332 -3.758,-8.439 -3.572,-13.21 0.161,-4.348 0.337,-8.694 0.542,-13.018 0.359,-8.157 0.805,-16.494 1.32,-24.518 C 1.82,97.835 2.653,85.811 3.578,73.802 l 0.298,-0.109 z" /></g><g
           transform="translate(2288.8433,1247.6936)"
           id="g200"><path
             id="path202"
             style="fill:#ffa17c;fill-opacity:1;fill-rule:nonzero;stroke:none"
             d="m 0,0 c 0,0 8.966,5.313 12.286,5.645 3.321,0.332 33.206,-16.935 31.546,-18.263 -1.66,-1.328 -20.92,0.332 -21.916,0.332 -0.996,0 -14.244,-2.955 -14.244,-2.955 z" /></g><g
           transform="translate(2189.7471,1284.1013)"
           id="g204"><path
             id="path206"
             style="fill:#ff3e3e;fill-opacity:1;fill-rule:nonzero;stroke:none"
             d="m 0,0 37.999,-39.899 67.765,-23.433 16.466,17.1 L 69.032,-18.366 20.881,38.344 -7.6,16.466 Z" /></g><g
           transform="translate(2300.0327,1242.7113)"
           id="g208"><path
             id="path210"
             style="fill:#f9e2c5;fill-opacity:1;fill-rule:nonzero;stroke:none"
             d="m 0,0 -7.982,-1.086 -3.107,22.836 7.982,1.086 z" /></g><g
           transform="translate(2296.5154,1232.4523)"
           id="g212"><path
             id="path214"
             style="fill:#f9e2c5;fill-opacity:1;fill-rule:nonzero;stroke:none"
             d="m 0,0 -7.982,-1.086 -3.107,22.836 7.982,1.086 z" /></g><g
           transform="translate(2302.3779,1224.7227)"
           id="g216"><path
             id="path218"
             style="fill:#ffffff;fill-opacity:1;fill-rule:nonzero;stroke:none"
             d="M 0,0 H -80.783 V -4.314 H 1.177 C 1.177,-4.314 -1.177,0 0,0" /></g><g
           transform="translate(2302.3779,1224.7227)"
           id="g220"><path
             id="path222"
             style="fill:none;stroke:#000000;stroke-width:2;stroke-linecap:round;stroke-linejoin:round;stroke-miterlimit:10;stroke-dasharray:none;stroke-opacity:1"
             d="M 0,0 H -80.783 V -4.314 H 1.177 C 1.177,-4.314 -1.177,0 0,0 Z" /></g><g
           transform="translate(2394.9258,1280.4082)"
           id="g224"><path
             id="path226"
             style="fill:#ffffff;fill-opacity:1;fill-rule:nonzero;stroke:none"
             d="m 0,0 -31.764,-60.784 -99.191,-0.12 36.054,62.473 z" /></g><g
           transform="translate(2394.9258,1280.4082)"
           id="g228"><path
             id="path230"
             style="fill:none;stroke:#000000;stroke-width:2;stroke-linecap:round;stroke-linejoin:round;stroke-miterlimit:10;stroke-dasharray:none;stroke-opacity:1"
             d="m 0,0 -31.764,-60.784 -99.191,-0.12 36.054,62.473 z" /></g><g
           transform="translate(2185.9473,1223.3027)"
           id="g232"><path
             id="path234"
             style="fill:none;stroke:#ffffff;stroke-width:2;stroke-linecap:butt;stroke-linejoin:miter;stroke-miterlimit:10;stroke-dasharray:none;stroke-opacity:1"
             d="M 0,0 -60.799,56.999" /></g><g
           transform="translate(2199.8801,1261.3018)"
           id="g236"><path
             id="path238"
             style="fill:none;stroke:#ffffff;stroke-width:2;stroke-linecap:butt;stroke-linejoin:miter;stroke-miterlimit:10;stroke-dasharray:none;stroke-opacity:1"
             d="M 0,0 -50.032,49.399" /></g><g
           transform="translate(2198.9688,1328.8629)"
           id="g240"><path
             id="path242"
             style="fill:none;stroke:#ffffff;stroke-width:1;stroke-linecap:butt;stroke-linejoin:miter;stroke-miterlimit:10;stroke-dasharray:none;stroke-opacity:1"
             d="m 0,0 -27.443,-23.946 -17.22,40.358" /></g><g
           transform="translate(2163.2292,1374.0599)"
           id="g244"><path
             id="path246"
             style="fill:#ffffff;fill-opacity:1;fill-rule:nonzero;stroke:none"
             d="m 0,0 0.25,-1.31 1.71,-8.79 0.23,-1.17 C 4.07,-21 11.1,-28.94 20.54,-31.96 l 7.43,-3.01 c 5.13,-1.49 14.78,4.45 16.26,9.61 l 0.65,1.66 13.35,33.88 0.77,1.96 c 0.03,0.05 0.71,1.17 0.74,1.29 l -0.91,3.84 c 0.26,0.87 0.37,1.75 0.36,2.62 0.04,4.26 -2.76,8.2 -7.04,9.42 L 17.42,39.27 C 13.55,40.38 9.52,38.95 7.14,35.98 7.11,35.95 7.09,35.92 7.07,35.89 6.32,34.94 5.74,33.83 5.39,32.61 l -2,-12.08 V 20.5 L 3.13,18.9 2.94,17.78 1.36,8.24 0.02,0.14 Z" /></g><g
           transform="translate(2163.2292,1374.0599)"
           id="g248"><path
             id="path250"
             style="fill:none;stroke:#000000;stroke-width:2;stroke-linecap:butt;stroke-linejoin:miter;stroke-miterlimit:10;stroke-dasharray:none;stroke-opacity:1"
             d="m 0,0 0.25,-1.31 1.71,-8.79 0.23,-1.17 C 4.07,-21 11.1,-28.94 20.54,-31.96 l 7.43,-3.01 c 5.13,-1.49 14.78,4.45 16.26,9.61 l 0.65,1.66 13.35,33.88 0.77,1.96 c 0.03,0.05 0.71,1.17 0.74,1.29 l -0.91,3.84 c 0.26,0.87 0.37,1.75 0.36,2.62 0.04,4.26 -2.76,8.2 -7.04,9.42 L 17.42,39.27 C 13.55,40.38 9.52,38.95 7.14,35.98 7.11,35.95 7.09,35.92 7.07,35.89 6.32,34.94 5.74,33.83 5.39,32.61 l -2,-12.08 V 20.5 L 3.13,18.9 2.94,17.78 1.36,8.24 0.02,0.14 Z" /></g><g
           transform="translate(2188.1909,1388.8893)"
           id="g252"><path
             id="path254"
             style="fill:none;stroke:#000000;stroke-width:2;stroke-linecap:butt;stroke-linejoin:miter;stroke-miterlimit:10;stroke-dasharray:none;stroke-opacity:1"
             d="M 0,0 9.943,-4.283" /></g><g
           transform="translate(2206.363,1381.0963)"
           id="g256"><path
             id="path258"
             style="fill:none;stroke:#000000;stroke-width:2;stroke-linecap:butt;stroke-linejoin:miter;stroke-miterlimit:10;stroke-dasharray:none;stroke-opacity:1"
             d="M 0,0 9.943,-4.283" /></g><g
           transform="translate(2199.5132,1371.7452)"
           id="g260"><path
             id="path262"
             style="fill:none;stroke:#000000;stroke-width:2;stroke-linecap:round;stroke-linejoin:miter;stroke-miterlimit:10;stroke-dasharray:none;stroke-opacity:1"
             d="m 0,0 -0.652,-8.433 c -0.096,-1.249 -1.365,-2.053 -2.536,-1.609 l -3.532,1.344" /></g><g
           transform="translate(2191.1868,1373.2715)"
           id="g264"><path
             id="path266"
             style="fill:#fff6e9;fill-opacity:1;fill-rule:nonzero;stroke:none"
             d="m 0,0 -4.777,2.223 c -0.77,0.359 -1.107,1.282 -0.749,2.052 l 2.356,5.061 c 0.358,0.77 1.282,1.107 2.052,0.748 L 3.659,7.861 C 4.429,7.503 4.766,6.579 4.407,5.809 L 2.052,0.748 C 1.693,-0.022 0.77,-0.358 0,0" /></g><g
           transform="translate(2191.8811,1374.6298)"
           id="g268"><path
             id="path270"
             style="fill:#3a231e;fill-opacity:1;fill-rule:nonzero;stroke:none"
             d="M 0,0 -2.036,0.948 C -2.806,1.306 -3.143,2.229 -2.785,3 l 0.954,2.05 c 0.359,0.77 1.282,1.107 2.052,0.748 L 2.258,4.85 C 3.028,4.492 3.364,3.569 3.006,2.799 L 2.052,0.748 C 1.693,-0.022 0.77,-0.358 0,0" /></g><g
           transform="translate(2191.8843,1374.6367)"
           id="g272"><path
             id="path274"
             style="fill:#000000;fill-opacity:1;fill-rule:nonzero;stroke:none"
             d="M 0,0 -2.036,0.948 C -2.806,1.306 -3.143,2.229 -2.785,3 l 0.948,2.036 c 0.358,0.77 1.282,1.107 2.052,0.748 L 2.251,4.837 C 3.021,4.478 3.358,3.555 3,2.785 L 2.052,0.748 C 1.693,-0.021 0.77,-0.358 0,0" /></g><g
           transform="translate(2194.1648,1376.3777)"
           id="g276"><path
             id="path278"
             style="fill:#fff6e9;fill-opacity:1;fill-rule:nonzero;stroke:none"
             d="m 0,0 c -0.067,-0.592 -0.602,-1.018 -1.194,-0.952 -0.592,0.067 -1.018,0.602 -0.952,1.194 0.067,0.593 0.602,1.019 1.194,0.952 C -0.359,1.127 0.067,0.593 0,0" /></g><g
           transform="translate(2208.8723,1365.4039)"
           id="g280"><path
             id="path282"
             style="fill:#fff6e9;fill-opacity:1;fill-rule:nonzero;stroke:none"
             d="m 0,0 -4.777,2.223 c -0.77,0.359 -1.107,1.282 -0.749,2.052 l 2.356,5.061 c 0.358,0.77 1.282,1.107 2.052,0.748 L 3.659,7.861 C 4.429,7.503 4.765,6.579 4.407,5.809 L 2.052,0.748 C 1.693,-0.022 0.77,-0.358 0,0" /></g><g
           transform="translate(2209.5667,1366.7622)"
           id="g284"><path
             id="path286"
             style="fill:#3a231e;fill-opacity:1;fill-rule:nonzero;stroke:none"
             d="M 0,0 -2.037,0.948 C -2.807,1.306 -3.143,2.229 -2.785,3 l 0.954,2.05 c 0.359,0.77 1.282,1.107 2.052,0.748 L 2.258,4.85 C 3.028,4.492 3.364,3.569 3.006,2.799 L 2.052,0.748 C 1.693,-0.021 0.77,-0.358 0,0" /></g><g
           transform="translate(2209.5698,1366.7693)"
           id="g288"><path
             id="path290"
             style="fill:#000000;fill-opacity:1;fill-rule:nonzero;stroke:none"
             d="m 0,0 -2.036,0.948 c -0.77,0.358 -1.107,1.281 -0.749,2.051 l 0.948,2.037 c 0.358,0.77 1.282,1.107 2.052,0.748 L 2.251,4.836 C 3.021,4.478 3.358,3.555 3,2.785 L 2.052,0.748 C 1.693,-0.022 0.77,-0.358 0,0" /></g><g
           transform="translate(2211.8501,1368.5101)"
           id="g292"><path
             id="path294"
             style="fill:#fff6e9;fill-opacity:1;fill-rule:nonzero;stroke:none"
             d="m 0,0 c -0.067,-0.592 -0.601,-1.018 -1.194,-0.952 -0.592,0.067 -1.018,0.602 -0.952,1.194 0.067,0.593 0.602,1.019 1.195,0.952 C -0.359,1.127 0.067,0.593 0,0" /></g><g
           transform="translate(2182.7683,1401.8812)"
           id="g296"><path
             id="path298"
             style="fill:#ffffff;fill-opacity:1;fill-rule:nonzero;stroke:#000000;stroke-width:2;stroke-linecap:butt;stroke-linejoin:miter;stroke-miterlimit:10;stroke-dasharray:none;stroke-opacity:1"
             d="m 0,0 c 9.822,-6.065 11.313,-5.341 20.942,-10.302 6.802,-4.797 20.496,-8.499 28.487,-9.57 4.591,-0.615 9.958,0.797 12.046,4.931 2.088,4.134 -1.838,10.39 -6.228,8.913 5.756,3.428 9.274,9.943 10.027,16.6 0.753,6.657 -1.013,13.412 -3.964,19.426 C 57.854,37.041 50.523,44 43.121,41.399 43.265,38.86 43.408,36.321 43.552,33.782 38.242,46.656 23.584,54.954 9.814,52.883 8.206,52.641 6.573,52.256 5.229,51.341 0.53,48.145 1.795,41.106 1.114,35.464 c -0.589,6.86 -9.335,11.289 -15.498,8.22 -6.164,-3.068 -8.176,-11.962 -4.465,-17.761 -0.957,1.497 -4.228,-4.03 -4.356,-4.664 -0.5,-2.477 0.911,-4.677 1.177,-6.892" /></g><g
           transform="translate(2202.1587,1354.8429)"
           id="g300"><path
             id="path302"
             style="fill:#ffffff;fill-opacity:1;fill-rule:nonzero;stroke:none"
             d="m 0,0 c 0,0 -0.09,-1.24 -0.723,-2.605 -0.573,-1.212 -1.62,-2.553 -3.403,-3.158 -1.572,-0.548 -3.734,-0.526 -6.657,0.666 -4.191,1.716 -5.401,4.105 -5.431,6.253 -0.022,1.108 0.265,2.164 0.626,3.008 0.584,1.419 1.401,2.375 1.401,2.375 C -8.729,3.694 -5.882,2.385 0,0" /></g></g></g><g
       id="g304"><g
         clip-path="url(#clipPath310)"
         id="g306"><g
           transform="translate(2187.9421,1362.2749)"
           id="g312"><path
             id="path314"
             style="fill:#fff6e9;fill-opacity:1;fill-rule:nonzero;stroke:none"
             d="m 0,0 c 0,0 -0.234,-2.149 -0.157,-2.694 0.076,-0.546 11.939,-6.646 12.611,-6.253 0.672,0.394 2.605,2.011 2.605,2.011 z" /></g></g></g><g
       id="g316"><g
         clip-path="url(#clipPath322)"
         id="g318"><g
           transform="translate(2202.1587,1354.8429)"
           id="g324"><path
             id="path326"
             style="fill:none;stroke:#000000;stroke-width:2;stroke-linecap:butt;stroke-linejoin:miter;stroke-miterlimit:10;stroke-dasharray:none;stroke-opacity:1"
             d="m 0,0 c 0,0 -0.09,-1.24 -0.723,-2.605 -0.573,-1.212 -1.62,-2.553 -3.403,-3.158 -1.572,-0.548 -3.734,-0.526 -6.657,0.666 -4.191,1.716 -5.401,4.105 -5.431,6.253 -0.022,1.108 0.265,2.164 0.626,3.008 0.584,1.419 1.401,2.375 1.401,2.375 C -8.729,3.694 -5.882,2.385 0,0 Z" /></g><g
           transform="translate(2160.8594,1376.2688)"
           id="g328"><path
             id="path330"
             style="fill:#dddddd;fill-opacity:1;fill-rule:nonzero;stroke:none"
             d="m 0,0 c 1.016,-1.444 2.021,-2.49 2.583,-3.033 l 1.686,-8.517 0.227,-1.133 C 6.35,-22.111 13.282,-29.804 22.59,-32.73 l 7.326,-2.917 c 5.059,-1.443 14.574,4.312 16.033,9.312 l 0.641,1.608 -0.108,0.116 c 0,0 -6.548,-7.199 -13.489,-7.199 -6.932,0 -25.056,10.988 -21.585,28.409 L 11.813,3.381 12.177,9.476 7.168,12.121 7.08,11.976 6.547,11.065 3.678,6.22 Z" /></g><g
           transform="translate(2161.2527,1417.2794)"
           id="g332"><path
             id="path334"
             style="fill:#ffffff;fill-opacity:1;fill-rule:nonzero;stroke:#000000;stroke-width:2;stroke-linecap:butt;stroke-linejoin:miter;stroke-miterlimit:10;stroke-dasharray:none;stroke-opacity:1"
             d="m 0,0 c 0,0 -0.034,-0.012 -0.104,-0.051 -0.37,-0.838 -0.977,-1.534 -1.352,-2.37 -3.334,-7.432 -4.228,-11.087 -2.737,-18.003 0.934,-4.328 -0.476,-7.125 -0.055,-9.018 0.05,0.139 0.101,0.277 0.17,0.429 3.302,7.709 8.372,6.129 10.333,1.312 1.961,-4.817 3.16,-8.73 3.16,-8.73 l 2.229,-1.515 c 0,0 0.921,15.546 4.464,15.745 3.53,0.217 5.281,-1.092 6.102,0.832 0.558,1.281 -1.172,4.247 -0.857,6.285 l -0.375,0.938" /></g><g
           transform="translate(2160.8594,1375.88)"
           id="g336"><path
             id="path338"
             style="fill:#ffffff;fill-opacity:1;fill-rule:nonzero;stroke:none"
             d="M 0,0 C 1.03,-1.49 2.05,-2.57 2.62,-3.13 2.9,-3.4 3.07,-3.54 3.07,-3.54 l 3.57,14.96 0.34,1.45 0.22,0.91 -1.7,3.3 -0.91,1.76 c 0,0 -3.59,0.6 -5.92,-2.68 -0.01,-0.01 -0.02,-0.02 -0.03,-0.04 -0.77,-1.11 -1.4,-2.65 -1.71,-4.8 C -3.73,6.65 -1.86,2.67 0,0" /></g><g
           transform="translate(2160.8594,1375.88)"
           id="g340"><path
             id="path342"
             style="fill:none;stroke:#000000;stroke-width:2;stroke-linecap:butt;stroke-linejoin:miter;stroke-miterlimit:10;stroke-dasharray:none;stroke-opacity:1"
             d="M 0,0 C 1.03,-1.49 2.05,-2.57 2.62,-3.13 2.9,-3.4 3.07,-3.54 3.07,-3.54 l 3.57,14.96 0.34,1.45 0.22,0.91 -1.7,3.3 -0.91,1.76 c 0,0 -3.59,0.6 -5.92,-2.68 -0.01,-0.01 -0.02,-0.02 -0.03,-0.04 -0.77,-1.11 -1.4,-2.65 -1.71,-4.8 C -3.73,6.65 -1.86,2.67 0,0 Z" /></g><g
           transform="translate(2436.6267,1306.2036)"
           id="g344"><path
             id="path346"
             style="fill:#000000;fill-opacity:1;fill-rule:nonzero;stroke:none"
             d="m 0,0 6.666,2.119 c 2.45,0.779 3.81,3.405 3.031,5.856 l -2.119,6.665 22.219,7.063 c 1.225,0.389 2.539,-0.291 2.929,-1.516 L 46.85,-24.251 c 0.389,-1.225 -0.291,-2.539 -1.516,-2.928 l -31.107,-9.887 c -1.225,-0.389 -2.539,0.291 -2.928,1.516 z M 7.475,7.269 C 7.865,6.044 7.184,4.73 5.959,4.34 L 0.865,2.721 5.856,12.363 Z M -2.575,0.405 9.077,-36.257 c 0.779,-2.451 3.406,-3.81 5.856,-3.031 l 31.107,9.887 c 2.451,0.779 3.811,3.405 3.032,5.856 L 34.948,20.893 c -0.78,2.451 -3.406,3.81 -5.857,3.031 L 5.761,16.509 C 5.466,16.416 5.221,16.209 5.079,15.934 L -2.499,1.294 C -2.641,1.019 -2.669,0.7 -2.575,0.405" /></g><g
           transform="translate(2452.2231,1287.9203)"
           id="g348"><path
             id="path350"
             style="fill:#000000;fill-opacity:1;fill-rule:nonzero;stroke:none"
             d="M 0,0 C 0.13,0.041 0.367,0.097 0.691,0.162 0.015,-0.7 -0.554,-1.335 -0.836,-1.496 -1.869,-1.817 -1.935,-1.61 -2.093,-1.111 -2.056,-0.83 -1.641,-0.522 0,0 M 5.631,3.203 C 6.132,4.008 6.499,4.641 6.641,4.916 7.005,5.618 7.337,6.295 7.636,6.95 8.285,6.054 9.009,5.061 9.815,3.956 9.943,3.779 10.072,3.605 10.203,3.434 8.669,3.433 7.095,3.34 5.631,3.203 m 1.359,8.654 c -1.153,1.647 -1.838,2.72 -1.987,3.188 -0.706,2.222 -0.38,2.326 0.405,2.575 0.389,0.124 1.111,0.353 1.851,-1.975 C 7.535,14.776 7.436,13.477 6.99,11.857 M 16.283,0.512 c 0.171,-0.023 0.34,-0.045 0.506,-0.068 2.614,-0.354 5.316,-0.72 5.566,-1.508 -0.028,-0.072 -0.362,-0.508 -0.997,-0.71 -0.63,-0.2 -2.637,0.397 -5.075,2.286 M -0.706,2.222 C -2.149,1.763 -5.15,0.81 -4.315,-1.817 c 0.424,-1.335 1.509,-2.744 4.263,-1.869 0.995,0.316 2.614,2.337 4.019,4.358 2.458,0.305 5.618,0.548 8.28,0.367 3.755,-3.924 7.752,-5.691 9.817,-5.035 1.603,0.51 3.019,2.046 2.513,3.638 -0.697,2.194 -3.393,2.56 -7.475,3.112 -0.895,0.122 -1.86,0.252 -2.883,0.413 -0.284,0.045 -0.576,0.082 -0.874,0.115 -0.55,0.616 -1.1,1.297 -1.647,2.046 -1.137,1.563 -2.147,2.949 -3.015,4.153 1.057,2.911 1.325,5.213 0.798,6.87 C 8.286,20.112 6.222,20.325 4.702,19.842 2.701,19.206 1.609,18.027 2.781,14.339 3.057,13.471 4.023,11.985 6.049,9.152 5.642,8.162 5.149,7.103 4.571,5.987 4.127,5.13 3.414,3.987 2.643,2.85 0.986,2.614 -0.258,2.364 -0.706,2.222" /></g><g
           transform="translate(2357.8396,1372.0707)"
           id="g352"><path
             id="path354"
             style="fill:#000000;fill-opacity:1;fill-rule:nonzero;stroke:none"
             d="m 0,0 5.522,4.859 c -1.081,1.27 -3.017,3.799 -4.679,7.33 -1.416,3.011 -9.78,8.569 -17.969,8.569 -2.633,0 -4.998,-0.562 -7.072,-1.676 3.175,-0.294 8.925,-1.637 11.88,-7.318 0.173,-0.334 0.177,-0.731 0.008,-1.067 l -2.834,-5.667 5.751,-5.271 c 0.969,0.516 2.73,1.268 5.026,1.477 0.252,0.023 0.493,0.034 0.721,0.034 1.7,0 2.888,-0.596 3.646,-1.27 m -10.34,-2.562 -7.046,6.458 c -0.386,0.355 -0.491,0.923 -0.257,1.392 l 2.954,5.905 c -3.073,5.202 -9.244,5.618 -11.11,5.618 -0.245,0 -0.389,-0.008 -0.49,-0.012 l -1.469,0.012 c -0.482,0.003 -0.914,0.302 -1.086,0.754 -0.174,0.45 -0.053,0.961 0.302,1.286 3.086,2.825 6.926,4.256 11.413,4.256 8.95,0 18.215,-5.923 20.096,-9.917 C 5.19,8.465 7.992,5.62 8.02,5.593 8.248,5.364 8.372,5.048 8.362,4.726 8.351,4.4 8.207,4.096 7.964,3.882 L 0.625,-2.577 c -0.274,-0.241 -0.65,-0.33 -1.012,-0.256 -0.358,0.072 -0.67,0.321 -0.832,0.649 -0.061,0.124 -0.73,1.284 -2.936,1.08 -2.841,-0.257 -4.694,-1.537 -4.712,-1.55 -0.205,-0.145 -0.442,-0.216 -0.679,-0.216 -0.286,0 -0.569,0.105 -0.794,0.308" /></g><g
           transform="translate(2366.981,1372.834)"
           id="g356"><path
             id="path358"
             style="fill:#000000;fill-opacity:1;fill-rule:nonzero;stroke:none"
             d="m 0,0 -5.904,-5.222 2.631,-3.194 6.108,5.203 z m -3.523,-11.255 c -0.314,0.026 -0.604,0.179 -0.803,0.422 l -4.11,4.991 c -0.403,0.489 -0.347,1.209 0.127,1.627 l 7.634,6.752 c 0.234,0.206 0.537,0.31 0.85,0.292 C 0.487,2.809 0.776,2.667 0.983,2.434 L 5.387,-2.557 C 5.596,-2.792 5.701,-3.103 5.677,-3.417 5.655,-3.73 5.507,-4.022 5.267,-4.228 L -2.66,-10.98 c -0.213,-0.181 -0.484,-0.28 -0.761,-0.28 -0.034,0 -0.069,0.002 -0.102,0.005" /></g><g
           transform="translate(2344.6238,1367.7715)"
           id="g360"><path
             id="path362"
             style="fill:#000000;fill-opacity:1;fill-rule:nonzero;stroke:none"
             d="M 0,0 -6.34,5.534 -21.647,-9.399 -41.51,-28.455 c -0.179,-0.907 0.571,-2.998 2.617,-5.043 2.106,-2.108 4.323,-2.849 5.151,-2.569 z m -40.555,-35.162 c -2.687,2.688 -3.915,5.828 -3.059,7.814 0.063,0.144 0.152,0.274 0.266,0.383 l 20.069,19.253 16.075,15.685 c 0.438,0.426 1.131,0.444 1.59,0.044 L 2.46,0.971 C 2.701,0.761 2.845,0.464 2.862,0.145 2.877,-0.173 2.765,-0.484 2.546,-0.717 l -34.723,-37.118 c -0.081,-0.085 -0.17,-0.157 -0.27,-0.214 -0.491,-0.284 -1.07,-0.427 -1.721,-0.427 -1.893,0 -4.341,1.271 -6.387,3.314" /></g><g
           transform="translate(2370.2947,1348.6794)"
           id="g364"><path
             id="path366"
             style="fill:#000000;fill-opacity:1;fill-rule:nonzero;stroke:none"
             d="m 0,0 -4.046,2.814 c -0.505,0.352 -0.722,0.99 -0.538,1.578 0.184,0.586 0.728,0.987 1.342,0.987 H 4.849 C 5.463,5.379 6.007,4.978 6.192,4.392 6.376,3.804 6.156,3.166 5.653,2.814 L 1.607,0 C 1.365,-0.166 1.085,-0.25 0.804,-0.25 0.522,-0.25 0.242,-0.166 0,0" /></g><g
           transform="translate(2369.6917,1329.6093)"
           id="g368"><path
             id="path370"
             style="fill:#000000;fill-opacity:1;fill-rule:nonzero;stroke:none"
             d="m 0,0 v 20.227 c 0,0.778 0.629,1.407 1.407,1.407 0.778,0 1.407,-0.629 1.407,-1.407 V 0 C 2.814,-0.779 2.185,-1.407 1.407,-1.407 0.628,-1.407 0,-0.779 0,0" /></g><g
           transform="translate(2495.4773,1365.2665)"
           id="g372"><path
             id="path374"
             style="fill:#000000;fill-opacity:1;fill-rule:nonzero;stroke:none"
             d="M 0,0 -2.091,1.281 -0.652,9.356 3.777,12.117 17.566,34.62 20.778,32.652 6.989,10.149 6.541,4.948 Z m 25.953,33.892 -9.632,5.902 14.422,23.537 9.632,-5.902 z m -25.73,-38.44 9.921,7.506 0.517,5.982 13.325,21.747 6.42,-3.935 1.966,3.208 L 29.16,31.927 45.548,58.672 29.501,68.504 13.114,41.76 9.903,43.727 7.937,40.52 14.358,36.585 1.033,14.839 -4.062,11.663 -6.245,-0.585 Z" /></g><g
           transform="translate(2386.5225,1423.4969)"
           id="g376"><path
             id="path378"
             style="fill:#000000;fill-opacity:1;fill-rule:nonzero;stroke:none"
             d="m 0,0 8.329,-8.329 8.836,1.767 1.767,8.836 -8.329,8.329 c 0.775,0.141 1.557,0.21 2.334,0.21 3.405,0 6.741,-1.333 9.262,-3.854 C 26,3.158 27.101,-2.495 25.004,-7.444 L 24.51,-8.609 37.223,-21.282 c 3.256,-3.254 7.017,-5.231 10.876,-5.711 2.084,-0.26 3.972,-1.184 5.461,-2.673 4.007,-4.007 3.686,-10.857 -1.33,-14.366 -3.102,-2.17 -7.441,-2.183 -10.552,-0.03 -2.173,1.504 -3.593,3.736 -3.999,6.286 -0.684,4.29 -2.314,7.75 -4.845,10.281 l -13.626,13.586 -1.161,-0.492 C 13.098,-16.498 7.445,-15.397 3.644,-11.596 0.547,-8.5 -0.757,-4.173 0,0 m 0.993,-14.247 c 4.644,-4.644 11.39,-6.059 17.318,-4.061 l 11.874,-11.84 c 1.959,-1.958 3.235,-4.724 3.792,-8.218 0.568,-3.569 2.546,-6.686 5.567,-8.778 4.377,-3.029 10.477,-3.009 14.835,0.04 6.841,4.786 7.55,14.371 1.832,20.089 -2.085,2.084 -4.729,3.378 -7.648,3.742 -3.821,0.476 -6.835,2.788 -8.691,4.644 L 28.912,-7.704 C 30.911,-1.77 29.488,4.972 24.85,9.61 19.906,14.553 12.562,15.854 6.334,13.215 L 3.774,12.13 14.863,1.042 13.979,-3.377 9.562,-4.26 -1.528,6.829 -2.613,4.269 C -5.255,-1.966 -3.944,-9.31 0.993,-14.247" /></g><g
           transform="translate(2432.1301,1388.5293)"
           id="g380"><path
             id="path382"
             style="fill:#000000;fill-opacity:1;fill-rule:nonzero;stroke:none"
             d="m 0,0 c 0.732,0.733 1.918,0.733 2.651,0 0.731,-0.73 0.731,-1.92 0,-2.65 C 1.918,-3.383 0.732,-3.383 0,-2.65 -0.731,-1.919 -0.731,-0.73 0,0 m -2.65,2.651 c -2.193,-2.192 -2.193,-5.76 0,-7.952 2.197,-2.198 5.754,-2.198 7.952,0 2.192,2.192 2.192,5.76 0,7.952 -2.198,2.198 -5.755,2.197 -7.952,0" /></g></g></g><text
       id="text388"
       style="font-variant:normal;font-weight:500;font-stretch:normal;font-size:50px;font-family:'Ubuntu Light';-inkscape-font-specification:Ubuntu-Medium;writing-mode:lr-tb;fill:#2b2b2b;fill-opacity:1;fill-rule:nonzero;stroke:none"
       transform="matrix(1,0,0,-1,683.0566,444.0049)"><tspan
         id="tspan384"
         y="0"
         x="0 26.200001 54.75 81.449997 101.6 130.85001 144.64999 173.89999">Learning</tspan><tspan
         id="tspan386"
         y="-715.65002"
         x="1611.6 1645.8 1675.6 1705.4 1720.25 1746.2 1760 1789.25">Applying</tspan></text>
<g
       id="g390"><g
         clip-path="url(#clipPath396)"
         id="g392"><g
           transform="translate(0,1198.62)"
           id="g398"><path
             id="path400"
             style="fill:none;stroke:#e1447b;stroke-width:14;stroke-linecap:round;stroke-linejoin:round;stroke-miterlimit:10;stroke-dasharray:10, 30;stroke-dashoffset:0;stroke-opacity:1"
             d="m 0,0 c 125.717,3.192 324.361,0.311 450.078,3.503 6.287,0.159 12.818,0.378 18.415,3.245 5.317,2.723 9.242,7.586 12.224,12.763 14.132,24.532 7.674,58.934 -14.392,76.671 -10.386,8.35 -24.591,13.104 -37.284,9.047 C 404.704,97.45 400.09,65.57 399.856,40.021 c -0.524,-57.076 -0.195,-114.036 -1.114,-171.122 -2.014,-125.058 -4.028,-250.116 -6.042,-375.174 -0.259,-16.054 -0.027,-33.594 10.148,-46.015 12.572,-15.346 35.074,-16.895 54.91,-17.199 199.402,-3.06 398.84,-3.773 598.259,-2.141" /></g><g
           transform="translate(712.5878,840.5674)"
           id="g402"><path
             id="path404"
             style="fill:#000000;fill-opacity:1;fill-rule:nonzero;stroke:none"
             d="m 0,0 6.078,9.034 4.68,-10.715 z m -2.962,-1.294 c 0.155,-0.353 0.479,-0.603 0.86,-0.663 l 14.543,-2.272 c 0.215,-0.033 0.432,-0.003 0.626,0.081 0.171,0.075 0.324,0.192 0.442,0.345 0.251,0.326 0.305,0.764 0.14,1.141 L 7.324,11.821 C 7.159,12.199 6.802,12.457 6.392,12.495 5.981,12.531 5.583,12.341 5.353,12 L -2.864,-0.211 C -3.079,-0.532 -3.116,-0.94 -2.962,-1.294" /></g><g
           transform="translate(695.392,818.2756)"
           id="g406"><path
             id="path408"
             style="fill:#000000;fill-opacity:1;fill-rule:nonzero;stroke:none"
             d="m 0,0 8.276,3.614 4.066,-9.31 -8.276,-3.615 z m 51.654,11.472 -4.067,9.311 8.276,3.614 4.067,-9.31 z m -6.634,37.753 -8.276,-3.614 -4.066,9.31 8.276,3.615 z m -51.653,-11.472 4.066,-9.31 -8.276,-3.615 -4.066,9.311 z M 7.372,5.683 -0.904,2.069 -4.97,11.38 3.306,14.994 Z M -9.94,22.759 -1.664,26.374 2.403,17.063 -5.873,13.449 Z M 49.584,10.569 14.411,-4.793 9.893,5.552 l -4.969,11.38 -4.97,11.38 -4.518,10.345 35.173,15.361 4.518,-10.345 4.97,-11.38 4.97,-11.379 z m 5.376,15.897 -8.276,-3.614 -4.066,9.31 8.276,3.615 z m -17.312,17.076 8.276,3.614 4.066,-9.31 -8.276,-3.615 z m -55.078,-9.272 4.97,-11.38 4.969,-11.38 4.97,-11.379 4.97,-11.38 c 0.25,-0.572 0.915,-0.832 1.486,-0.582 l 10.345,4.518 37.243,16.264 10.345,4.518 c 0.571,0.25 0.832,0.915 0.582,1.487 l -4.969,11.379 -4.97,11.38 -4.97,11.379 -4.97,11.38 c -0.25,0.572 -0.915,0.832 -1.486,0.583 L 30.74,56.539 -6.502,40.274 -16.847,35.756 c -0.571,-0.249 -0.833,-0.914 -0.583,-1.486" /></g><g
           transform="translate(530.4996,732.7784)"
           id="g410"><path
             id="path412"
             style="fill:none;stroke:#000000;stroke-width:3;stroke-linecap:round;stroke-linejoin:round;stroke-miterlimit:10;stroke-dasharray:none;stroke-opacity:1"
             d="m 0,0 c 0,0 6.891,15.292 3.132,19.272 -3.758,3.98 -29.35,11.81 -29.35,11.81 0,0 -39.925,3.077 -36.296,-5.417 3.63,-8.493 23.528,-12.289 30.493,-17.005 6.964,-4.717 8.143,-8.623 8.143,-8.623 z" /></g><g
           transform="translate(530.4275,728.6489)"
           id="g414"><path
             id="path416"
             style="fill:#ff3e3e;fill-opacity:1;fill-rule:nonzero;stroke:none"
             d="m 0,0 c 0,0 6.891,15.292 3.132,19.272 -3.758,3.98 -29.35,11.81 -29.35,11.81 0,0 -39.925,3.077 -36.296,-5.417 3.63,-8.493 23.528,-12.289 30.493,-17.005 6.964,-4.717 8.143,-8.623 8.143,-8.623 z" /></g><g
           transform="translate(395.2858,689.5781)"
           id="g418"><path
             id="path420"
             style="fill:#ff3e3e;fill-opacity:1;fill-rule:nonzero;stroke:none"
             d="m 0,0 c 0,0 -8.466,14.48 -13.887,13.724 -5.422,-0.755 -26.638,-17.068 -26.638,-17.068 0,0 -25.653,-30.748 -16.628,-32.715 9.025,-1.966 23.653,12.047 31.534,14.987 7.88,2.941 11.747,1.637 11.747,1.637 z" /></g><g
           transform="translate(397.2989,688.0574)"
           id="g422"><path
             id="path424"
             style="fill:none;stroke:#000000;stroke-width:2;stroke-linecap:butt;stroke-linejoin:miter;stroke-miterlimit:10;stroke-dasharray:none;stroke-opacity:1"
             d="m 0,0 c 0,0 -8.466,14.48 -13.887,13.724 -5.422,-0.755 -26.638,-17.068 -26.638,-17.068 0,0 -25.653,-30.748 -16.628,-32.715 9.025,-1.966 23.653,12.047 31.534,14.987 7.88,2.941 11.747,1.637 11.747,1.637 z" /></g><g
           transform="translate(506.0771,734.5582)"
           id="g426"><path
             id="path428"
             style="fill:#ffffff;fill-opacity:1;fill-rule:nonzero;stroke:none"
             d="m 0,0 -27.585,-114.174 37.924,-24.969 13.9,133.089 z" /></g><g
           transform="translate(506.0771,734.5582)"
           id="g430"><path
             id="path432"
             style="fill:none;stroke:#000000;stroke-width:3;stroke-linecap:round;stroke-linejoin:round;stroke-miterlimit:10;stroke-dasharray:none;stroke-opacity:1"
             d="m 0,0 -27.585,-114.174 37.924,-24.969 13.9,133.089 z" /></g><g
           transform="translate(662.3347,621.3011)"
           id="g434"><path
             id="path436"
             style="fill:#ffffff;fill-opacity:1;fill-rule:nonzero;stroke:none"
             d="m 0,0 -138.216,-18.372 -126.963,88.806 -19.599,-23.885 c 0,0 130.12,-103.693 132.617,-111.891 2.497,-8.197 176.741,-10.021 176.741,-10.021 z" /></g><g
           transform="translate(662.3347,621.3011)"
           id="g438"><path
             id="path440"
             style="fill:none;stroke:#000000;stroke-width:3;stroke-linecap:round;stroke-linejoin:round;stroke-miterlimit:10;stroke-dasharray:none;stroke-opacity:1"
             d="m 0,0 -138.216,-18.372 -126.963,88.806 -19.599,-23.885 c 0,0 130.12,-103.693 132.617,-111.891 2.497,-8.197 176.741,-10.021 176.741,-10.021 z" /></g><g
           transform="translate(762.2062,612.0008)"
           id="g442"><path
             id="path444"
             style="fill:#ffffff;fill-opacity:1;fill-rule:nonzero;stroke:none"
             d="m 0,0 c 0,0 67.463,-67.653 84.517,-69.349 17.054,-1.696 84.237,57.949 84.237,57.949 L 159.873,4.681 84.894,-38.915 22.425,12.343 Z" /></g><g
           transform="translate(762.2062,612.0008)"
           id="g446"><path
             id="path448"
             style="fill:none;stroke:#000000;stroke-width:3;stroke-linecap:round;stroke-linejoin:round;stroke-miterlimit:10;stroke-dasharray:none;stroke-opacity:1"
             d="m 0,0 c 0,0 67.463,-67.653 84.517,-69.349 17.054,-1.696 84.237,57.949 84.237,57.949 L 159.873,4.681 84.894,-38.915 22.425,12.343 Z" /></g><g
           transform="translate(803.9566,652.7062)"
           id="g450"><path
             id="path452"
             style="fill:#ffffff;fill-opacity:1;fill-rule:nonzero;stroke:#000000;stroke-width:1;stroke-linecap:butt;stroke-linejoin:miter;stroke-miterlimit:10;stroke-dasharray:none;stroke-opacity:1"
             d="m 0,0 -12.69,-22.303 -24.611,18.073 16.92,24.995" /></g><g
           transform="translate(954.7621,657.7966)"
           id="g454"><path
             id="path456"
             style="fill:#fcfcfc;fill-opacity:1;fill-rule:nonzero;stroke:none"
             d="m 0,0 c 0,0 1.867,-4.209 -1.123,-4.449 -2.99,-0.24 -30.62,9.287 -30.62,9.287 l -7.295,-9.743 -5.384,8.076 10.383,15.381 8.594,6.544 c 0,0 12.664,6.067 16.001,3.7 3.338,-2.367 13.349,-6.419 10.802,-9.038 -2.547,-2.62 -13.706,1.754 -13.706,1.754 L 7.674,13.409 c 0,0 2.298,-3.695 -2.259,-4.988 L 8.968,6.819 c 0,0 1.651,-2.941 -1.578,-4.258 l -9.76,3.251" /></g><g
           transform="translate(959.856,661.0031)"
           id="g458"><path
             id="path460"
             style="fill:#fcfcfc;fill-opacity:1;fill-rule:nonzero;stroke:none"
             d="M 0,0 C 0,0 1.508,-2.774 -1.219,-3.66 -3.945,-4.546 -16.098,0.139 -16.098,0.139" /></g><g
           transform="translate(950.9559,669.3485)"
           id="g462"><path
             id="path464"
             style="fill:#fcfcfc;fill-opacity:1;fill-rule:nonzero;stroke:none"
             d="M 0,0 9.222,-3.131" /></g><g
           transform="translate(952.3926,663.6083)"
           id="g466"><path
             id="path468"
             style="fill:none;stroke:#000000;stroke-width:3;stroke-linecap:round;stroke-linejoin:round;stroke-miterlimit:10;stroke-dasharray:none;stroke-opacity:1"
             d="m 0,0 9.76,-3.25 c 3.229,1.316 1.577,4.258 1.577,4.258 L 7.785,2.609 c 4.556,1.293 2.259,4.988 2.259,4.988 L -9.978,15.7 c 0,0 11.159,-4.374 13.706,-1.754 2.546,2.62 -7.465,6.671 -10.802,9.038 -3.338,2.367 -16.001,-3.699 -16.001,-3.699 l -8.595,-6.544" /></g><g
           transform="translate(959.856,661.0031)"
           id="g470"><path
             id="path472"
             style="fill:none;stroke:#000000;stroke-width:3;stroke-linecap:round;stroke-linejoin:round;stroke-miterlimit:10;stroke-dasharray:none;stroke-opacity:1"
             d="M 0,0 C 0,0 1.508,-2.774 -1.219,-3.66 -3.945,-4.546 -16.098,0.139 -16.098,0.139" /></g><g
           transform="translate(954.7621,657.7966)"
           id="g474"><path
             id="path476"
             style="fill:none;stroke:#000000;stroke-width:3;stroke-linecap:round;stroke-linejoin:round;stroke-miterlimit:10;stroke-dasharray:none;stroke-opacity:1"
             d="m 0,0 c 0,0 1.867,-4.209 -1.123,-4.449 -2.99,-0.24 -30.62,9.287 -30.62,9.287" /></g><g
           transform="translate(950.9559,669.3485)"
           id="g478"><path
             id="path480"
             style="fill:none;stroke:#000000;stroke-width:3;stroke-linecap:round;stroke-linejoin:round;stroke-miterlimit:10;stroke-dasharray:none;stroke-opacity:1"
             d="M 0,0 9.222,-3.131" /></g><g
           transform="translate(915.1716,655.9563)"
           id="g482"><path
             id="path484"
             style="fill:#ffff2e;fill-opacity:1;fill-rule:nonzero;stroke:none"
             d="m 0,0 29.842,-36.038 c 0.442,-0.533 1.232,-0.607 1.765,-0.166 l 44.948,37.22 c 0.533,0.442 0.608,1.232 0.166,1.766 L 46.879,38.819 c -0.442,0.534 -1.232,0.608 -1.765,0.166 L 0.166,1.766 C -0.367,1.324 -0.442,0.533 0,0" /></g><g
           transform="translate(964.5985,693.0844)"
           id="g486"><path
             id="path488"
             style="fill:#000000;fill-opacity:1;fill-rule:nonzero;stroke:none"
             d="M 0,0 C 1.005,0.792 2.461,0.62 3.255,-0.383 L 6.624,-4.649 5.314,-5.684 C 4.926,-5.991 4.86,-6.554 5.166,-6.942 l 18.035,-22.833 c 0.308,-0.389 0.871,-0.454 1.258,-0.148 l 1.311,1.035 4.366,-5.527 c 0.792,-1.005 0.62,-2.461 -0.382,-3.254 l -41.832,-33.042 c -1.004,-0.792 -2.46,-0.62 -3.253,0.382 l -26.882,34.032 c -0.791,1.005 -0.621,2.461 0.381,3.255 z M 24.052,-27.962 7.127,-6.535 10.056,-4.221 26.981,-25.648 Z M -1.11,1.406 -42.942,-31.636 c -1.777,-1.408 -2.08,-3.989 -0.676,-5.771 l 26.881,-34.032 c 1.408,-1.777 3.988,-2.08 5.77,-0.677 l 41.831,33.042 c 1.777,1.407 2.08,3.988 0.677,5.769 l -4.366,5.527 1.619,1.279 c 0.388,0.306 0.455,0.869 0.148,1.258 L 10.906,-2.408 C 10.6,-2.02 10.036,-1.954 9.648,-2.26 L 8.03,-3.539 4.659,0.728 C 3.252,2.506 0.671,2.809 -1.11,1.406" /></g><g
           transform="translate(948.4107,672.4632)"
           id="g490"><path
             id="path492"
             style="fill:#000000;fill-opacity:1;fill-rule:nonzero;stroke:none"
             d="m 0,0 c -0.388,-0.306 -0.455,-0.869 -0.148,-1.258 l 4.368,-5.53 c 0.306,-0.387 0.87,-0.453 1.258,-0.147 0.389,0.307 0.454,0.87 0.148,1.258 L 1.258,-0.148 C 0.951,0.241 0.389,0.307 0,0" /></g><g
           transform="translate(955.3514,663.6761)"
           id="g494"><path
             id="path496"
             style="fill:#000000;fill-opacity:1;fill-rule:nonzero;stroke:none"
             d="m 0,0 c -0.388,-0.306 -0.454,-0.87 -0.148,-1.258 l 10.209,-12.924 c 0.307,-0.389 0.87,-0.454 1.258,-0.148 0.389,0.308 0.455,0.869 0.147,1.258 L 1.258,-0.148 C 0.952,0.24 0.389,0.307 0,0" /></g><g
           transform="translate(967.822,647.8882)"
           id="g498"><path
             id="path500"
             style="fill:#000000;fill-opacity:1;fill-rule:nonzero;stroke:none"
             d="m 0,0 c -0.388,-0.306 -0.454,-0.87 -0.148,-1.258 l 1.611,-2.039 c 0.306,-0.388 0.87,-0.454 1.258,-0.148 0.389,0.307 0.454,0.87 0.148,1.258 L 1.258,-0.148 C 0.952,0.24 0.389,0.307 0,0" /></g><g
           transform="translate(940.2303,666.0017)"
           id="g502"><path
             id="path504"
             style="fill:#000000;fill-opacity:1;fill-rule:nonzero;stroke:none"
             d="M 0,0 C -0.388,-0.306 -0.455,-0.869 -0.148,-1.258 L 12,-16.637 c 0.306,-0.388 0.87,-0.454 1.258,-0.148 0.388,0.307 0.454,0.871 0.148,1.258 L 1.258,-0.148 C 0.951,0.241 0.388,0.306 0,0" /></g><g
           transform="translate(954.951,647.3652)"
           id="g506"><path
             id="path508"
             style="fill:#000000;fill-opacity:1;fill-rule:nonzero;stroke:none"
             d="m 0,0 c -0.388,-0.306 -0.454,-0.87 -0.148,-1.258 l 6.302,-7.978 c 0.306,-0.387 0.87,-0.453 1.258,-0.147 0.387,0.306 0.454,0.87 0.147,1.258 L 1.258,-0.148 C 0.952,0.24 0.388,0.306 0,0" /></g><g
           transform="translate(932.6685,660.0287)"
           id="g510"><path
             id="path512"
             style="fill:#000000;fill-opacity:1;fill-rule:nonzero;stroke:none"
             d="m 0,0 c -0.388,-0.306 -0.455,-0.869 -0.148,-1.258 l 0.505,-0.638 c 0.307,-0.389 0.87,-0.454 1.257,-0.148 0.389,0.307 0.455,0.869 0.148,1.258 L 1.258,-0.148 C 0.951,0.241 0.389,0.307 0,0" /></g><g
           transform="translate(935.7466,656.1318)"
           id="g514"><path
             id="path516"
             style="fill:#000000;fill-opacity:1;fill-rule:nonzero;stroke:none"
             d="m 0,0 c -0.388,-0.306 -0.455,-0.869 -0.148,-1.258 l 1.044,-1.321 c 0.306,-0.388 0.87,-0.454 1.258,-0.148 0.389,0.307 0.454,0.87 0.147,1.258 L 1.258,-0.148 C 0.951,0.241 0.389,0.307 0,0" /></g><g
           transform="translate(939.4242,651.4759)"
           id="g518"><path
             id="path520"
             style="fill:#000000;fill-opacity:1;fill-rule:nonzero;stroke:none"
             d="M 0,0 C -0.388,-0.306 -0.454,-0.87 -0.148,-1.258 L 14.12,-19.32 c 0.306,-0.388 0.87,-0.454 1.257,-0.148 0.389,0.307 0.454,0.87 0.148,1.258 L 1.258,-0.148 C 0.952,0.24 0.389,0.307 0,0" /></g><g
           transform="translate(973.5075,665.4427)"
           id="g522"><path
             id="path524"
             style="fill:#000000;fill-opacity:1;fill-rule:nonzero;stroke:none"
             d="m 0,0 7.965,-10.084 -4.896,-3.867 -7.965,10.084 z m -0.407,1.961 -6.302,-4.978 c -0.388,-0.306 -0.454,-0.87 -0.148,-1.258 l 9.076,-11.489 c 0.306,-0.388 0.87,-0.454 1.257,-0.148 l 6.302,4.978 c 0.389,0.307 0.454,0.87 0.148,1.258 L 0.85,1.813 C 0.544,2.201 -0.019,2.268 -0.407,1.961" /></g><g
           transform="translate(954.8516,677.5508)"
           id="g526"><path
             id="path528"
             style="fill:#000000;fill-opacity:1;fill-rule:nonzero;stroke:none"
             d="m 0,0 c -0.388,-0.306 -0.455,-0.869 -0.148,-1.258 l 0.385,-0.487 c 0.307,-0.389 0.87,-0.454 1.258,-0.148 0.388,0.306 0.455,0.869 0.148,1.258 L 1.258,-0.148 C 0.951,0.241 0.388,0.306 0,0" /></g><g
           transform="translate(957.8104,673.805)"
           id="g530"><path
             id="path532"
             style="fill:#000000;fill-opacity:1;fill-rule:nonzero;stroke:none"
             d="m 0,0 c -0.388,-0.306 -0.454,-0.87 -0.148,-1.258 l 4.235,-5.361 c 0.307,-0.389 0.87,-0.454 1.258,-0.148 0.387,0.307 0.455,0.869 0.147,1.258 L 1.258,-0.148 C 0.952,0.24 0.388,0.306 0,0" /></g><g
           transform="translate(961.1532,682.5283)"
           id="g534"><path
             id="path536"
             style="fill:#000000;fill-opacity:1;fill-rule:nonzero;stroke:none"
             d="M 0,0 C -0.388,-0.306 -0.455,-0.869 -0.148,-1.258 L 4.12,-6.661 c 0.307,-0.389 0.87,-0.454 1.258,-0.148 0.389,0.307 0.455,0.869 0.148,1.258 L 1.258,-0.148 C 0.951,0.241 0.389,0.307 0,0" /></g><g
           transform="translate(967.9949,673.8665)"
           id="g538"><path
             id="path540"
             style="fill:#000000;fill-opacity:1;fill-rule:nonzero;stroke:none"
             d="m 0,0 c -0.388,-0.306 -0.454,-0.87 -0.148,-1.258 l 0.352,-0.445 c 0.307,-0.389 0.87,-0.454 1.258,-0.148 0.389,0.308 0.455,0.869 0.147,1.258 L 1.258,-0.148 C 0.952,0.24 0.389,0.307 0,0" /></g><g
           transform="translate(934.0234,618.6503)"
           id="g542"><path
             id="path544"
             style="fill:#000000;fill-opacity:1;fill-rule:nonzero;stroke:none"
             d="M 0,0 C -1.741,1.225 -2.278,3.532 -1.336,5.387 L 5.54,0.559 C 4.097,-0.953 1.758,-1.234 0,0 m 6.266,1.519 -6.933,4.88 0.686,1.003 6.949,-4.89 z M 7.671,3.506 0.712,8.38 1.414,9.373 8.364,4.483 Z M 9.049,5.486 2.116,10.367 15.768,29.77 15.88,27.827 4.848,12.137 c -0.189,-0.262 -0.12,-0.646 0.143,-0.835 0.279,-0.198 0.662,-0.129 0.86,0.15 l 11.032,15.69 2.784,0.812 0.181,-2.91 L 8.816,9.354 C 8.627,9.091 8.696,8.708 8.958,8.519 9.238,8.321 9.621,8.389 9.81,8.652 l 11.032,15.69 1.859,0.547 z m 11.985,20.176 -0.198,3.114 c -0.007,0.025 0.002,0.042 -0.006,0.068 -0.007,0.025 -0.014,0.051 -0.022,0.077 0.01,0.016 -0.024,0.035 -0.031,0.06 -0.007,0.026 -0.022,0.077 -0.046,0.112 -0.033,0.019 -0.057,0.053 -0.073,0.063 -0.024,0.034 -0.074,0.062 -0.098,0.097 l -0.082,0.046 c -0.043,0.001 -0.076,0.02 -0.118,0.022 -0.033,0.018 -0.075,0.02 -0.117,0.021 0,0 -0.017,0.01 -0.043,0.002 -0.025,-0.007 -0.051,-0.014 -0.068,-0.005 -0.025,-0.008 -0.051,-0.015 -0.068,-0.006 l -2.999,-0.887 -0.164,2.705 6.128,2.633 -0.361,-0.535 c -0.198,-0.279 -0.121,-0.646 0.142,-0.835 0.279,-0.198 0.663,-0.13 0.835,0.142 l 0.378,0.526 -0.411,-6.666 z M 6.901,0.324 l 17.793,25.275 0.009,0.017 0.028,0.05 c 0.027,0.049 0.029,0.092 0.057,0.141 -0.008,0.026 0.002,0.042 0.011,0.059 -0.008,0.026 0.001,0.042 0.001,0.042 l 0.563,9.24 c 0.011,0.059 0.013,0.102 -0.002,0.153 -0.006,0.068 -0.044,0.154 -0.076,0.214 -0.047,0.07 -0.104,0.123 -0.17,0.16 -0.057,0.053 -0.133,0.073 -0.208,0.093 0,0 -0.017,0.01 -0.033,0.019 -0.068,-0.006 -0.143,0.014 -0.211,0.009 L 24.654,35.779 C 24.602,35.765 24.56,35.766 24.525,35.743 L 16.019,32.094 16.01,32.078 C 15.984,32.07 15.984,32.07 15.975,32.054 15.915,32.022 15.88,31.999 15.836,31.958 15.827,31.942 15.818,31.925 15.792,31.918 15.783,31.901 15.783,31.901 15.774,31.885 L -2.02,6.609 C -3.732,4.144 -3.158,0.735 -0.686,-1.003 1.77,-2.732 5.172,-2.132 6.901,0.324" /></g><g
           transform="translate(941.6942,622.1566)"
           id="g546"><path
             id="path548"
             style="fill:#ffffff;fill-opacity:1;fill-rule:nonzero;stroke:none"
             d="m 0,0 0.693,0.977 -6.95,4.89 -0.702,-0.994 z" /></g><g
           transform="translate(940.2897,620.1688)"
           id="g550"><path
             id="path552"
             style="fill:#ffffff;fill-opacity:1;fill-rule:nonzero;stroke:none"
             d="M 0,0 0.702,0.994 -6.247,5.883 -6.933,4.881 Z" /></g><g
           transform="translate(939.5634,619.2097)"
           id="g554"><path
             id="path556"
             style="fill:#ffffff;fill-opacity:1;fill-rule:nonzero;stroke:none"
             d="M 0,0 -6.876,4.828 C -7.818,2.973 -7.281,0.665 -5.54,-0.559 -3.782,-1.793 -1.443,-1.512 0,0" /></g><g
           transform="translate(942.9819,627.1694)"
           id="g558"><path
             id="path560"
             style="fill:#ffffff;fill-opacity:1;fill-rule:nonzero;stroke:none"
             d="M 0,0 C -0.263,0.189 -0.331,0.572 -0.142,0.835 L 10.89,16.525 10.709,19.435 7.925,18.623 -3.107,2.933 C -3.305,2.653 -3.689,2.585 -3.968,2.783 -4.231,2.972 -4.299,3.356 -4.11,3.618 L 6.922,19.308 6.81,21.251 -6.842,1.848 0.091,-3.033 13.743,16.37 11.884,15.823 0.852,0.133 C 0.663,-0.13 0.279,-0.198 0,0" /></g><g
           transform="translate(955.057,644.3126)"
           id="g562"><path
             id="path564"
             style="fill:#ffffff;fill-opacity:1;fill-rule:nonzero;stroke:none"
             d="M 0,0 2.579,0.753 2.989,7.419 2.612,6.894 C 2.439,6.622 2.056,6.554 1.776,6.752 1.514,6.941 1.436,7.308 1.634,7.587 l 0.361,0.535 -6.127,-2.633 0.164,-2.706 2.999,0.888 c 0.016,-0.009 0.042,-0.002 0.068,0.005 0.016,-0.009 0.042,-0.001 0.068,0.006 0.026,0.007 0.042,-0.002 0.042,-0.002 0.042,-0.002 0.084,-0.003 0.118,-0.022 0.042,-10e-4 0.075,-0.02 0.117,-0.022 L -0.473,3.591 C -0.449,3.556 -0.4,3.528 -0.376,3.493 -0.359,3.484 -0.336,3.449 -0.302,3.431 -0.279,3.396 -0.264,3.345 -0.256,3.319 -0.249,3.293 -0.216,3.275 -0.225,3.258 -0.218,3.233 -0.211,3.207 -0.203,3.181 -0.196,3.156 -0.205,3.139 -0.198,3.113 Z" /></g><g
           transform="translate(960.4651,619.8383)"
           id="g566"><path
             id="path568"
             style="fill:#ffffff;fill-opacity:1;fill-rule:nonzero;stroke:none"
             d="m 0,0 c 0,0 -34.279,-25.363 -39.992,-22.698 -5.714,2.664 0.152,20.223 0.152,20.223 l 8.075,16.478 c 0,0 12.357,3.538 11.974,-1.558 L -7.714,19.21 C -7.714,19.21 2.049,7.036 0,0" /></g><g
           transform="translate(919.3878,614.375)"
           id="g570"><path
             id="path572"
             style="fill:#ffffff;fill-opacity:1;fill-rule:nonzero;stroke:#000000;stroke-width:3;stroke-linecap:round;stroke-linejoin:round;stroke-miterlimit:10;stroke-dasharray:none;stroke-opacity:1"
             d="m 0,0 c 0,0 6.734,19.723 10.664,20.86 3.931,1.138 13.335,6.449 13.799,2.825 0.464,-3.624 -9.907,-9.633 -9.907,-9.633 l 18.808,10.622 c 0,0 4.321,-0.503 2.496,-4.874 l 3.465,1.783 c 0,0 3.33,-0.54 2.35,-3.886 l -8.621,-5.613" /></g><g
           transform="translate(958.465,624.6943)"
           id="g574"><path
             id="path576"
             style="fill:#ffffff;fill-opacity:1;fill-rule:nonzero;stroke:#000000;stroke-width:3;stroke-linecap:round;stroke-linejoin:round;stroke-miterlimit:10;stroke-dasharray:none;stroke-opacity:1"
             d="M 0,0 C 0,0 4.456,-1.16 2.782,-3.649 1.108,-6.138 -31.043,-27.031 -31.043,-27.031" /></g><g
           transform="translate(947.0558,628.9091)"
           id="g578"><path
             id="path580"
             style="fill:#ffffff;fill-opacity:1;fill-rule:nonzero;stroke:#000000;stroke-width:3;stroke-linecap:round;stroke-linejoin:round;stroke-miterlimit:10;stroke-dasharray:none;stroke-opacity:1"
             d="M 0,0 8.192,5.266" /></g><g
           transform="translate(959.1278,630.6768)"
           id="g582"><path
             id="path584"
             style="fill:none;stroke:#000000;stroke-width:3;stroke-linecap:round;stroke-linejoin:round;stroke-miterlimit:10;stroke-dasharray:none;stroke-opacity:1"
             d="M 0,0 C 0,0 3.109,-0.548 2.105,-3.233 1.1,-5.918 -10.133,-12.509 -10.133,-12.509" /></g><g
           transform="translate(921.2361,676.2225)"
           id="g586"><path
             id="path588"
             style="fill:#ffffff;fill-opacity:1;fill-rule:nonzero;stroke:#000000;stroke-width:3;stroke-linecap:round;stroke-linejoin:round;stroke-miterlimit:10;stroke-dasharray:none;stroke-opacity:1"
             d="m 0,0 -64.885,-70.149 -75.118,29.783 -17.597,-18.589 c 0,0 84.87,-43.877 101.63,-40.295 16.76,3.581 68.35,91.785 68.35,91.785" /></g><g
           transform="translate(659.3686,622.1351)"
           id="g590"><path
             id="path592"
             style="fill:#ff3e3e;fill-opacity:1;fill-rule:nonzero;stroke:none"
             d="M 0,0 C 0,0 94.254,33.815 104.288,34.804 114.323,35.793 165.109,0.271 165.109,0.271 L 128,-40.429 111.731,-23.567 26.149,-77.678 Z" /></g><g
           transform="translate(848.8018,700.0546)"
           id="g594"><path
             id="path596"
             style="fill:#ffffff;fill-opacity:1;fill-rule:nonzero;stroke:none"
             d="M 0,0 1.051,-4.431 C 1.013,-4.566 0.226,-5.866 0.198,-5.922 l -17.05,-43.264 c -1.7,-5.947 -12.829,-12.8 -18.754,-11.082 l -8.574,3.468 c -10.886,3.494 -19.002,12.645 -21.169,23.87 l -0.262,1.359 -2.259,11.649 0.021,0.158 3.888,23.487 0.005,0.039 2.3,13.928 c 1.698,5.928 7.957,9.392 13.885,7.694 L -7.713,13.888 C -2.773,12.479 0.453,7.939 0.414,3.021 0.424,2.015 0.292,1.007 0,0" /></g><g
           transform="translate(848.8018,700.0546)"
           id="g598"><path
             id="path600"
             style="fill:none;stroke:#000000;stroke-width:3;stroke-linecap:butt;stroke-linejoin:miter;stroke-miterlimit:10;stroke-dasharray:none;stroke-opacity:1"
             d="M 0,0 1.051,-4.431 C 1.013,-4.566 0.226,-5.866 0.198,-5.922 l -17.05,-43.264 c -1.7,-5.947 -12.829,-12.8 -18.754,-11.082 l -8.574,3.468 c -10.886,3.494 -19.002,12.645 -21.169,23.87 l -0.262,1.359 -2.259,11.649 0.021,0.158 3.888,23.487 0.005,0.039 2.3,13.928 c 1.698,5.928 7.957,9.392 13.885,7.694 L -7.713,13.888 C -2.773,12.479 0.453,7.939 0.414,3.021 0.424,2.015 0.292,1.007 0,0 Z" /></g><g
           transform="translate(786.501,698.1234)"
           id="g602"><path
             id="path604"
             style="fill:#ffffff;fill-opacity:1;fill-rule:nonzero;stroke:none"
             d="m 0,0 -3.013,5.846 c 0,0 -7.428,1.224 -8.83,-8.685 -1.403,-9.908 7.076,-17.134 7.076,-17.134 z" /></g><g
           transform="translate(786.501,698.1234)"
           id="g606"><path
             id="path608"
             style="fill:none;stroke:#000000;stroke-width:3;stroke-linecap:butt;stroke-linejoin:miter;stroke-miterlimit:10;stroke-dasharray:none;stroke-opacity:1"
             d="m 0,0 -3.013,5.846 c 0,0 -7.428,1.224 -8.83,-8.685 -1.403,-9.908 7.076,-17.134 7.076,-17.134 z" /></g><g
           transform="translate(809.7273,697.2379)"
           id="g610"><path
             id="path612"
             style="fill:#ffffff;fill-opacity:1;fill-rule:nonzero;stroke:#000000;stroke-width:2;stroke-linecap:butt;stroke-linejoin:miter;stroke-miterlimit:10;stroke-dasharray:none;stroke-opacity:1"
             d="M 0,0 11.47,-4.941" /></g><g
           transform="translate(830.6912,688.2476)"
           id="g614"><path
             id="path616"
             style="fill:#ffffff;fill-opacity:1;fill-rule:nonzero;stroke:#000000;stroke-width:2;stroke-linecap:butt;stroke-linejoin:miter;stroke-miterlimit:10;stroke-dasharray:none;stroke-opacity:1"
             d="M 0,0 11.47,-4.941" /></g><g
           transform="translate(822.7891,677.46)"
           id="g618"><path
             id="path620"
             style="fill:none;stroke:#000000;stroke-width:2;stroke-linecap:round;stroke-linejoin:miter;stroke-miterlimit:10;stroke-dasharray:none;stroke-opacity:1"
             d="m 0,0 -0.752,-9.729 c -0.111,-1.44 -1.575,-2.368 -2.925,-1.855 l -4.075,1.549" /></g><g
           transform="translate(813.3984,679.1205)"
           id="g622"><path
             id="path624"
             style="fill:#fff6e9;fill-opacity:1;fill-rule:nonzero;stroke:none"
             d="m 0,0 -5.941,2.765 c -0.77,0.359 -1.107,1.282 -0.749,2.052 l 2.918,6.269 c 0.358,0.77 1.282,1.106 2.052,0.748 L 4.221,9.069 C 4.991,8.71 5.328,7.787 4.969,7.017 L 2.052,0.748 C 1.693,-0.022 0.77,-0.358 0,0" /></g><g
           transform="translate(814.1995,680.6876)"
           id="g626"><path
             id="path628"
             style="fill:#3a231e;fill-opacity:1;fill-rule:nonzero;stroke:none"
             d="m 0,0 -2.779,1.294 c -0.77,0.358 -1.107,1.281 -0.749,2.051 l 1.301,2.796 c 0.359,0.77 1.282,1.107 2.052,0.748 L 2.604,5.596 C 3.374,5.237 3.711,4.314 3.353,3.544 L 2.052,0.748 C 1.693,-0.022 0.77,-0.358 0,0" /></g><g
           transform="translate(814.2032,680.6957)"
           id="g630"><path
             id="path632"
             style="fill:#000000;fill-opacity:1;fill-rule:nonzero;stroke:none"
             d="m 0,0 -2.78,1.294 c -0.77,0.358 -1.106,1.281 -0.748,2.051 l 1.294,2.78 c 0.358,0.77 1.281,1.107 2.051,0.748 L 2.597,5.58 C 3.367,5.221 3.704,4.298 3.345,3.528 L 2.052,0.748 C 1.693,-0.022 0.77,-0.358 0,0" /></g><g
           transform="translate(816.6188,682.8042)"
           id="g634"><path
             id="path636"
             style="fill:#fff6e9;fill-opacity:1;fill-rule:nonzero;stroke:none"
             d="m 0,0 c -0.077,-0.683 -0.694,-1.175 -1.377,-1.098 -0.684,0.077 -1.175,0.694 -1.098,1.377 0.077,0.684 0.694,1.175 1.377,1.098 C -0.414,1.3 0.077,0.683 0,0" /></g><g
           transform="translate(833.8009,670.0444)"
           id="g638"><path
             id="path640"
             style="fill:#fff6e9;fill-opacity:1;fill-rule:nonzero;stroke:none"
             d="m 0,0 -5.941,2.765 c -0.77,0.359 -1.107,1.282 -0.749,2.052 l 2.918,6.269 c 0.358,0.77 1.282,1.106 2.052,0.748 L 4.221,9.069 C 4.991,8.71 5.328,7.787 4.969,7.017 L 2.052,0.748 C 1.693,-0.022 0.77,-0.358 0,0" /></g><g
           transform="translate(834.6019,671.6114)"
           id="g642"><path
             id="path644"
             style="fill:#3a231e;fill-opacity:1;fill-rule:nonzero;stroke:none"
             d="m 0,0 -2.779,1.294 c -0.77,0.358 -1.107,1.281 -0.749,2.051 l 1.301,2.796 c 0.359,0.77 1.282,1.107 2.052,0.748 L 2.604,5.596 C 3.374,5.237 3.711,4.314 3.353,3.544 L 2.052,0.748 C 1.693,-0.022 0.77,-0.358 0,0" /></g><g
           transform="translate(834.6057,671.6194)"
           id="g646"><path
             id="path648"
             style="fill:#000000;fill-opacity:1;fill-rule:nonzero;stroke:none"
             d="m 0,0 -2.779,1.294 c -0.77,0.358 -1.107,1.281 -0.749,2.051 l 1.294,2.78 c 0.358,0.77 1.281,1.107 2.051,0.748 L 2.597,5.58 C 3.367,5.221 3.704,4.298 3.345,3.528 L 2.052,0.748 C 1.693,-0.022 0.77,-0.358 0,0" /></g><g
           transform="translate(837.0212,673.728)"
           id="g650"><path
             id="path652"
             style="fill:#fff6e9;fill-opacity:1;fill-rule:nonzero;stroke:none"
             d="m 0,0 c -0.077,-0.683 -0.694,-1.175 -1.377,-1.098 -0.684,0.077 -1.175,0.694 -1.098,1.377 0.077,0.684 0.694,1.175 1.377,1.098 C -0.414,1.3 0.077,0.683 0,0" /></g><g
           transform="translate(802.7309,713.3223)"
           id="g654"><path
             id="path656"
             style="fill:#ffffff;fill-opacity:1;fill-rule:nonzero;stroke:#000000;stroke-width:3;stroke-linecap:butt;stroke-linejoin:miter;stroke-miterlimit:10;stroke-dasharray:none;stroke-opacity:1"
             d="m 0,0 c 3.5,-4.625 38.419,-18.701 40.949,-19.145 1.791,-0.328 4.309,-0.42 6.918,1.228 4.988,3.156 8.28,10.221 10.196,15.728 2.722,7.845 1.735,16.704 -1.963,24.175 -1.513,3.057 -3.598,6.018 -6.73,7.468 -3.115,1.429 -7.431,0.761 -9.109,-2.182 -0.283,6.116 -8.211,10.464 -13.638,7.498 -0.201,-1.394 -0.405,-2.806 -0.625,-4.198 -1.124,6.036 -8.048,10.386 -14.099,8.846 -0.228,-2.337 -0.437,-4.677 -0.665,-7.015 -3.3,3.707 -8.644,5.522 -13.556,4.572 -0.719,-2.255 -0.935,-4.65 -0.665,-7.015 -4.504,2.917 -10.939,2.582 -15.084,-0.778 -4.232,-3.425 -4.481,-9.036 -6.603,-13.758 0.083,0.046 0.123,0.059 0.123,0.059" /></g><g
           transform="translate(778.5303,729.9309)"
           id="g658"><path
             id="path660"
             style="fill:#ffffff;fill-opacity:1;fill-rule:nonzero;stroke:#000000;stroke-width:3;stroke-linecap:butt;stroke-linejoin:miter;stroke-miterlimit:10;stroke-dasharray:none;stroke-opacity:1"
             d="m 0,0 c -0.427,-0.967 -1.126,-1.77 -1.559,-2.734 -3.847,-8.574 -4.878,-12.79 -3.157,-20.769 1.077,-4.993 -0.55,-8.22 -0.065,-10.403 0.059,0.16 0.117,0.319 0.196,0.495 3.81,8.893 9.659,7.07 11.921,1.513 2.262,-5.558 3.646,-10.071 3.646,-10.071 l 2.571,-1.748 c 0,0 1.062,17.935 5.15,18.164 4.072,0.25 6.092,-1.26 7.039,0.96 0.644,1.478 -1.352,4.899 -0.989,7.25 l -0.432,1.082" /></g><g
           transform="translate(825.8409,657.961)"
           id="g662"><path
             id="path664"
             style="fill:#ffffff;fill-opacity:1;fill-rule:nonzero;stroke:none"
             d="m 0,0 c 0,0 -0.104,-1.431 -0.834,-3.005 -0.661,-1.399 -1.869,-2.945 -3.926,-3.643 -1.814,-0.633 -4.307,-0.607 -7.68,0.768 -4.835,1.979 -6.23,4.736 -6.265,7.213 -0.025,1.279 0.305,2.497 0.722,3.471 0.674,1.637 1.617,2.74 1.617,2.74 C -10.071,4.262 -6.786,2.752 0,0" /></g></g></g><g
       id="g666"><g
         clip-path="url(#clipPath672)"
         id="g668"><g
           transform="translate(809.4403,666.5349)"
           id="g674"><path
             id="path676"
             style="fill:#fff6e9;fill-opacity:1;fill-rule:nonzero;stroke:none"
             d="m 0,0 c 0,0 -0.27,-2.479 -0.182,-3.108 0.088,-0.629 13.774,-7.667 14.549,-7.213 0.775,0.453 3.005,2.319 3.005,2.319 z" /></g></g></g><g
       id="g678"><g
         clip-path="url(#clipPath684)"
         id="g680"><g
           transform="translate(825.8409,657.961)"
           id="g686"><path
             id="path688"
             style="fill:none;stroke:#000000;stroke-width:2;stroke-linecap:butt;stroke-linejoin:miter;stroke-miterlimit:10;stroke-dasharray:none;stroke-opacity:1"
             d="m 0,0 c 0,0 -0.104,-1.431 -0.834,-3.005 -0.661,-1.399 -1.869,-2.945 -3.926,-3.643 -1.814,-0.633 -4.307,-0.607 -7.68,0.768 -4.835,1.979 -6.23,4.736 -6.265,7.213 -0.025,1.279 0.305,2.497 0.722,3.471 0.674,1.637 1.617,2.74 1.617,2.74 C -10.071,4.262 -6.786,2.752 0,0 Z" /></g><g
           transform="translate(801.4254,599.1194)"
           id="g690"><path
             id="path692"
             style="fill:none;stroke:#ffffff;stroke-width:2;stroke-linecap:butt;stroke-linejoin:miter;stroke-miterlimit:10;stroke-dasharray:none;stroke-opacity:1"
             d="M 0,0 -31.213,22.452 -113.75,-53.943" /></g><g
           transform="translate(792.7421,684.9317)"
           id="g694"><path
             id="path696"
             style="fill:#dddcdb;fill-opacity:1;fill-rule:nonzero;stroke:none"
             d="m 0,0 c 0,0 -2.99,-14.451 -2.99,-17.939 0,-3.488 18.77,-32.556 36.21,-22.258 0,0 -6.644,-4.817 -11.627,-4.152 -4.983,0.664 -16.61,6.478 -19.932,9.468 -3.322,2.989 -12.624,15.945 -11.959,27.573 l 4.152,15.945 1.993,-6.478 z" /></g></g></g></g></svg>