<?xml version="1.0" encoding="utf-8"?>
<!-- Generator: Adobe Illustrator 19.0.0, SVG Export Plug-In . SVG Version: 6.00 Build 0)  -->
<svg version="1.1" id="Layer_1" xmlns="http://www.w3.org/2000/svg" xmlns:xlink="http://www.w3.org/1999/xlink" x="0px" y="0px"
	 viewBox="0 0 1005.7 845.8" style="enable-background:new 0 0 1005.7 845.8;" xml:space="preserve">
<style type="text/css">
	.st0{fill:#FFFFFF;}
	.st1{fill:none;stroke:#0560BC;stroke-width:8;stroke-linecap:round;stroke-linejoin:round;stroke-miterlimit:10;}
	.st2{fill:#CFFFF0;}
	.st3{font-family:'Ubuntu Medium';}
	.st4{font-size:55.5px;}
	.st5{fill:none;stroke:#000000;stroke-width:8;stroke-miterlimit:10;}
	.st6{fill:#00FFB6;}
	.st7{fill:#F2F2F2;}
	.st8{stroke:#000000;stroke-width:8;stroke-linecap:round;stroke-linejoin:round;stroke-miterlimit:10;}
</style>
<rect id="XMLID_183_" class="st0" width="1005.7" height="845.8"/>
<path id="XMLID_160_" class="st1" d="M-210.3,699.3"/>
<g id="XMLID_352_">
	<g id="XMLID_634_">
		<g id="XMLID_680_">
			<path id="XMLID_681_" class="st2" d="M303,320h419.6c4.4,0,8-3.6,8-8v-44.8c0-4.4-3.6-8-8-8H303c-4.4,0-8,3.6-8,8V312
				C295,316.4,298.6,320,303,320z"/>
		</g>
		<g id="XMLID_669_">
			<path id="XMLID_670_" class="st2" d="M275.4,344.3H695c4.4,0,8-3.6,8-8v-44.8c0-4.4-3.6-8-8-8H275.4c-4.4,0-8,3.6-8,8v44.8
				C267.4,340.7,271,344.3,275.4,344.3z"/>
		</g>
		<g id="XMLID_666_">
			<path id="XMLID_667_" class="st2" d="M234.8,411.8h405.8c8.2,0,14.9-6.7,14.9-14.9v-77.4c0-8.2-6.7-14.9-14.9-14.9H234.8
				c-8.2,0-14.9,6.7-14.9,14.9v77.4C219.8,405,226.6,411.8,234.8,411.8z"/>
		</g>
		<g id="XMLID_654_">
			<path id="XMLID_665_" class="st2" d="M294.5,462.6h405.8c8.2,0,14.9-6.7,14.9-14.9v-29.9c0-8.2-6.7-14.9-14.9-14.9H294.5
				c-8.2,0-14.9,6.7-14.9,14.9v29.9C279.6,455.9,286.3,462.6,294.5,462.6z"/>
		</g>
		<g id="XMLID_651_">
			<path id="XMLID_653_" class="st2" d="M216,504.6h405.8c8.2,0,14.9-6.7,14.9-14.9v-45.3c0-8.2-6.7-14.9-14.9-14.9H216
				c-8.2,0-14.9,6.7-14.9,14.9v45.3C201.1,497.9,207.8,504.6,216,504.6z"/>
		</g>
		<g id="XMLID_649_">
			<path id="XMLID_650_" class="st2" d="M359.7,541.1h405.8c8.2,0,14.9-6.7,14.9-14.9v-18.8c0-8.2-6.7-14.9-14.9-14.9H359.7
				c-8.2,0-14.9,6.7-14.9,14.9v18.8C344.8,534.4,351.5,541.1,359.7,541.1z"/>
		</g>
		<g id="XMLID_636_">
			<path id="XMLID_648_" class="st2" d="M300,597.5h412.4c8.2,0,14.9-6.7,14.9-14.9v-43.1c0-8.2-6.7-14.9-14.9-14.9H300
				c-8.2,0-14.9,6.7-14.9,14.9v43.1C285.1,590.8,291.8,597.5,300,597.5z"/>
		</g>
	</g>
</g>
<g id="XMLID_274_">
	<text id="XMLID_265_" transform="matrix(1 0 0 1 386.382 736.2823)" class="st3 st4">Admit</text>
</g>
<g id="XMLID_328_">
	<g id="XMLID_347_">
		<line id="XMLID_348_" class="st5" x1="653.5" y1="457.7" x2="803.8" y2="457.7"/>
	</g>
	<g id="XMLID_331_">
		<line id="XMLID_341_" class="st5" x1="663.4" y1="429.4" x2="723.1" y2="429.4"/>
		<line id="XMLID_334_" class="st5" x1="735.3" y1="429.4" x2="770.7" y2="429.4"/>
	</g>
</g>
<g id="XMLID_295_">
	<g id="XMLID_307_">
		<line id="XMLID_308_" class="st5" x1="235.5" y1="246.6" x2="337.9" y2="246.6"/>
	</g>
	<g id="XMLID_297_">
		<line id="XMLID_304_" class="st5" x1="242.3" y1="274.9" x2="282.9" y2="274.9"/>
		<line id="XMLID_298_" class="st5" x1="291.2" y1="274.9" x2="315.3" y2="274.9"/>
	</g>
</g>
<g id="XMLID_202_">
	<rect id="XMLID_271_" x="377.5" y="150.8" class="st6" width="185.1" height="63.8"/>
</g>
<rect id="XMLID_139_" x="351" y="441.2" class="st7" width="8.5" height="169.3"/>
<rect id="XMLID_18_" x="614.7" y="441.1" class="st7" width="9.2" height="169.4"/>
<g id="XMLID_43_">
	<g id="XMLID_668_">
		<path id="XMLID_393_" d="M456.4,80.4h16v32h-16V80.4z"/>
		<path id="XMLID_165_" d="M407.9,122.6l11.3-11.3l22.6,22.6l-11.3,11.3L407.9,122.6z"/>
		<path id="XMLID_161_" d="M487.1,133.9l22.6-22.6l11.3,11.3l-22.6,22.6L487.1,133.9z"/>
	</g>
	<g id="XMLID_2_">
		<path id="XMLID_11_" class="st6" d="M547.8,148.7l62.8,12.2l1.4,446c0,0-61.7,21.5-70.3,15.8C533.2,617,547.8,148.7,547.8,148.7z"
			/>
		<g id="XMLID_42_">
			<path id="XMLID_16_" class="st1" d="M631.5,518.8"/>
			<path id="XMLID_71_" class="st8" d="M624.4,165c0.3,19.3,0.8,38.6,0.8,58c0,56.8-0.1,113.6-0.2,170.4
				c-0.1,41.7-0.1,83.5-0.2,125.2c0,21.1-0.2,42.1-0.4,63.2c0,1.2-0.8,2.8-1.8,3.5c-19.5,13.3-40.9,22-63.9,26.9
				c-6,1.3-11.9,1.2-17.3-2.4c-1.6-1.1-2.3-2.3-2.3-4.3c0-32.7-0.2-65.5-0.1-98.2c0.1-57.6,0.2-115.2,0.4-172.7
				c0.1-42.6,0.3-85.2,0.4-127.8c0-0.8-0.1-1.7-0.2-2.6c-32.5,0.4-64.7,0.8-97.1,1.3c-0.1,1.3-0.2,2.1-0.2,3
				c0.1,9.9,0.2,19.9,0.2,29.8c0,36.6-0.1,73.2-0.1,109.8c-0.1,44.9-0.1,89.8-0.2,134.8c-0.1,22.6-0.2,45.2-0.4,67.8
				c0,1.2-0.7,2.9-1.6,3.6c-18.2,12.3-38.2,20.6-59.8,24.7c-4.9,0.9-9.6,0.6-14-2.1c-1.7-1.1-2.6-2.3-2.5-4.5
				c0.1-4.6-0.1-9.3-0.1-13.9c0.1-36.4,0.2-72.8,0.3-109.3c0.1-78,0.2-155.9,0.4-233.9c0-18,0.5-35.9,0.6-53.9
				c0-2.2,0.8-3.7,2.7-4.2c3.3-0.8,6.8-2,10.1-1.9c11.5,0.5,22.9,1.6,34.4,2.3c9.9,0.7,19.9,2,29.7,1.7c31.3-0.9,62.5-2.5,93.8-3.8
				c1.4-0.1,2.9,0,4.2,0c0.9-4,2.9-5.8,6.8-6.2c1.8-0.2,3.7-0.1,5.5,0.2c10,1.6,20,3.2,30,4.9c13.9,2.3,27.8,4.6,42,7
				C624.3,162.9,624.4,164,624.4,165z M562.5,609.1c0.8-0.1,1.6-0.1,2.4-0.3c19.1-5,37.1-12.5,53.9-22.9c1.6-1,2.8-1.8,2.8-4.2
				c-0.2-42.2-0.2-84.4-0.3-126.7c-0.2-68.2-0.4-136.4-0.5-204.6c0-28,0.5-56,0.8-84.1c0.1-5.5,0.4-4.5-4.4-5.3
				c-20.4-3.1-40.8-6.3-61.3-9.3c-3.3-0.5-6.7-0.2-10.1-0.1c-2.6,0.1-3.7,1.5-3.7,4.4c0.3,19.4,0.5,38.8,0.6,58.3
				c0.2,27.2,0.3,54.5,0.4,81.7c0.1,21.2,0.3,42.3,0.3,63.5c0,19.4-0.2,38.8-0.2,58.2c0,35.8,0,71.7,0.1,107.5
				c0,26.4,0.1,52.8,0.2,79.1c0,4.3,0.7,5.1,4.8,6.1c0.3,0.1,0.6,0.1,0.9,0.1c3-0.1,6.4,0.6,8.8-0.6c3-1.5,1.2-5.2,1.2-7.8
				c0.1-77.7,0.1-155.4,0.2-233c0.1-62.6,0.5-125.2,0.7-187.8c0-6.4,0-12.7,0-19.1c0.4,0,0.8,0,1.2,0
				C561.8,311.1,562.1,460,562.5,609.1z M390.7,574.7c16.4-4.5,31.8-11.2,46.3-20.2c1.4-0.9,2.2-1.7,2.2-3.6
				c-0.2-19-0.3-38.1-0.3-57.1c-0.1-54.4-0.2-108.8-0.3-163.2c-0.1-35-0.1-69.9-0.1-104.9c0-5.4,0.2-10.8,0.2-16.2
				c0-1.2,0-2.5,0-4.2c-16,0.5-31.7,1-47.5,1.4c-0.2-1.3-0.4-2.2-0.4-3c-0.4-12.2-0.8-24.3-1-36.5c-0.1-5.5,0.1-4.5,4.3-4.8
				c6-0.4,11.9-0.8,17.9-1.2c0.9-0.1,1.8-0.2,2.7-0.7c-0.4-0.1-0.8-0.3-1.2-0.3c-10-1-20-2.1-30-2.7c-4.1-0.3-8.3,0.2-12.3,0.9
				c-4.5,0.8-4.5,1.1-4.4,5.8c0.3,60.5,0.7,121,0.9,181.4c0.1,18.9-0.1,37.9-0.1,56.8c0.1,56.8,0.2,113.6,0.2,170.4
				c0,2,0.6,3.4,2.5,3.6c3.6,0.4,7.2,0.5,10.8,0.5c0.4,0,1.1-1.4,1.2-2.2c0.1-10.5,0-21.1,0-31.6c0.2-92,0.3-184,0.5-275.9
				c0.1-30,0.3-60.1,0.4-90.1c0-2.5,0-5,0-7.5c0.3,0,0.1-13.3,0.4-13.3c0.3,135.3,1.2,283.9,1.5,419.8
				C387.2,575.6,388.9,575.2,390.7,574.7z M523.4,157.4c-18.4,0.8-36.8,1.8-55.3,2.7c-15.7,0.8-31.4,1.5-47.1,2.4
				c-9.1,0.5-18.3,1.5-27.4,2.1c-1.9,0.1-2.4,0.8-2.4,2.6c0.5,11.8,1,23.5,1.4,35.3c0.1,1.7,0.7,2.1,2.3,2.1
				c24.5-0.7,49-1.5,73.5-1.9c20.3-0.3,40.6-0.2,60.8-0.2c2.7,0,5.4,0,8.1,0c1.3,0,2.2-0.2,2.2-1.8c0.1-14.3,0.3-28.6,0.5-42.9
				c0-0.3-0.2-0.5-0.2-0.5C534.3,157.3,528.8,157.1,523.4,157.4z"/>
			<path id="XMLID_41_" d="M467.1,179.6c0,5.1,4,9,9.3,9c5.3,0,9.3-4.1,9.3-9.4c0-5.1-3.9-8.8-9.1-8.8
				C471.4,170.4,467.2,174.5,467.1,179.6z"/>
			<path id="XMLID_40_" d="M446.3,180.6c0.1,4.6,3.6,8.2,8,8.2c4.8,0,8.7-4.2,8.6-9c-0.1-4.6-3.6-8.1-8.2-8
				C449.9,171.8,446.2,175.7,446.3,180.6z"/>
			<path id="XMLID_37_" d="M443,181c0-4.4-3.2-7.8-7.3-7.7c-4.3,0.1-7.8,4-7.7,8.5c0.1,4.3,3.5,7.8,7.4,7.8
				C439.7,189.5,443.1,185.7,443,181z"/>
		</g>
	</g>
</g>
<g id="XMLID_14_">
	<g id="XMLID_191_">
		<path id="XMLID_198_" d="M318.9,415.6H346v9h-27.1V415.6z"/>
		<path id="XMLID_194_" d="M316.9,374.5l4-8.1l27.1,13.5l-4,8.1L316.9,374.5z"/>
		<path id="XMLID_192_" d="M316.9,465.7l27.1-13.5l4,8.1l-27.1,13.5L316.9,465.7z"/>
	</g>
	<g id="XMLID_173_">
		<path id="XMLID_182_" d="M601.9,424.6h-27.1v-9h27.1V424.6z"/>
		<path id="XMLID_179_" d="M576.9,388l-4-8.1l27.1-13.5l4,8.1L576.9,388z"/>
		<path id="XMLID_174_" d="M599.9,473.8l-27.1-13.5l4-8.1l27.1,13.5L599.9,473.8z"/>
	</g>
</g>
</svg>
