<svg width="145" height="131" viewBox="0 0 145 131" fill="none" xmlns="http://www.w3.org/2000/svg">
<path d="M24.4146 57.4065H124.948C126.002 57.4065 126.865 56.544 126.865 55.4897V44.756C126.865 43.7018 126.002 42.8392 124.948 42.8392H24.4146C23.3604 42.8392 22.4978 43.7018 22.4978 44.756V55.4897C22.4978 56.544 23.3604 57.4065 24.4146 57.4065Z" fill="#CFFFF0"/>
<path d="M17.8018 63.2286H118.335C119.389 63.2286 120.252 62.3661 120.252 61.3119V50.5781C120.252 49.5239 119.389 48.6614 118.335 48.6614H17.8018C16.7476 48.6614 15.8851 49.5239 15.8851 50.5781V61.3119C15.8851 62.3661 16.7476 63.2286 17.8018 63.2286Z" fill="#CFFFF0"/>
<path d="M8.07432 79.4012H105.301C107.266 79.4012 108.871 77.7959 108.871 75.8312V57.2867C108.871 55.3221 107.266 53.7168 105.301 53.7168H8.07432C6.10966 53.7168 4.50438 55.3221 4.50438 57.2867V75.8312C4.48042 77.7719 6.10966 79.4012 8.07432 79.4012Z" fill="#CFFFF0"/>
<path d="M22.378 91.5725H119.605C121.57 91.5725 123.175 89.9672 123.175 88.0026V80.8387C123.175 78.8741 121.57 77.2688 119.605 77.2688H22.378C20.4133 77.2688 18.8081 78.8741 18.8081 80.8387V88.0026C18.8081 89.9672 20.4133 91.5725 22.378 91.5725Z" fill="#CFFFF0"/>
<path d="M3.56997 101.635H100.797C102.762 101.635 104.367 100.03 104.367 98.0655V87.2119C104.367 85.2472 102.762 83.642 100.797 83.642H3.56997C1.6053 83.642 3.05176e-05 85.2472 3.05176e-05 87.2119V98.0655C3.05176e-05 100.03 1.6053 101.635 3.56997 101.635Z" fill="#CFFFF0"/>
<path d="M37.9995 110.381H135.226C137.191 110.381 138.796 108.775 138.796 106.811V102.306C138.796 100.342 137.191 98.7363 135.226 98.7363H37.9995C36.0348 98.7363 34.4296 100.342 34.4296 102.306V106.811C34.4296 108.775 36.0348 110.381 37.9995 110.381Z" fill="#CFFFF0"/>
<path d="M23.6958 123.894H122.504C124.469 123.894 126.074 122.288 126.074 120.324V109.997C126.074 108.033 124.469 106.427 122.504 106.427H23.6958C21.7311 106.427 20.1258 108.033 20.1258 109.997V120.324C20.1258 122.288 21.7311 123.894 23.6958 123.894Z" fill="#CFFFF0"/>
<path d="M108.392 90.3986H144.403" stroke="black" stroke-width="2" stroke-miterlimit="10"/>
<path d="M110.764 83.618H125.068" stroke="black" stroke-width="2" stroke-miterlimit="10"/>
<path d="M127.991 83.618H136.472" stroke="black" stroke-width="2" stroke-miterlimit="10"/>
<path d="M8.242 39.8204H32.7763" stroke="black" stroke-width="2" stroke-miterlimit="10"/>
<path d="M9.87128 46.601H19.5988" stroke="black" stroke-width="2" stroke-miterlimit="10"/>
<path d="M21.5874 46.601H27.3616" stroke="black" stroke-width="2" stroke-miterlimit="10"/>
<path d="M86.6129 16.8673H42.2642V32.1534H86.6129V16.8673Z" fill="#00FFB6"/>
<path d="M37.9516 86.4452H35.915V127.008H37.9516V86.4452Z" fill="#F2F2F2"/>
<path d="M101.3 86.4213H99.0957V127.008H101.3V86.4213Z" fill="#F2F2F2"/>
<path d="M61.1682 0H65.0016V7.66698H61.1682V0Z" fill="black"/>
<path d="M49.5479 10.1107L52.2553 7.40332L57.6701 12.8181L54.9627 15.5255L49.5479 10.1107Z" fill="black"/>
<path d="M68.5237 12.8181L73.9385 7.40332L76.6459 10.1107L71.2311 15.5255L68.5237 12.8181Z" fill="black"/>
<path d="M83.067 16.3641L98.1135 19.2872L98.4489 126.146C98.4489 126.146 83.666 131.297 81.6055 129.931C79.569 128.566 83.067 16.3641 83.067 16.3641Z" fill="#00FFB6"/>
<path d="M101.42 20.2696C101.492 24.8937 101.612 29.5179 101.612 34.166C101.612 47.7749 101.588 61.3837 101.564 74.9926C101.54 84.9837 101.54 94.9987 101.516 104.99C101.516 110.045 101.468 115.077 101.42 120.132C101.42 120.419 101.228 120.803 100.989 120.971C96.3165 124.157 91.1892 126.242 85.6786 127.416C84.241 127.727 82.8274 127.703 81.5336 126.841C81.1503 126.577 80.9825 126.29 80.9825 125.81C80.9825 117.976 80.9346 110.117 80.9586 102.282C80.9825 88.4817 81.0065 74.6812 81.0544 60.9046C81.0784 50.6979 81.1263 40.4912 81.1502 30.2846C81.1502 30.0929 81.1263 29.8773 81.1023 29.6616C73.3155 29.7575 65.6007 29.8533 57.8378 29.9731C57.8139 30.2846 57.7899 30.4762 57.7899 30.6919C57.8139 33.0638 57.8378 35.4598 57.8378 37.8317C57.8378 46.6009 57.8139 55.37 57.8139 64.1391C57.7899 74.8968 57.7899 85.6545 57.766 96.4362C57.742 101.851 57.718 107.266 57.6701 112.681C57.6701 112.968 57.5024 113.375 57.2868 113.543C52.9262 116.49 48.1343 118.479 42.9591 119.461C41.7851 119.677 40.659 119.605 39.6048 118.958C39.1975 118.694 38.9819 118.407 39.0058 117.88C39.0298 116.778 38.9819 115.652 38.9819 114.549C39.0058 105.828 39.0298 97.1071 39.0537 88.3619C39.0777 69.6737 39.1017 51.0094 39.1496 32.3211C39.1496 28.0084 39.2694 23.7197 39.2933 19.407C39.2933 18.8799 39.485 18.5205 39.9402 18.4007C40.7309 18.2091 41.5695 17.9216 42.3601 17.9455C45.1154 18.0653 47.8468 18.3289 50.6021 18.4966C52.9741 18.6643 55.37 18.9758 57.718 18.9039C65.2173 18.6883 72.6926 18.3049 80.1919 17.9934C80.5273 17.9695 80.8867 17.9934 81.1982 17.9934C81.4138 17.0351 81.893 16.6038 82.8274 16.508C83.2587 16.46 83.7139 16.484 84.1452 16.5559C86.5411 16.9392 88.937 17.3226 91.333 17.7299C94.6633 18.2809 97.9936 18.832 101.396 19.407C101.396 19.7664 101.42 20.03 101.42 20.2696ZM86.589 126.673C86.7807 126.649 86.9724 126.649 87.164 126.601C91.7403 125.403 96.0529 123.606 100.078 121.114C100.461 120.875 100.749 120.683 100.749 120.108C100.701 109.997 100.701 99.8864 100.677 89.7516C100.629 73.4113 100.581 57.0711 100.557 40.7308C100.557 34.0222 100.677 27.3136 100.749 20.581C100.773 19.2633 100.845 19.5029 99.6948 19.3112C94.8071 18.5685 89.9194 17.8018 85.0077 17.083C84.217 16.9632 83.4024 17.0351 82.5878 17.059C81.9649 17.083 81.7013 17.4184 81.7013 18.1132C81.7732 22.7613 81.8211 27.4094 81.8451 32.0815C81.893 38.5984 81.9169 45.1393 81.9409 51.6563C81.9649 56.7356 82.0128 61.7911 82.0128 66.8704C82.0128 71.5185 81.9649 76.1666 81.9649 80.8148C81.9649 89.3922 81.9649 97.9936 81.9888 106.571C81.9888 112.896 82.0128 119.222 82.0367 125.523C82.0367 126.553 82.2045 126.745 83.1868 126.984C83.2587 127.008 83.3306 127.008 83.4024 127.008C84.1212 126.984 84.9358 127.152 85.5108 126.865C86.2296 126.505 85.7984 125.619 85.7984 124.996C85.8223 106.379 85.8223 87.763 85.8463 69.1705C85.8702 54.172 85.9661 39.1735 86.014 24.1749C86.014 22.6415 86.014 21.1321 86.014 19.5987C86.1098 19.5987 86.2057 19.5987 86.3015 19.5987C86.4213 55.2741 86.4932 90.9495 86.589 126.673ZM45.4269 118.431C49.3562 117.353 53.046 115.747 56.5201 113.591C56.8555 113.375 57.0472 113.184 57.0472 112.729C56.9993 108.176 56.9753 103.6 56.9753 99.0478C56.9513 86.0139 56.9274 72.9801 56.9034 59.9462C56.8795 51.5604 56.8795 43.1986 56.8795 34.8129C56.8795 33.5191 56.9274 32.2253 56.9274 30.9315C56.9274 30.644 56.9274 30.3325 56.9274 29.9252C53.0939 30.045 49.3323 30.1648 45.5467 30.2606C45.4988 29.9491 45.4509 29.7335 45.4509 29.5418C45.355 26.6188 45.2592 23.7197 45.2113 20.7967C45.1873 19.4789 45.2352 19.7185 46.2415 19.6466C47.6791 19.5508 49.0927 19.455 50.5302 19.3591C50.7459 19.3352 50.9615 19.3112 51.1772 19.1914C51.0813 19.1674 50.9855 19.1195 50.8896 19.1195C48.4937 18.8799 46.0978 18.6164 43.7018 18.4726C42.7195 18.4007 41.7132 18.5205 40.7549 18.6883C39.6767 18.8799 39.6767 18.9518 39.7006 20.0779C39.7725 34.5733 39.8684 49.0687 39.9163 63.5401C39.9402 68.0684 39.8923 72.6207 39.8923 77.149C39.9163 90.7579 39.9402 104.367 39.9402 117.976C39.9402 118.455 40.084 118.79 40.5392 118.838C41.4017 118.934 42.2643 118.958 43.1268 118.958C43.2227 118.958 43.3904 118.623 43.4143 118.431C43.4383 115.915 43.4143 113.375 43.4143 110.86C43.4622 88.8172 43.4862 66.7746 43.5341 44.756C43.5581 37.5682 43.606 30.3564 43.63 23.1687C43.63 22.5697 43.63 21.9707 43.63 21.3717C43.7018 21.3717 43.6539 18.1851 43.7258 18.1851C43.7977 50.6021 44.0133 86.2056 44.0852 118.766C44.5883 118.646 44.9957 118.551 45.4269 118.431ZM77.2209 18.4487C72.8124 18.6403 68.4039 18.8799 63.9714 19.0956C60.2098 19.2872 56.4482 19.455 52.6866 19.6706C50.5063 19.7904 48.302 20.03 46.1217 20.1737C45.6665 20.1977 45.5467 20.3654 45.5467 20.7967C45.6665 23.6239 45.7863 26.4271 45.8821 29.2543C45.9061 29.6616 46.0499 29.7575 46.4332 29.7575C52.3032 29.5897 58.1733 29.3981 64.0433 29.3022C68.907 29.2304 73.7708 29.2543 78.6106 29.2543C79.2575 29.2543 79.9044 29.2543 80.5513 29.2543C80.8627 29.2543 81.0784 29.2064 81.0784 28.823C81.1023 25.3969 81.1502 21.9707 81.1982 18.5445C81.1982 18.4726 81.1502 18.4247 81.1502 18.4247C79.8325 18.4247 78.5147 18.3768 77.2209 18.4487Z" fill="black" stroke="black" stroke-width="2" stroke-miterlimit="10" stroke-linecap="round" stroke-linejoin="round"/>
<path d="M63.7319 23.7676C63.7319 24.9895 64.6902 25.924 65.9601 25.924C67.2299 25.924 68.1883 24.9416 68.1883 23.6718C68.1883 22.4498 67.2539 21.5634 66.008 21.5634C64.7621 21.5634 63.7558 22.5457 63.7319 23.7676Z" fill="black"/>
<path d="M58.7483 24.0072C58.7723 25.1094 59.6109 25.9719 60.6651 25.9719C61.8151 25.9719 62.7495 24.9656 62.7256 23.8156C62.7016 22.7134 61.8631 21.8749 60.7609 21.8988C59.6109 21.8988 58.7244 22.8332 58.7483 24.0072Z" fill="black"/>
<path d="M57.9576 24.1031C57.9576 23.0489 57.191 22.2342 56.2086 22.2582C55.1784 22.2822 54.3398 23.2166 54.3638 24.2947C54.3877 25.325 55.2023 26.1636 56.1367 26.1636C57.167 26.1396 57.9816 25.2292 57.9576 24.1031Z" fill="black"/>
<path d="M28.2241 80.3116H34.717V82.468H28.2241V80.3116Z" fill="black"/>
<path d="M27.7449 70.4644L28.7033 68.5237L35.1962 71.7582L34.2379 73.6989L27.7449 70.4644Z" fill="black"/>
<path d="M27.7449 92.3153L34.2378 89.0808L35.1962 91.0215L28.7032 94.256L27.7449 92.3153Z" fill="black"/>
<path d="M96.029 82.468H89.536V80.3116H96.029V82.468Z" fill="black"/>
<path d="M90.0391 73.6989L89.0807 71.7582L95.5737 68.5237L96.5321 70.4644L90.0391 73.6989Z" fill="black"/>
<path d="M95.5498 94.256L89.0568 91.0215L90.0152 89.0808L96.5081 92.3153L95.5498 94.256Z" fill="black"/>
</svg>
