<svg width="44" height="98" viewBox="0 0 44 98" fill="none" xmlns="http://www.w3.org/2000/svg">
<path d="M41.4346 39.616C41.4346 40.192 41.3146 40.752 41.0746 41.296C40.8506 41.824 40.5466 42.352 40.1626 42.88C39.7786 43.392 39.3466 43.904 38.8666 44.416C38.3866 44.912 37.9066 45.4 37.4266 45.88C37.1546 46.152 36.8346 46.472 36.4666 46.84C36.1146 47.208 35.7786 47.592 35.4586 47.992C35.1386 48.392 34.8666 48.776 34.6426 49.144C34.4346 49.512 34.3306 49.832 34.3306 50.104H41.9866V52H31.9066C31.8906 51.904 31.8826 51.808 31.8826 51.712C31.8826 51.616 31.8826 51.528 31.8826 51.448C31.8826 50.696 32.0026 50 32.2426 49.36C32.4986 48.704 32.8266 48.088 33.2266 47.512C33.6266 46.936 34.0746 46.392 34.5706 45.88C35.0666 45.368 35.5546 44.872 36.0346 44.392C36.4346 44.008 36.8106 43.632 37.1626 43.264C37.5306 42.88 37.8506 42.504 38.1226 42.136C38.4106 41.752 38.6346 41.36 38.7946 40.96C38.9706 40.56 39.0586 40.136 39.0586 39.688C39.0586 39.208 38.9786 38.8 38.8186 38.464C38.6746 38.128 38.4746 37.848 38.2186 37.624C37.9626 37.4 37.6586 37.24 37.3066 37.144C36.9706 37.032 36.6106 36.976 36.2266 36.976C35.7626 36.976 35.3386 37.04 34.9546 37.168C34.5706 37.296 34.2266 37.448 33.9226 37.624C33.6186 37.784 33.3626 37.96 33.1546 38.152C32.9466 38.328 32.7866 38.464 32.6746 38.56L31.5706 36.976C31.7146 36.816 31.9306 36.624 32.2186 36.4C32.5066 36.16 32.8506 35.936 33.2506 35.728C33.6506 35.52 34.0986 35.344 34.5946 35.2C35.0906 35.056 35.6266 34.984 36.2026 34.984C37.9466 34.984 39.2506 35.392 40.1146 36.208C40.9946 37.008 41.4346 38.144 41.4346 39.616Z" fill="#C31414"/>
<path d="M20.96 47.1514L22.9573 47.0484L22.9573 47.0484L20.96 47.1514ZM6.11184 96.6595C6.47608 97.7023 7.61669 98.2524 8.65948 97.8881L25.6527 91.9526C26.6955 91.5884 27.2456 90.4477 26.8813 89.4049C26.5171 88.3622 25.3765 87.8121 24.3337 88.1763L9.22861 93.4524L3.95256 78.3473C3.58833 77.3045 2.44771 76.7544 1.40492 77.1187C0.362137 77.4829 -0.18794 78.6235 0.176295 79.6663L6.11184 96.6595ZM7.99998 1C6.16864 1.80388 6.1686 1.80378 6.1686 1.80379C6.16867 1.80393 6.16871 1.80404 6.16884 1.80432C6.16908 1.80489 6.16951 1.80586 6.17012 1.80725C6.17134 1.81003 6.17327 1.81445 6.17592 1.8205C6.1812 1.83261 6.18933 1.85123 6.2002 1.87624C6.22193 1.92625 6.25466 2.00178 6.29767 2.10175C6.38369 2.30168 6.51084 2.59932 6.67352 2.98593C6.99889 3.75922 7.46621 4.88807 8.03068 6.30274C9.16005 9.13317 10.6761 13.1022 12.2216 17.6532C15.3295 26.8047 18.4915 38.1241 18.9626 47.2545L22.9573 47.0484C22.4563 37.337 19.1383 25.5808 16.0092 16.3669C14.4363 11.7353 12.8946 7.69931 11.7459 4.82035C11.1713 3.38034 10.6944 2.22841 10.3604 1.4346C10.1934 1.03766 10.0621 0.730164 9.97201 0.520857C9.92698 0.416201 9.89228 0.336084 9.86859 0.281599C9.85675 0.254357 9.84766 0.233521 9.84142 0.219229C9.8383 0.212084 9.83589 0.206574 9.8342 0.202716C9.83335 0.200788 9.83269 0.199273 9.83221 0.198173C9.83197 0.197623 9.83174 0.197109 9.83162 0.196834C9.83144 0.196426 9.83131 0.196121 7.99998 1ZM18.9626 47.2545C19.4537 56.7713 16.3287 68.6738 12.9741 78.3658C11.3091 83.1762 9.61135 87.3761 8.33007 90.3727C7.68975 91.8702 7.15429 93.0652 6.78007 93.8834C6.59298 94.2924 6.44627 94.6072 6.34697 94.8183C6.29733 94.9238 6.25955 95.0034 6.23451 95.056C6.22199 95.0823 6.21266 95.1018 6.20662 95.1144C6.20361 95.1207 6.20141 95.1252 6.20006 95.128C6.19938 95.1294 6.19891 95.1304 6.19866 95.1309C6.19853 95.1312 6.1985 95.1313 6.19843 95.1314C6.19845 95.1314 6.19852 95.1312 7.99998 96C9.80143 96.8688 9.80161 96.8684 9.80184 96.8679C9.80199 96.8676 9.80228 96.867 9.80257 96.8664C9.80317 96.8652 9.80397 96.8635 9.80499 96.8614C9.80702 96.8572 9.80989 96.8512 9.81359 96.8435C9.82099 96.828 9.8317 96.8056 9.84561 96.7764C9.87343 96.718 9.91405 96.6324 9.96658 96.5207C10.0716 96.2974 10.2244 95.9697 10.4177 95.5471C10.8042 94.702 11.3533 93.4765 12.008 91.9453C13.3167 88.8845 15.051 84.5944 16.7541 79.6741C20.1355 69.9047 23.4905 57.383 22.9573 47.0484L18.9626 47.2545Z" fill="#C41414"/>
</svg>
