<svg width="320" height="87" viewBox="0 0 320 87" fill="none" xmlns="http://www.w3.org/2000/svg">
<path d="M155.459 9.8C156.371 9.448 157.259 9 158.123 8.456C158.987 7.896 159.779 7.2 160.499 6.368H162.083V23H159.851V9.464C159.659 9.64 159.419 9.824 159.131 10.016C158.859 10.208 158.555 10.392 158.219 10.568C157.899 10.744 157.555 10.912 157.187 11.072C156.835 11.232 156.491 11.368 156.155 11.48L155.459 9.8Z" fill="#C31414"/>
<path d="M155 32L154.969 30.0002L155 32ZM318.638 80.8955C319.685 80.5431 320.248 79.4088 319.896 78.362L314.153 61.3024C313.801 60.2555 312.667 59.6925 311.62 60.0449C310.573 60.3973 310.01 61.5316 310.362 62.5784L315.466 77.7425L300.302 82.8465C299.256 83.1989 298.693 84.3332 299.045 85.3801C299.397 86.4269 300.532 86.9899 301.578 86.6376L318.638 80.8955ZM1 79C1.90166 80.7852 1.90177 80.7851 1.90223 80.7849C1.90285 80.7846 1.90366 80.7842 1.90489 80.7836C1.90734 80.7823 1.91119 80.7804 1.9164 80.7778C1.92684 80.7725 1.94277 80.7645 1.96415 80.7537C2.00691 80.7323 2.07145 80.6999 2.15731 80.657C2.32902 80.5712 2.58602 80.4432 2.92467 80.2759C3.60196 79.9413 4.60577 79.4492 5.90697 78.822C8.50945 77.5674 12.3011 75.7721 17.0488 73.6139C26.5457 69.2968 39.8612 63.5306 55.1327 57.735C85.74 46.1196 123.965 34.4809 155.031 33.9997L154.969 30.0002C123.164 30.4928 84.3883 42.3542 53.7135 53.9953C38.344 59.828 24.9479 65.6292 15.3935 69.9725C10.6156 72.1444 6.79665 73.9525 4.16996 75.2188C2.85658 75.852 1.84116 76.3497 1.15286 76.6897C0.808708 76.8598 0.546326 76.9904 0.369361 77.0788C0.280878 77.123 0.213748 77.1567 0.168426 77.1795C0.145765 77.1909 0.128555 77.1995 0.116855 77.2054C0.111005 77.2084 0.106532 77.2106 0.103444 77.2122C0.1019 77.213 0.100623 77.2136 0.0998501 77.214C0.0989208 77.2145 0.0983382 77.2148 1 79ZM155.031 33.9997C187.761 33.4928 228.218 45.1281 260.653 56.9935C276.836 62.9137 290.959 68.8669 301.035 73.3399C306.072 75.5761 310.096 77.4415 312.859 78.7467C314.24 79.3993 315.305 79.9117 316.025 80.2604C316.384 80.4348 316.657 80.5682 316.839 80.6577C316.93 80.7024 316.999 80.7362 317.044 80.7586C317.067 80.7698 317.084 80.7782 317.095 80.7837C317.101 80.7864 317.105 80.7884 317.107 80.7897C317.109 80.7904 317.11 80.7908 317.11 80.7911C317.111 80.7914 317.111 80.7914 318 79C318.889 77.2085 318.889 77.2082 318.888 77.2077C318.887 77.2073 318.885 77.2066 318.884 77.2058C318.881 77.2042 318.876 77.2019 318.87 77.1988C318.857 77.1926 318.839 77.1836 318.815 77.1717C318.767 77.148 318.695 77.1129 318.602 77.0668C318.414 76.9746 318.135 76.8384 317.77 76.6613C317.039 76.307 315.961 75.7887 314.567 75.13C311.78 73.8128 307.727 71.9342 302.658 69.684C292.521 65.1841 278.314 59.195 262.027 53.237C229.523 41.3459 188.48 29.4812 154.969 30.0002L155.031 33.9997Z" fill="#C41414"/>
</svg>
