<svg width="320" height="84" viewBox="0 0 320 84" fill="none" xmlns="http://www.w3.org/2000/svg">
<path d="M159.651 77.368C161.075 77.368 162.091 77.088 162.699 76.528C163.323 75.968 163.635 75.216 163.635 74.272C163.635 73.664 163.507 73.152 163.251 72.736C162.995 72.32 162.659 71.992 162.243 71.752C161.827 71.496 161.339 71.32 160.779 71.224C160.235 71.112 159.675 71.056 159.099 71.056H158.523V69.232H159.315C159.715 69.232 160.123 69.192 160.539 69.112C160.971 69.032 161.363 68.888 161.715 68.68C162.067 68.472 162.355 68.192 162.579 67.84C162.803 67.472 162.915 67.016 162.915 66.472C162.915 66.024 162.835 65.64 162.675 65.32C162.515 65 162.299 64.736 162.027 64.528C161.771 64.32 161.467 64.176 161.115 64.096C160.779 64 160.419 63.952 160.035 63.952C159.267 63.952 158.611 64.064 158.067 64.288C157.539 64.512 157.091 64.744 156.723 64.984L155.859 63.28C156.051 63.152 156.291 63.016 156.579 62.872C156.883 62.712 157.219 62.568 157.587 62.44C157.955 62.312 158.347 62.208 158.763 62.128C159.195 62.032 159.643 61.984 160.107 61.984C160.987 61.984 161.747 62.096 162.387 62.32C163.027 62.528 163.555 62.832 163.971 63.232C164.387 63.616 164.699 64.08 164.907 64.624C165.115 65.152 165.219 65.728 165.219 66.352C165.219 67.216 164.971 67.96 164.475 68.584C163.979 69.192 163.379 69.656 162.675 69.976C163.107 70.104 163.523 70.288 163.923 70.528C164.323 70.768 164.667 71.072 164.955 71.44C165.259 71.808 165.499 72.232 165.675 72.712C165.867 73.192 165.963 73.728 165.963 74.32C165.963 75.04 165.835 75.712 165.579 76.336C165.339 76.944 164.955 77.472 164.427 77.92C163.915 78.368 163.267 78.72 162.483 78.976C161.699 79.232 160.771 79.36 159.699 79.36C159.283 79.36 158.851 79.328 158.403 79.264C157.971 79.2 157.563 79.12 157.179 79.024C156.795 78.928 156.459 78.832 156.171 78.736C155.883 78.64 155.675 78.56 155.547 78.496L155.979 76.552C156.251 76.68 156.699 76.848 157.323 77.056C157.963 77.264 158.739 77.368 159.651 77.368Z" fill="#C31414"/>
<path d="M165 54.9999L165.031 56.9997L165 54.9999ZM1.362 6.10437C0.315137 6.45673 -0.247865 7.59102 0.104497 8.63788L5.84657 25.6974C6.19893 26.7443 7.33322 27.3073 8.38008 26.9549C9.42694 26.6026 9.98994 25.4683 9.63758 24.4214L4.53352 9.25738L19.6976 4.15332C20.7444 3.80095 21.3074 2.66666 20.9551 1.6198C20.6027 0.572941 19.4684 0.00993963 18.4216 0.362302L1.362 6.10437ZM319 7.9999C318.098 6.21469 318.098 6.21474 318.098 6.21497C318.097 6.21529 318.096 6.21569 318.095 6.21631C318.093 6.21755 318.089 6.21949 318.084 6.22212C318.073 6.22737 318.057 6.23539 318.036 6.24614C317.993 6.26762 317.929 6.29998 317.843 6.34289C317.671 6.42869 317.414 6.55664 317.075 6.72395C316.398 7.05857 315.394 7.55063 314.093 8.17791C311.491 9.43251 307.699 11.2278 302.951 13.386C293.454 17.7031 280.139 23.4693 264.867 29.2649C234.26 40.8803 196.035 52.519 164.969 53.0001L165.031 56.9997C196.836 56.507 235.612 44.6457 266.287 33.0046C281.656 27.1719 295.052 21.3707 304.606 17.0274C309.384 14.8555 313.203 13.0473 315.83 11.7811C317.143 11.1479 318.159 10.6502 318.847 10.3101C319.191 10.1401 319.454 10.0095 319.631 9.92105C319.719 9.87684 319.786 9.84317 319.832 9.8204C319.854 9.80902 319.871 9.80035 319.883 9.79446C319.889 9.79151 319.893 9.78926 319.897 9.7877C319.898 9.78692 319.899 9.78628 319.9 9.78589C319.901 9.78542 319.902 9.78512 319 7.9999ZM164.969 53.0001C132.239 53.5071 91.7817 41.8718 59.3468 30.0064C43.1635 24.0861 29.041 18.1329 18.9651 13.6599C13.9279 11.4238 9.90383 9.55838 7.1414 8.25317C5.76023 7.60059 4.69457 7.08811 3.97549 6.73941C3.61595 6.56506 3.34307 6.43166 3.16072 6.34217C3.06955 6.29743 3.00101 6.26366 2.95559 6.24125C2.93288 6.23004 2.91595 6.22167 2.90487 6.21618C2.89932 6.21343 2.89524 6.21141 2.89263 6.21011C2.89132 6.20947 2.89046 6.20904 2.8898 6.20872C2.88931 6.20847 2.88919 6.20841 2 7.99988C1.11082 9.79134 1.11143 9.79165 1.11242 9.79214C1.11324 9.79254 1.11459 9.79321 1.11623 9.79402C1.1195 9.79565 1.12425 9.798 1.13045 9.80107C1.14287 9.80722 1.16113 9.81625 1.18518 9.82812C1.23329 9.85186 1.30454 9.88696 1.39847 9.93306C1.58632 10.0252 1.86485 10.1614 2.23017 10.3386C2.9608 10.6929 4.03864 11.2112 5.4326 11.8698C8.22043 13.187 12.2732 15.0656 17.3421 17.3159C27.4786 21.8157 41.6859 27.8049 57.9725 33.7629C90.4774 45.6539 131.52 57.5187 165.031 56.9997L164.969 53.0001Z" fill="#C41414"/>
</svg>
