<?xml version="1.0" encoding="utf-8"?>
<!-- Generator: Adobe Illustrator 19.0.0, SVG Export Plug-In . SVG Version: 6.00 Build 0)  -->
<svg version="1.1" id="Layer_1" xmlns="http://www.w3.org/2000/svg" xmlns:xlink="http://www.w3.org/1999/xlink" x="0px" y="0px"
	 viewBox="1004 -364 2619.1 1521" style="enable-background:new 1004 -364 2619.1 1521;" xml:space="preserve">
<style type="text/css">
	
		.st0{fill:none;stroke:#F4C500;stroke-width:14;stroke-linecap:round;stroke-linejoin:round;stroke-miterlimit:10;stroke-dasharray:10,30;}
	.st1{fill:none;stroke:#F4C500;stroke-width:14;stroke-linecap:round;stroke-linejoin:round;stroke-miterlimit:10;}
	.st2{fill:#FFEC00;}
	.st3{fill:#EFC700;}
	.st4{fill:none;stroke:#000000;stroke-width:4;stroke-miterlimit:10;}
	.st5{fill:#FFFFFF;stroke:#000000;stroke-width:2;stroke-miterlimit:10;}
	.st6{fill:#FF3E3E;}
	.st7{fill:none;stroke:#000000;stroke-width:2;stroke-miterlimit:10;}
	.st8{fill:#FFFFFF;stroke:#000000;stroke-width:3;stroke-linecap:round;stroke-linejoin:round;stroke-miterlimit:10;}
	.st9{fill:#FFA17C;}
	.st10{fill:#F9E2C5;}
	.st11{fill:#FFFFFF;stroke:#000000;stroke-width:2;stroke-linecap:round;stroke-linejoin:round;stroke-miterlimit:10;}
	.st12{fill:none;stroke:#FFFFFF;stroke-width:2;stroke-miterlimit:10;}
	.st13{fill:none;stroke:#FFFFFF;stroke-miterlimit:10;}
	.st14{fill:none;stroke:#000000;stroke-width:2;stroke-linecap:round;stroke-miterlimit:10;}
	.st15{fill:#FFF6E9;}
	.st16{fill:#3A231E;}
	.st17{fill:#FFFFFF;}
	.st18{clip-path:url(#SVGID_2_);fill:#FFF6E9;}
	.st19{fill:#DDDDDD;}
	.st20{fill:#2B2B2B;}
	.st21{font-family:'Ubuntu';}
	.st22{font-size:50px;}
	
		.st23{fill:none;stroke:#E1447B;stroke-width:14;stroke-linecap:round;stroke-linejoin:round;stroke-miterlimit:10;stroke-dasharray:10,30;}
	.st24{fill:none;stroke:#000000;stroke-width:3;stroke-linecap:round;stroke-linejoin:round;stroke-miterlimit:10;}
	.st25{fill:#FFFFFF;stroke:#000000;stroke-miterlimit:10;}
	.st26{fill:#FCFCFC;}
	.st27{fill:none;}
	.st28{fill:#FFFF2E;}
	.st29{fill:none;stroke:#000000;stroke-width:3;stroke-miterlimit:10;}
	.st30{fill:#FFFFFF;stroke:#000000;stroke-width:3;stroke-miterlimit:10;}
	.st31{clip-path:url(#SVGID_4_);fill:#FFF6E9;}
	.st32{fill:#DDDCDB;}
	.st33{fill:none;stroke:#E1447B;stroke-width:14;stroke-linecap:round;stroke-linejoin:round;stroke-miterlimit:10;}
</style>
<g>
	<path id="XMLID_23_" class="st0" d="M3061.6,185c47.9-35.8,90.8-100.8,154.1-112.9C3369,42.8,3388,214.6,3423.4,305.8
		c16.5,42.6,3.1,89.1,10.6,133.2c4.5,26.3,26.1,54,49.3,71.8c20.1,15.4,48.8,24.6,74.1,12.4c32.6-15.7,18.8-59.4,0.8-80.1
		c-32.3-37.1-95.8-14.4-120.1,16.8c-35.4,45.4-41.7,99.2-54.2,150.7c-14.7,60.7-29.7,121.2-53.4,180
		C3275.2,927.3,3132,949.9,2940,947.1c0,0-550.7-62.1-476.2,141"/>
	<g>
		<polyline class="st1" points="2517.2,1043 2463.5,1093.6 2405.6,1049.5 		"/>
		<polyline class="st1" points="2517.2,1005.4 2463.5,1056 2405.6,1011.9 		"/>
	</g>
</g>
<g id="XMLID_60_">
	<g id="XMLID_81_">
		<path id="XMLID_20_" class="st2" d="M3213.6,151.5c4.5,4.6-6.6,42.9-7.7,48.4c-8.2,40.6-20.1,80.4-35.5,118.8
			c-44.1,110.2-118.3,205-223.4,259.6c-83.2,43.2-173.7,52.3-265.5,55.4c-155.2,5.2-310.4,5.4-465.7,5.4
			c-51.7-0.5-103.5-1.1-155.2-3.5l-1.4-200.8c118.2,0,236.4,0,354.7,0c68.5,0,137.1,1.4,205.6-1.4c66.8-2.7,134.5-5.1,195.1-36.6
			c82.2-42.7,144.3-115.5,182.2-200.7c3-6.8,29.7-79.3,28.4-79.6C3025.2,116.5,3218.7,156.7,3213.6,151.5z"/>
		<path id="XMLID_19_" class="st3" d="M2056.6,433c-17-0.5-32.2,45.5-34,102.8s10.7,104.2,27.7,104.8c17,0.5,32.2-45.5,34-102.8
			C2086,480.4,2073.6,433.5,2056.6,433z"/>
		<path id="XMLID_18_" class="st3" d="M3020.7,101.2c-3.9,16.9,37.3,41.3,92,54.4s102.2,10,106.1-7c3.9-16.9-37.3-41.3-92-54.4
			C3072.1,81.2,3024.6,84.3,3020.7,101.2z"/>
		<path id="XMLID_17_" class="st4" d="M3208.1,123.9c4.5,4.6-7.2,42.3-8.4,47.8c-8.2,40.6-23.7,80.2-39,118.5
			c-44.1,110.2-118.3,205-223.4,259.6c-83.2,43.2-173.7,52.3-265.5,55.4c-155.2,5.2-310.4,5.4-465.7,5.4
			c-51.7-0.5-103.5-1.1-155.2-3.5"/>
		<path id="XMLID_16_" class="st4" d="M2049.7,406.3c118.2,0,236.4,0,354.7,0c68.5,0,137.1,1.4,205.6-1.4
			c66.8-2.7,134.5-5.1,195.1-36.6c82.2-42.7,144.3-115.5,182.2-200.7c3-6.8,26-81.6,24.6-81.9"/>
		<path id="XMLID_15_" class="st4" d="M3010.8,86.3c-3.3,17.1,38.8,39.8,93.9,50.8c55.1,11,102.5,6.1,105.7-11
			c3.3-17.1-38.8-39.8-93.9-50.8C3061.4,64.3,3014,69.3,3010.8,86.3z"/>
		<path id="XMLID_14_" class="st4" d="M2050.7,405.9c-17-0.5-32.1,43.4-33.8,100.7c-1.7,57.3,10.7,104.2,27.7,104.8
			c17,0.5,32.2-45.5,34-102.8C2080.3,451.2,2067.8,406.4,2050.7,405.9z"/>
		<line id="XMLID_13_" class="st4" x1="2183" y1="408.4" x2="2183" y2="568.6"/>
		<line id="XMLID_12_" class="st4" x1="2259.2" y1="405.3" x2="2259.2" y2="526.6"/>
		<line id="XMLID_11_" class="st4" x1="2330.8" y1="406.8" x2="2330.8" y2="567.1"/>
		<line id="XMLID_10_" class="st4" x1="2407" y1="403.7" x2="2407" y2="525.1"/>
		<line id="XMLID_9_" class="st4" x1="2478.6" y1="405.3" x2="2478.6" y2="565.5"/>
		<line id="XMLID_8_" class="st4" x1="2554.8" y1="402.2" x2="2554.8" y2="523.5"/>
		<line id="XMLID_7_" class="st4" x1="2626.4" y1="403.7" x2="2626.4" y2="563.9"/>
		<line id="XMLID_6_" class="st4" x1="2702.6" y1="400.6" x2="2702.6" y2="521.9"/>
		<line id="XMLID_5_" class="st4" x1="2778.8" y1="378.8" x2="2778.8" y2="539.1"/>
		<line id="XMLID_4_" class="st4" x1="2847.3" y1="341.5" x2="2847.3" y2="462.8"/>
		<line id="XMLID_3_" class="st4" x1="2909.8" y1="287.1" x2="2909.8" y2="476.8"/>
		<line id="XMLID_21_" class="st4" x1="2961.6" y1="218.6" x2="2961.6" y2="383.5"/>
		<line id="XMLID_22_" class="st4" x1="3004.7" y1="117.1" x2="3004.7" y2="269.6"/>
	</g>
</g>
<g id="XMLID_500_">
	<g id="XMLID_611_">
		<g id="XMLID_612_">
			<path id="XMLID_495_" d="M1902.7,347.6c-0.2-0.3-4.8-7.2-7.6-10.1c-0.5-0.5-1.3-0.5-1.8,0s-0.5,1.3,0,1.8
				c2.7,2.8,7.3,9.7,7.4,9.8c0.1,0.2,0.3,0.3,0.4,0.4c0.4,0.2,0.9,0.2,1.3-0.1C1903,349,1903.1,348.2,1902.7,347.6z"/>
			<path id="XMLID_473_" d="M1909.7,336.1c0.6-0.4,0.7-1.2,0.3-1.8c-0.2-0.3-4.8-7.2-7.6-10.1c-0.5-0.5-1.3-0.5-1.8,0
				s-0.5,1.3,0,1.8c2.7,2.8,7.3,9.7,7.4,9.8c0.1,0.2,0.3,0.3,0.4,0.4C1908.8,336.4,1909.3,336.4,1909.7,336.1z"/>
			<path id="XMLID_442_" d="M1881.4,319.8l-23.9,43.2c-1.7,3.1-0.6,6.9,2.5,8.6l55.3,30.6c3.1,1.7,6.9,0.6,8.6-2.5l23.9-43.2
				c0.3-0.6,0.1-1.4-0.5-1.7c-0.6-0.3-1.4-0.1-1.7,0.5l-23.9,43.2c-1,1.8-3.3,2.5-5.2,1.5l-26.6-14.7l1.4-2.6
				c1.7,0.2,5.8,0.8,9.9,3.1c9.7,5.4,16.1,11.7,16.2,11.8s0.2,0.2,0.3,0.2c0.2,0.1,0.5,0.2,0.8,0.1c0.4-0.1,0.7-0.3,0.9-0.6l27-48.7
				c0.3-0.5,0.2-1.1-0.2-1.5c-0.3-0.3-6.8-6.7-16.8-12.2c-5.7-3.2-11.5-3.4-11.7-3.5c-0.5,0-0.9,0.2-1.2,0.7l-23.5,42.3
				c-2.3-3.8-7.8-12.4-13.9-19.3l23.8-43c6.3,7.8,11.4,16.9,11.5,17c0.3,0.6,1.1,0.8,1.7,0.5s0.8-1.1,0.5-1.7
				c-0.1-0.1-5.9-10.6-12.9-18.9c-0.3-0.3-0.7-0.5-1.1-0.4c-0.4,0-0.8,0.3-1,0.6l-25.1,45.4c-0.3,0.5-0.2,1.1,0.2,1.5
				c7.9,8.6,15.3,21.3,15.3,21.4c0.2,0.4,0.7,0.6,1.1,0.6c0.5,0,0.9-0.3,1.1-0.7l24.1-43.6c1.7,0.2,5.8,0.8,9.9,3.1
				c7.9,4.4,13.6,9.4,15.5,11.2l-25.7,46.5c-2.3-2.1-7.9-6.9-15.6-11.1c-4.8-2.6-9.6-3.3-11.2-3.4c-1.2-1.3-5-5.6-9.9-8.2
				c-7.4-4.1-13.6-6-16.5-6.7l25.7-46.3c0.4,0.1,0.9,0.3,1.6,0.5s1.4-0.1,1.6-0.8s-0.1-1.4-0.8-1.6c-1.6-0.5-2.6-0.8-2.6-0.8
				c-0.6-0.2-1.2,0.1-1.5,0.6l-27,48.7c-0.2,0.4-0.2,0.8,0,1.2c0.2,0.4,0.5,0.6,0.9,0.7c0.1,0,7.8,1.5,17.4,6.8
				c4.1,2.3,7.6,5.9,8.9,7.4l-1.4,2.5l-26.6-14.7c-1.8-1-2.5-3.3-1.5-5.2l23.9-43.2c0.3-0.6,0.1-1.4-0.5-1.7
				C1882.5,318.9,1881.7,319.1,1881.4,319.8z"/>
			<path id="XMLID_411_" d="M1906.4,341c-0.2-0.3-4.8-7.2-7.6-10.1c-0.5-0.5-1.3-0.5-1.8,0s-0.5,1.3,0,1.8c2.7,2.8,7.3,9.7,7.4,9.8
				c0.1,0.2,0.3,0.3,0.4,0.4c0.4,0.2,0.9,0.2,1.3-0.1C1906.6,342.4,1906.8,341.6,1906.4,341z"/>
			<path id="XMLID_409_" d="M1899,354.3c-0.2-0.3-4.8-7.2-7.6-10.1c-0.5-0.5-1.3-0.5-1.8,0s-0.5,1.3,0,1.8c2.7,2.8,7.3,9.7,7.4,9.8
				c0.1,0.2,0.3,0.3,0.4,0.4c0.4,0.2,0.9,0.2,1.3-0.1C1899.3,355.7,1899.4,354.9,1899,354.3z"/>
			<path id="XMLID_408_" d="M1917.8,345.4c-0.2,0.7,0.2,1.4,0.9,1.6c7.1,2,13.5,8.1,13.6,8.2s0.2,0.1,0.3,0.2
				c0.5,0.3,1.1,0.2,1.5-0.2c0.5-0.5,0.5-1.3,0-1.8c-0.3-0.3-6.9-6.6-14.6-8.8C1918.7,344.3,1918,344.7,1917.8,345.4z"/>
			<path id="XMLID_407_" d="M1914.1,352c-0.2,0.7,0.2,1.4,0.9,1.6c7.1,2,13.5,8.1,13.6,8.2s0.2,0.1,0.3,0.2c0.5,0.3,1.1,0.2,1.5-0.2
				c0.5-0.5,0.5-1.3,0-1.8c-0.3-0.3-6.9-6.6-14.6-8.8C1915,351,1914.3,351.3,1914.1,352z"/>
			<path id="XMLID_394_" d="M1895.4,360.9c-0.2-0.3-4.8-7.2-7.6-10.1c-0.5-0.5-1.3-0.5-1.8,0s-0.5,1.3,0,1.8
				c2.7,2.8,7.3,9.7,7.4,9.8c0.1,0.2,0.3,0.3,0.4,0.4c0.4,0.2,0.9,0.2,1.3-0.1C1895.6,362.3,1895.8,361.5,1895.4,360.9z"/>
			<path id="XMLID_392_" d="M1910.5,358.7c-0.2,0.7,0.2,1.4,0.9,1.6c7.1,2,13.5,8.1,13.6,8.2s0.2,0.1,0.3,0.2
				c0.5,0.3,1.1,0.2,1.5-0.2c0.5-0.5,0.5-1.3,0-1.8c-0.3-0.3-6.9-6.6-14.6-8.8C1911.4,357.6,1910.7,358,1910.5,358.7z"/>
			<path id="XMLID_211_" d="M1903.1,371.9c-0.2,0.7,0.2,1.4,0.9,1.6c7.1,2,13.5,8.1,13.6,8.2s0.2,0.1,0.3,0.2
				c0.5,0.3,1.1,0.2,1.5-0.2c0.5-0.5,0.5-1.3,0-1.8c-0.3-0.3-6.9-6.6-14.6-8.8C1904,370.9,1903.3,371.3,1903.1,371.9z"/>
			<path id="XMLID_107_" d="M1906.8,365.3c-0.2,0.7,0.2,1.4,0.9,1.6c7.1,2,13.5,8.1,13.6,8.2s0.2,0.1,0.3,0.2
				c0.5,0.3,1.1,0.2,1.5-0.2c0.5-0.5,0.5-1.3,0-1.8c-0.3-0.3-6.9-6.6-14.6-8.8C1907.7,364.2,1907,364.6,1906.8,365.3z"/>
		</g>
	</g>
</g>
<path id="XMLID_160_" class="st5" d="M3200.6-178.5l-10.7,23.6c0,0-0.6,10-3.6,10.7s-10.6,2.2-10.6,2.2l-17.4-26.3l16.6-30.1
	L3200.6-178.5z"/>
<g id="XMLID_105_">
	<g id="XMLID_541_">
		<path id="XMLID_926_" class="st6" d="M3117.7,172.3c0,0-18.7,9.5-17.6,16.4c1.1,7,22.7,35.4,22.7,35.4s40.4,35.4,42.8,24.1
			c2.4-11.3-16.1-31.2-20-41.5s-2.3-15.1-2.3-15.1L3117.7,172.3z"/>
		<path id="XMLID_875_" class="st7" d="M3122.5,171.9c0,0-17.9,9-16.8,15.7c1.1,6.7,21.9,34.1,21.9,34.1s38.9,34.1,41.2,23.3
			s-15.5-30-19.4-39.8s-2.3-14.5-2.3-14.5L3122.5,171.9z"/>
		<path id="XMLID_677_" class="st6" d="M3226.6,177.2c0,0-8.3,18.2-3.3,22.8s38.4,12.9,38.4,12.9s51.7,2.3,46.7-7.6
			s-30.9-13.7-40-19c-9.2-5.3-10.8-9.9-10.8-9.9L3226.6,177.2z"/>
		<path id="XMLID_662_" class="st7" d="M3227.1,172.3c0,0-8.3,18.2-3.3,22.8s38.4,12.9,38.4,12.9s51.7,2.3,46.7-7.6
			c-5-9.9-30.9-13.7-40-19c-9.2-5.3-10.8-9.9-10.8-9.9L3227.1,172.3z"/>
		<path id="XMLID_131_" class="st8" d="M3186.4-26c0,0,113.1,46.3,113.1,57.7s-33.7,144.7-33.7,144.7l-37.4-5.2l17.2-107.4
			l-106.5-81.3L3186.4-26z"/>
		<path id="XMLID_614_" class="st8" d="M3143.4,194.9l125.6-123c2.9-2.9,3.1-7.6,0.4-10.7L3186-26l-69.3,9.7l3.2,35.1l76,43.8
			l-77.3,108.2L3143.4,194.9z"/>
	</g>
	<polyline id="XMLID_746_" class="st6" points="3145,-145.9 3216.5,-89.5 3326.1,-73.1 3321.7,-57.9 3181.1,-60.4 3132.3,-139.6 	
		"/>
	<path id="XMLID_853_" class="st6" d="M3116.6-15.7l69.7-10.7c0,0,2.6-20,10.5-48.1c8.2-29.5,19.6-79.9,19-84.3
		c-0.6-4.4-17.4-12.5-17.4-12.5l-10,10.4l-11.5,10l-9.9-33.5c-1.4-0.5-13.5,0.1-16.8,0.5c-3.5-0.7-14.9,1.7-18.4,2.6
		c-4.3,1.1-9,1.7-12.4,5.1c-3.4,3.3-3.8,8.4-3.6,13.2c0.2,4.3,0.3,8.7,0.5,13c0.4,8.2,0.8,16.5,1.3,24.5c0.8,12,1.6,24,2.5,36.1
		l0.3,0.1L3116.6-15.7z"/>
	<path id="XMLID_623_" class="st9" d="M3292.8-86.7c0,0,9-5.3,12.3-5.6c3.3-0.3,33.2,16.9,31.5,18.3c-1.7,1.3-20.9-0.3-21.9-0.3
		s-14.2,3-14.2,3L3292.8-86.7z"/>
	<g id="XMLID_610_">
		<g id="XMLID_75_">
			<polygon id="XMLID_76_" class="st6" points="3193.7,-123.1 3231.7,-83.2 3299.5,-59.8 3316,-76.9 3262.8,-104.7 3214.6,-161.4 
				3186.1,-139.6 			"/>
		</g>
	</g>
	
		<rect id="XMLID_528_" x="3294.4" y="-104.1" transform="matrix(0.9909 -0.1348 0.1348 0.9909 42.581 443.7783)" class="st10" width="8.1" height="23"/>
	
		<rect id="XMLID_494_" x="3290.8" y="-93.8" transform="matrix(0.9909 -0.1348 0.1348 0.9909 41.1698 443.3846)" class="st10" width="8.1" height="23"/>
	<path id="XMLID_209_" class="st11" d="M3306.4-63.7h-80.8v4.3h82C3307.6-59.4,3305.2-63.7,3306.4-63.7z"/>
	<polygon id="XMLID_272_" class="st11" points="3398.9,-119.4 3367.2,-58.6 3268,-58.5 3304,-121 	"/>
	<line id="XMLID_748_" class="st12" x1="3189.9" y1="-62.3" x2="3129.1" y2="-119.3"/>
	<line id="XMLID_750_" class="st12" x1="3203.9" y1="-100.3" x2="3153.8" y2="-149.7"/>
	<polyline id="XMLID_124_" class="st13" points="3203,-167.9 3175.5,-143.9 3158.3,-184.3 	"/>
</g>
<g id="XMLID_38_">
	<path id="XMLID_837_" class="st5" d="M3167.2-213.1l0.3,1.3l1.7,8.8l0.2,1.2c1.9,9.7,8.9,17.7,18.4,20.7l7.4,3
		c5.1,1.5,14.8-4.5,16.3-9.6l0.7-1.7l13.3-33.9l0.8-2c0,0,0.7-1.2,0.7-1.3l-0.9-3.8c0.3-0.9,0.4-1.8,0.4-2.6c0-4.3-2.8-8.2-7-9.4
		l-34.7-10c-3.9-1.1-7.9,0.3-10.3,3.3l-0.1,0.1c-0.8,1-1.3,2.1-1.7,3.3l-2,12.1l0,0l-0.3,1.6l-0.2,1.1l-1.6,9.5l-1.3,8.1
		L3167.2-213.1z"/>
	<g id="XMLID_805_">
		<g id="XMLID_646_">
			<line id="XMLID_648_" class="st7" x1="3192.2" y1="-227.9" x2="3202.1" y2="-223.6"/>
			<line id="XMLID_647_" class="st7" x1="3210.4" y1="-220.1" x2="3220.3" y2="-215.8"/>
		</g>
	</g>
	<path id="XMLID_802_" class="st14" d="M3203.5-210.7l-0.7,8.4c-0.1,1.2-1.4,2.1-2.5,1.6l-3.5-1.3"/>
	<g id="XMLID_773_">
		<path id="XMLID_801_" class="st15" d="M3195.2-212.3l-4.8-2.2c-0.8-0.4-1.1-1.3-0.7-2.1l2.4-5.1c0.4-0.8,1.3-1.1,2.1-0.7l4.8,2.2
			c0.8,0.4,1.1,1.3,0.7,2.1l-2.4,5.1C3196.9-212.2,3196-211.9,3195.2-212.3z"/>
		<path id="XMLID_800_" class="st16" d="M3195.9-213.6l-2-0.9c-0.8-0.4-1.1-1.3-0.7-2.1l1-2.1c0.4-0.8,1.3-1.1,2.1-0.7l2,0.9
			c0.8,0.4,1.1,1.3,0.7,2.1l-1,2.1C3197.6-213.6,3196.7-213.3,3195.9-213.6z"/>
		<path id="XMLID_778_" d="M3195.9-213.6l-2-0.9c-0.8-0.4-1.1-1.3-0.7-2.1l0.9-2c0.4-0.8,1.3-1.1,2.1-0.7l2,0.9
			c0.8,0.4,1.1,1.3,0.7,2.1l-0.9,2C3197.6-213.6,3196.7-213.3,3195.9-213.6z"/>
		<circle id="XMLID_775_" class="st15" cx="3197.1" cy="-215.5" r="1.1"/>
	</g>
	<g id="XMLID_768_">
		<path id="XMLID_772_" class="st15" d="M3212.9-204.4l-4.8-2.2c-0.8-0.4-1.1-1.3-0.7-2.1l2.4-5.1c0.4-0.8,1.3-1.1,2.1-0.7l4.8,2.2
			c0.8,0.4,1.1,1.3,0.7,2.1l-2.4,5.1C3214.6-204.4,3213.6-204,3212.9-204.4z"/>
		<path id="XMLID_771_" class="st16" d="M3213.6-205.8l-2-0.9c-0.8-0.4-1.1-1.3-0.7-2.1l1-2.1c0.4-0.8,1.3-1.1,2.1-0.7l2,0.9
			c0.8,0.4,1.1,1.3,0.7,2.1l-1,2.1C3215.3-205.7,3214.3-205.4,3213.6-205.8z"/>
		<path id="XMLID_770_" d="M3213.6-205.8l-2-0.9c-0.8-0.4-1.1-1.3-0.7-2.1l0.9-2c0.4-0.8,1.3-1.1,2.1-0.7l2,0.9
			c0.8,0.4,1.1,1.3,0.7,2.1l-0.9,2C3215.3-205.7,3214.3-205.4,3213.6-205.8z"/>
		<circle id="XMLID_769_" class="st15" cx="3214.8" cy="-207.6" r="1.1"/>
	</g>
	<path id="XMLID_37_" class="st5" d="M3186.8-240.9c9.8,6.1,11.3,5.3,20.9,10.3c6.8,4.8,20.5,8.5,28.5,9.6c4.6,0.6,10-0.8,12-4.9
		c2.1-4.1-1.8-10.4-6.2-8.9c5.8-3.4,9.3-9.9,10-16.6c0.8-6.7-1-13.4-4-19.4c-3.5-7-10.8-14-18.2-11.4c0.1,2.5,0.3,5.1,0.4,7.6
		c-5.3-12.9-20-21.2-33.7-19.1c-1.6,0.2-3.2,0.6-4.6,1.5c-4.7,3.2-3.4,10.2-4.1,15.9c-0.6-6.9-9.3-11.3-15.5-8.2s-8.2,12-4.5,17.8
		c-1-1.5-4.2,4-4.4,4.7c-0.5,2.5,0.9,4.7,1.2,6.9"/>
	<g id="XMLID_180_">
		<g id="XMLID_193_">
			<g>
				<path id="XMLID_613_" class="st17" d="M3206.2-193.8c0,0-0.1,1.2-0.7,2.6c-0.6,1.2-1.6,2.6-3.4,3.2c-1.6,0.5-3.7,0.5-6.7-0.7
					c-4.2-1.7-5.4-4.1-5.4-6.3c0-1.1,0.3-2.2,0.6-3c0.6-1.4,1.4-2.4,1.4-2.4C3197.4-197.5,3200.3-196.2,3206.2-193.8z"/>
			</g>
			<g>
				<g>
					<defs>
						<path id="SVGID_1_" d="M3206.2-193.8c0,0-0.1,1.2-0.7,2.6c-0.6,1.2-1.6,2.6-3.4,3.2c-1.6,0.5-3.7,0.5-6.7-0.7
							c-4.2-1.7-5.4-4.1-5.4-6.3c0-1.1,0.3-2.2,0.6-3c0.6-1.4,1.4-2.4,1.4-2.4C3197.4-197.5,3200.3-196.2,3206.2-193.8z"/>
					</defs>
					<clipPath id="SVGID_2_">
						<use xlink:href="#SVGID_1_"  style="overflow:visible;"/>
					</clipPath>
					<path id="XMLID_663_" class="st18" d="M3191.9-201.3c0,0-0.2,2.1-0.2,2.7s11.9,6.6,12.6,6.3c0.7-0.4,2.6-2,2.6-2L3191.9-201.3z
						"/>
				</g>
			</g>
			<g>
				<path id="XMLID_1_" class="st7" d="M3206.2-193.8c0,0-0.1,1.2-0.7,2.6c-0.6,1.2-1.6,2.6-3.4,3.2c-1.6,0.5-3.7,0.5-6.7-0.7
					c-4.2-1.7-5.4-4.1-5.4-6.3c0-1.1,0.3-2.2,0.6-3c0.6-1.4,1.4-2.4,1.4-2.4C3197.4-197.5,3200.3-196.2,3206.2-193.8z"/>
			</g>
		</g>
	</g>
	<path id="XMLID_32_" class="st19" d="M3164.9-215.3c1,1.4,2,2.5,2.6,3l1.7,8.5l0.2,1.1c1.9,9.4,8.8,17.1,18.1,20l7.3,2.9
		c5.1,1.4,14.6-4.3,16-9.3l0.6-1.6l-0.1-0.1c0,0-6.5,7.2-13.5,7.2c-6.9,0-25.1-11-21.6-28.4l0.4-6.8l0.4-6.1l-5-2.6l-0.1,0.1
		l-0.5,0.9l-2.9,4.8L3164.9-215.3z"/>
	<path id="XMLID_33_" class="st5" d="M3165.3-256.3c0,0,0,0-0.1,0.1c-0.4,0.8-1,1.5-1.4,2.4c-3.3,7.4-4.2,11.1-2.7,18
		c0.9,4.3-0.5,7.1-0.1,9c0.1-0.1,0.1-0.3,0.2-0.4c3.3-7.7,8.4-6.1,10.3-1.3c2,4.8,3.2,8.7,3.2,8.7l2.2,1.5c0,0,0.9-15.5,4.5-15.7
		c3.5-0.2,5.3,1.1,6.1-0.8c0.6-1.3-1.2-4.2-0.9-6.3l-0.4-0.9"/>
	<path id="XMLID_35_" class="st5" d="M3164.9-214.9c1,1.5,2.1,2.6,2.6,3.1c0.3,0.3,0.4,0.4,0.4,0.4l3.6-15l0.3-1.5l0.2-0.9l-1.7-3.3
		l-0.9-1.8c0,0-3.6-0.6-5.9,2.7l0,0c-0.8,1.1-1.4,2.7-1.7,4.8C3161.1-221.5,3163-217.5,3164.9-214.9z"/>
</g>
<g id="XMLID_43_">
	<g id="XMLID_44_">
		<g id="XMLID_46_">
			<path id="XMLID_309_" d="M3438.1-145.6l11.7,36.7c0.8,2.5,3.4,3.8,5.9,3l31.1-9.9c2.5-0.8,3.8-3.4,3-5.9l-14.1-44.4
				c-0.8-2.5-3.4-3.8-5.9-3l-23.3,7.4c-0.3,0.1-0.5,0.3-0.7,0.6l-7.6,14.6C3438-146.2,3438-145.9,3438.1-145.6z M3448.1-152.5
				c0.4,1.2-0.3,2.5-1.5,2.9l-5.1,1.6l5-9.6L3448.1-152.5z M3440.6-145.2l6.7-2.1c2.5-0.8,3.8-3.4,3-5.9l-2.1-6.7l22.2-7.1
				c1.2-0.4,2.5,0.3,2.9,1.5l14.1,44.4c0.4,1.2-0.3,2.5-1.5,2.9l-31.1,9.9c-1.2,0.4-2.5-0.3-2.9-1.5L3440.6-145.2z"/>
			<path id="XMLID_55_" d="M3455.5-129.1c-1.4,0.5-4.4,1.4-3.6,4c0.4,1.3,1.5,2.7,4.3,1.9c1-0.3,2.6-2.3,4-4.4
				c2.5-0.3,5.6-0.5,8.3-0.4c3.8,3.9,7.8,5.7,9.8,5c1.6-0.5,3-2,2.5-3.6c-0.7-2.2-3.4-2.6-7.5-3.1c-0.9-0.1-1.9-0.3-2.9-0.4
				c-0.3,0-0.6-0.1-0.9-0.1c-0.5-0.6-1.1-1.3-1.6-2c-1.1-1.6-2.1-2.9-3-4.2c1.1-2.9,1.3-5.2,0.8-6.9c-1.2-3.8-3.3-4-4.8-3.5
				c-2,0.6-3.1,1.8-1.9,5.5c0.3,0.9,1.2,2.4,3.3,5.2c-0.4,1-0.9,2-1.5,3.2c-0.4,0.9-1.2,2-1.9,3.1
				C3457.2-129.5,3456-129.3,3455.5-129.1z M3472.5-127.4c0.2,0,0.3,0,0.5,0.1c2.6,0.4,5.3,0.7,5.6,1.5c0,0.1-0.4,0.5-1,0.7
				S3474.9-125.5,3472.5-127.4z M3463.2-138.8c-1.2-1.6-1.8-2.7-2-3.2c-0.7-2.2-0.4-2.3,0.4-2.6c0.4-0.1,1.1-0.4,1.9,2
				C3463.8-141.7,3463.7-140.4,3463.2-138.8z M3461.9-130.1c0.5-0.8,0.9-1.4,1-1.7c0.4-0.7,0.7-1.4,1-2c0.6,0.9,1.4,1.9,2.2,3
				c0.1,0.2,0.3,0.4,0.4,0.5C3464.9-130.4,3463.3-130.3,3461.9-130.1z M3456.2-126.9c0.1,0,0.4-0.1,0.7-0.2
				c-0.7,0.9-1.2,1.5-1.5,1.7c-1,0.3-1.1,0.1-1.3-0.4C3454.2-126.1,3454.6-126.4,3456.2-126.9z"/>
		</g>
	</g>
</g>
<g id="XMLID_533_">
	<g id="XMLID_834_">
		<path id="XMLID_836_" d="M3351.5-208.5l-7-6.5c-0.4-0.4-0.5-0.9-0.3-1.4l3-5.9c-3.1-5.2-9.2-5.6-11.1-5.6c-0.2,0-0.4,0-0.5,0h-1.5
			c-0.5,0-0.9-0.3-1.1-0.8c-0.2-0.5-0.1-1,0.3-1.3c3.1-2.8,6.9-4.3,11.4-4.3c8.9,0,18.2,5.9,20.1,9.9c2.2,4.7,5,7.6,5.1,7.6
			c0.2,0.2,0.4,0.5,0.3,0.9c0,0.3-0.2,0.6-0.4,0.8l-7.3,6.5c-0.3,0.2-0.6,0.3-1,0.3c-0.4-0.1-0.7-0.3-0.8-0.6
			c-0.1-0.1-0.7-1.3-2.9-1.1c-2.8,0.3-4.7,1.5-4.7,1.6l0,0c-0.2,0.1-0.4,0.2-0.7,0.2C3352-208.2,3351.7-208.3,3351.5-208.5z
			 M3361.8-211.1l5.5-4.9c-1.1-1.3-3-3.8-4.7-7.3c-1.4-3-9.8-8.6-18-8.6c-2.6,0-5,0.6-7.1,1.7c3.2,0.3,8.9,1.6,11.9,7.3
			c0.2,0.3,0.2,0.7,0,1.1l-2.8,5.7l5.8,5.3c1-0.5,2.7-1.3,5-1.5c0.3,0,0.5,0,0.7,0C3359.9-212.3,3361.1-211.7,3361.8-211.1z"/>
	</g>
	<g id="XMLID_820_">
		<path id="XMLID_822_" d="M3367.5-200.6c-0.3,0-0.6-0.2-0.8-0.4l-4.1-5c-0.4-0.5-0.3-1.2,0.1-1.6l7.6-6.8c0.2-0.2,0.5-0.3,0.9-0.3
			c0.3,0,0.6,0.2,0.8,0.4l4.4,5c0.2,0.2,0.3,0.5,0.3,0.9c0,0.3-0.2,0.6-0.4,0.8l-7.9,6.8c-0.2,0.2-0.5,0.3-0.8,0.3
			C3367.5-200.6,3367.5-200.6,3367.5-200.6z M3371-211.8l-5.9,5.2l2.6,3.2l6.1-5.2L3371-211.8z"/>
	</g>
	<g id="XMLID_806_">
		<path id="XMLID_807_" d="M3308.1-171.6c-2.7-2.7-3.9-5.8-3.1-7.8c0.1-0.1,0.2-0.3,0.3-0.4l20.1-19.3l16.1-15.7
			c0.4-0.4,1.1-0.4,1.6,0l8.1,7c0.2,0.2,0.4,0.5,0.4,0.8s-0.1,0.6-0.3,0.9l-34.7,37.1c-0.1,0.1-0.2,0.2-0.3,0.2
			c-0.5,0.3-1.1,0.4-1.7,0.4l0,0C3312.6-168.3,3310.1-169.6,3308.1-171.6z M3348.6-206.8l-6.3-5.5l-15.3,14.9l-19.9,19.1
			c-0.2,0.9,0.6,3,2.6,5c2.1,2.1,4.3,2.8,5.2,2.6L3348.6-206.8z"/>
	</g>
	<g id="XMLID_489_">
		<g id="XMLID_731_">
			<path id="XMLID_56_" d="M3374.3-187.7l-4-2.8c-0.5-0.4-0.7-1-0.5-1.6s0.7-1,1.3-1h8.1c0.6,0,1.2,0.4,1.3,1c0.2,0.6,0,1.2-0.5,1.6
				l-4,2.8c-0.2,0.2-0.5,0.2-0.8,0.2C3374.8-187.4,3374.5-187.5,3374.3-187.7z"/>
		</g>
		<g id="XMLID_661_">
			<path id="XMLID_42_" d="M3373.7-168.6v-20.2c0-0.8,0.6-1.4,1.4-1.4c0.8,0,1.4,0.6,1.4,1.4v20.2c0,0.8-0.6,1.4-1.4,1.4
				C3374.3-167.2,3373.7-167.8,3373.7-168.6z"/>
		</g>
	</g>
</g>
<path id="XMLID_824_" d="M3499.7-199.7l9.9-7.5l0.5-6l13.3-21.7l6.4,3.9l2-3.2l-3.2-2l16.4-26.7l-16-9.8l-16.4,26.7l-3.2-2l-2,3.2
	l6.4,3.9l-13.3,21.7l-5.1,3.2l-2.2,12.2L3499.7-199.7z M3525.4-238.2l-9.6-5.9l14.4-23.5l9.6,5.9L3525.4-238.2z M3499.5-204.3
	l-2.1-1.3l1.4-8.1l4.4-2.8L3517-239l3.2,2l-13.8,22.5l-0.4,5.2L3499.5-204.3z"/>
<g id="XMLID_841_">
	<path id="XMLID_925_" d="M3391.5-248.3c4.6,4.6,11.4,6.1,17.3,4.1l11.9,11.8c2,2,3.2,4.7,3.8,8.2c0.6,3.6,2.5,6.7,5.6,8.8
		c4.4,3,10.5,3,14.8,0c6.8-4.8,7.5-14.4,1.8-20.1c-2.1-2.1-4.7-3.4-7.6-3.7c-3.8-0.5-6.8-2.8-8.7-4.6l-11-10.9
		c2-5.9,0.6-12.7-4.1-17.3c-4.9-4.9-12.3-6.2-18.5-3.6l-2.6,1.1l11.1,11.1l-0.9,4.4l-4.4,0.9l-11-11.2l-1.1,2.6
		C3385.3-260.5,3386.6-253.2,3391.5-248.3z M3390.5-262.5l8.3,8.3l8.8-1.8l1.8-8.8l-8.3-8.3c0.8-0.1,1.6-0.2,2.3-0.2
		c3.4,0,6.7,1.3,9.3,3.9c3.8,3.8,4.9,9.5,2.8,14.4l-0.5,1.2l12.7,12.7c3.3,3.3,7,5.2,10.9,5.7c2.1,0.3,4,1.2,5.5,2.7
		c4,4,3.7,10.9-1.3,14.4c-3.1,2.2-7.4,2.2-10.6,0c-2.2-1.5-3.6-3.7-4-6.3c-0.7-4.3-2.3-7.7-4.8-10.3l-13.6-13.6l-1.2,0.5
		c-4.9,2.1-10.6,1-14.4-2.8C3391.1-254,3389.8-258.3,3390.5-262.5z"/>
	<path id="XMLID_850_" d="M3433.5-230.2c-2.2,2.2-2.2,5.8,0,8s5.8,2.2,8,0s2.2-5.8,0-8C3439.2-232.4,3435.7-232.4,3433.5-230.2z
		 M3436.1-227.5c0.7-0.7,1.9-0.7,2.7,0c0.7,0.7,0.7,1.9,0,2.7c-0.7,0.7-1.9,0.7-2.7,0C3435.4-225.6,3435.4-226.8,3436.1-227.5z"/>
</g>
<text id="XMLID_39_" transform="matrix(1 0 0 1 1687.0565 716.9926)" class="st20 st21 st22">Learning</text>
<text id="XMLID_62_" transform="matrix(1 0 0 1 3298.6382 1.3411)" class="st20 st21 st22">Applying</text>
<path id="XMLID_416_" class="st23" d="M1004-37.6c125.7-3.2,324.4-0.3,450.1-3.5c6.3-0.2,12.8-0.4,18.4-3.2
	c5.3-2.7,9.2-7.6,12.2-12.8c14.1-24.5,7.7-58.9-14.4-76.7c-10.4-8.3-24.6-13.1-37.3-9c-24.3,7.8-29,39.7-29.2,65.2
	c-0.5,57.1-0.2,114-1.1,171.1c-2,125.1-4,250.1-6,375.2c-0.3,16.1,0,33.6,10.1,46c12.6,15.3,35.1,16.9,54.9,17.2
	c199.4,3.1,398.8,3.8,598.3,2.1"/>
<g id="XMLID_114_">
	<path id="XMLID_197_" d="M1713.6,321.7c0.2,0.4,0.5,0.6,0.9,0.7l14.5,2.3c0.2,0,0.4,0,0.6-0.1s0.3-0.2,0.4-0.3
		c0.3-0.3,0.3-0.8,0.1-1.1l-6.3-14.5c-0.2-0.4-0.5-0.6-0.9-0.7c-0.4,0-0.8,0.2-1,0.5l-8.2,12.2
		C1713.5,321,1713.5,321.4,1713.6,321.7z M1716.6,320.4l6.1-9l4.7,10.7L1716.6,320.4z"/>
	<path id="XMLID_117_" d="M1682,308.5l5,11.4l5,11.4l5,11.4l5,11.4c0.2,0.6,0.9,0.8,1.5,0.6l10.3-4.5l37.2-16.3l10.3-4.5
		c0.6-0.2,0.8-0.9,0.6-1.5l-5-11.4l-5-11.4l-5-11.4l-5-11.4c-0.2-0.6-0.9-0.8-1.5-0.6l-10.3,4.5l-37.2,16.3l-10.3,4.5
		C1682,307.2,1681.7,307.9,1682,308.5z M1737,299.2l8.3-3.6l4.1,9.3l-8.3,3.6L1737,299.2z M1754.4,316.3l-8.3,3.6l-4.1-9.3l8.3-3.6
		L1754.4,316.3z M1749,332.2l-35.2,15.4l-4.5-10.3l-5-11.4l-5-11.4l-4.5-10.3l35.2-15.4l4.5,10.3l5,11.4l5,11.4L1749,332.2z
		 M1689.5,320l8.3-3.6l4.1,9.3l-8.3,3.6L1689.5,320z M1706.8,337l-8.3,3.6l-4.1-9.3l8.3-3.6L1706.8,337z M1692.8,305l4.1,9.3
		l-8.3,3.6l-4.1-9.3L1692.8,305z M1744.4,293.5l-8.3,3.6l-4.1-9.3l8.3-3.6L1744.4,293.5z M1751,331.3l-4.1-9.3l8.3-3.6l4.1,9.3
		L1751,331.3z M1699.4,342.7l8.3-3.6l4.1,9.3l-8.3,3.6L1699.4,342.7z"/>
</g>
<g id="XMLID_25_">
	<g id="XMLID_236_">
		<g id="XMLID_125_">
			<g id="XMLID_103_">
				<path id="XMLID_202_" class="st24" d="M1534.5,428.2c0,0,6.9-15.3,3.1-19.3s-29.3-11.8-29.3-11.8s-39.9-3.1-36.3,5.4
					s23.5,12.3,30.5,17s8.1,8.6,8.1,8.6L1534.5,428.2z"/>
				<path id="XMLID_199_" class="st6" d="M1534.4,432.4c0,0,6.9-15.3,3.1-19.3s-29.3-11.8-29.3-11.8s-39.9-3.1-36.3,5.4
					s23.5,12.3,30.5,17s8.1,8.6,8.1,8.6L1534.4,432.4z"/>
			</g>
			<g id="XMLID_59_">
				<path id="XMLID_208_" class="st6" d="M1399.3,471.4c0,0-8.5-14.5-13.9-13.7s-26.6,17.1-26.6,17.1s-25.7,30.7-16.6,32.7
					c9,2,23.7-12,31.5-15c7.9-2.9,11.7-1.6,11.7-1.6L1399.3,471.4z"/>
				<path id="XMLID_205_" class="st7" d="M1401.3,472.9c0,0-8.5-14.5-13.9-13.7s-26.6,17.1-26.6,17.1s-25.7,30.7-16.7,32.7
					s23.7-12,31.5-15c7.9-2.9,11.7-1.6,11.7-1.6L1401.3,472.9z"/>
			</g>
			<polygon id="XMLID_100_" class="st8" points="1510.1,426.4 1482.5,540.6 1520.4,565.6 1534.3,432.5 			"/>
			<path id="XMLID_102_" class="st8" d="M1666.3,539.7l-138.2,18.4l-127-88.8l-19.6,23.9c0,0,130.1,103.7,132.6,111.9
				s176.7,10,176.7,10L1666.3,539.7z"/>
		</g>
		<path id="XMLID_96_" class="st8" d="M1766.2,549c0,0,67.5,67.7,84.5,69.3c17.1,1.7,84.2-57.9,84.2-57.9l-8.9-16.1l-75,43.6
			l-62.5-51.3L1766.2,549z"/>
		<polyline id="XMLID_123_" class="st25" points="1808,508.3 1795.3,530.6 1770.7,512.5 1787.6,487.5 		"/>
		<g id="XMLID_115_">
			<g id="XMLID_110_">
				<path id="XMLID_112_" class="st26" d="M1958.8,503.2c0,0,1.9,4.2-1.1,4.4s-30.6-9.3-30.6-9.3l-7.3,9.7l-5.4-8.1l10.4-15.4
					l8.6-6.5c0,0,12.7-6.1,16-3.7s13.3,6.4,10.8,9s-13.7-1.8-13.7-1.8l20,8.1c0,0,2.3,3.7-2.3,5l3.6,1.6c0,0,1.7,2.9-1.6,4.3
					l-9.8-3.3"/>
				<path id="XMLID_113_" class="st26" d="M1963.9,500c0,0,1.5,2.8-1.2,3.7c-2.7,0.9-14.9-3.8-14.9-3.8"/>
				<line id="XMLID_111_" class="st27" x1="1955" y1="491.7" x2="1964.2" y2="494.8"/>
			</g>
			<g id="XMLID_187_">
				<path id="XMLID_109_" class="st24" d="M1956.4,497.4l9.8,3.3c3.2-1.3,1.6-4.3,1.6-4.3l-3.6-1.6c4.6-1.3,2.3-5,2.3-5l-20-8.1
					c0,0,11.2,4.4,13.7,1.8s-7.5-6.7-10.8-9c-3.3-2.4-16,3.7-16,3.7l-8.6,6.5"/>
				<path id="XMLID_190_" class="st24" d="M1963.9,500c0,0,1.5,2.8-1.2,3.7c-2.7,0.9-14.9-3.8-14.9-3.8"/>
				<path id="XMLID_189_" class="st24" d="M1958.8,503.2c0,0,1.9,4.2-1.1,4.4s-30.6-9.3-30.6-9.3"/>
				<line id="XMLID_188_" class="st24" x1="1955" y1="491.7" x2="1964.2" y2="494.8"/>
			</g>
		</g>
		<g id="XMLID_176_">
			<path id="XMLID_386_" class="st28" d="M1919.2,505l29.8,36c0.4,0.5,1.2,0.6,1.8,0.2l44.9-37.2c0.5-0.4,0.6-1.2,0.2-1.8l-29.8-36
				c-0.4-0.5-1.2-0.6-1.8-0.2l-44.9,37.2C1918.8,503.7,1918.7,504.5,1919.2,505z"/>
			<g id="XMLID_627_">
				<path id="XMLID_659_" d="M1967.5,466.5l-41.8,33c-1.8,1.4-2.1,4-0.7,5.8l26.9,34c1.4,1.8,4,2.1,5.8,0.7l41.8-33
					c1.8-1.4,2.1-4,0.7-5.8l-4.4-5.5l1.6-1.3c0.4-0.3,0.5-0.9,0.1-1.3l-18-22.8c-0.3-0.4-0.9-0.5-1.3-0.1l-1.6,1.3l-3.4-4.3
					C1971.9,465.4,1969.3,465.1,1967.5,466.5z M1992.7,495.9l-16.9-21.4l2.9-2.3l16.9,21.4L1992.7,495.9z M1968.6,467.9
					c1-0.8,2.5-0.6,3.3,0.4l3.4,4.3l-1.3,1c-0.4,0.3-0.5,0.9-0.1,1.3l18,22.8c0.3,0.4,0.9,0.5,1.3,0.1l1.3-1l4.4,5.5
					c0.8,1,0.6,2.5-0.4,3.3l-41.8,33c-1,0.8-2.5,0.6-3.3-0.4l-26.9-34c-0.8-1-0.6-2.5,0.4-3.3L1968.6,467.9z"/>
				<path id="XMLID_609_" d="M1952.4,488.5c-0.4,0.3-0.5,0.9-0.1,1.3l4.4,5.5c0.3,0.4,0.9,0.5,1.3,0.1c0.4-0.3,0.5-0.9,0.1-1.3
					l-4.4-5.5C1953.4,488.3,1952.8,488.2,1952.4,488.5z"/>
				<path id="XMLID_608_" d="M1959.4,497.3c-0.4,0.3-0.5,0.9-0.1,1.3l10.2,12.9c0.3,0.4,0.9,0.5,1.3,0.1c0.4-0.3,0.5-0.9,0.1-1.3
					l-10.2-12.9C1960.3,497.1,1959.7,497,1959.4,497.3z"/>
				<path id="XMLID_455_" d="M1971.8,513.1c-0.4,0.3-0.5,0.9-0.1,1.3l1.6,2c0.3,0.4,0.9,0.5,1.3,0.1c0.4-0.3,0.5-0.9,0.1-1.3l-1.6-2
					C1972.8,512.9,1972.2,512.8,1971.8,513.1z"/>
				<path id="XMLID_427_" d="M1944.2,495c-0.4,0.3-0.5,0.9-0.1,1.3l12.1,15.4c0.3,0.4,0.9,0.5,1.3,0.1c0.4-0.4,0.5-0.9,0.1-1.3
					l-12.1-15.4C1945.2,494.8,1944.6,494.7,1944.2,495z"/>
				<path id="XMLID_426_" d="M1959,513.6c-0.4,0.3-0.5,0.9-0.1,1.3l6.3,8c0.3,0.4,0.9,0.5,1.3,0.1s0.5-0.9,0.1-1.3l-6.3-8
					C1959.9,513.4,1959.3,513.3,1959,513.6z"/>
				<path id="XMLID_425_" d="M1936.7,501c-0.4,0.3-0.5,0.9-0.1,1.3l0.5,0.6c0.3,0.4,0.9,0.5,1.3,0.1c0.4-0.3,0.5-0.9,0.1-1.3
					l-0.5-0.6C1937.6,500.7,1937.1,500.7,1936.7,501z"/>
				<path id="XMLID_424_" d="M1939.7,504.9c-0.4,0.3-0.5,0.9-0.1,1.3l1,1.3c0.3,0.4,0.9,0.5,1.3,0.1c0.4-0.3,0.5-0.9,0.1-1.3l-1-1.3
					C1940.7,504.6,1940.1,504.6,1939.7,504.9z"/>
				<path id="XMLID_423_" d="M1943.4,509.5c-0.4,0.3-0.5,0.9-0.1,1.3l14.3,18.1c0.3,0.4,0.9,0.5,1.3,0.1c0.4-0.3,0.5-0.9,0.1-1.3
					l-14.3-18.1C1944.4,509.3,1943.8,509.2,1943.4,509.5z"/>
				<path id="XMLID_632_" d="M1977.1,493.6l-6.3,5c-0.4,0.3-0.5,0.9-0.1,1.3l9.1,11.5c0.3,0.4,0.9,0.5,1.3,0.1l6.3-5
					c0.4-0.3,0.5-0.9,0.1-1.3l-9.1-11.5C1978.1,493.4,1977.5,493.3,1977.1,493.6z M1977.5,495.6l8,10.1l-4.9,3.9l-8-10.1
					L1977.5,495.6z"/>
				<path id="XMLID_420_" d="M1958.9,483.4c-0.4,0.3-0.5,0.9-0.1,1.3l0.4,0.5c0.3,0.4,0.9,0.5,1.3,0.1s0.5-0.9,0.1-1.3l-0.4-0.5
					C1959.8,483.2,1959.2,483.1,1958.9,483.4z"/>
				<path id="XMLID_419_" d="M1961.8,487.2c-0.4,0.3-0.5,0.9-0.1,1.3l4.2,5.4c0.3,0.4,0.9,0.5,1.3,0.1s0.5-0.9,0.1-1.3l-4.2-5.4
					C1962.8,487,1962.2,486.9,1961.8,487.2z"/>
				<path id="XMLID_418_" d="M1965.2,478.5c-0.4,0.3-0.5,0.9-0.1,1.3l4.3,5.4c0.3,0.4,0.9,0.5,1.3,0.1c0.4-0.3,0.5-0.9,0.1-1.3
					l-4.3-5.4C1966.1,478.2,1965.5,478.2,1965.2,478.5z"/>
				<path id="XMLID_385_" d="M1972,487.1c-0.4,0.3-0.5,0.9-0.1,1.3l0.4,0.4c0.3,0.4,0.9,0.5,1.3,0.1c0.4-0.3,0.5-0.9,0.1-1.3
					l-0.4-0.4C1972.9,486.9,1972.4,486.8,1972,487.1z"/>
			</g>
		</g>
		<g id="XMLID_65_">
			<g id="XMLID_279_">
				<path id="XMLID_237_" d="M1944.9,542l17.8-25.3l0,0l0,0c0,0,0-0.1,0.1-0.1c0,0,0,0,0-0.1l0,0l0.6-9.2c0-0.1,0-0.1,0-0.2
					s0-0.2-0.1-0.2c0-0.1-0.1-0.1-0.2-0.2s-0.1-0.1-0.2-0.1l0,0c-0.1,0-0.1,0-0.2,0l0,0c-0.1,0-0.1,0-0.1,0l-8.5,3.6l0,0l0,0
					c-0.1,0-0.1,0.1-0.1,0.1l0,0l0,0l-18,25.4c-1.7,2.5-1.1,5.9,1.3,7.6C1939.8,545.1,1943.2,544.5,1944.9,542z M1959.1,516.7
					l-0.2-3.1c0,0,0,0,0-0.1v-0.1c0,0,0,0,0-0.1v-0.1l-0.1-0.1l-0.1-0.1h-0.1h-0.1h-0.1l0,0h-0.1h-0.1l-3,0.9l-0.2-2.7l6.1-2.6
					l-0.4,0.5c-0.2,0.3-0.1,0.6,0.1,0.8c0.3,0.2,0.7,0.1,0.8-0.1l0.4-0.5l-0.4,6.7L1959.1,516.7z M1947.1,536.9l-6.9-4.9l13.7-19.4
					l0.1,1.9l-11,15.7c-0.2,0.3-0.1,0.6,0.1,0.8c0.3,0.2,0.7,0.1,0.9-0.1l11-15.7l2.8-0.8l0.2,2.9l-11,15.7
					c-0.2,0.3-0.1,0.6,0.1,0.8c0.3,0.2,0.7,0.1,0.9-0.1l11-15.7l1.9-0.5L1947.1,536.9z M1945.7,538.8l-7-4.9l0.7-1l6.9,4.9
					L1945.7,538.8z M1944.3,540.8l-6.9-4.9l0.7-1l6.9,4.9L1944.3,540.8z M1938,542.3c-1.7-1.2-2.3-3.5-1.3-5.4l6.9,4.8
					C1942.1,543.3,1939.8,543.6,1938,542.3z"/>
				<polygon id="XMLID_393_" class="st17" points="1945.7,538.8 1946.4,537.9 1939.4,533 1938.7,534 				"/>
				<polygon id="XMLID_391_" class="st17" points="1944.3,540.8 1945,539.8 1938,534.9 1937.4,536 				"/>
				<path id="XMLID_315_" class="st17" d="M1943.6,541.8l-6.9-4.8c-0.9,1.9-0.4,4.2,1.3,5.4C1939.8,543.6,1942.1,543.3,1943.6,541.8
					z"/>
				<path id="XMLID_273_" class="st17" d="M1947,533.8c-0.3-0.2-0.3-0.6-0.1-0.8l11-15.7l-0.2-2.9l-2.8,0.8l-11,15.7
					c-0.2,0.3-0.6,0.3-0.9,0.1s-0.3-0.6-0.1-0.8l11-15.7l-0.1-1.9l-13.7,19.4l6.9,4.9l13.7-19.4l-1.9,0.5l-11,15.7
					C1947.6,534,1947.3,534,1947,533.8z"/>
				<path id="XMLID_644_" class="st17" d="M1959.1,516.7l2.6-0.8l0.4-6.7l-0.4,0.5c-0.2,0.3-0.6,0.3-0.8,0.1
					c-0.3-0.2-0.3-0.6-0.1-0.8l0.4-0.5l-6.1,2.6l0.2,2.7l3-0.9c0,0,0,0,0.1,0c0,0,0,0,0.1,0l0,0h0.1h0.1h0.1l0.1,0.1
					c0,0,0,0,0.1,0.1v0.1c0,0,0,0,0,0.1v0.1c0,0,0,0,0,0.1L1959.1,516.7z"/>
			</g>
			<g id="XMLID_159_">
				<path id="XMLID_177_" class="st17" d="M1964.5,541.2c0,0-34.3,25.4-40,22.7s0.2-20.2,0.2-20.2l8.1-16.5c0,0,12.4-3.5,12,1.6
					l12.1-6.8C1956.8,522,1966.5,534.1,1964.5,541.2z"/>
				<g id="XMLID_182_">
					<path id="XMLID_186_" class="st8" d="M1923.4,546.6c0,0,6.7-19.7,10.7-20.9c3.9-1.1,13.3-6.4,13.8-2.8c0.5,3.6-9.9,9.6-9.9,9.6
						l18.8-10.6c0,0,4.3,0.5,2.5,4.9l3.5-1.8c0,0,3.3,0.5,2.3,3.9l-8.6,5.6"/>
					<path id="XMLID_108_" class="st8" d="M1962.5,536.3c0,0,4.5,1.2,2.8,3.6c-1.7,2.5-33.8,23.4-33.8,23.4"/>
					<line id="XMLID_183_" class="st24" x1="1951.1" y1="532.1" x2="1959.2" y2="526.8"/>
					<path id="XMLID_185_" class="st24" d="M1963.1,530.3c0,0,3.1,0.5,2.1,3.2s-12.2,9.3-12.2,9.3"/>
				</g>
			</g>
		</g>
		<path id="XMLID_128_" class="st8" d="M1925.2,484.8l-64.9,70.1l-75.1-29.8l-17.6,18.6c0,0,84.9,43.9,101.6,40.3
			s68.3-91.8,68.3-91.8"/>
		<path id="XMLID_97_" class="st6" d="M1663.4,538.9c0,0,94.3-33.8,104.3-34.8s60.8,34.5,60.8,34.5l-37.1,40.7l-16.3-16.9
			l-85.6,54.1L1663.4,538.9z"/>
		<g id="XMLID_104_">
			<g id="XMLID_167_">
				<g id="XMLID_561_">
					<g id="XMLID_565_">
						<path id="XMLID_571_" class="st17" d="M1852.8,460.9l1.1,4.4c0,0.1-0.8,1.4-0.9,1.5l-17,43.3c-1.7,5.9-12.8,12.8-18.8,11.1
							l-8.6-3.5c-10.9-3.5-19-12.6-21.2-23.9l-0.3-1.4l-2.3-11.6v-0.2l3.9-23.5l0,0l2.3-13.9c1.7-5.9,8-9.4,13.9-7.7L1845,447
							c4.9,1.4,8.2,5.9,8.1,10.9C1853.2,458.9,1853.1,459.9,1852.8,460.9z"/>
						<path id="XMLID_568_" class="st29" d="M1852.8,460.9l1.1,4.4c0,0.1-0.8,1.4-0.9,1.5l-17,43.3c-1.7,5.9-12.8,12.8-18.8,11.1
							l-8.6-3.5c-10.9-3.5-19-12.6-21.2-23.9l-0.3-1.4l-2.3-11.6v-0.2l3.9-23.5l0,0l2.3-13.9c1.7-5.9,8-9.4,13.9-7.7L1845,447
							c4.9,1.4,8.2,5.9,8.1,10.9C1853.2,458.9,1853.1,459.9,1852.8,460.9z"/>
					</g>
					<g id="XMLID_562_">
						<path id="XMLID_564_" class="st17" d="M1790.5,462.9l-3-5.8c0,0-7.4-1.2-8.8,8.7c-1.4,9.9,7.1,17.1,7.1,17.1L1790.5,462.9z"/>
						<path id="XMLID_563_" class="st29" d="M1790.5,462.9l-3-5.8c0,0-7.4-1.2-8.8,8.7c-1.4,9.9,7.1,17.1,7.1,17.1L1790.5,462.9z"/>
					</g>
				</g>
			</g>
			<g id="XMLID_162_">
				<g id="XMLID_520_">
					<line id="XMLID_522_" class="st7" x1="1813.7" y1="463.8" x2="1825.2" y2="468.7"/>
					<line id="XMLID_521_" class="st7" x1="1834.7" y1="472.8" x2="1846.2" y2="477.7"/>
				</g>
			</g>
			<path id="XMLID_158_" class="st14" d="M1826.8,483.5l-0.8,9.7c-0.1,1.4-1.6,2.4-2.9,1.9l-4.1-1.5"/>
			<g id="XMLID_148_">
				<path id="XMLID_157_" class="st15" d="M1817.4,481.9l-5.9-2.8c-0.8-0.4-1.1-1.3-0.7-2.1l2.9-6.3c0.4-0.8,1.3-1.1,2.1-0.7
					l5.9,2.8c0.8,0.4,1.1,1.3,0.7,2.1l-2.9,6.3C1819.1,481.9,1818.2,482.2,1817.4,481.9z"/>
				<path id="XMLID_156_" class="st16" d="M1818.2,480.3l-2.8-1.3c-0.8-0.4-1.1-1.3-0.7-2.1l1.3-2.8c0.4-0.8,1.3-1.1,2.1-0.7
					l2.8,1.3c0.8,0.4,1.1,1.3,0.7,2.1l-1.3,2.8C1819.9,480.3,1819,480.7,1818.2,480.3z"/>
				<path id="XMLID_150_" d="M1818.2,480.3l-2.8-1.3c-0.8-0.4-1.1-1.3-0.7-2.1l1.3-2.8c0.4-0.8,1.3-1.1,2.1-0.7l2.8,1.3
					c0.8,0.4,1.1,1.3,0.7,2.1l-1.3,2.8C1819.9,480.3,1819,480.7,1818.2,480.3z"/>
				<circle id="XMLID_149_" class="st15" cx="1819.4" cy="478.1" r="1.2"/>
			</g>
			<g id="XMLID_135_">
				<path id="XMLID_147_" class="st15" d="M1837.8,491l-5.9-2.8c-0.8-0.4-1.1-1.3-0.7-2.1l2.9-6.3c0.4-0.8,1.3-1.1,2.1-0.7l5.9,2.8
					c0.8,0.4,1.1,1.3,0.7,2.1l-2.9,6.3C1839.5,491,1838.6,491.3,1837.8,491z"/>
				<path id="XMLID_145_" class="st16" d="M1838.6,489.4l-2.8-1.3c-0.8-0.4-1.1-1.3-0.7-2.1l1.3-2.8c0.4-0.8,1.3-1.1,2.1-0.7
					l2.8,1.3c0.8,0.4,1.1,1.3,0.7,2.1l-1.3,2.8C1840.3,489.4,1839.4,489.7,1838.6,489.4z"/>
				<path id="XMLID_143_" d="M1838.6,489.4l-2.8-1.3c-0.8-0.4-1.1-1.3-0.7-2.1l1.3-2.8c0.4-0.8,1.3-1.1,2.1-0.7l2.8,1.3
					c0.8,0.4,1.1,1.3,0.7,2.1l-1.3,2.8C1840.3,489.4,1839.4,489.7,1838.6,489.4z"/>
				<circle id="XMLID_137_" class="st15" cx="1839.8" cy="487.1" r="1.2"/>
			</g>
			<path id="XMLID_31_" class="st30" d="M1806.7,447.7c3.5,4.6,38.4,18.7,40.9,19.1c1.8,0.3,4.3,0.4,6.9-1.2
				c5-3.2,8.3-10.2,10.2-15.7c2.7-7.8,1.7-16.7-2-24.2c-1.5-3.1-3.6-6-6.7-7.5c-3.1-1.4-7.4-0.8-9.1,2.2c-0.3-6.1-8.2-10.5-13.6-7.5
				c-0.2,1.4-0.4,2.8-0.6,4.2c-1.1-6-8-10.4-14.1-8.8c-0.2,2.3-0.4,4.7-0.7,7c-3.3-3.7-8.6-5.5-13.6-4.6c-0.7,2.3-0.9,4.7-0.7,7
				c-4.5-2.9-10.9-2.6-15.1,0.8s-4.5,9-6.6,13.8c0.1,0,0.1-0.1,0.1-0.1"/>
			<path id="XMLID_30_" class="st30" d="M1782.5,431.1c-0.4,1-1.1,1.8-1.6,2.7c-3.8,8.6-4.9,12.8-3.2,20.8c1.1,5-0.5,8.2-0.1,10.4
				c0.1-0.2,0.1-0.3,0.2-0.5c3.8-8.9,9.7-7.1,11.9-1.5c2.3,5.6,3.6,10.1,3.6,10.1l2.6,1.7c0,0,1.1-17.9,5.2-18.2
				c4.1-0.2,6.1,1.3,7-1c0.6-1.5-1.4-4.9-1-7.3l-0.4-1.1"/>
			<g id="XMLID_116_">
				<g id="XMLID_119_">
					<g>
						<path id="XMLID_400_" class="st17" d="M1829.8,503c0,0-0.1,1.4-0.8,3c-0.7,1.4-1.9,2.9-3.9,3.6c-1.8,0.6-4.3,0.6-7.7-0.8
							c-4.8-2-6.2-4.7-6.3-7.2c0-1.3,0.3-2.5,0.7-3.5c0.7-1.6,1.6-2.7,1.6-2.7C1819.8,498.8,1823.1,500.3,1829.8,503z"/>
					</g>
					<g>
						<g>
							<defs>
								<path id="SVGID_3_" d="M1829.8,503c0,0-0.1,1.4-0.8,3c-0.7,1.4-1.9,2.9-3.9,3.6c-1.8,0.6-4.3,0.6-7.7-0.8
									c-4.8-2-6.2-4.7-6.3-7.2c0-1.3,0.3-2.5,0.7-3.5c0.7-1.6,1.6-2.7,1.6-2.7C1819.8,498.8,1823.1,500.3,1829.8,503z"/>
							</defs>
							<clipPath id="SVGID_4_">
								<use xlink:href="#SVGID_3_"  style="overflow:visible;"/>
							</clipPath>
							<path id="XMLID_122_" class="st31" d="M1813.4,494.5c0,0-0.3,2.5-0.2,3.1c0.1,0.6,13.8,7.7,14.5,7.2c0.8-0.5,3-2.3,3-2.3
								L1813.4,494.5z"/>
						</g>
					</g>
					<g>
						<path id="XMLID_2_" class="st7" d="M1829.8,503c0,0-0.1,1.4-0.8,3c-0.7,1.4-1.9,2.9-3.9,3.6c-1.8,0.6-4.3,0.6-7.7-0.8
							c-4.8-2-6.2-4.7-6.3-7.2c0-1.3,0.3-2.5,0.7-3.5c0.7-1.6,1.6-2.7,1.6-2.7C1819.8,498.8,1823.1,500.3,1829.8,503z"/>
					</g>
				</g>
			</g>
		</g>
		<polyline id="XMLID_106_" class="st12" points="1805.4,561.9 1774.2,539.4 1691.7,615.8 		"/>
	</g>
	<path id="XMLID_24_" class="st32" d="M1796.7,476.1c0,0-3,14.5-3,17.9s18.8,32.6,36.2,22.3c0,0-6.6,4.8-11.6,4.2
		c-5-0.7-16.6-6.5-19.9-9.5s-12.6-15.9-12-27.6l4.2-15.9l2,6.5L1796.7,476.1z"/>
</g>
<g>
	<polyline class="st33" points="1213,-89.2 1263.6,-35.5 1219.5,22.3 	"/>
	<polyline class="st33" points="1175.4,-89.2 1226,-35.5 1181.9,22.3 	"/>
</g>
</svg>
