<svg width="215" height="108" viewBox="0 0 215 108" fill="none" xmlns="http://www.w3.org/2000/svg">
<path d="M152.339 29.9663H36.1745C34.9563 29.9663 33.9597 28.9696 33.9597 27.7515V15.3488C33.9597 14.1307 34.9563 13.134 36.1745 13.134H152.339C153.557 13.134 154.554 14.1307 154.554 15.3488V27.7515C154.554 28.9696 153.557 29.9663 152.339 29.9663Z" fill="#CFFFF0"/>
<path d="M160.008 36.6937H43.8155C42.5973 36.6937 41.6007 35.6971 41.6007 34.4789V22.0762C41.6007 20.8581 42.5973 19.8615 43.8155 19.8615H159.98C161.198 19.8615 162.195 20.8581 162.195 22.0762V34.4789C162.223 35.6971 161.226 36.6937 160.008 36.6937Z" fill="#CFFFF0"/>
<path d="M171.248 55.3808H58.9036C56.6334 55.3808 54.7785 53.5259 54.7785 51.2558V29.8002C54.7785 27.53 56.6334 25.6752 58.9036 25.6752H171.248C173.518 25.6752 175.373 27.53 175.373 29.8002V51.2281C175.373 53.5259 173.518 55.3808 171.248 55.3808Z" fill="#CFFFF0"/>
<path d="M154.72 69.4446H42.3758C40.1057 69.4446 38.2508 67.5897 38.2508 65.3196V57.0419C38.2508 54.7717 40.1057 52.9169 42.3758 52.9169H154.72C156.99 52.9169 158.845 54.7717 158.845 57.0419V65.3196C158.845 67.5897 156.99 69.4446 154.72 69.4446Z" fill="#CFFFF0"/>
<path d="M176.452 81.0998H64.1083C61.8381 81.0998 59.9832 79.245 59.9832 76.9748V64.406C59.9832 62.1359 61.8381 60.281 64.1083 60.281H176.452C178.723 60.281 180.578 62.1359 180.578 64.406V76.9471C180.578 79.2173 178.723 81.0998 176.452 81.0998Z" fill="#CFFFF0"/>
<path d="M136.67 91.177H24.3255C22.0553 91.177 20.2004 89.3221 20.2004 87.052V81.8473C20.2004 79.5772 22.0553 77.7223 24.3255 77.7223H136.67C138.94 77.7223 140.795 79.5772 140.795 81.8473V87.052C140.795 89.3221 138.94 91.177 136.67 91.177Z" fill="#CFFFF0"/>
<path d="M153.197 106.791H38.9983C36.7282 106.791 34.8733 104.936 34.8733 102.666V90.734C34.8733 88.4639 36.7282 86.609 38.9983 86.609H153.17C155.44 86.609 157.295 88.4639 157.295 90.734V102.666C157.322 104.936 155.468 106.791 153.197 106.791Z" fill="#CFFFF0"/>
<path d="M131.105 47.8784H14.9127C13.6946 47.8784 12.6979 46.8817 12.6979 45.6636V33.2609C12.6979 32.0428 13.6946 31.0461 14.9127 31.0461H131.077C132.296 31.0461 133.292 32.0428 133.292 33.2609V45.6636C133.32 46.8817 132.323 47.8784 131.105 47.8784Z" fill="#CFFFF0"/>
<path d="M25.3775 9.14746H67.0152" stroke="black" stroke-width="2" stroke-miterlimit="10"/>
<path d="M28.146 1.34045H44.6737" stroke="black" stroke-width="2" stroke-miterlimit="10"/>
<path d="M48.0512 1.34045H57.8239" stroke="black" stroke-width="2" stroke-miterlimit="10"/>
<path d="M182.072 52.8339H214.851" stroke="#3A3A3A" stroke-width="2" stroke-miterlimit="10"/>
<path d="M184.26 60.6411H197.271" stroke="#3A3A3A" stroke-width="2" stroke-miterlimit="10"/>
<path d="M199.901 60.6411H207.625" stroke="#3A3A3A" stroke-width="2" stroke-miterlimit="10"/>
<path d="M0.904236 98.5135H29.2533" stroke="black" stroke-width="2" stroke-miterlimit="10"/>
<path d="M2.78679 106.321H14.0267" stroke="black" stroke-width="2" stroke-miterlimit="10"/>
<path d="M16.3246 106.321H22.9966" stroke="black" stroke-width="2" stroke-miterlimit="10"/>
<path d="M146.83 104.853H63.6376C60.7584 104.853 58.3775 102.5 58.3775 99.5931V33.2331C58.3775 30.3539 60.7307 27.973 63.6376 27.973H146.802C149.681 27.973 152.062 30.3262 152.062 33.2331V99.5931C152.09 102.472 149.709 104.853 146.83 104.853Z" fill="#00FFB6"/>
<path d="M68.2056 24.2633H141.099C143.591 24.2633 145.639 26.312 145.639 28.8036V93.2811C145.639 95.7727 143.591 97.8214 141.099 97.8214H58.1837C55.6921 97.8214 53.6435 95.7727 53.6435 93.2811V43.2827" stroke="black" stroke-width="4" stroke-miterlimit="10"/>
<path d="M85.1278 60.6339H99.6486V44.6389H103.924V60.6339H118.445V64.7617H103.924V80.8305H99.6486V64.7617H85.1278V60.6339Z" fill="black"/>
</svg>
