<?xml version="1.0" encoding="utf-8"?>
<!-- Generator: Adobe Illustrator 19.0.0, SVG Export Plug-In . SVG Version: 6.00 Build 0)  -->
<svg version="1.1" id="Layer_1" xmlns="http://www.w3.org/2000/svg" xmlns:xlink="http://www.w3.org/1999/xlink" x="0px" y="0px"
	 viewBox="0 0 1005.7 845.8" style="enable-background:new 0 0 1005.7 845.8;" xml:space="preserve">
<style type="text/css">
	.st0{fill:#FFFFFF;}
	.st1{fill:none;stroke:#0560BC;stroke-width:8;stroke-linecap:round;stroke-linejoin:round;stroke-miterlimit:10;}
	.st2{font-family:'Ubuntu Medium';}
	.st3{font-size:55.5px;}
	.st4{fill:#CFFFF0;}
	.st5{fill:none;stroke:#000000;stroke-width:8;stroke-miterlimit:10;}
	.st6{fill:none;stroke:#3A3A3A;stroke-width:8;stroke-miterlimit:10;}
	.st7{fill:#00FFB6;}
	.st8{fill:none;stroke:#000000;stroke-width:14;stroke-miterlimit:10;}
	.st9{font-family:'MyriadPro-Regular';}
	.st10{font-size:213.7143px;}
</style>
<rect id="XMLID_426_" class="st0" width="1005.7" height="845.8"/>
<path id="XMLID_160_" class="st1" d="M917.7,695.3"/>
<g id="XMLID_148_">
	<text id="XMLID_199_" transform="matrix(1 0 0 1 391.7453 721.9609)" class="st2 st3">CREATE</text>
</g>
<g id="XMLID_106_">
	<g id="XMLID_270_">
		<g id="XMLID_803_">
			<g id="XMLID_831_">
				<path id="XMLID_832_" class="st4" d="M654.2,283.6H234.6c-4.4,0-8-3.6-8-8v-44.8c0-4.4,3.6-8,8-8h419.6c4.4,0,8,3.6,8,8v44.8
					C662.2,280,658.6,283.6,654.2,283.6z"/>
			</g>
			<g id="XMLID_829_">
				<path id="XMLID_830_" class="st4" d="M681.9,307.9H262.2c-4.4,0-8-3.6-8-8v-44.8c0-4.4,3.6-8,8-8h419.6c4.4,0,8,3.6,8,8v44.8
					C689.9,304.3,686.3,307.9,681.9,307.9z"/>
			</g>
			<g id="XMLID_827_">
				<path id="XMLID_828_" class="st4" d="M722.5,375.4H316.7c-8.2,0-14.9-6.7-14.9-14.9V283c0-8.2,6.7-14.9,14.9-14.9h405.8
					c8.2,0,14.9,6.7,14.9,14.9v77.4C737.4,368.7,730.7,375.4,722.5,375.4z"/>
			</g>
			<g id="XMLID_825_">
				<path id="XMLID_826_" class="st4" d="M662.8,426.2H257c-8.2,0-14.9-6.7-14.9-14.9v-29.9c0-8.2,6.7-14.9,14.9-14.9h405.8
					c8.2,0,14.9,6.7,14.9,14.9v29.9C677.7,419.5,671,426.2,662.8,426.2z"/>
			</g>
			<g id="XMLID_823_">
				<path id="XMLID_824_" class="st4" d="M741.3,468.3H335.5c-8.2,0-14.9-6.7-14.9-14.9V408c0-8.2,6.7-14.9,14.9-14.9h405.8
					c8.2,0,14.9,6.7,14.9,14.9v45.3C756.2,461.5,749.5,468.3,741.3,468.3z"/>
			</g>
			<g id="XMLID_821_">
				<path id="XMLID_822_" class="st4" d="M597.6,504.7H191.8c-8.2,0-14.9-6.7-14.9-14.9V471c0-8.2,6.7-14.9,14.9-14.9h405.8
					c8.2,0,14.9,6.7,14.9,14.9v18.8C612.5,498,605.8,504.7,597.6,504.7z"/>
			</g>
			<g id="XMLID_819_">
				<path id="XMLID_820_" class="st4" d="M657.3,561.1H244.8c-8.2,0-14.9-6.7-14.9-14.9v-43.1c0-8.2,6.7-14.9,14.9-14.9h412.4
					c8.2,0,14.9,6.7,14.9,14.9v43.1C672.2,554.4,665.5,561.1,657.3,561.1z"/>
			</g>
		</g>
	</g>
	<path id="XMLID_267_" class="st4" d="M577.5,348.3H157.8c-4.4,0-8-3.6-8-8v-44.8c0-4.4,3.6-8,8-8h419.6c4.4,0,8,3.6,8,8v44.8
		C585.5,344.7,581.9,348.3,577.5,348.3z"/>
	<g id="XMLID_205_">
		<g id="XMLID_260_">
			<line id="XMLID_263_" class="st5" x1="195.6" y1="208.4" x2="346" y2="208.4"/>
		</g>
		<g id="XMLID_206_">
			<line id="XMLID_255_" class="st5" x1="205.6" y1="180.2" x2="265.3" y2="180.2"/>
			<line id="XMLID_250_" class="st5" x1="277.5" y1="180.2" x2="312.8" y2="180.2"/>
		</g>
	</g>
	<g id="XMLID_185_">
		<g id="XMLID_200_">
			<line id="XMLID_201_" class="st6" x1="761.6" y1="366.2" x2="880" y2="366.2"/>
		</g>
		<g id="XMLID_186_">
			<line id="XMLID_193_" class="st6" x1="769.5" y1="394.4" x2="816.5" y2="394.4"/>
			<line id="XMLID_190_" class="st6" x1="826" y1="394.4" x2="853.9" y2="394.4"/>
		</g>
	</g>
	<g id="XMLID_167_">
		<g id="XMLID_180_">
			<line id="XMLID_181_" class="st5" x1="107.2" y1="531.2" x2="209.6" y2="531.2"/>
		</g>
		<g id="XMLID_170_">
			<line id="XMLID_176_" class="st5" x1="114" y1="559.4" x2="154.6" y2="559.4"/>
			<line id="XMLID_171_" class="st5" x1="162.9" y1="559.4" x2="187" y2="559.4"/>
		</g>
	</g>
	<path id="XMLID_131_" class="st7" d="M634.3,554.1H333.8c-10.4,0-19-8.5-19-19V295.4c0-10.4,8.5-19,19-19h300.4
		c10.4,0,19,8.5,19,19v239.7C653.3,545.5,644.7,554.1,634.3,554.1z"/>
	<path id="XMLID_107_" class="st8" d="M350.3,263h263.3c9,0,16.4,7.4,16.4,16.4v232.9c0,9-7.4,16.4-16.4,16.4H314.1
		c-9,0-16.4-7.4-16.4-16.4V331.7"/>
	<text id="XMLID_101_" transform="matrix(1 0 0 1 400.2001 455.5952)" class="st9 st10">+</text>
</g>
</svg>
