<?xml version="1.0" encoding="utf-8"?>
<!-- Generator: Adobe Illustrator 19.0.0, SVG Export Plug-In . SVG Version: 6.00 Build 0)  -->
<svg version="1.1" id="Layer_1" xmlns="http://www.w3.org/2000/svg" xmlns:xlink="http://www.w3.org/1999/xlink" x="0px" y="0px"
	 viewBox="0 0 1005.7 845.8" style="enable-background:new 0 0 1005.7 845.8;" xml:space="preserve">
<style type="text/css">
	.st0{fill:#FFFFFF;}
	.st1{font-family:'Ubuntu Medium';}
	.st2{font-size:55.5px;}
	.st3{fill:#CFFFF0;}
	.st4{fill:#E6FFFC;}
	.st5{fill:none;stroke:#000000;stroke-width:8;stroke-miterlimit:10;}
	.st6{fill:#00FFB6;}
	.st7{fill:none;stroke:#000000;stroke-width:14;stroke-miterlimit:10;}
	.st8{fill:#FCFCFC;stroke:#000000;stroke-width:8;stroke-linecap:round;stroke-linejoin:round;stroke-miterlimit:10;}
	.st9{fill:#FF6C88;}
	.st10{fill:#FFE600;}
</style>
<rect id="XMLID_445_" x="0" y="0" class="st0" width="1005.7" height="845.8"/>
<g id="XMLID_446_">
	<text id="XMLID_198_" transform="matrix(1 0 0 1 132.2447 751.6127)" class="st1 st2"> Deliver &amp; Get Ratings</text>
</g>
<g id="XMLID_443_">
	<g id="XMLID_476_">
		<g id="XMLID_606_">
			<g id="XMLID_745_">
				<g id="XMLID_758_">
					<path id="XMLID_759_" class="st3" d="M660.6,224.5H242.9c-4.4,0-8-3.6-8-8v-48.7c0-4.4,3.6-8,8-8h417.7c4.4,0,8,3.6,8,8v48.7
						C668.6,220.9,665,224.5,660.6,224.5z"/>
				</g>
				<g id="XMLID_756_">
					<path id="XMLID_757_" class="st3" d="M634.1,250.3H216.4c-4.4,0-8-3.6-8-8v-48.7c0-4.4,3.6-8,8-8h417.7c4.4,0,8,3.6,8,8v48.7
						C642.1,246.7,638.5,250.3,634.1,250.3z"/>
				</g>
				<g id="XMLID_754_">
					<path id="XMLID_755_" class="st3" d="M718.5,355.1H314.7c-8.2,0-14.9-6.7-14.9-14.9v-84.2c0-8.2,6.7-14.9,14.9-14.9h403.8
						c8.2,0,14.9,6.7,14.9,14.9v84.2C733.4,348.4,726.7,355.1,718.5,355.1z"/>
				</g>
				<g id="XMLID_752_">
					<path id="XMLID_753_" class="st3" d="M669,410.2H265.2c-8.2,0-14.9-6.7-14.9-14.9v-33.7c0-8.2,6.7-14.9,14.9-14.9H669
						c8.2,0,14.9,6.7,14.9,14.9v33.7C684,403.5,677.2,410.2,669,410.2z"/>
				</g>
				<g id="XMLID_750_">
					<path id="XMLID_751_" class="st3" d="M787.2,454.9H383.4c-8.2,0-14.9-6.7-14.9-14.9v-50.1c0-8.2,6.7-14.9,14.9-14.9h403.8
						c8.2,0,14.9,6.7,14.9,14.9V440C802.1,448.2,795.4,454.9,787.2,454.9z"/>
				</g>
				<g id="XMLID_748_">
					<path id="XMLID_749_" class="st3" d="M600.1,533.7H196.3c-8.2,0-14.9-6.7-14.9-14.9v-21.9c0-8.2,6.7-14.9,14.9-14.9h403.8
						c8.2,0,14.9,6.7,14.9,14.9v21.9C615,527,608.3,533.7,600.1,533.7z"/>
				</g>
				<g id="XMLID_746_">
					<path id="XMLID_747_" class="st3" d="M663.5,591.7H253.1c-8.2,0-14.9-6.7-14.9-14.9V529c0-8.2,6.7-14.9,14.9-14.9h410.4
						c8.2,0,14.9,6.7,14.9,14.9v47.8C678.5,585,671.7,591.7,663.5,591.7z"/>
				</g>
			</g>
		</g>
		<path id="XMLID_603_" class="st4" d="M367.3,297.2h359c4.4,0,8-3.6,8-8v-44.8c0-4.4-3.6-8-8-8h-359c-4.4,0-8,3.6-8,8v44.8
			C359.3,293.6,362.9,297.2,367.3,297.2z"/>
		<g id="XMLID_581_">
			<g id="XMLID_671_">
				<g id="XMLID_677_">
					<g id="XMLID_678_">
						<line id="XMLID_679_" class="st5" x1="812.2" y1="143.5" x2="661.8" y2="143.5"/>
					</g>
				</g>
				<g id="XMLID_672_">
					<g id="XMLID_675_">
						<line id="XMLID_676_" class="st5" x1="802.2" y1="115.2" x2="742.5" y2="115.2"/>
					</g>
					<g id="XMLID_673_">
						<line id="XMLID_674_" class="st5" x1="730.4" y1="115.2" x2="695" y2="115.2"/>
					</g>
				</g>
			</g>
		</g>
		<g id="XMLID_559_">
			<g id="XMLID_655_">
				<g id="XMLID_661_">
					<g id="XMLID_662_">
						<line id="XMLID_663_" class="st5" x1="237.2" y1="358.7" x2="167.7" y2="358.7"/>
					</g>
				</g>
				<g id="XMLID_656_">
					<g id="XMLID_659_">
						<line id="XMLID_660_" class="st5" x1="232.6" y1="387" x2="205" y2="387"/>
					</g>
					<g id="XMLID_657_">
						<line id="XMLID_658_" class="st5" x1="199.4" y1="387" x2="183.1" y2="387"/>
					</g>
				</g>
			</g>
		</g>
		<g id="XMLID_535_">
			<g id="XMLID_637_">
				<g id="XMLID_645_">
					<g id="XMLID_646_">
						<line id="XMLID_647_" class="st5" x1="672.6" y1="589.8" x2="570.2" y2="589.8"/>
					</g>
				</g>
				<g id="XMLID_639_">
					<g id="XMLID_643_">
						<line id="XMLID_644_" class="st5" x1="665.8" y1="618" x2="625.2" y2="618"/>
					</g>
					<g id="XMLID_640_">
						<line id="XMLID_642_" class="st5" x1="616.9" y1="618" x2="592.8" y2="618"/>
					</g>
				</g>
			</g>
		</g>
	</g>
	<path id="XMLID_536_" class="st6" d="M667.5,567.1H268.5c-10.4,0-19-8.5-19-19V222.3c0-10.4,8.5-19,19-19h399.1
		c10.4,0,19,8.5,19,19v325.8C686.5,558.6,678,567.1,667.5,567.1z"/>
	<path id="XMLID_539_" class="st7" d="M230.8,440.6v72.8c0,10.4,8,19,17.7,19h396.5c9.7,0,17.7-8.5,17.7-19v-319
		c0-10.4-8-19-17.7-19h-54.5"/>
	<g id="XMLID_452_">
		<path id="XMLID_444_" class="st8" d="M217.4,314.7h18c0,0,11.7-38.7,58.7-34.5l61.5-22.1c0,0,28.3,24.9-37.3,42.2h91.2
			c0,0,18,9.7,4.1,24.9c0,0,22.1,10.4,3.5,27.6c0,0,8.3,22.8-20.7,24.2c0,0,8.3,18-18,20.7c-26.3,2.8-103.6-0.7-103.6-0.7
			s-26.3-3.5-31.8-18.7h-29"/>
		<line id="XMLID_442_" class="st8" x1="413.7" y1="325.1" x2="330.1" y2="325.1"/>
		<line id="XMLID_441_" class="st8" x1="417.8" y1="351.3" x2="334.2" y2="351.3"/>
		<line id="XMLID_438_" class="st8" x1="397.1" y1="376.9" x2="313.5" y2="376.9"/>
		<polyline id="XMLID_454_" class="st8" points="82.7,402.4 216.8,402.4 216.8,289.1 82.7,289.1 		"/>
		<polyline id="XMLID_434_" class="st8" points="153.9,290 153.9,374.1 181.5,401.4 		"/>
		<path id="XMLID_433_" class="st8" d="M318.3,300.2c0,0,11,47.2-47.2,49.2"/>
	</g>
	<g id="XMLID_395_">
		<path id="XMLID_501_" class="st8" d="M780.9,443.7h-18c0,0-11.7-38.7-58.7-34.5L642.7,387c0,0-28.3,24.9,37.3,42.2h-91.2
			c0,0-18,9.7-4.1,24.9c0,0-22.1,10.4-3.5,27.6c0,0-8.3,22.8,20.7,24.2c0,0-8.3,18,18,20.7c26.3,2.8,103.6-0.7,103.6-0.7
			s26.3-3.5,31.8-18.7h29"/>
		<line id="XMLID_497_" class="st8" x1="584.7" y1="454.1" x2="668.3" y2="454.1"/>
		<line id="XMLID_493_" class="st8" x1="580.5" y1="480.3" x2="664.2" y2="480.3"/>
		<line id="XMLID_481_" class="st8" x1="601.3" y1="505.9" x2="684.9" y2="505.9"/>
		<polyline id="XMLID_477_" class="st8" points="915.7,531.5 781.6,531.5 781.6,418.1 915.7,418.1 		"/>
		<polyline id="XMLID_430_" class="st8" points="844.5,419 844.5,503.1 816.9,530.4 		"/>
		<path id="XMLID_398_" class="st8" d="M680,429.2c0,0-11,47.2,47.2,49.2"/>
	</g>
	<g id="XMLID_490_">
		<rect id="XMLID_437_" x="318.2" y="240.2" class="st9" width="184.4" height="114.7"/>
		<path id="XMLID_461_" d="M303.7,248.8c10.5-1.4,10.5-1.4,10.5,8.1c0,23.3,0,46.6,0,69.9c0,1.9,0.2,3.8,0.2,5.9
			c21.3,0,42.2,0,63.6,0c0.1-1.2,0.2-2.4,0.2-3.6c0-30-0.1-60,0.1-90c0-3.4-1-4.3-4.3-4.3c-25.5,0.1-51,0.1-76.5,0.1
			c-6.5,0-7.8-1.2-7.8-7.6c0-13.4,0-26.8,0-40.2c0-5.3,1.7-7,7-7c8.7,0,17.3,0,26,0c1.3,0,2.6,0,3.7,0c-1.8-4.6-4-8.9-5.1-13.4
			c-2.6-11,1.9-21.2,11.3-27.1c10-6.3,22.1-6.1,30.8,0.8c4.3,3.4,8.2,7.3,12.8,11.4c-1.3-4.3-2.5-7.9-3.4-11.6
			c-2.8-11.2,1.1-20.2,9.7-27.2c8.5-6.9,18.1-8.4,28-3.1c10,5.4,15.9,13.8,15.2,25.4c-0.3,5.3-2.4,10.6-3.8,16.3
			c3.7-3.4,7.1-6.5,10.5-9.7c10.5-9.9,25.5-7.6,34.3-1.1c10.9,8.1,13.6,22.6,6.3,35c-0.7,1.2-1.5,2.4-2.5,4.1c1.7,0.1,3,0.2,4.2,0.2
			c8.8,0,17.6,0,26.3,0c5.2,0,7,2.3,6.9,7.5c-0.2,13.3-0.1,26.6-0.1,39.9c0,6.2-1.3,7.5-7.5,7.5c-25.5,0-51,0.1-76.5,0
			c-3.4,0-4.6,0.7-4.6,4.4c0.2,29.8,0.1,59.5,0.1,89.3c0,1.3,0,2.6,0,4.1c21.5,0,42.5,0,63.9,0c0.1-1.7,0.2-3.2,0.2-4.8
			c0-24.9,0-49.8,0-74.6c0-4.7,0-4.7,4.8-4.7c1.7,0,3.4,0,5.5,0c0.1,1.7,0.2,3.1,0.2,4.5c0,27.7,0,55.4,0,83.1c0,6-1.5,7.5-7.6,7.5
			c-58.3,0-116.6,0-174.9,0c-6.6,0-7.9-1.3-7.9-7.9c0-27.3,0-54.6,0-82C303.7,252,303.7,250.5,303.7,248.8z M409,332.6
			c0-1.8,0-3.2,0-4.6c0-22.4,0-44.9,0-67.3c0-21.5,0-42.9,0-64.4c0-5.6,0-5.6-5.5-5.7c-3.5,0-7.1,0.2-10.6,0
			c-3.1-0.2-4.2,0.8-4.2,4.1c0.1,44.4,0.1,88.7,0.1,133.1c0,1.5,0,3.1,0,4.8C395.7,332.6,402,332.6,409,332.6z M300.9,190.8
			c-0.2,0.7-0.4,1-0.4,1.4c0,9.9,0,19.7-0.1,29.6c0,2.6,1.6,2.5,3.4,2.5c23.6,0,47.3,0,70.9,0.1c3,0,3.7-1.2,3.7-3.9
			c-0.1-8.5-0.2-17.1,0-25.6c0.1-3.3-0.9-4.4-4.3-4.3c-23.5,0.1-47,0-70.6,0C302.7,190.6,301.9,190.7,300.9,190.8z M458.8,190.6
			C458.8,190.6,458.8,190.6,458.8,190.6c-11.9,0.1-23.9,0.1-35.8,0c-2.4,0-3.5,0.5-3.5,3.2c0.1,9,0.1,18,0,27c0,2.9,1.1,3.5,3.7,3.5
			c23.6-0.1,47.3-0.1,70.9,0c2.5,0,3.5-0.7,3.5-3.3c-0.1-9-0.1-18,0-27c0-2.8-1-3.5-3.7-3.5C482.2,190.6,470.5,190.6,458.8,190.6z
			 M398.9,176c6.3-12.9,12.9-25.6,16-39.6c1.5-6.6-0.5-12.8-6.7-16.5c-6.2-3.8-12.9-3.7-19,0.2c-6,3.9-7.9,10.1-6.3,16.7
			C386.2,150.6,392.6,163.2,398.9,176z M386.6,179.8c-10-11.7-18.7-23.1-30.3-31.7c-5.3-4-11.7-4.5-17.4-0.6c-5.8,4-8.7,9.9-7.8,17
			c1,7.2,5.9,11.5,12.7,13C357.5,180.5,371.5,179.9,386.6,179.8z M411.8,179c0.6,0.5,0.8,0.7,1,0.7c13-0.5,26-0.7,39-1.7
			c6.8-0.5,12.2-4.2,14.5-11.1c2.2-6.4-1-15-6.7-19.1c-5.4-3.9-13.4-3.8-19,1c-5.4,4.6-10.3,9.6-15.1,14.8
			C420.7,168.5,416.4,173.8,411.8,179z"/>
		<path id="XMLID_460_" class="st0" d="M409,332.6c-7,0-13.3,0-20.2,0c0-1.7,0-3.3,0-4.8c0-44.4,0-88.7-0.1-133.1
			c0-3.3,1.1-4.3,4.2-4.1c3.5,0.2,7.1,0,10.6,0c5.4,0,5.4,0,5.5,5.7c0,21.5,0,42.9,0,64.4c0,22.4,0,44.9,0,67.3
			C409,329.4,409,330.8,409,332.6z"/>
		<path id="XMLID_459_" class="st0" d="M300.9,190.8c1-0.1,1.8-0.2,2.7-0.2c23.5,0,47,0.1,70.6,0c3.4,0,4.4,1,4.3,4.3
			c-0.2,8.5-0.1,17.1,0,25.6c0,2.7-0.6,3.9-3.7,3.9c-23.6-0.1-47.3-0.1-70.9-0.1c-1.8,0-3.5,0.1-3.4-2.5c0.1-9.9,0.1-19.7,0.1-29.6
			C300.5,191.8,300.7,191.5,300.9,190.8z"/>
		<path id="XMLID_458_" class="st0" d="M458.8,190.6c11.7,0,23.4,0.1,35.1-0.1c2.7,0,3.7,0.7,3.7,3.5c-0.1,9-0.1,18,0,27
			c0,2.6-1,3.3-3.5,3.3c-23.6-0.1-47.3-0.1-70.9,0c-2.6,0-3.7-0.6-3.7-3.5c0.2-9,0.1-18,0-27c0-2.7,1.1-3.2,3.5-3.2
			C434.9,190.7,446.8,190.6,458.8,190.6C458.8,190.6,458.8,190.6,458.8,190.6z"/>
		<path id="XMLID_457_" class="st0" d="M398.9,176c-6.3-12.8-12.7-25.4-16-39.2c-1.6-6.6,0.3-12.8,6.3-16.7c6.1-3.9,12.8-4,19-0.2
			c6.1,3.8,8.1,9.9,6.7,16.5C411.8,150.4,405.2,163.1,398.9,176z"/>
		<path id="XMLID_456_" class="st0" d="M386.6,179.8c-15.1,0.1-29.1,0.7-42.9-2.3c-6.8-1.5-11.7-5.8-12.7-13c-0.9-7.1,2-13,7.8-17
			c5.7-4,12.1-3.4,17.4,0.6C367.9,156.7,376.6,168.1,386.6,179.8z"/>
		<path id="XMLID_455_" class="st0" d="M411.8,179c4.5-5.2,8.9-10.6,13.6-15.5c4.8-5.1,9.8-10.2,15.1-14.8c5.6-4.8,13.6-4.8,19-1
			c5.7,4.1,8.9,12.7,6.7,19.1c-2.3,6.9-7.7,10.6-14.5,11.1c-13,1-26,1.2-39,1.7C412.6,179.7,412.5,179.5,411.8,179z"/>
	</g>
	<g id="XMLID_177_">
		<g id="XMLID_475_">
			<g id="XMLID_528_">
				<path id="XMLID_529_" class="st10" d="M690.1,360.8c0.9,0.1,1.4,1.3,0.7,1.9c0,0,0,0,0,0c-6.4,6.3-12.8,12.5-19.3,18.7
					c-4.1,4-6,8.7-5,14.5c1.6,8.6,3,17.2,4.5,25.9c0.1,0.4,0.1,0.9,0.2,1.3c0.1,0.9-0.9,1.6-1.7,1.2c-8.3-4.3-16.3-8.3-24.2-12.5
					c-5.3-2.8-10.4-2.8-15.6,0c-7.8,4.2-15.7,8.2-24,12.6c-0.9,0.4-1.9-0.3-1.7-1.2c0.9-5.5,1.8-10.5,2.7-15.6
					c0.7-4.1,1.5-8.2,2.1-12.4c0.7-5.2-0.9-9.6-4.7-13.2c-6.4-6.1-12.7-12.3-19.1-18.5c-0.2-0.2-0.5-0.5-0.7-0.8
					c-0.7-0.7-0.3-1.8,0.7-2c9.4-1.4,18.4-2.7,27.3-4c5.7-0.8,9.7-3.9,12.2-8.9c3.8-7.7,7.6-15.4,11.4-23c0.2-0.5,0.5-0.9,0.7-1.4
					c0.4-0.8,1.7-0.8,2.1,0c3.9,7.8,7.7,15.3,11.2,22.9c3.2,7,8.5,10.2,15.9,11C673.7,358.3,681.7,359.6,690.1,360.8z"/>
			</g>
		</g>
		<g id="XMLID_427_">
			<path id="XMLID_428_" d="M599.7,415c-3-1.5-3.8-4-3.2-7.2c1.5-8.1,2.8-16.3,4.3-24.4c0.4-2.3,0-4.2-1.8-5.8
				c-6.1-5.9-12.2-11.8-18.3-17.7c-1.7-1.6-2.7-3.4-2-5.7c0.7-2.2,2.4-3,4.6-3.3c8.6-1.2,17.2-2.5,25.8-3.7c2.2-0.3,3.5-1.4,4.4-3.3
				c3.7-7.5,7.4-14.9,11-22.4c0.9-1.9,2.1-3.5,4.1-4.4c0.6,0,1.2,0,1.8,0c2.1,0.7,3.3,2.3,4.2,4.2c3.6,7.5,7.4,15,11.1,22.5
				c0.8,1.7,2,2.9,4,3.1c8.4,1.2,16.7,2.5,25.1,3.6c2.8,0.4,5,1.2,6.1,4c0,0.7,0,1.5,0,2.2c-1.1,1.3-2.1,2.7-3.3,3.8
				c-5.8,5.6-11.7,11.3-17.6,16.8c-1.7,1.6-2.3,3.4-1.9,5.6c1.4,8.1,2.8,16.3,4.3,24.4c0.6,3.3,0.1,5.9-3.1,7.5c-0.9,0-1.8,0-2.7,0
				c-6.9-3.7-13.8-7.4-20.8-11c-7.3-3.8-5.6-3.9-13,0c-7,3.6-13.9,7.4-20.8,11.1C601.5,415,600.6,415,599.7,415z M587.9,357.1
				c0.8,0.8,1.2,1.3,1.8,1.8c4.9,4.7,9.7,9.5,14.6,14.2c2.9,2.8,4.1,6.1,3.6,10.1c-0.5,3.2-1.1,6.3-1.6,9.5
				c-0.8,4.4-1.5,8.8-2.4,13.7c7-3.7,13.5-7,20-10.5c4-2.1,7.9-2.1,11.9,0c6.5,3.4,13.1,6.7,20,10.3c-0.1-1.1-0.2-1.9-0.3-2.7
				c-1.1-6.6-2.2-13.2-3.4-19.8c-0.8-4.4,0.6-8,3.8-11.1c4.9-4.8,9.8-9.5,14.7-14.3c0.3-0.3,0.5-0.7,1-1.3c-6.9-1-13.5-2.1-20.2-2.8
				c-5.7-0.6-9.7-3.1-12.1-8.4c-2.9-6.3-6.1-12.5-9.3-19c-0.6,1-1,1.8-1.4,2.6c-2.9,5.9-5.8,11.7-8.7,17.6c-1.9,3.9-5,6.2-9.3,6.8
				C603.1,354.9,595.8,356,587.9,357.1z"/>
		</g>
	</g>
	<g id="XMLID_478_">
		<g id="XMLID_516_">
			<g id="XMLID_519_">
				<path id="XMLID_520_" class="st10" d="M599.1,427.8c0.9,0.1,1.4,1.3,0.7,1.9c0,0,0,0,0,0c-6.4,6.3-12.8,12.5-19.3,18.7
					c-4.1,4-6,8.7-5,14.5c1.6,8.6,3,17.2,4.5,25.9c0.1,0.4,0.1,0.9,0.2,1.3c0.1,0.9-0.9,1.6-1.7,1.2c-8.3-4.3-16.3-8.3-24.2-12.5
					c-5.3-2.8-10.4-2.8-15.6,0c-7.8,4.2-15.7,8.2-24,12.6c-0.9,0.4-1.9-0.3-1.7-1.2c0.9-5.5,1.8-10.5,2.7-15.6
					c0.7-4.1,1.5-8.2,2.1-12.4c0.7-5.2-0.9-9.6-4.7-13.2c-6.4-6.1-12.7-12.3-19.1-18.5c-0.2-0.2-0.5-0.5-0.7-0.8
					c-0.7-0.7-0.3-1.8,0.7-2c9.4-1.4,18.4-2.7,27.3-4c5.7-0.8,9.7-3.9,12.2-8.9c3.8-7.7,7.6-15.4,11.4-23c0.2-0.5,0.5-0.9,0.7-1.4
					c0.4-0.8,1.7-0.8,2.1,0c3.9,7.8,7.7,15.3,11.2,22.9c3.2,7,8.5,10.2,15.9,11C582.7,425.3,590.7,426.6,599.1,427.8z"/>
			</g>
		</g>
		<g id="XMLID_512_">
			<path id="XMLID_513_" d="M508.7,482c-3-1.5-3.8-4-3.2-7.2c1.5-8.1,2.8-16.3,4.3-24.4c0.4-2.3,0-4.2-1.8-5.8
				c-6.1-5.9-12.2-11.8-18.3-17.7c-1.7-1.6-2.7-3.4-2-5.7c0.7-2.2,2.4-3,4.6-3.3c8.6-1.2,17.2-2.5,25.8-3.7c2.2-0.3,3.5-1.4,4.4-3.3
				c3.7-7.5,7.4-14.9,11-22.4c0.9-1.9,2.1-3.5,4.1-4.4c0.6,0,1.2,0,1.8,0c2.1,0.7,3.3,2.3,4.2,4.2c3.6,7.5,7.4,15,11.1,22.5
				c0.8,1.7,2,2.9,4,3.1c8.4,1.2,16.7,2.5,25.1,3.6c2.8,0.4,5,1.2,6.1,4c0,0.7,0,1.5,0,2.2c-1.1,1.3-2.1,2.7-3.3,3.8
				c-5.8,5.6-11.7,11.3-17.6,16.8c-1.7,1.6-2.3,3.4-1.9,5.6c1.4,8.1,2.8,16.3,4.3,24.4c0.6,3.3,0.1,5.9-3.1,7.5c-0.9,0-1.8,0-2.7,0
				c-6.9-3.7-13.8-7.4-20.8-11c-7.3-3.8-5.6-3.9-13,0c-7,3.6-13.9,7.4-20.8,11.1C510.5,482,509.6,482,508.7,482z M496.9,424.1
				c0.8,0.8,1.2,1.3,1.8,1.8c4.9,4.7,9.7,9.5,14.6,14.2c2.9,2.8,4.1,6.1,3.6,10.1c-0.5,3.2-1.1,6.3-1.6,9.5
				c-0.8,4.4-1.5,8.8-2.4,13.7c7-3.7,13.5-7,20-10.5c4-2.1,7.9-2.1,11.9,0c6.5,3.4,13.1,6.7,20,10.3c-0.1-1.1-0.2-1.9-0.3-2.7
				c-1.1-6.6-2.2-13.2-3.4-19.8c-0.8-4.4,0.6-8,3.8-11.1c4.9-4.8,9.8-9.5,14.7-14.3c0.3-0.3,0.5-0.7,1-1.3c-6.9-1-13.5-2.1-20.2-2.8
				c-5.7-0.6-9.7-3.1-12.1-8.4c-2.9-6.3-6.1-12.5-9.3-19c-0.6,1-1,1.8-1.4,2.6c-2.9,5.9-5.8,11.7-8.7,17.6c-1.9,3.9-5,6.2-9.3,6.8
				C512.1,421.9,504.8,423,496.9,424.1z"/>
		</g>
	</g>
	<g id="XMLID_522_">
		<g id="XMLID_530_">
			<g id="XMLID_532_">
				<path id="XMLID_533_" class="st10" d="M785.1,422.8c0.9,0.1,1.4,1.3,0.7,1.9c0,0,0,0,0,0c-6.4,6.3-12.8,12.5-19.3,18.7
					c-4.1,4-6,8.7-5,14.5c1.6,8.6,3,17.2,4.5,25.9c0.1,0.4,0.1,0.9,0.2,1.3c0.1,0.9-0.9,1.6-1.7,1.2c-8.3-4.3-16.3-8.3-24.2-12.5
					c-5.3-2.8-10.4-2.8-15.6,0c-7.8,4.2-15.7,8.2-24,12.6c-0.9,0.4-1.9-0.3-1.7-1.2c0.9-5.5,1.8-10.5,2.7-15.6
					c0.7-4.1,1.5-8.2,2.1-12.4c0.7-5.2-0.9-9.6-4.7-13.2c-6.4-6.1-12.7-12.3-19.1-18.5c-0.2-0.2-0.5-0.5-0.7-0.8
					c-0.7-0.7-0.3-1.8,0.7-2c9.4-1.4,18.4-2.7,27.3-4c5.7-0.8,9.7-3.9,12.2-8.9c3.8-7.7,7.6-15.4,11.4-23c0.2-0.5,0.5-0.9,0.7-1.4
					c0.4-0.8,1.7-0.8,2.1,0c3.9,7.8,7.7,15.3,11.2,22.9c3.2,7,8.5,10.2,15.9,11C768.7,420.3,776.7,421.6,785.1,422.8z"/>
			</g>
		</g>
		<g id="XMLID_523_">
			<path id="XMLID_524_" d="M694.7,477c-3-1.5-3.8-4-3.2-7.2c1.5-8.1,2.8-16.3,4.3-24.4c0.4-2.3,0-4.2-1.8-5.8
				c-6.1-5.9-12.2-11.8-18.3-17.7c-1.7-1.6-2.7-3.4-2-5.7c0.7-2.2,2.4-3,4.6-3.3c8.6-1.2,17.2-2.5,25.8-3.7c2.2-0.3,3.5-1.4,4.4-3.3
				c3.7-7.5,7.4-14.9,11-22.4c0.9-1.9,2.1-3.5,4.1-4.4c0.6,0,1.2,0,1.8,0c2.1,0.7,3.3,2.3,4.2,4.2c3.6,7.5,7.4,15,11.1,22.5
				c0.8,1.7,2,2.9,4,3.1c8.4,1.2,16.7,2.5,25.1,3.6c2.8,0.4,5,1.2,6.1,4c0,0.7,0,1.5,0,2.2c-1.1,1.3-2.1,2.7-3.3,3.8
				c-5.8,5.6-11.7,11.3-17.6,16.8c-1.7,1.6-2.3,3.4-1.9,5.6c1.4,8.1,2.8,16.3,4.3,24.4c0.6,3.3,0.1,5.9-3.1,7.5c-0.9,0-1.8,0-2.7,0
				c-6.9-3.7-13.8-7.4-20.8-11c-7.3-3.8-5.6-3.9-13,0c-7,3.6-13.9,7.4-20.8,11.1C696.5,477,695.6,477,694.7,477z M682.9,419.1
				c0.8,0.8,1.2,1.3,1.8,1.8c4.9,4.7,9.7,9.5,14.6,14.2c2.9,2.8,4.1,6.1,3.6,10.1c-0.5,3.2-1.1,6.3-1.6,9.5
				c-0.8,4.4-1.5,8.8-2.4,13.7c7-3.7,13.5-7,20-10.5c4-2.1,7.9-2.1,11.9,0c6.5,3.4,13.1,6.7,20,10.3c-0.1-1.1-0.2-1.9-0.3-2.7
				c-1.1-6.6-2.2-13.2-3.4-19.8c-0.8-4.4,0.6-8,3.8-11.1c4.9-4.8,9.8-9.5,14.7-14.3c0.3-0.3,0.5-0.7,1-1.3c-6.9-1-13.5-2.1-20.2-2.8
				c-5.7-0.6-9.7-3.1-12.1-8.4c-2.9-6.3-6.1-12.5-9.3-19c-0.6,1-1,1.8-1.4,2.6c-2.9,5.9-5.8,11.7-8.7,17.6c-1.9,3.9-5,6.2-9.3,6.8
				C698.1,416.9,690.8,418,682.9,419.1z"/>
		</g>
	</g>
</g>
</svg>
