<svg width="182" height="112" viewBox="0 0 182 112" fill="none" xmlns="http://www.w3.org/2000/svg">
<path d="M125.495 25.3745H35.5114C34.5635 25.3745 33.788 24.599 33.788 23.6511V13.1598C33.788 12.2119 34.5635 11.4363 35.5114 11.4363H125.495C126.443 11.4363 127.219 12.2119 127.219 13.1598V23.6511C127.219 24.599 126.443 25.3745 125.495 25.3745Z" fill="#CFFFF0"/>
<path d="M119.787 30.9325H29.8026C28.8548 30.9325 28.0792 30.157 28.0792 29.2091V18.7178C28.0792 17.7699 28.8548 16.9944 29.8026 16.9944H119.787C120.735 16.9944 121.51 17.7699 121.51 18.7178V29.2091C121.51 30.157 120.735 30.9325 119.787 30.9325Z" fill="#CFFFF0"/>
<path d="M137.969 53.5094H50.9792C49.2127 53.5094 47.7693 52.066 47.7693 50.2995V32.1605C47.7693 30.394 49.2127 28.9506 50.9792 28.9506H137.969C139.735 28.9506 141.179 30.394 141.179 32.1605V50.2995C141.179 52.066 139.735 53.5094 137.969 53.5094Z" fill="#CFFFF0"/>
<path d="M127.305 65.3794H40.3155C38.549 65.3794 37.1056 63.936 37.1056 62.1695V54.9096C37.1056 53.1431 38.549 51.6998 40.3155 51.6998H127.305C129.072 51.6998 130.515 53.1431 130.515 54.9096V62.1695C130.537 63.936 129.072 65.3794 127.305 65.3794Z" fill="#CFFFF0"/>
<path d="M152.769 75.009H65.779C64.0125 75.009 62.5691 73.5656 62.5691 71.7991V61.0062C62.5691 59.2397 64.0125 57.7963 65.779 57.7963H152.769C154.535 57.7963 155.978 59.2397 155.978 61.0062V71.7991C155.978 73.5656 154.535 75.009 152.769 75.009Z" fill="#CFFFF0"/>
<path d="M112.462 91.9847H25.4724C23.7059 91.9847 22.2626 90.5413 22.2626 88.7748V84.057C22.2626 82.2905 23.7059 80.8471 25.4724 80.8471H112.462C114.229 80.8471 115.672 82.2905 115.672 84.057V88.7748C115.672 90.5413 114.229 91.9847 112.462 91.9847Z" fill="#CFFFF0"/>
<path d="M126.12 104.48H37.7088C35.9423 104.48 34.4989 103.036 34.4989 101.27V90.9722C34.4989 89.2057 35.9423 87.7623 37.7088 87.7623H126.12C127.887 87.7623 129.33 89.2057 129.33 90.9722V101.27C129.352 103.036 127.887 104.48 126.12 104.48Z" fill="#CFFFF0"/>
<path d="M62.3106 41.0361H139.649C140.597 41.0361 141.372 40.2606 141.372 39.3127V29.6615C141.372 28.7136 140.597 27.9381 139.649 27.9381H62.3106C61.3627 27.9381 60.5872 28.7136 60.5872 29.6615V39.3127C60.5872 40.2606 61.3627 41.0361 62.3106 41.0361Z" fill="#E6FFFC"/>
<path d="M158.154 7.92493H125.754" stroke="black" stroke-width="2" stroke-miterlimit="10"/>
<path d="M156 1.82837H143.139" stroke="black" stroke-width="2" stroke-miterlimit="10"/>
<path d="M140.532 1.82831H132.906" stroke="black" stroke-width="2" stroke-miterlimit="10"/>
<path d="M34.2835 54.2849H19.3113" stroke="black" stroke-width="8" stroke-miterlimit="10"/>
<path d="M33.2926 60.3814H27.3468" stroke="black" stroke-width="8" stroke-miterlimit="10"/>
<path d="M26.1404 60.3815H22.6289" stroke="black" stroke-width="8" stroke-miterlimit="10"/>
<path d="M128.081 104.07H106.021" stroke="black" stroke-width="2" stroke-miterlimit="10"/>
<path d="M126.616 110.145H117.869" stroke="black" stroke-width="2" stroke-miterlimit="10"/>
<path d="M116.081 110.145H110.89" stroke="black" stroke-width="2" stroke-miterlimit="10"/>
<path d="M126.982 99.18H41.0265C38.786 99.18 36.9333 97.3488 36.9333 95.0868V24.9006C36.9333 22.6601 38.7645 20.8074 41.0265 20.8074H127.004C129.244 20.8074 131.097 22.6386 131.097 24.9006V95.0868C131.075 97.3488 129.244 99.18 126.982 99.18Z" fill="#00FFB6"/>
<path d="M32.9048 71.9284V87.6115C32.9048 89.852 34.6282 91.7046 36.7179 91.7046H122.135C124.225 91.7046 125.948 89.8735 125.948 87.6115V18.8901C125.948 16.6497 124.225 14.797 122.135 14.797H110.394" stroke="black" stroke-width="4" stroke-miterlimit="10"/>
<path d="M30.0181 44.8061H33.8958C33.8958 44.8061 36.4163 36.4691 46.5414 37.3739L59.7902 32.6129C59.7902 32.6129 65.8868 37.9771 51.7547 41.704H71.4017C71.4017 41.704 75.2794 43.7936 72.285 47.0681C72.285 47.0681 77.0459 49.3085 73.039 53.0139C73.039 53.0139 74.827 57.9256 68.5796 58.2272C68.5796 58.2272 70.3677 62.1049 64.7019 62.6866C59.0362 63.2898 42.3836 62.5358 42.3836 62.5358C42.3836 62.5358 36.7179 61.7818 35.533 58.5073H29.2856" fill="#FCFCFC"/>
<path d="M30.0181 44.8061H33.8958C33.8958 44.8061 36.4163 36.4691 46.5414 37.3739L59.7902 32.6129C59.7902 32.6129 65.8868 37.9771 51.7547 41.704H71.4017C71.4017 41.704 75.2794 43.7936 72.285 47.0681C72.285 47.0681 77.0459 49.3085 73.039 53.0139C73.039 53.0139 74.827 57.9256 68.5796 58.2272C68.5796 58.2272 70.3677 62.1049 64.7019 62.6866C59.0362 63.2898 42.3836 62.5358 42.3836 62.5358C42.3836 62.5358 36.7179 61.7818 35.533 58.5073H29.2856" stroke="black" stroke-width="2" stroke-miterlimit="10" stroke-linecap="round" stroke-linejoin="round"/>
<path d="M72.3065 47.0465H63.3016H54.2968" stroke="black" stroke-width="2" stroke-miterlimit="10" stroke-linecap="round" stroke-linejoin="round"/>
<path d="M73.1898 52.6907H55.1801" stroke="black" stroke-width="2" stroke-miterlimit="10" stroke-linecap="round" stroke-linejoin="round"/>
<path d="M68.7304 58.2057H50.7207" stroke="black" stroke-width="2" stroke-miterlimit="10" stroke-linecap="round" stroke-linejoin="round"/>
<path d="M1 63.6991H29.8888V39.2911H1" fill="#FCFCFC"/>
<path d="M1 63.6991H29.8888V39.2911H1" stroke="black" stroke-width="2" stroke-miterlimit="10" stroke-linecap="round" stroke-linejoin="round"/>
<path d="M16.3384 39.485V57.6024L22.2842 63.4836" fill="#FCFCFC"/>
<path d="M16.3384 39.485V57.6024L22.2842 63.4836" stroke="black" stroke-width="2" stroke-miterlimit="10" stroke-linecap="round" stroke-linejoin="round"/>
<path d="M51.7547 41.6824C51.7547 41.6824 54.1244 51.8505 41.5865 52.2814Z" fill="#FCFCFC"/>
<path d="M51.7547 41.6824C51.7547 41.6824 54.1244 51.8505 41.5865 52.2814" stroke="black" stroke-width="2" stroke-miterlimit="10" stroke-linecap="round" stroke-linejoin="round"/>
<path d="M151.412 72.5962H147.534C147.534 72.5962 145.013 64.2592 134.888 65.164L121.639 60.3815C121.639 60.3815 115.543 65.7456 129.675 69.4725H110.028C110.028 69.4725 106.15 71.5622 109.145 74.8367C109.145 74.8367 104.384 77.0771 108.391 80.7825C108.391 80.7825 106.603 85.6942 112.85 85.9958C112.85 85.9958 111.062 89.8735 116.728 90.4552C122.393 91.0583 139.046 90.3044 139.046 90.3044C139.046 90.3044 144.712 89.5504 145.897 86.2759H152.144" fill="#FCFCFC"/>
<path d="M151.412 72.5962H147.534C147.534 72.5962 145.013 64.2592 134.888 65.164L121.639 60.3815C121.639 60.3815 115.543 65.7456 129.675 69.4725H110.028C110.028 69.4725 106.15 71.5622 109.145 74.8367C109.145 74.8367 104.384 77.0771 108.391 80.7825C108.391 80.7825 106.603 85.6942 112.85 85.9958C112.85 85.9958 111.062 89.8735 116.728 90.4552C122.393 91.0583 139.046 90.3044 139.046 90.3044C139.046 90.3044 144.712 89.5504 145.897 86.2759H152.144" stroke="black" stroke-width="2" stroke-miterlimit="10" stroke-linecap="round" stroke-linejoin="round"/>
<path d="M109.145 74.8366H127.154" stroke="black" stroke-width="2" stroke-miterlimit="10" stroke-linecap="round" stroke-linejoin="round"/>
<path d="M108.24 80.4808H126.271" stroke="black" stroke-width="2" stroke-miterlimit="10" stroke-linecap="round" stroke-linejoin="round"/>
<path d="M112.721 85.9958H130.731" stroke="black" stroke-width="2" stroke-miterlimit="10" stroke-linecap="round" stroke-linejoin="round"/>
<path d="M180.451 91.5107H151.562V67.0812H180.451" fill="#FCFCFC"/>
<path d="M180.451 91.5107H151.562V67.0812H180.451" stroke="black" stroke-width="2" stroke-miterlimit="10" stroke-linecap="round" stroke-linejoin="round"/>
<path d="M165.113 67.2751V85.3925L159.167 91.2737" fill="#FCFCFC"/>
<path d="M165.113 67.2751V85.3925L159.167 91.2737" stroke="black" stroke-width="2" stroke-miterlimit="10" stroke-linecap="round" stroke-linejoin="round"/>
<path d="M129.675 69.4724C129.675 69.4724 127.305 79.6406 139.843 80.0714Z" fill="#FCFCFC"/>
<path d="M129.675 69.4724C129.675 69.4724 127.305 79.6406 139.843 80.0714" stroke="black" stroke-width="2" stroke-miterlimit="10" stroke-linecap="round" stroke-linejoin="round"/>
<path d="M91.458 28.7567H51.7332V53.4662H91.458V28.7567Z" fill="#FF6C88"/>
<path d="M48.6095 30.6093C50.8715 30.3077 50.8715 30.3077 50.8715 32.3543C50.8715 37.3738 50.8715 42.3932 50.8715 47.4127C50.8715 47.822 50.9146 48.2313 50.9146 48.6837C55.5032 48.6837 60.0056 48.6837 64.6158 48.6837C64.6373 48.4252 64.6588 48.1667 64.6588 47.9082C64.6588 41.4453 64.6373 34.9825 64.6804 28.5197C64.6804 27.7872 64.465 27.5934 63.754 27.5934C58.2606 27.6149 52.7672 27.6149 47.2738 27.6149C45.8736 27.6149 45.5935 27.3564 45.5935 25.9776C45.5935 23.0909 45.5935 20.2042 45.5935 17.3175C45.5935 16.1757 45.9597 15.8095 47.1015 15.8095C48.9757 15.8095 50.8284 15.8095 52.7026 15.8095C52.9827 15.8095 53.2627 15.8095 53.4997 15.8095C53.1119 14.8185 52.638 13.8922 52.401 12.9227C51.8409 10.553 52.8103 8.35567 54.8353 7.08465C56.9896 5.72745 59.5963 5.77054 61.4705 7.25699C62.3968 7.98944 63.237 8.82961 64.228 9.71286C63.9479 8.78653 63.6894 8.01098 63.4955 7.2139C62.8923 4.80111 63.7325 2.86227 65.5852 1.35427C67.4163 -0.132176 69.4844 -0.455317 71.6171 0.686449C73.7714 1.84976 75.0424 3.65935 74.8917 6.15831C74.827 7.30007 74.3746 8.44184 74.073 9.66978C74.8701 8.93733 75.6026 8.2695 76.335 7.58013C78.597 5.4474 81.8284 5.94288 83.7242 7.34316C86.0723 9.08812 86.654 12.2118 85.0814 14.8831C84.9306 15.1416 84.7582 15.4001 84.5428 15.7664C84.909 15.7879 85.1891 15.8095 85.4476 15.8095C87.3434 15.8095 89.2391 15.8095 91.1133 15.8095C92.2336 15.8095 92.6213 16.3049 92.5998 17.4252C92.5567 20.2904 92.5782 23.1555 92.5782 26.0207C92.5782 27.3564 92.2982 27.6364 90.9625 27.6364C85.4691 27.6364 79.9757 27.658 74.4823 27.6364C73.7499 27.6364 73.4914 27.7872 73.4914 28.5843C73.5345 35.0041 73.5129 41.4023 73.5129 47.822C73.5129 48.1021 73.5129 48.3821 73.5129 48.7052C78.1446 48.7052 82.6686 48.7052 87.2787 48.7052C87.3003 48.339 87.3218 48.0159 87.3218 47.6712C87.3218 42.3071 87.3218 36.9429 87.3218 31.6003C87.3218 30.5878 87.3218 30.5878 88.3559 30.5878C88.7221 30.5878 89.0883 30.5878 89.5407 30.5878C89.5623 30.954 89.5838 31.2556 89.5838 31.5572C89.5838 37.5246 89.5838 43.4919 89.5838 49.4592C89.5838 50.7518 89.2607 51.075 87.9466 51.075C75.3871 51.075 62.8277 51.075 50.2683 51.075C48.8465 51.075 48.5664 50.7949 48.5664 49.3731C48.5664 43.4919 48.5664 37.6107 48.5664 31.708C48.6095 31.2987 48.6095 30.9756 48.6095 30.6093ZM71.294 48.6622C71.294 48.2744 71.294 47.9728 71.294 47.6712C71.294 42.8456 71.294 37.9985 71.294 33.1729C71.294 28.5412 71.294 23.9311 71.294 19.2994C71.294 18.093 71.294 18.093 70.1092 18.0715C69.3552 18.0715 68.5796 18.1145 67.8256 18.0715C67.1578 18.0284 66.9208 18.2438 66.9208 18.9547C66.9424 28.5197 66.9424 38.0631 66.9424 47.6281C66.9424 47.9513 66.9424 48.2959 66.9424 48.6622C68.4288 48.6622 69.786 48.6622 71.294 48.6622ZM48.0063 18.1145C47.9632 18.2653 47.9201 18.33 47.9201 18.4161C47.9201 20.5489 47.9201 22.6601 47.8986 24.7928C47.8986 25.3529 48.2433 25.3314 48.631 25.3314C53.7151 25.3314 58.8208 25.3314 63.9048 25.3529C64.5511 25.3529 64.7019 25.0944 64.7019 24.5127C64.6804 22.6816 64.6588 20.8289 64.7019 18.9978C64.7235 18.2869 64.508 18.0499 63.7756 18.0715C58.713 18.093 53.6505 18.0715 48.5664 18.0715C48.3941 18.0715 48.2217 18.093 48.0063 18.1145ZM82.0223 18.0715C79.4587 18.093 76.8736 18.093 74.31 18.0715C73.793 18.0715 73.556 18.1792 73.556 18.7608C73.5775 20.6997 73.5775 22.6385 73.556 24.5774C73.556 25.2021 73.793 25.3314 74.3531 25.3314C79.4372 25.3098 84.5428 25.3098 89.6269 25.3314C90.1655 25.3314 90.3809 25.1806 90.3809 24.6204C90.3593 22.6816 90.3593 20.7428 90.3809 18.8039C90.3809 18.2007 90.1655 18.0499 89.5838 18.0499C87.0633 18.0715 84.5428 18.0715 82.0223 18.0715ZM69.1182 14.9262C70.4754 12.1472 71.8972 9.41126 72.565 6.39528C72.8882 4.97346 72.4573 3.63781 71.1217 2.84072C69.786 2.0221 68.3427 2.04364 67.0285 2.88381C65.736 3.72398 65.3267 5.05963 65.6713 6.48145C66.3823 9.45435 67.761 12.1687 69.1182 14.9262ZM66.4684 15.7448C64.3142 13.2243 62.4399 10.7685 59.941 8.91578C58.7992 8.05407 57.4205 7.94636 56.1925 8.78652C54.9431 9.64823 54.3183 10.9193 54.5122 12.4488C54.7276 13.9999 55.7832 14.9262 57.2481 15.2494C60.1995 15.8956 63.2155 15.7664 66.4684 15.7448ZM71.8972 15.5725C72.0265 15.6802 72.0695 15.7233 72.1126 15.7233C74.9132 15.6156 77.7137 15.5725 80.5143 15.3571C81.9792 15.2494 83.1425 14.4523 83.638 12.9658C84.1119 11.5871 83.4226 9.73441 82.1946 8.85115C81.0313 8.01099 79.3079 8.03253 78.1015 9.06658C76.9382 10.0575 75.8826 11.1347 74.8486 12.2549C73.8145 13.3105 72.8882 14.4523 71.8972 15.5725Z" fill="black"/>
<path d="M71.2941 48.6621C69.7861 48.6621 68.4289 48.6621 66.9424 48.6621C66.9424 48.2959 66.9424 47.9512 66.9424 47.6281C66.9424 38.0631 66.9424 28.5197 66.9209 18.9547C66.9209 18.2438 67.1579 18.0283 67.8257 18.0714C68.5797 18.1145 69.3552 18.0714 70.1092 18.0714C71.2725 18.0714 71.2725 18.0714 71.2941 19.2994C71.2941 23.931 71.2941 28.5412 71.2941 33.1729C71.2941 37.9985 71.2941 42.8456 71.2941 47.6712C71.2941 47.9728 71.2941 48.2744 71.2941 48.6621Z" fill="white"/>
<path d="M48.0063 18.1145C48.2217 18.093 48.394 18.0714 48.5879 18.0714C53.6505 18.0714 58.713 18.093 63.7971 18.0714C64.5296 18.0714 64.745 18.2868 64.7234 18.9977C64.6804 20.8289 64.7019 22.6816 64.7234 24.5127C64.7234 25.0943 64.5942 25.3529 63.9264 25.3529C58.8423 25.3313 53.7366 25.3313 48.6525 25.3313C48.2648 25.3313 47.8986 25.3529 47.9201 24.7927C47.9416 22.66 47.9416 20.5488 47.9416 18.4161C47.9201 18.3299 47.9632 18.2653 48.0063 18.1145Z" fill="white"/>
<path d="M82.0223 18.0715C84.5428 18.0715 87.0633 18.0931 89.5838 18.05C90.1655 18.05 90.3809 18.2008 90.3809 18.804C90.3594 20.7428 90.3594 22.6817 90.3809 24.6205C90.3809 25.1806 90.1655 25.3314 89.6269 25.3314C84.5428 25.3099 79.4372 25.3099 74.3531 25.3314C73.793 25.3314 73.556 25.2022 73.556 24.5774C73.5991 22.6386 73.5776 20.6997 73.556 18.7609C73.556 18.1792 73.793 18.0715 74.31 18.0715C76.8736 18.0931 79.4372 18.0715 82.0223 18.0715Z" fill="white"/>
<path d="M69.1182 14.9262C67.761 12.1687 66.3823 9.45436 65.6714 6.48146C65.3267 5.05963 65.736 3.72398 67.0286 2.88382C68.3427 2.04365 69.786 2.02211 71.1217 2.84073C72.4358 3.65936 72.8666 4.97346 72.565 6.39528C71.8972 9.41127 70.4754 12.1472 69.1182 14.9262Z" fill="white"/>
<path d="M66.4685 15.7448C63.2155 15.7664 60.1995 15.8956 57.2266 15.2493C55.7617 14.9262 54.7061 13.9999 54.4907 12.4488C54.2968 10.9192 54.9216 9.64822 56.171 8.78651C57.399 7.9248 58.7777 8.05406 59.9195 8.91577C62.44 10.7684 64.3142 13.2243 66.4685 15.7448Z" fill="white"/>
<path d="M71.8972 15.5725C72.8666 14.4522 73.8145 13.2889 74.827 12.2333C75.8611 11.1346 76.9382 10.036 78.08 9.04499C79.2864 8.01094 81.0098 8.01094 82.1731 8.82957C83.401 9.71282 84.0904 11.5655 83.6165 12.9442C83.121 14.4307 81.9577 15.2278 80.4928 15.3355C77.6922 15.5509 74.8917 15.594 72.0911 15.7017C72.0696 15.7233 72.048 15.6802 71.8972 15.5725Z" fill="white"/>
<path d="M131.851 54.7373C132.045 54.7588 132.152 55.0173 132.002 55.1466C130.623 56.5038 129.244 57.8394 127.844 59.1751C126.961 60.0368 126.551 61.0493 126.767 62.2988C127.111 64.1515 127.413 66.0041 127.736 67.8784C127.758 67.9645 127.758 68.0722 127.779 68.1584C127.801 68.3523 127.585 68.5031 127.413 68.4169C125.625 67.4906 123.901 66.6289 122.2 65.7241C121.058 65.1209 119.959 65.1209 118.839 65.7241C117.159 66.6289 115.457 67.4906 113.669 68.4385C113.475 68.5246 113.259 68.3738 113.302 68.18C113.496 66.9951 113.69 65.918 113.884 64.8193C114.035 63.936 114.207 63.0528 114.336 62.148C114.487 61.0278 114.143 60.0799 113.324 59.3043C111.945 57.9902 110.588 56.6546 109.209 55.3189C109.166 55.2758 109.102 55.2112 109.058 55.1466C108.908 54.9958 108.994 54.7588 109.209 54.7157C111.234 54.4141 113.173 54.1341 115.09 53.854C116.318 53.6817 117.18 53.0139 117.719 51.9367C118.537 50.2779 119.356 48.6191 120.175 46.9819C120.218 46.8742 120.282 46.788 120.325 46.6803C120.412 46.5079 120.692 46.5079 120.778 46.6803C121.618 48.3606 122.437 49.9763 123.191 51.6136C123.88 53.1216 125.022 53.8109 126.616 53.9833C128.318 54.1987 130.041 54.4788 131.851 54.7373Z" fill="#FFE600"/>
<path d="M112.376 66.4134C111.73 66.0902 111.557 65.5516 111.687 64.8623C112.01 63.1173 112.29 61.3508 112.613 59.6058C112.699 59.1104 112.613 58.701 112.225 58.3564C110.911 57.0853 109.597 55.8143 108.283 54.5433C107.917 54.1986 107.701 53.8108 107.852 53.3154C108.003 52.8414 108.369 52.6691 108.843 52.6044C110.696 52.3459 112.548 52.0659 114.401 51.8074C114.875 51.7427 115.155 51.5058 115.349 51.0965C116.146 49.4807 116.943 47.8866 117.719 46.2709C117.913 45.8616 118.171 45.5169 118.602 45.323C118.731 45.323 118.86 45.323 118.99 45.323C119.442 45.4738 119.701 45.8185 119.894 46.2278C120.67 47.8435 121.489 49.4592 122.286 51.0749C122.458 51.4411 122.717 51.6997 123.147 51.7427C124.957 52.0012 126.745 52.2813 128.555 52.5183C129.158 52.6044 129.632 52.7768 129.869 53.38C129.869 53.5308 129.869 53.7031 129.869 53.8539C129.632 54.134 129.416 54.4356 129.158 54.6726C127.908 55.8789 126.637 57.1069 125.366 58.2917C125 58.6364 124.871 59.0242 124.957 59.4981C125.259 61.2431 125.56 63.0096 125.883 64.7546C126.013 65.4655 125.905 66.0256 125.216 66.3703C125.022 66.3703 124.828 66.3703 124.634 66.3703C123.147 65.5732 121.661 64.7761 120.153 64.0006C118.58 63.1819 118.947 63.1604 117.352 64.0006C115.844 64.7761 114.358 65.5947 112.872 66.3918C112.764 66.4134 112.57 66.4134 112.376 66.4134ZM109.834 53.9401C110.006 54.1124 110.092 54.2202 110.222 54.3279C111.277 55.3404 112.311 56.3744 113.367 57.3869C113.992 57.9901 114.25 58.7011 114.143 59.5628C114.035 60.2521 113.906 60.92 113.798 61.6093C113.626 62.5572 113.475 63.5051 113.281 64.5607C114.789 63.7636 116.189 63.0527 117.589 62.2987C118.451 61.8463 119.291 61.8463 120.153 62.2987C121.553 63.0311 122.975 63.7421 124.462 64.5176C124.44 64.2806 124.418 64.1083 124.397 63.9359C124.16 62.5141 123.923 61.0923 123.664 59.6705C123.492 58.7226 123.794 57.9471 124.483 57.2792C125.539 56.2452 126.594 55.2327 127.65 54.1986C127.714 54.134 127.758 54.0478 127.865 53.9186C126.379 53.7031 124.957 53.4662 123.514 53.3154C122.286 53.1861 121.424 52.6475 120.907 51.5058C120.282 50.1486 119.593 48.8129 118.903 47.4126C118.774 47.6281 118.688 47.8004 118.602 47.9728C117.977 49.2438 117.352 50.4933 116.728 51.7643C116.318 52.6044 115.651 53.0999 114.724 53.2292C113.108 53.4662 111.536 53.7031 109.834 53.9401Z" fill="black"/>
<path d="M112.247 69.1709C112.441 69.1924 112.548 69.4509 112.398 69.5802C111.019 70.9374 109.64 72.273 108.24 73.6087C107.357 74.4704 106.947 75.4829 107.163 76.7324C107.507 78.585 107.809 80.4377 108.132 82.3119C108.154 82.3981 108.154 82.5058 108.175 82.592C108.197 82.7859 107.981 82.9367 107.809 82.8505C106.021 81.9242 104.298 81.0625 102.596 80.1577C101.454 79.5545 100.355 79.5545 99.2351 80.1577C97.5547 81.0625 95.8529 81.9242 94.0648 82.8721C93.8709 82.9582 93.6555 82.8074 93.6986 82.6135C93.8925 81.4287 94.0864 80.3516 94.2802 79.2529C94.431 78.3696 94.6034 77.4864 94.7326 76.5816C94.8834 75.4614 94.5388 74.5135 93.7201 73.7379C92.3414 72.4238 90.9842 71.0882 89.6055 69.7525C89.5624 69.7094 89.4978 69.6448 89.4547 69.5802C89.3039 69.4294 89.39 69.1924 89.6055 69.1493C91.6305 68.8477 93.5693 68.5677 95.4866 68.2876C96.7146 68.1153 97.5763 67.4474 98.1149 66.3703C98.9335 64.7115 99.7521 63.0527 100.571 61.4155C100.614 61.3078 100.678 61.2216 100.722 61.1139C100.808 60.9415 101.088 60.9415 101.174 61.1139C102.014 62.7942 102.833 64.4099 103.587 66.0472C104.276 67.5552 105.418 68.2445 107.012 68.4169C108.714 68.6323 110.437 68.9124 112.247 69.1709Z" fill="#FFE600"/>
<path d="M92.7722 80.8471C92.1259 80.5239 91.9536 79.9854 92.0828 79.296C92.406 77.551 92.686 75.7845 93.0092 74.0396C93.0953 73.5441 93.0092 73.1348 92.6214 72.7901C91.3073 71.5191 89.9932 70.248 88.6791 68.977C88.3129 68.6323 88.0974 68.2446 88.2482 67.7491C88.399 67.2751 88.7653 67.1028 89.2392 67.0382C91.0919 66.7796 92.9445 66.4996 94.7972 66.2411C95.2712 66.1765 95.5512 65.9395 95.7451 65.5302C96.5422 63.9145 97.3393 62.3203 98.1148 60.7046C98.3087 60.2953 98.5672 59.9506 98.9981 59.7567C99.1273 59.7567 99.2566 59.7567 99.3858 59.7567C99.8382 59.9075 100.097 60.2522 100.291 60.6615C101.066 62.2772 101.885 63.8929 102.682 65.5086C102.854 65.8749 103.113 66.1334 103.544 66.1765C105.353 66.435 107.141 66.715 108.951 66.952C109.554 67.0382 110.028 67.2105 110.265 67.8137C110.265 67.9645 110.265 68.1368 110.265 68.2876C110.028 68.5677 109.813 68.8693 109.554 69.1063C108.305 70.3127 107.034 71.5406 105.762 72.7254C105.396 73.0701 105.267 73.4579 105.353 73.9318C105.655 75.6768 105.956 77.4433 106.28 79.1883C106.409 79.8992 106.301 80.4593 105.612 80.804C105.418 80.804 105.224 80.804 105.03 80.804C103.544 80.0069 102.057 79.2098 100.549 78.4343C98.9765 77.6157 99.3427 77.5941 97.7486 78.4343C96.2406 79.2098 94.7541 80.0284 93.2677 80.8255C93.16 80.8471 92.9661 80.8471 92.7722 80.8471ZM90.2302 68.3738C90.4025 68.5462 90.4887 68.6539 90.6179 68.7616C91.6735 69.7741 92.7076 70.8081 93.7632 71.8207C94.3879 72.4239 94.6464 73.1348 94.5387 73.9965C94.431 74.6858 94.3017 75.3537 94.194 76.043C94.0217 76.9909 93.8709 77.9388 93.677 78.9944C95.185 78.1973 96.5853 77.4864 97.9856 76.7324C98.8473 76.28 99.6874 76.28 100.549 76.7324C101.949 77.4649 103.371 78.1758 104.858 78.9513C104.836 78.7143 104.815 78.542 104.793 78.3697C104.556 76.9478 104.319 75.526 104.061 74.1042C103.888 73.1563 104.19 72.3808 104.879 71.7129C105.935 70.6789 106.99 69.6664 108.046 68.6323C108.111 68.5677 108.154 68.4815 108.261 68.3523C106.775 68.1368 105.353 67.8999 103.91 67.7491C102.682 67.6198 101.82 67.0812 101.303 65.9395C100.678 64.5823 99.989 63.2466 99.2997 61.8464C99.1704 62.0618 99.0842 62.2341 98.9981 62.4065C98.3733 63.6775 97.7486 64.927 97.1238 66.198C96.7145 67.0382 96.0467 67.5336 95.1204 67.6629C93.5047 67.8999 91.932 68.1368 90.2302 68.3738Z" fill="black"/>
<path d="M152.316 68.0937C152.51 68.1153 152.618 68.3738 152.467 68.503C151.088 69.8602 149.71 71.1959 148.309 72.5315C147.426 73.3932 147.017 74.4057 147.232 75.6552C147.577 77.5079 147.878 79.3606 148.202 81.2348C148.223 81.321 148.223 81.4287 148.245 81.5149C148.266 81.7087 148.051 81.8595 147.878 81.7734C146.09 80.847 144.367 79.9853 142.665 79.0805C141.523 78.4773 140.425 78.4773 139.304 79.0805C137.624 79.9853 135.922 80.847 134.134 81.7949C133.94 81.8811 133.725 81.7303 133.768 81.5364C133.962 80.3515 134.156 79.2744 134.35 78.1757C134.5 77.2925 134.673 76.4092 134.802 75.5044C134.953 74.3842 134.608 73.4363 133.79 72.6608C132.411 71.3467 131.054 70.011 129.675 68.6754C129.632 68.6323 129.567 68.5677 129.524 68.503C129.373 68.3522 129.459 68.1153 129.675 68.0722C131.7 67.7706 133.639 67.4905 135.556 67.2105C136.784 67.0381 137.646 66.3703 138.184 65.2932C139.003 63.6344 139.822 61.9756 140.64 60.3383C140.683 60.2306 140.748 60.1444 140.791 60.0367C140.877 59.8644 141.157 59.8644 141.243 60.0367C142.083 61.7171 142.902 63.3328 143.656 64.97C144.345 66.478 145.487 67.1674 147.081 67.3397C148.783 67.5551 150.507 67.8352 152.316 68.0937Z" fill="#FFE600"/>
<path d="M132.842 79.7699C132.195 79.4468 132.023 78.9082 132.152 78.2188C132.475 76.4739 132.755 74.7074 133.079 72.9624C133.165 72.4669 133.079 72.0576 132.691 71.7129C131.377 70.4419 130.063 69.1709 128.749 67.8999C128.382 67.5552 128.167 67.1674 128.318 66.6719C128.468 66.198 128.835 66.0256 129.309 65.961C131.161 65.7025 133.014 65.4224 134.867 65.1639C135.341 65.0993 135.621 64.8623 135.815 64.453C136.612 62.8373 137.409 61.2432 138.184 59.6274C138.378 59.2181 138.637 58.8735 139.068 58.6796C139.197 58.6796 139.326 58.6796 139.455 58.6796C139.908 58.8304 140.166 59.175 140.36 59.5844C141.136 61.2001 141.954 62.8158 142.751 64.4315C142.924 64.7977 143.182 65.0562 143.613 65.0993C145.423 65.3578 147.211 65.6379 149.02 65.8748C149.623 65.961 150.097 66.1334 150.334 66.7366C150.334 66.8874 150.334 67.0597 150.334 67.2105C150.097 67.4906 149.882 67.7921 149.623 68.0291C148.374 69.2355 147.103 70.4634 145.832 71.6483C145.466 71.993 145.336 72.3808 145.423 72.8547C145.724 74.5997 146.026 76.3662 146.349 78.1111C146.478 78.822 146.371 79.3821 145.681 79.7268C145.487 79.7268 145.293 79.7268 145.099 79.7268C143.613 78.9298 142.127 78.1327 140.619 77.3571C139.046 76.5385 139.412 76.517 137.818 77.3571C136.31 78.1327 134.824 78.9513 133.337 79.7484C133.229 79.7699 133.036 79.7699 132.842 79.7699ZM130.3 67.2967C130.472 67.469 130.558 67.5767 130.687 67.6844C131.743 68.6969 132.777 69.731 133.833 70.7435C134.457 71.3467 134.716 72.0576 134.608 72.9193C134.5 73.6087 134.371 74.2765 134.263 74.9659C134.091 75.9138 133.94 76.8616 133.746 77.9172C135.254 77.1202 136.655 76.4092 138.055 75.6553C138.917 75.2029 139.757 75.2029 140.619 75.6553C142.019 76.3877 143.441 77.0986 144.927 77.8742C144.906 77.6372 144.884 77.4648 144.863 77.2925C144.626 75.8707 144.389 74.4489 144.13 73.027C143.958 72.0792 144.259 71.3036 144.949 70.6358C146.004 69.6017 147.06 68.5892 148.115 67.5552C148.18 67.4905 148.223 67.4044 148.331 67.2751C146.844 67.0597 145.423 66.8227 143.979 66.6719C142.751 66.5427 141.89 66.0041 141.373 64.8623C140.748 63.5051 140.058 62.1695 139.369 60.7692C139.24 60.9846 139.154 61.157 139.068 61.3293C138.443 62.6003 137.818 63.8498 137.193 65.1208C136.784 65.961 136.116 66.4565 135.19 66.5858C133.574 66.8227 132.002 67.0597 130.3 67.2967Z" fill="black"/>
</svg>
