<?xml version="1.0" encoding="utf-8"?>
<!-- Generator: Adobe Illustrator 12.0.0, SVG Export Plug-In . SVG Version: 6.00 Build 51448)  -->
<!DOCTYPE svg PUBLIC "-//W3C//DTD SVG 1.1//EN" "http://www.w3.org/Graphics/SVG/1.1/DTD/svg11.dtd" [
	<!ENTITY ns_svg "http://www.w3.org/2000/svg">
	<!ENTITY ns_xlink "http://www.w3.org/1999/xlink">
]>
<svg  version="1.1" id="Layer_1" xmlns="&ns_svg;" xmlns:xlink="&ns_xlink;" width="512" height="512" viewBox="0 0 512 512"
	 overflow="visible" enable-background="new 0 0 512 512" xml:space="preserve">
<path fill="#FFFFFF" d="M504.262,261.234c3.916-3.111,9.738-0.2,9.738,4.719v205.299c0,26.604-21.584,48.188-48.188,48.188H48.188
	C21.584,519.439,0,497.855,0,471.252V266.054c0-5.02,5.722-7.831,9.738-4.718c22.488,17.467,52.304,39.654,154.702,114.043
	c21.182,15.46,56.921,47.986,92.56,47.786c35.84,0.301,72.281-32.929,92.66-47.786C452.059,300.99,481.774,278.703,504.262,261.234z
	 M257,390.939c23.291,0.401,56.821-29.314,73.687-41.562c133.219-96.676,143.358-105.109,174.077-129.203
	c5.823-4.518,9.236-11.545,9.236-18.974v-19.074c0-26.604-21.584-48.188-48.188-48.188H48.188C21.584,133.939,0,155.523,0,182.127
	v19.074c0,7.429,3.413,14.356,9.236,18.974c30.72,23.993,40.859,32.526,174.078,129.203
	C200.179,361.625,233.709,391.341,257,390.939z"/>
</svg>
