<?xml version="1.0" encoding="utf-8"?>
<!-- Generator: Adobe Illustrator 19.0.0, SVG Export Plug-In . SVG Version: 6.00 Build 0)  -->
<svg version="1.1" id="Layer_1" xmlns="http://www.w3.org/2000/svg" xmlns:xlink="http://www.w3.org/1999/xlink" x="0px" y="0px"
	 viewBox="1004 -364 2619.1 1521" style="enable-background:new 1004 -364 2619.1 1521;" xml:space="preserve">
<style type="text/css">
	.st0{opacity:0.23;}
	.st1{fill:#DDDCDB;}
	.st2{fill:#B7B7B7;}
	.st3{fill:none;stroke:#000000;stroke-width:4;stroke-miterlimit:10;}
	.st4{opacity:0.37;}
	.st5{opacity:0.3;}
	.st6{fill:#FFFFFF;stroke:#000000;stroke-linecap:round;stroke-linejoin:round;stroke-miterlimit:10;}
	.st7{fill:none;stroke:#000000;stroke-miterlimit:10;}
	.st8{fill:#CECECE;}
	.st9{fill:none;stroke:#000000;stroke-linecap:round;stroke-linejoin:round;stroke-miterlimit:10;}
	.st10{fill:none;stroke:#FFFFFF;stroke-linecap:round;stroke-linejoin:round;stroke-miterlimit:10;}
	.st11{fill:#FFEC00;}
	.st12{fill:#EFC700;}
	.st13{fill:#00AEEF;}
	.st14{font-family:'Ubuntu';}
	.st15{font-size:61.2008px;}
	.st16{fill:#FFFFFF;stroke:#000000;stroke-width:2;stroke-miterlimit:10;}
	.st17{fill:#FF3E3E;}
	.st18{fill:none;stroke:#000000;stroke-width:2;stroke-miterlimit:10;}
	.st19{fill:#FFFFFF;stroke:#000000;stroke-width:3;stroke-linecap:round;stroke-linejoin:round;stroke-miterlimit:10;}
	.st20{fill:#FFA17C;}
	.st21{fill:#F9E2C5;}
	.st22{fill:#FFFFFF;stroke:#000000;stroke-width:2;stroke-linecap:round;stroke-linejoin:round;stroke-miterlimit:10;}
	.st23{fill:none;stroke:#FFFFFF;stroke-width:2;stroke-miterlimit:10;}
	.st24{fill:none;stroke:#FFFFFF;stroke-miterlimit:10;}
	.st25{fill:none;stroke:#000000;stroke-width:2;stroke-linecap:round;stroke-miterlimit:10;}
	.st26{fill:#FFF6E9;}
	.st27{fill:#3A231E;}
	.st28{fill:#FFFFFF;}
	.st29{clip-path:url(#SVGID_2_);fill:#FFF6E9;}
	.st30{fill:#DDDDDD;}
	.st31{fill:none;stroke:#000000;stroke-width:4;stroke-linecap:round;stroke-linejoin:round;stroke-miterlimit:10;}
	.st32{opacity:0.1;}
	.st33{fill:#2B2B2B;}
	.st34{font-family:'Ubuntu';}
	.st35{font-size:50px;}
	.st36{fill:#FFFFFF;stroke:#000000;stroke-width:3;stroke-miterlimit:10;}
	.st37{clip-path:url(#SVGID_4_);fill:#FFF6E9;}
	.st38{fill:#00AEEF;stroke:#FFFFFF;stroke-miterlimit:10;}
	.st39{fill:#24303B;}
	.st40{fill:#FFFFFF;stroke:#000000;stroke-width:3;stroke-linecap:round;stroke-miterlimit:10;}
	.st41{fill:#FFFFFF;stroke:#000000;stroke-width:2;stroke-linecap:round;stroke-miterlimit:10;}
	
		.st42{fill:none;stroke:#E1447B;stroke-width:14;stroke-linecap:round;stroke-linejoin:round;stroke-miterlimit:10;stroke-dasharray:10,30;}
	.st43{fill:none;stroke:#000000;stroke-width:3;stroke-linecap:round;stroke-linejoin:round;stroke-miterlimit:10;}
	.st44{fill:#FFFFFF;stroke:#000000;stroke-miterlimit:10;}
	.st45{fill:#FCFCFC;}
	.st46{fill:none;}
	.st47{fill:#FFFF2E;}
	.st48{fill:none;stroke:#000000;stroke-width:3;stroke-miterlimit:10;}
	.st49{clip-path:url(#SVGID_6_);fill:#FFF6E9;}
	.st50{fill:none;stroke:#E1447B;stroke-width:14;stroke-linecap:round;stroke-linejoin:round;stroke-miterlimit:10;}
	
		.st51{fill:none;stroke:#F4C500;stroke-width:14;stroke-linecap:round;stroke-linejoin:round;stroke-miterlimit:10;stroke-dasharray:10,30;}
	.st52{fill:none;stroke:#F4C500;stroke-width:14;stroke-linecap:round;stroke-linejoin:round;stroke-miterlimit:10;}
</style>
<g id="XMLID_784_" class="st0">
	<polygon id="XMLID_799_" class="st1" points="2385.9,-107.7 2768.2,-107.2 2768.2,6.2 2380.6,6.2 	"/>
	<path id="XMLID_798_" class="st2" d="M2385.9-107.7c-8-0.3-15.2,25.3-16,57.2s5.1,58,13.1,58.3s15.2-25.3,16-57.2
		C2399.8-81.2,2393.9-107.3,2385.9-107.7z"/>
	<path id="XMLID_797_" class="st3" d="M2379.5-124.4c-8-0.3-15.2,26-16,58.8s5,59.6,13.1,59.9c8.1,0.3,15.2-26,16-58.8
		C2393.4-97.3,2387.5-124.1,2379.5-124.4z"/>
	<path id="XMLID_796_" class="st3" d="M2762.4-124.4c-8-0.3-15.2,26-16,58.8s5,59.6,13.1,59.9s15.2-26,16-58.8
		S2770.4-124.1,2762.4-124.4z"/>
	<line id="XMLID_795_" class="st3" x1="2441.7" y1="-121.7" x2="2441.7" y2="-30.1"/>
	<line id="XMLID_794_" class="st3" x1="2477.7" y1="-123.5" x2="2477.7" y2="-54.1"/>
	<line id="XMLID_793_" class="st3" x1="2511.4" y1="-122.6" x2="2511.4" y2="-31"/>
	<line id="XMLID_792_" class="st3" x1="2547.3" y1="-124.4" x2="2547.3" y2="-55"/>
	<line id="XMLID_791_" class="st3" x1="2581.1" y1="-123.5" x2="2581.1" y2="-31.9"/>
	<line id="XMLID_790_" class="st3" x1="2617" y1="-125.3" x2="2617" y2="-55.9"/>
	<line id="XMLID_789_" class="st3" x1="2650.7" y1="-124.4" x2="2650.7" y2="-32.8"/>
	<line id="XMLID_788_" class="st3" x1="2686.6" y1="-126.2" x2="2686.6" y2="-56.8"/>
	<line id="XMLID_787_" class="st3" x1="2722.6" y1="-124.1" x2="2722.6" y2="-47"/>
	<line id="XMLID_786_" class="st3" x1="2376.5" y1="-5.7" x2="2758.7" y2="-5.7"/>
	<line id="XMLID_785_" class="st3" x1="2379.5" y1="-124.4" x2="2760.8" y2="-124.4"/>
</g>
<g id="XMLID_80_">
	<polygon id="XMLID_45_" class="st1" points="2294.8,215.7 2784.4,216.3 2784.4,361.5 2288,361.5 	"/>
	<path id="XMLID_99_" class="st2" d="M2294.8,215.7c-10.3-0.4-19.4,32.4-20.5,73.3c-1,40.9,6.5,74.3,16.8,74.7s19.4-32.4,20.5-73.3
		S2305,216.1,2294.8,215.7z"/>
	<path id="XMLID_94_" class="st3" d="M2286.5,194.3c-10.3-0.4-19.5,33.3-20.5,75.3s6.4,76.3,16.7,76.7s19.5-33.3,20.5-75.3
		C2304.3,229,2296.8,194.7,2286.5,194.3z"/>
	<path id="XMLID_98_" class="st3" d="M2777,194.3c-10.3-0.4-19.5,33.3-20.5,75.3s6.4,76.3,16.7,76.7s19.5-33.3,20.5-75.3
		C2794.8,229,2787.3,194.7,2777,194.3z"/>
	<line id="XMLID_93_" class="st3" x1="2366.3" y1="197.7" x2="2366.3" y2="315"/>
	<line id="XMLID_92_" class="st3" x1="2412.3" y1="195.4" x2="2412.3" y2="284.3"/>
	<line id="XMLID_91_" class="st3" x1="2455.5" y1="196.5" x2="2455.5" y2="313.9"/>
	<line id="XMLID_90_" class="st3" x1="2501.5" y1="194.3" x2="2501.5" y2="283.1"/>
	<line id="XMLID_89_" class="st3" x1="2544.7" y1="195.4" x2="2544.7" y2="312.7"/>
	<line id="XMLID_88_" class="st3" x1="2590.7" y1="193.1" x2="2590.7" y2="282"/>
	<line id="XMLID_87_" class="st3" x1="2634" y1="194.3" x2="2634" y2="311.6"/>
	<line id="XMLID_86_" class="st3" x1="2680" y1="192" x2="2680" y2="280.8"/>
	<line id="XMLID_85_" class="st3" x1="2726" y1="194.6" x2="2726" y2="293.4"/>
	<line id="XMLID_101_" class="st3" x1="2282.7" y1="346.3" x2="2772.2" y2="346.3"/>
	<line id="XMLID_95_" class="st3" x1="2286.5" y1="194.3" x2="2774.9" y2="194.3"/>
</g>
<g id="XMLID_566_" class="st4">
	<polygon id="XMLID_783_" class="st1" points="2335.9,39 2718.2,39.5 2718.2,152.9 2330.6,152.9 	"/>
	<path id="XMLID_782_" class="st2" d="M2335.9,39c-8-0.3-15.2,25.3-16,57.2s5.1,58,13.1,58.3s15.2-25.3,16-57.2
		C2349.8,65.5,2344,39.4,2335.9,39z"/>
	<path id="XMLID_781_" class="st3" d="M2329.5,22.3c-8-0.3-15.2,26-16,58.8s5,59.6,13.1,59.9c8,0.3,15.2-26,16-58.8
		C2343.4,49.4,2337.5,22.6,2329.5,22.3z"/>
	<path id="XMLID_780_" class="st3" d="M2712.4,22.3c-8-0.3-15.2,26-16,58.8s5,59.6,13.1,59.9s15.2-26,16-58.8
		S2720.5,22.6,2712.4,22.3z"/>
	<line id="XMLID_779_" class="st3" x1="2391.8" y1="25" x2="2391.8" y2="116.6"/>
	<line id="XMLID_777_" class="st3" x1="2427.7" y1="23.2" x2="2427.7" y2="92.6"/>
	<line id="XMLID_776_" class="st3" x1="2461.4" y1="24.1" x2="2461.4" y2="115.7"/>
	<line id="XMLID_774_" class="st3" x1="2497.4" y1="22.3" x2="2497.4" y2="91.7"/>
	<line id="XMLID_675_" class="st3" x1="2531.1" y1="23.2" x2="2531.1" y2="114.8"/>
	<line id="XMLID_575_" class="st3" x1="2567" y1="21.4" x2="2567" y2="90.8"/>
	<line id="XMLID_573_" class="st3" x1="2600.8" y1="22.3" x2="2600.8" y2="113.9"/>
	<line id="XMLID_572_" class="st3" x1="2636.7" y1="20.5" x2="2636.7" y2="89.9"/>
	<line id="XMLID_570_" class="st3" x1="2672.6" y1="22.6" x2="2672.6" y2="99.7"/>
	<line id="XMLID_569_" class="st3" x1="2326.6" y1="141" x2="2708.7" y2="141"/>
	<line id="XMLID_567_" class="st3" x1="2329.5" y1="22.3" x2="2710.8" y2="22.3"/>
</g>
<g id="XMLID_48_">
	<polygon id="XMLID_75_" class="st1" points="2491.5,664.7 3027.5,665.3 3027.5,810.5 2484,810.5 	"/>
	<path id="XMLID_74_" class="st2" d="M2491.5,664.7c-11.3-0.4-21.3,32.4-22.4,73.3c-1.1,40.9,7.1,74.3,18.4,74.7
		c11.3,0.4,21.3-32.4,22.4-73.3C2511,698.5,2502.7,665.1,2491.5,664.7z"/>
	<path id="XMLID_73_" class="st3" d="M2482.5,643.3c-11.3-0.4-21.3,33.3-22.5,75.3s7.1,76.3,18.3,76.7c11.3,0.4,21.3-33.3,22.5-75.3
		S2493.7,643.7,2482.5,643.3z"/>
	<path id="XMLID_72_" class="st3" d="M3019.4,643.3c-11.3-0.4-21.3,33.3-22.5,75.3c-1.1,42,7.1,76.3,18.3,76.7
		c11.3,0.4,21.3-33.3,22.5-75.3S3030.7,643.7,3019.4,643.3z"/>
	<line id="XMLID_71_" class="st3" x1="2569.8" y1="646.7" x2="2569.8" y2="764"/>
	<line id="XMLID_70_" class="st3" x1="2620.1" y1="644.4" x2="2620.1" y2="733.3"/>
	<line id="XMLID_69_" class="st3" x1="2667.5" y1="645.5" x2="2667.5" y2="762.9"/>
	<line id="XMLID_67_" class="st3" x1="2717.8" y1="643.3" x2="2717.8" y2="732.1"/>
	<line id="XMLID_66_" class="st3" x1="2765.1" y1="644.4" x2="2765.1" y2="761.7"/>
	<line id="XMLID_63_" class="st3" x1="2815.5" y1="642.1" x2="2815.5" y2="731"/>
	<line id="XMLID_53_" class="st3" x1="2862.8" y1="643.3" x2="2862.8" y2="760.6"/>
	<line id="XMLID_52_" class="st3" x1="2913.2" y1="641" x2="2913.2" y2="729.8"/>
	<line id="XMLID_51_" class="st3" x1="2963.5" y1="643.6" x2="2963.5" y2="742.4"/>
	<line id="XMLID_50_" class="st3" x1="2478.3" y1="795.3" x2="3014.2" y2="795.3"/>
	<line id="XMLID_49_" class="st3" x1="2482.5" y1="643.3" x2="3017.1" y2="643.3"/>
</g>
<g id="XMLID_948_" class="st5">
	<path id="XMLID_1013_" class="st6" d="M2783.5,22.6c0,0-5.7,2.1-11,9.7s-17.1,20.3-18,20.6s-20.3,9.6-20.3,9.6l3.7,8.6
		c0,0,28.3-3.8,30.4-4.5c2.1-0.8,22.5-25.5,22.5-25.5L2783.5,22.6z"/>
	<path id="XMLID_1010_" class="st1" d="M2722.1,37.8c0,0-5.1-0.5-5.7,1.1c-0.6,1.6,0.5,10.3,0.5,10.3s4.3,12.6,6.2,10.5
		c1.9-2,0.3-8.5,0.7-11.2c0.4-2.6,1.3-3.4,1.3-3.4L2722.1,37.8z"/>
	<path id="XMLID_1006_" class="st7" d="M2722.8,37.6c0,0-5.1-0.5-5.7,1.1s0.5,10.3,0.5,10.3s4.3,12.6,6.2,10.5
		c1.9-2,0.3-8.5,0.7-11.2c0.4-2.6,1.3-3.4,1.3-3.4L2722.8,37.6z"/>
	<path id="XMLID_1003_" class="st1" d="M2733.8,63.1c0,0-5.1-0.5-5.7,1.1s0.5,10.3,0.5,10.3s4.3,12.6,6.2,10.5
		c1.9-2,0.3-8.5,0.7-11.2c0.4-2.6,1.3-3.4,1.3-3.4L2733.8,63.1z"/>
	<path id="XMLID_996_" class="st7" d="M2734.5,62.9c0,0-5.1-0.5-5.7,1.1s0.5,10.3,0.5,10.3s4.3,12.6,6.2,10.5
		c1.9-2,0.3-8.5,0.7-11.2c0.4-2.6,1.3-3.4,1.3-3.4L2734.5,62.9z"/>
	<path id="XMLID_995_" class="st6" d="M2778.3,25.8l-25.9,10.6l-29.3,1.4l2.7,7.5c0,0,22.6,4.5,23.4,4.4c0.3,0,4.6,0.6,8.4,0.1"/>
	<path id="XMLID_974_" class="st8" d="M2809,34l-4.2,7.7c-0.9,1.7-0.4,4,1.2,5.3l13.1,10.6l4.8-6.9l-9.3-7.9l8.3-13.7L2809,34z"/>
	<path id="XMLID_171_" class="st9" d="M2819.7,17c0,0,2.1-5.4,2.7-7.2c1.1-3-0.3-6.8,0.5-10c0.5-2.1,2-5.5,3.7-7
		c0.8-0.7,2-1,2.9-0.5c1.2,0.7,1.4,2.6,2.6,3.3c0.9-2.2-0.1-4.8,0.9-7c0.7-1.6,2.5-2.6,4.2-2.8c1.7-0.2,3.5,0,5.3,0.3
		c1.4,0.2,2.9,0.5,4.3,0.7c0.9,0.1,1.7,0.3,2.6,0.5c4.7,1.3,8.1,6.1,7.9,10.9c-0.1,2-0.7,3.9-2,5.4c-3.4,4-13.2,0.9-11.7,8
		c0.5,2.7,3,5.7,4.3,8.1l-4.3-0.9c0,0-7.3,10.6-19.2,5.7"/>
	<path id="XMLID_970_" class="st9" d="M2844.1,6.6c0,0-6.6,0.5-11.6-2.2l-2.3,4.1c0,0-1.2-1.1-2.5,0s0.6,3.9,0.6,3.9l-6.2-1.9"/>
	<path id="XMLID_969_" class="st9" d="M2835.1,18.5c0,0,1.6,2.5,4.6,1.4"/>
	<g id="XMLID_964_">
		<path id="XMLID_968_" class="st9" d="M2823,51.6c0,0,4.2-0.2,5,0.9s3.3,3.6,2.3,4.1s-3.8-2.3-3.8-2.3l5.1,5c0,0,0.3,1.4-1.1,1.2
			l0.9,0.9c0,0,0.2,1.1-0.8,1.1l-2.5-2.2"/>
		<path id="XMLID_967_" class="st9" d="M2829.8,62c0,0,0.2,1-0.7,0.9s-4-3-4-3"/>
		<path id="XMLID_966_" class="st9" d="M2828.1,62.4c0,0,0.2,1.5-0.7,1.2s-8-6.6-8-6.6"/>
		<line id="XMLID_965_" class="st9" x1="2828" y1="58.4" x2="2830.4" y2="60.5"/>
	</g>
	<g id="XMLID_955_">
		<path id="XMLID_963_" class="st6" d="M2776.6,8.1c0,0-3.1,2.7-4.3,2.2s-4.4-1.2-3.9-2.2s4.1-0.3,4.1-0.3l-6.5-1.3c0,0-1-1,0.2-1.7
			l-1.2-0.3c0,0-0.7-0.8,0.1-1.5l3.1,0.4"/>
		<path id="XMLID_962_" class="st6" d="M2765.8,3c0,0-0.7-0.8,0-1.2c0.7-0.5,4.6,0.3,4.6,0.3"/>
		<path id="XMLID_957_" class="st6" d="M2767,1.7c0,0-0.9-1.2-0.1-1.5c0.8-0.3,9.7,1,9.7,1"/>
		<line id="XMLID_956_" class="st9" x1="2769.2" y1="5.1" x2="2766.2" y2="4.7"/>
	</g>
	<path id="XMLID_952_" class="st9" d="M2838.3,11.1c0,0,0.7,1.5,3.1,1"/>
	<path id="XMLID_951_" class="st1" d="M2821.5,10.1L2777-0.8l-1.7,11.2l27.5,6.6l-19.5,5.2l7.6,19.2l28.9-8
		C2819.9,33.5,2832.8,18.7,2821.5,10.1z"/>
</g>
<g id="XMLID_578_">
	<path id="XMLID_607_" class="st6" d="M3076.3,633.2c0,0-1.9,7.1,1.3,17.5s6.4,30.8,6.1,32c-0.3,1.1-4.8,26.6-4.8,26.6l9.8,2.2
		c0,0,5.9-30.7,6.6-33.3c0.7-2.6,1.5-39.5,1.5-39.5L3076.3,633.2z"/>
	<path id="XMLID_606_" class="st1" d="M3050,704.3c0,0-3.6,4.7-2.7,6.4c1,1.7,9.2,6.5,9.2,6.5s13.5,4.4,13,1.1s-7.1-6.2-9.1-8.4
		s-2.1-3.6-2.1-3.6L3050,704.3z"/>
	<path id="XMLID_603_" class="st7" d="M3050.2,703.4c0,0-3.6,4.7-2.7,6.4c1,1.7,9.2,6.5,9.2,6.5s13.5,4.4,13,1.1
		c-0.6-3.2-7.1-6.2-9.1-8.4s-2.1-3.6-2.1-3.6L3050.2,703.4z"/>
	<path id="XMLID_602_" class="st1" d="M3079.2,710.1c0,0-3.6,4.7-2.7,6.4c1,1.7,9.2,6.5,9.2,6.5s13.5,4.4,13,1.1
		c-0.6-3.2-7.1-6.2-9.1-8.4s-2.1-3.6-2.1-3.6L3079.2,710.1z"/>
	<path id="XMLID_599_" class="st7" d="M3079.4,709.2c0,0-3.6,4.7-2.7,6.4s9.2,6.5,9.2,6.5s13.5,4.4,13,1.1c-0.6-3.2-7.1-6.2-9.1-8.4
		s-2.1-3.6-2.1-3.6L3079.4,709.2z"/>
	<path id="XMLID_598_" class="st6" d="M3077.3,649.3l-9,24l-17.5,29.9l8.1,2.4c0,0,19.3-24.9,19.7-25.7c0.2-0.3,1.7-3.4,3.7-7.5"/>
	<path id="XMLID_597_" class="st8" d="M3103.3,616l3.9,9.4c0.9,2.1,3.2,3.1,5.3,2.4l17.4-5.7l-2.9-9.5l-12.7,3.8l-6.4-17.6
		L3103.3,616z"/>
	<path id="XMLID_596_" class="st9" d="M3110.9,576.9c-0.1-0.9,0.7-1.8,1.6-2.1c0.9-0.4,1.8-0.5,2.7-0.7c2.7-0.7,5-3.2,5.5-5.9
		c0.2-1.3,0.2-1.9-0.5-3c-0.2-0.3-2.5-2.7-2.8-1.7c0.6-2.1,2.3-4.3,1.4-6.3c-0.5-1.2-1.9-2-3.2-1.7c-1.3,0.2-2.3,1.4-2.4,2.7
		c0.6-2,0.5-4.5-1.2-5.6c-1-0.6-2.4-0.5-3.3,0.3s-1.2,2.2-0.8,3.3c-0.2-2-2.4-3.4-4.3-2.9c-1.9,0.5-3.1,2.8-2.4,4.7
		c0.5-0.6-0.4-1.3-1.1-1.6c-1.4-0.4-3-0.8-4.1,0c-0.9,0.7-1.1,2.1-0.7,3.2c0.3,1.1,1.1,2,1.9,2.9c-1-0.2-1.9-0.4-2.9-0.6
		c-0.2,0-0.5-0.1-0.7,0c-0.3,0.1-0.5,0.5-0.6,0.8c-0.6,1.3-1.3,2.7-1.1,4.2c0.1,1.5,1.3,2.9,2.8,2.8c-1.4-0.2-2.9,0.6-3.4,1.9
		c-0.6,1.3-0.1,2.9,1,3.8c-1,0.5-1.5,1.9-1.1,2.9c0.5,1.1,1.8,1.6,2.9,1.1"/>
	<path id="XMLID_595_" class="st9" d="M3100.8,588c0,0,5.5,1.6,7.2-2.3c0.3-0.8,0.7-1.7,1-2.6"/>
	<path id="XMLID_594_" class="st9" d="M3115.4,573.4c0,0-9.3-0.4-13.3-2.7l-1.9,5c0,0-0.9-1.1-2,0.3c-1.1,1.5,0.4,4.4,0.4,4.4
		l-5-1.3"/>
	<path id="XMLID_593_" class="st9" d="M3110.7,577c0,0,2.6,6.4,1.9,6.9c-0.8,0.5-3.6-0.7-3.6-0.7"/>
	<path id="XMLID_592_" class="st9" d="M3103.2,583.5c0,0,1.2,2.6,3.7,1"/>
	<g id="XMLID_587_">
		<path id="XMLID_591_" class="st9" d="M3126.4,614c0,0,2.5-4.3,4-4.3s5.2-0.8,5,0.5s-4.4,2.2-4.4,2.2l7.5-1.6c0,0,1.4,0.6,0.3,1.9
			l1.4-0.2c0,0,1.1,0.5,0.4,1.6l-3.5,1"/>
		<path id="XMLID_590_" class="st9" d="M3139.7,614.3c0,0,1,0.5,0.4,1.3s-5.1,1.9-5.1,1.9"/>
		<path id="XMLID_589_" class="st9" d="M3138.9,616.3c0,0,1.4,0.9,0.6,1.5c-0.8,0.7-10.8,3.4-10.8,3.4"/>
		<line id="XMLID_588_" class="st9" x1="3135.5" y1="613.7" x2="3138.8" y2="612.7"/>
	</g>
	<g id="XMLID_582_">
		<path id="XMLID_586_" class="st6" d="M3063.3,640.6c0,0,0.3,5-0.9,5.8s-3.9,3.6-4.4,2.4s2.4-4.3,2.4-4.3l-5.3,5.5
			c0,0-1.5,0.3-1.3-1.4l-1,1c0,0-1.2,0.2-1.2-1.1l2.4-2.8"/>
		<path id="XMLID_585_" class="st6" d="M3052,647.8c0,0-1.1,0.1-1-0.9s3.2-4.4,3.2-4.4"/>
		<path id="XMLID_584_" class="st6" d="M3051.6,645.7c0,0-1.6,0.1-1.3-1c0.3-1,7.1-8.9,7.1-8.9"/>
		<line id="XMLID_583_" class="st9" x1="3056" y1="646" x2="3053.7" y2="648.6"/>
	</g>
	<path id="XMLID_581_" class="st9" d="M3105.6,576.9c0,0,0.5,1.6,2.5,0.7"/>
	<path id="XMLID_580_" class="st1" d="M3089.9,587.1l-33.7,47.9l8.6,6.7l15.1-21.8l-3.9,13.2l21.3,5.7l10-39
		C3107.2,599.7,3104.5,581.8,3089.9,587.1z"/>
	<line id="XMLID_579_" class="st10" x1="3097.6" y1="594.7" x2="3079.9" y2="619.8"/>
	<line id="XMLID_380_" class="st9" x1="3095.5" y1="579.4" x2="3093.7" y2="586.2"/>
</g>
<g id="XMLID_215_">
	<path id="XMLID_439_" class="st6" d="M2804,162.4c0,0-2.2,7,0.5,17.5s5.1,31.1,4.8,32.2s-5.9,26.4-5.9,26.4l9.7,2.6
		c0,0,7.2-30.4,8-33s3.2-39.4,3.2-39.4L2804,162.4z"/>
	<path id="XMLID_438_" class="st1" d="M2774.7,232.3c0,0-3.8,4.5-2.9,6.3c0.9,1.7,8.9,6.9,8.9,6.9s13.3,4.9,12.9,1.7
		c-0.4-3.3-6.8-6.5-8.8-8.8s-1.9-3.7-1.9-3.7L2774.7,232.3z"/>
	<path id="XMLID_435_" class="st7" d="M2775,231.5c0,0-3.8,4.5-2.9,6.3c0.9,1.7,8.9,6.9,8.9,6.9s13.3,4.9,12.9,1.7
		c-0.4-3.3-6.8-6.5-8.8-8.8c-1.9-2.3-1.9-3.7-1.9-3.7L2775,231.5z"/>
	<path id="XMLID_434_" class="st1" d="M2803.6,239.3c0,0-3.8,4.5-2.9,6.3c0.9,1.7,8.9,6.9,8.9,6.9s13.3,4.9,12.9,1.7
		s-6.8-6.5-8.8-8.8s-1.9-3.7-1.9-3.7L2803.6,239.3z"/>
	<path id="XMLID_431_" class="st7" d="M2803.9,238.5c0,0-3.8,4.5-2.9,6.3c0.9,1.7,8.9,6.9,8.9,6.9s13.3,4.9,12.9,1.7
		c-0.4-3.3-6.8-6.5-8.8-8.8s-1.9-3.7-1.9-3.7L2803.9,238.5z"/>
	<path id="XMLID_430_" class="st6" d="M2804.3,178.6l-10.1,23.6l-18.8,29.1l8,2.8c0,0,20.3-24.1,20.8-24.9c0.2-0.3,1.9-3.4,4-7.4"/>
	<path id="XMLID_429_" class="st8" d="M2830.8,146.1l3.5,9.6c0.8,2.1,3,3.3,5.2,2.7l17.7-4.9l-2.5-9.6l-12.8,3.2l-5.7-17.9
		L2830.8,146.1z"/>
	<path id="XMLID_428_" class="st9" d="M2840.9,107.7c0.8-2.9,0.9-5.7,1.9-8.6c0.3-1,0.7-2,0.8-3s-0.1-2.1-0.8-2.9
		c-0.8-0.9-1.9-1.3-3.1-1.6c-1-0.3-2-0.6-2.9-0.9c-0.8-0.3-1.7-0.5-2.5-0.5c-1.1,0-2.2,0.3-3.3,0.6c-3.2,1.1-5.1,2.5-5.9,5.9
		c-0.9,3.7,0.1,7.9-1,11.4c-0.7,2.1-2.7,8.5-2.7,8.5"/>
	<path id="XMLID_318_" class="st9" d="M2830.5,118.3c0,0,5.4,1.8,7.3-2c0.4-0.8,0.8-1.6,1.1-2.6"/>
	<path id="XMLID_317_" class="st9" d="M2841.8,102.3c0,0-5.4,1.2-9.3-1.3l-2.1,4.9c0,0-0.9-1.2-2.1,0.2c-1.2,1.4,0.2,4.4,0.2,4.4
		l-4.9-1.5"/>
	<path id="XMLID_312_" class="st9" d="M2840.9,107.7c0,0,2.4,6.5,1.6,7c-0.8,0.4-3.6-0.8-3.6-0.8"/>
	<path id="XMLID_311_" class="st9" d="M2833.1,113.9c0,0,1.1,2.6,3.6,1.1"/>
	<g id="XMLID_276_">
		<path id="XMLID_288_" class="st9" d="M2854.9,145.4c0,0,2.7-4.2,4.1-4.1c1.4,0.1,5.2-0.6,4.9,0.7s-4.5,2-4.5,2l7.6-1.3
			c0,0,1.4,0.7,0.3,1.9l1.4-0.2c0,0,1,0.6,0.3,1.6l-3.5,0.8"/>
		<path id="XMLID_287_" class="st9" d="M2868.2,146.3c0,0,1,0.6,0.3,1.3c-0.7,0.8-5.2,1.6-5.2,1.6"/>
		<path id="XMLID_282_" class="st9" d="M2867.3,148.2c0,0,1.4,0.9,0.5,1.6s-11,2.9-11,2.9"/>
		<line id="XMLID_281_" class="st9" x1="2864" y1="145.4" x2="2867.4" y2="144.6"/>
	</g>
	<g id="XMLID_245_">
		<path id="XMLID_275_" class="st6" d="M2790.7,169.3c0,0,0.1,5-1.1,5.7c-1.2,0.7-4,3.4-4.5,2.2s2.6-4.2,2.6-4.2l-5.5,5.3
			c0,0-1.5,0.2-1.3-1.5l-1,0.9c0,0-1.2,0.1-1.1-1.1l2.5-2.7"/>
		<path id="XMLID_252_" class="st6" d="M2779.2,176c0,0-1.1,0.1-1-0.9s3.4-4.3,3.4-4.3"/>
		<path id="XMLID_251_" class="st6" d="M2778.9,173.9c0,0-1.6,0-1.3-1c0.4-1,7.5-8.6,7.5-8.6"/>
		<line id="XMLID_246_" class="st9" x1="2783.2" y1="174.3" x2="2780.8" y2="176.9"/>
	</g>
	<path id="XMLID_240_" class="st9" d="M2835.7,107.4c0,0,0.5,1.6,2.5,0.8"/>
	<path id="XMLID_239_" class="st1" d="M2819.6,116.9l-35.7,46.5l8.3,7.1l16-21.2l-4.5,13.1l21,6.6l11.6-38.6
		C2836.4,130.3,2834.4,112.3,2819.6,116.9z"/>
	<line id="XMLID_216_" class="st10" x1="2827" y1="124.9" x2="2808.2" y2="149.2"/>
</g>
<g id="XMLID_440_">
	<path id="XMLID_469_" class="st6" d="M2900.5,152.1c0,0-2.9,7.3-0.4,18.6s4.1,33.3,3.7,34.4c-0.4,1.1-8.2,27.7-8.2,27.7l10.9,3.3
		c0,0,9.9-32,11-34.7s5.8-41.7,5.8-41.7L2900.5,152.1z"/>
	<path id="XMLID_468_" class="st1" d="M2863.2,225c0,0-4.6,4.6-3.7,6.5s9.8,7.8,9.8,7.8s15,5.9,14.7,2.4s-7.5-7.2-9.5-9.8
		s-2-4.1-2-4.1L2863.2,225z"/>
	<path id="XMLID_465_" class="st7" d="M2863.6,224.1c0,0-4.6,4.6-3.7,6.5c0.9,1.9,9.8,7.8,9.8,7.8s15,5.9,14.7,2.4s-7.5-7.2-9.5-9.8
		c-2.1-2.5-2-4.1-2-4.1L2863.6,224.1z"/>
	<path id="XMLID_464_" class="st1" d="M2895.9,233.8c0,0-4.6,4.6-3.7,6.5c0.9,1.9,9.8,7.8,9.8,7.8s15,5.9,14.7,2.4s-7.5-7.2-9.5-9.8
		c-2.1-2.5-2-4.1-2-4.1L2895.9,233.8z"/>
	<path id="XMLID_461_" class="st7" d="M2896.2,233c0,0-4.6,4.6-3.7,6.5s9.8,7.8,9.8,7.8s15,5.9,14.7,2.4s-7.5-7.2-9.5-9.8
		c-2.1-2.5-2-4.1-2-4.1L2896.2,233z"/>
	<path id="XMLID_460_" class="st6" d="M2900,169.3l-12.8,24.5l-23.1,30l9,3.4c0,0,24.6-24.5,25.2-25.4c0.2-0.3,2.3-3.5,5-7.6"/>
	<path id="XMLID_459_" class="st8" d="M2937.2,122.6l10.6,4.6c2.3,1,5.1,0.2,6.4-1.9l10.3-17l-9.8-5.4l-7.8,12.1l-19-9.2
		L2937.2,122.6z"/>
	<path id="XMLID_458_" class="st9" d="M2946.9,90.1c0.6,1.9,3.5,2.6,5.2,1.4s2-3.6,1-5.4c1.1,1.8,7.7-5.3,4.4-9
		c-0.3-0.4-0.9-0.5-1.4-0.7c-1.9-0.5-3.9-1-5.8-1.5c0.6-1.6,0.1-3.6-1.4-4.6c-2.6-1.7-5.9-0.6-8.5,0.4c-1.5-2.5-5.8-2.4-8-0.4
		c-2.3,2-3,5-3.7,7.8c-2.7,0.1-5.2,1.7-6.4,3.9c-1.3,2.2-1.2,5,0,7.2c1.6,2.7,4.7,4.7,3.9,8c-0.6,2.2-2.3,4.8-3.2,7.1"/>
	<path id="XMLID_457_" class="st9" d="M2933.1,106.6c0,0,6.1,2.2,8.4-1.7c0.5-0.8,1-1.7,1.4-2.7"/>
	<path id="XMLID_456_" class="st9" d="M2946.9,90.2c0,0-6.2,1-10.5-1.9l-2.7,5.1c0,0-0.9-1.3-2.4,0.2s0,4.7,0,4.7l-5.5-1.9"/>
	<path id="XMLID_381_" class="st9" d="M2943,102.3c0,0,3.1,1.5,4.1,1.1c0.9-0.4-1.4-7.5-1.4-7.5s3.1-2,3-4"/>
	<path id="XMLID_454_" class="st9" d="M2936.4,102.1c0,0,1.1,2.9,4.1,1.4"/>
	<g id="XMLID_449_">
		<path id="XMLID_453_" class="st9" d="M2956.2,104c0,0-1.2-5.2,0-6.2s3.8-4.3,4.6-3.2c0.8,1.2-2,4.9-2,4.9l5.1-6.6
			c0,0,1.7-0.5,1.8,1.3l1-1.2c0,0,1.3-0.4,1.5,0.9l-2.2,3.3"/>
		<path id="XMLID_452_" class="st9" d="M2967.7,94.7c0,0,1.2-0.3,1.3,0.8s-2.9,5.1-2.9,5.1"/>
		<path id="XMLID_451_" class="st9" d="M2968.5,96.8c0,0,1.8-0.3,1.7,0.8c-0.2,1.1-6.5,10.4-6.5,10.4"/>
		<line id="XMLID_450_" class="st9" x1="2963.6" y1="97.2" x2="2965.7" y2="94.1"/>
	</g>
	<g id="XMLID_444_">
		<path id="XMLID_448_" class="st6" d="M2946.3,151.3c0,0,5.2-1.1,6.2,0.1c1,1.3,4.4,3.8,3.3,4.6c-1.2,0.8-4.9-2-4.9-2l6.8,5.1
			c0,0,0.6,1.7-1.2,1.7l1.2,1c0,0,0.4,1.3-0.9,1.5l-3.4-2.2"/>
		<path id="XMLID_447_" class="st6" d="M2955.8,162.9c0,0,0.3,1.2-0.7,1.3c-1.1,0.1-5.2-3-5.2-3"/>
		<path id="XMLID_446_" class="st6" d="M2953.7,163.7c0,0,0.4,1.8-0.8,1.6c-1.1-0.2-10.6-6.7-10.6-6.7"/>
		<line id="XMLID_445_" class="st9" x1="2953.2" y1="158.8" x2="2956.4" y2="160.9"/>
	</g>
	<path id="XMLID_443_" class="st9" d="M2939.7,95.3c0,0,0.4,1.7,2.8,1"/>
	<path id="XMLID_47_" class="st1" d="M2920.8,104.5c17.1-4.2,18.4,15.1,18.4,15.1l-15.4,40.4l-23.7-8l5.8-13.6l10-30.1
		C2916.7,106.1,2918.6,104.6,2920.8,104.5L2920.8,104.5z"/>
	<polyline id="XMLID_698_" class="st1" points="2915.2,122.3 2922.3,147.2 2942.7,160.2 2947.5,150.3 2930.5,138.7 2924.8,114.6 	
		"/>
</g>
<g id="XMLID_76_">
	<path id="XMLID_711_" class="st6" d="M3183.9,649.4c0,0-5.9,4.3-10.1,14.4c-4.1,10.1-14.5,28-15.4,28.7s-20.5,17.6-20.5,17.6
		l6.2,7.9c0,0,23.9-20.1,26.1-21.7c2.2-1.6,26.1-29.7,26.1-29.7L3183.9,649.4z"/>
	<path id="XMLID_710_" class="st1" d="M3118.6,687.9c0,0-5.8,1.4-6.1,3.3s3,10.8,3,10.8s7.7,11.9,9.3,9.1c1.6-2.9-1.6-9.3-1.8-12.3
		s0.7-4.2,0.7-4.2L3118.6,687.9z"/>
	<path id="XMLID_707_" class="st7" d="M3119.3,687.4c0,0-5.8,1.4-6.1,3.3s3,10.8,3,10.8s7.7,11.9,9.3,9.1c1.6-2.9-1.6-9.3-1.8-12.3
		s0.7-4.2,0.7-4.2L3119.3,687.4z"/>
	<path id="XMLID_706_" class="st1" d="M3137.6,710.8c0,0-5.8,1.4-6.1,3.3s3,10.8,3,10.8s7.7,11.9,9.3,9.1s-1.6-9.3-1.8-12.3
		s0.7-4.2,0.7-4.2L3137.6,710.8z"/>
	<path id="XMLID_703_" class="st7" d="M3138.3,710.3c0,0-5.8,1.4-6.1,3.3s3,10.8,3,10.8s7.7,11.9,9.3,9.1c1.6-2.9-1.6-9.3-1.8-12.3
		s0.7-4.2,0.7-4.2L3138.3,710.3z"/>
	<path id="XMLID_701_" class="st6" d="M3174.5,662.5l-22.1,12.9l-32.5,12.1l4.8,7c0,0,30.7-7.1,31.5-7.5c0.3-0.1,3.5-1.6,7.6-3.5"/>
	<path id="XMLID_700_" class="st8" d="M3222.1,645.9l3.4,9.6c0.8,2.1,3,3.3,5.2,2.7l17.7-4.9l-2.5-9.6l-12.8,3.2l-5.6-17.9
		L3222.1,645.9z"/>
	<path id="XMLID_605_" class="st9" d="M3221.9,627.9c0,0,3.7-5.6,4.9-7.4c2-3,2.4-6.7,3.9-9.9c0.4-0.9,5.5-7.8,6.8-4.3
		c-0.9-2.4-0.1-4.8,1.1-6.7c2-3.3,6.8-0.3,9,2.3c2.1,2.6,2.2,5,1.9,7.7c0.2-2.1,1.5-3.9,3.3-4.9c0.5-0.3,1.2-0.5,1.9-0.3
		c0.8,0.3,1.2,1.2,1.2,1.9s-0.4,1.4-0.8,2c0.4-1.9,3.3-2.3,5.1-1s2.6,3.6,2.2,5.5c-0.4,1.9-1.6,3.4-3,4.7c-0.4,0.4-0.8,0.7-1.2,1
		c-2.6,1.8-6.2,0.9-8.9,2.1c-2.5,1.1-2.2,3.7-3.4,5.8c0,0,3.3,5.3-1.4,5.5c0,0-6.5,7.3-14.8,2.3"/>
	<path id="XMLID_697_" class="st9" d="M3249.2,620.9c0,0-6.7-0.8-10.7-5.1l-3.8,4.5c0,0-0.7-1.6-2.5-0.5s-0.9,4.9-0.9,4.9l-5.4-3.6"
		/>
	<path id="XMLID_604_" class="st9" d="M3236.2,630c0,0,0.3,2.8,3.2,2.1"/>
	<g id="XMLID_337_">
		<path id="XMLID_467_" class="st9" d="M3246.2,645.3c0,0,2.7-4.2,4.1-4.1c1.4,0.1,5.2-0.5,4.9,0.7c-0.3,1.3-4.5,2-4.5,2l7.6-1.3
			c0,0,1.4,0.7,0.2,1.9l1.4-0.2c0,0,1,0.6,0.3,1.6l-3.6,0.8"/>
		<path id="XMLID_466_" class="st9" d="M3259.5,646.2c0,0,1,0.6,0.3,1.3s-5.2,1.6-5.2,1.6"/>
		<path id="XMLID_342_" class="st9" d="M3258.6,648.1c0,0,1.3,0.9,0.5,1.6c-0.9,0.6-11,2.9-11,2.9"/>
		<line id="XMLID_338_" class="st9" x1="3255.3" y1="645.3" x2="3258.6" y2="644.6"/>
	</g>
	<g id="XMLID_83_">
		<path id="XMLID_335_" class="st6" d="M3169.1,646.9c0,0-2.9,4.1-4.3,3.9s-5.2,0.3-4.9-0.9c0.3-1.3,4.6-1.8,4.6-1.8l-7.6,0.9
			c0,0-1.3-0.7-0.2-1.9l-1.4,0.1c0,0-1-0.6-0.2-1.6l3.6-0.7"/>
		<path id="XMLID_322_" class="st6" d="M3155.8,645.4c0,0-0.9-0.6-0.3-1.3s5.3-1.4,5.3-1.4"/>
		<path id="XMLID_206_" class="st6" d="M3156.9,643.5c0,0-1.3-1-0.4-1.6c0.9-0.6,11.1-2.4,11.1-2.4"/>
		<line id="XMLID_84_" class="st9" x1="3160" y1="646.5" x2="3156.6" y2="647.1"/>
	</g>
	<path id="XMLID_79_" class="st9" d="M3240.7,622.9c0,0,0,1.7,2.2,1.4"/>
	<path id="XMLID_78_" class="st1" d="M3223.6,622.2l-56.4,15.9l2.4,10.6l25.5-7.4l-11.4,7.8l12.9,17.8l32.4-24
		C3229,642.9,3238.2,627.3,3223.6,622.2z"/>
	<line id="XMLID_77_" class="st10" x1="3224.7" y1="633" x2="3195.1" y2="641.3"/>
</g>
<g id="XMLID_60_">
	<g id="XMLID_81_">
		<path id="XMLID_20_" class="st11" d="M3213.6,127.5c4.5,4.6-6.6,42.9-7.7,48.4c-8.2,40.6-20.1,80.4-35.5,118.8
			c-44.1,110.2-118.3,205-223.4,259.6c-83.2,43.2-173.7,52.3-265.5,55.4c-155.2,5.2-310.4,5.4-465.7,5.4
			c-51.7-0.5-103.5-1.1-155.2-3.5l-1.4-200.8c118.2,0,236.4,0,354.7,0c68.5,0,137.1,1.4,205.6-1.4c66.8-2.7,134.5-5.1,195.1-36.6
			c82.2-42.7,144.3-115.5,182.2-200.7c3-6.8,29.7-79.3,28.4-79.6C3025.2,92.5,3218.7,132.7,3213.6,127.5z"/>
		<path id="XMLID_19_" class="st12" d="M2056.6,409c-17-0.5-32.2,45.5-34,102.8s10.7,104.2,27.7,104.8c17,0.5,32.2-45.5,34-102.8
			C2086,456.4,2073.6,409.5,2056.6,409z"/>
		<path id="XMLID_18_" class="st12" d="M3020.7,77.2c-3.9,16.9,37.3,41.3,92,54.4s102.2,10,106.1-7c3.9-16.9-37.3-41.3-92-54.4
			C3072.1,57.2,3024.6,60.3,3020.7,77.2z"/>
		<path id="XMLID_17_" class="st3" d="M3208.1,99.9c4.5,4.6-7.2,42.3-8.4,47.8c-8.2,40.6-23.7,80.2-39,118.5
			c-44.1,110.2-118.3,205-223.4,259.6c-83.2,43.2-173.7,52.3-265.5,55.4c-155.2,5.2-310.4,5.4-465.7,5.4
			c-51.7-0.5-103.5-1.1-155.2-3.5"/>
		<path id="XMLID_16_" class="st3" d="M2049.7,382.3c118.2,0,236.4,0,354.7,0c68.5,0,137.1,1.4,205.6-1.4
			c66.8-2.7,134.5-5.1,195.1-36.6c82.2-42.7,144.3-115.5,182.2-200.7c3-6.8,26-81.6,24.6-81.9"/>
		<path id="XMLID_15_" class="st3" d="M3010.8,62.3c-3.3,17.1,38.8,39.8,93.9,50.8c55.1,11,102.5,6.1,105.7-11
			c3.3-17.1-38.8-39.8-93.9-50.8C3061.4,40.3,3014,45.3,3010.8,62.3z"/>
		<path id="XMLID_14_" class="st3" d="M2050.7,381.9c-17-0.5-32.1,43.4-33.8,100.7c-1.7,57.3,10.7,104.2,27.7,104.8
			c17,0.5,32.2-45.5,34-102.8C2080.3,427.2,2067.8,382.4,2050.7,381.9z"/>
		<line id="XMLID_13_" class="st3" x1="2183" y1="384.4" x2="2183" y2="544.6"/>
		<line id="XMLID_12_" class="st3" x1="2259.2" y1="381.3" x2="2259.2" y2="502.6"/>
		<line id="XMLID_11_" class="st3" x1="2330.8" y1="382.8" x2="2330.8" y2="543.1"/>
		<line id="XMLID_10_" class="st3" x1="2407" y1="379.7" x2="2407" y2="501.1"/>
		<line id="XMLID_9_" class="st3" x1="2478.6" y1="381.3" x2="2478.6" y2="541.5"/>
		<line id="XMLID_8_" class="st3" x1="2554.8" y1="378.2" x2="2554.8" y2="499.5"/>
		<line id="XMLID_7_" class="st3" x1="2626.4" y1="379.7" x2="2626.4" y2="539.9"/>
		<line id="XMLID_6_" class="st3" x1="2702.6" y1="376.6" x2="2702.6" y2="497.9"/>
		<line id="XMLID_5_" class="st3" x1="2778.8" y1="354.8" x2="2778.8" y2="515.1"/>
		<line id="XMLID_4_" class="st3" x1="2847.3" y1="317.5" x2="2847.3" y2="438.8"/>
		<line id="XMLID_3_" class="st3" x1="2909.8" y1="263.1" x2="2909.8" y2="452.8"/>
		<line id="XMLID_21_" class="st3" x1="2961.6" y1="194.6" x2="2961.6" y2="359.5"/>
		<line id="XMLID_22_" class="st3" x1="3004.7" y1="93.1" x2="3004.7" y2="245.6"/>
	</g>
	<path id="XMLID_383_" class="st13" d="M2792.5,437.5c-30.1-3.9-59.5,5.9-87.9,13.6c-28.9,7.9-59.6,9.1-89.7,11.1
		c-87.2,6-174.8,4.3-262.1,2.4c-43.7-1-87.5-2-131.2-2.2c-29-0.1-87.4-10.6-100.8,22.4c-27.6,67.8,138.3,54.3,169.8,54.7
		c95.8,1.2,191.5,0.6,287.3-1.8c57.8-1.4,115.6,2.1,173.3-3.3c26.3-2.4,54.2-11,71.3-30.7c15.1-17.5,12.3-45.4-8.2-58.6
		C2807.7,440.8,2800.2,438.5,2792.5,437.5z"/>
	<g id="XMLID_57_">
		<text id="XMLID_513_" transform="matrix(0.9796 0 0 1 2133.0781 520.1445)" class="st14 st15">YOUR ONLINE SCHOOL</text>
	</g>
</g>
<polyline id="XMLID_441_" class="st10" points="2927.4,151.2 2916.3,142.9 2913.2,117.7 "/>
<g id="XMLID_320_">
	<g id="XMLID_201_">
		<path id="XMLID_210_" class="st9" d="M2404.8,693c2.5-2.4,5.4-4.6,7.4-7.3c-0.3-0.5-0.7-0.9-1.2-1.2c-0.9,1.3-1.8,2.6-3.2,3.2
			s-3.4,0.3-4.4-1.1c-0.8-1.2-0.6-2.8,0.1-3.8c0.7-1,1.9-1.7,3.1-2.3c-2-3-2.7-7-0.9-9.6c1.9-2.6,6.8-2.4,8.5,0.7c0.9-2,1.8-4,2.8-6
			c0.9-2,2-4.1,4.1-4.7s5.2,1.6,4.4,3.6c1.1-1.6,2.3-3.3,4.1-4.1s4.5-0.2,5.5,1.7c0.8,1.5,0.3,3.2-0.1,4.7c3.2-1.4,7.6-1.3,10.5,1.5
			c2.8,2.7,2.6,8.2-0.9,9c2.9,0.3,5.4,3.2,5.6,6.1c0.2,2.9-1.4,5.5-3.7,6.9c-3.1,2-5.7,0.8-8.8,1.3c-3.9,0.6-3.8,2.3-6.3,5
			c0,0-5.4,11.6-10.7,10.3s-13-6.3-13-6.3"/>
		<path id="XMLID_336_" class="st9" d="M2435.1,691.7c0,0-6.6-2.3-9.6-7.5l-4.9,3.8c0,0-0.4-1.8-2.4-1.1c-2.1,0.7-2,4.7-2,4.7
			l-4.6-4.9"/>
		<path id="XMLID_334_" class="st9" d="M2419.3,698.1c0,0-0.2,3.5,3.4,3.6"/>
		<path id="XMLID_323_" class="st9" d="M2425.6,693c0,0-0.3,2,2.4,2.5"/>
	</g>
	<g id="XMLID_203_">
		<path id="XMLID_349_" class="st6" d="M2362.8,682c0,0-7.4-0.4-17,7s-29,18-30.2,17.9s-27.4,1.8-27.4,1.8v13.6
			c0,0,31.7-1.6,34.4-1.5s39.3-10.2,39.3-10.2L2362.8,682z"/>
		<path id="XMLID_348_" class="st1" d="M2286.6,669c0,0-5.5-3.4-6.9-1.6s-4.3,14.1-4.3,14.1s-1.2,19.3,1.9,17.5
			c3.1-1.8,4.5-11.3,6.2-14.7c1.7-3.3,3.1-3.9,3.1-3.9V669z"/>
		<path id="XMLID_345_" class="st7" d="M2287.5,669.1c0,0-5.5-3.4-6.9-1.6c-1.4,1.8-4.3,14.1-4.3,14.1s-1.2,19.3,1.9,17.5
			s4.5-11.3,6.2-14.7c1.7-3.3,3.1-3.9,3.1-3.9V669.1z"/>
		<path id="XMLID_344_" class="st1" d="M2287.6,709.4c0,0-5.5-3.4-6.9-1.6s-4.3,14.1-4.3,14.1s-1.2,19.3,1.9,17.5
			c3.1-1.7,4.5-11.3,6.2-14.7s3.1-3.9,3.1-3.9V709.4z"/>
		<path id="XMLID_341_" class="st7" d="M2288.5,709.5c0,0-5.5-3.4-6.9-1.6c-1.4,1.8-4.3,14.1-4.3,14.1s-1.2,19.3,1.9,17.5
			s4.5-11.3,6.2-14.7c1.7-3.3,3.1-3.9,3.1-3.9V709.5z"/>
		<path id="XMLID_340_" class="st6" d="M2347.1,688.3l-25.7-4.6l-33.5-14.1l-0.5,11.5c0,0,29,17.9,29.9,18.2
			c0.3,0.1,3.8,1.2,8.3,2.6"/>
		<path id="XMLID_339_" class="st8" d="M2395.7,706.6l-5.1,12c-1.1,2.6-0.5,6,1.3,7.7l15.4,14l5.8-11l-10.9-10.5l10.1-21.6
			L2395.7,706.6z"/>
		<g id="XMLID_329_">
			<path id="XMLID_333_" class="st9" d="M2412.1,730.9c0,0,5-0.9,5.9,0.7s3.9,4.9,2.7,5.7s-4.5-2.8-4.5-2.8l6,6.7c0,0,0.4,2-1.3,2
				l1,1.3c0,0,0.2,1.6-1,1.7l-3-2.9"/>
			<path id="XMLID_332_" class="st9" d="M2420.1,745.5c0,0,0.2,1.5-0.8,1.5s-4.7-3.9-4.7-3.9"/>
			<path id="XMLID_331_" class="st9" d="M2418,746.2c0,0,0.2,2.2-0.9,1.9c-1-0.3-9.5-8.8-9.5-8.8"/>
			<line id="XMLID_330_" class="st9" x1="2418" y1="740.4" x2="2420.8" y2="743.2"/>
		</g>
		<g id="XMLID_324_">
			<path id="XMLID_328_" class="st6" d="M2359.9,725.6c0,0-0.7,6.7-2.1,7.4c-1.4,0.7-4.6,3.6-4.9,1.9c-0.3-1.7,3.3-5,3.3-5l-6.4,5.9
				c0,0-1.6-0.1-1-2.2l-1.2,1c0,0-1.2-0.1-1-1.8l2.9-3"/>
			<path id="XMLID_327_" class="st6" d="M2347.3,732c0,0-1.1-0.1-0.9-1.5c0.3-1.3,4.1-4.9,4.1-4.9"/>
			<path id="XMLID_326_" class="st6" d="M2347.4,729.1c0,0-1.6-0.4-1.1-1.6c0.5-1.3,8.9-9.8,8.9-9.8"/>
			<line id="XMLID_325_" class="st9" x1="2351.6" y1="730.7" x2="2348.8" y2="733.5"/>
		</g>
		<path id="XMLID_196_" class="st1" d="M2411.5,685.9c8.5,17.7-8.5,26.8-8.5,26.8l-40.8-1.3l0.7-29.9l14,1.1c0,0,28.2-2.6,29.6-2.6
			C2407.9,680,2411.5,685.9,2411.5,685.9z"/>
		<path id="XMLID_173_" class="st1" d="M2395.4,698.8l-36.5,30.7l-5.4-13.1l32.6-29.2c0,0,18.1,5,27.9,13.1"/>
		<line id="XMLID_321_" class="st10" x1="2392.8" y1="683.3" x2="2361.6" y2="710"/>
	</g>
</g>
<g id="XMLID_500_">
	<g id="XMLID_611_">
		<g id="XMLID_612_">
			<path id="XMLID_495_" d="M1902.7,323.6c-0.2-0.3-4.8-7.2-7.6-10.1c-0.5-0.5-1.3-0.5-1.8,0s-0.5,1.3,0,1.8
				c2.7,2.8,7.3,9.7,7.4,9.8c0.1,0.2,0.3,0.3,0.4,0.4c0.4,0.2,0.9,0.2,1.3-0.1C1903,325,1903.1,324.2,1902.7,323.6z"/>
			<path id="XMLID_473_" d="M1909.7,312.1c0.6-0.4,0.7-1.2,0.3-1.8c-0.2-0.3-4.8-7.2-7.6-10.1c-0.5-0.5-1.3-0.5-1.8,0
				s-0.5,1.3,0,1.8c2.7,2.8,7.3,9.7,7.4,9.8c0.1,0.2,0.3,0.3,0.4,0.4C1908.8,312.4,1909.3,312.4,1909.7,312.1z"/>
			<path id="XMLID_442_" d="M1881.4,295.8l-23.9,43.2c-1.7,3.1-0.6,6.9,2.5,8.6l55.3,30.6c3.1,1.7,6.9,0.6,8.6-2.5l23.9-43.2
				c0.3-0.6,0.1-1.4-0.5-1.7c-0.6-0.3-1.4-0.1-1.7,0.5l-23.9,43.2c-1,1.8-3.3,2.5-5.2,1.5l-26.6-14.7l1.4-2.6
				c1.7,0.2,5.8,0.8,9.9,3.1c9.7,5.4,16.1,11.7,16.2,11.8s0.2,0.2,0.3,0.2c0.2,0.1,0.5,0.2,0.8,0.1c0.4-0.1,0.7-0.3,0.9-0.6l27-48.7
				c0.3-0.5,0.2-1.1-0.2-1.5c-0.3-0.3-6.8-6.7-16.8-12.2c-5.7-3.2-11.5-3.4-11.7-3.5c-0.5,0-0.9,0.2-1.2,0.7l-23.5,42.3
				c-2.3-3.8-7.8-12.4-13.9-19.3l23.8-43c6.3,7.8,11.4,16.9,11.5,17c0.3,0.6,1.1,0.8,1.7,0.5s0.8-1.1,0.5-1.7
				c-0.1-0.1-5.9-10.6-12.9-18.9c-0.3-0.3-0.7-0.5-1.1-0.4c-0.4,0-0.8,0.3-1,0.6l-25.1,45.4c-0.3,0.5-0.2,1.1,0.2,1.5
				c7.9,8.6,15.3,21.3,15.3,21.4c0.2,0.4,0.7,0.6,1.1,0.6c0.5,0,0.9-0.3,1.1-0.7l24.1-43.6c1.7,0.2,5.8,0.8,9.9,3.1
				c7.9,4.4,13.6,9.4,15.5,11.2l-25.7,46.5c-2.3-2.1-7.9-6.9-15.6-11.1c-4.8-2.6-9.6-3.3-11.2-3.4c-1.2-1.3-5-5.6-9.9-8.2
				c-7.4-4.1-13.6-6-16.5-6.7l25.7-46.3c0.4,0.1,0.9,0.3,1.6,0.5s1.4-0.1,1.6-0.8s-0.1-1.4-0.8-1.6c-1.6-0.5-2.6-0.8-2.6-0.8
				c-0.6-0.2-1.2,0.1-1.5,0.6l-27,48.7c-0.2,0.4-0.2,0.8,0,1.2c0.2,0.4,0.5,0.6,0.9,0.7c0.1,0,7.8,1.5,17.4,6.8
				c4.1,2.3,7.6,5.9,8.9,7.4l-1.4,2.5l-26.6-14.7c-1.8-1-2.5-3.3-1.5-5.2l23.9-43.2c0.3-0.6,0.1-1.4-0.5-1.7
				C1882.5,294.9,1881.7,295.1,1881.4,295.8z"/>
			<path id="XMLID_411_" d="M1906.4,317c-0.2-0.3-4.8-7.2-7.6-10.1c-0.5-0.5-1.3-0.5-1.8,0s-0.5,1.3,0,1.8c2.7,2.8,7.3,9.7,7.4,9.8
				c0.1,0.2,0.3,0.3,0.4,0.4c0.4,0.2,0.9,0.2,1.3-0.1C1906.6,318.4,1906.8,317.6,1906.4,317z"/>
			<path id="XMLID_409_" d="M1899,330.3c-0.2-0.3-4.8-7.2-7.6-10.1c-0.5-0.5-1.3-0.5-1.8,0s-0.5,1.3,0,1.8c2.7,2.8,7.3,9.7,7.4,9.8
				c0.1,0.2,0.3,0.3,0.4,0.4c0.4,0.2,0.9,0.2,1.3-0.1C1899.3,331.7,1899.4,330.9,1899,330.3z"/>
			<path id="XMLID_408_" d="M1917.8,321.4c-0.2,0.7,0.2,1.4,0.9,1.6c7.1,2,13.5,8.1,13.6,8.2s0.2,0.1,0.3,0.2
				c0.5,0.3,1.1,0.2,1.5-0.2c0.5-0.5,0.5-1.3,0-1.8c-0.3-0.3-6.9-6.6-14.6-8.8C1918.7,320.3,1918,320.7,1917.8,321.4z"/>
			<path id="XMLID_407_" d="M1914.1,328c-0.2,0.7,0.2,1.4,0.9,1.6c7.1,2,13.5,8.1,13.6,8.2s0.2,0.1,0.3,0.2c0.5,0.3,1.1,0.2,1.5-0.2
				c0.5-0.5,0.5-1.3,0-1.8c-0.3-0.3-6.9-6.6-14.6-8.8C1915,327,1914.3,327.3,1914.1,328z"/>
			<path id="XMLID_394_" d="M1895.4,336.9c-0.2-0.3-4.8-7.2-7.6-10.1c-0.5-0.5-1.3-0.5-1.8,0s-0.5,1.3,0,1.8
				c2.7,2.8,7.3,9.7,7.4,9.8c0.1,0.2,0.3,0.3,0.4,0.4c0.4,0.2,0.9,0.2,1.3-0.1C1895.6,338.3,1895.8,337.5,1895.4,336.9z"/>
			<path id="XMLID_392_" d="M1910.5,334.7c-0.2,0.7,0.2,1.4,0.9,1.6c7.1,2,13.5,8.1,13.6,8.2s0.2,0.1,0.3,0.2
				c0.5,0.3,1.1,0.2,1.5-0.2c0.5-0.5,0.5-1.3,0-1.8c-0.3-0.3-6.9-6.6-14.6-8.8C1911.4,333.6,1910.7,334,1910.5,334.7z"/>
			<path id="XMLID_211_" d="M1903.1,347.9c-0.2,0.7,0.2,1.4,0.9,1.6c7.1,2,13.5,8.1,13.6,8.2s0.2,0.1,0.3,0.2
				c0.5,0.3,1.1,0.2,1.5-0.2c0.5-0.5,0.5-1.3,0-1.8c-0.3-0.3-6.9-6.6-14.6-8.8C1904,346.9,1903.3,347.3,1903.1,347.9z"/>
			<path id="XMLID_107_" d="M1906.8,341.3c-0.2,0.7,0.2,1.4,0.9,1.6c7.1,2,13.5,8.1,13.6,8.2s0.2,0.1,0.3,0.2
				c0.5,0.3,1.1,0.2,1.5-0.2c0.5-0.5,0.5-1.3,0-1.8c-0.3-0.3-6.9-6.6-14.6-8.8C1907.7,340.2,1907,340.6,1906.8,341.3z"/>
		</g>
	</g>
</g>
<path id="XMLID_160_" class="st16" d="M3200.6-202.5l-10.7,23.6c0,0-0.6,10-3.6,10.7s-10.6,2.2-10.6,2.2l-17.4-26.3l16.6-30.1
	L3200.6-202.5z"/>
<g id="XMLID_105_">
	<g id="XMLID_541_">
		<path id="XMLID_926_" class="st17" d="M3117.7,148.3c0,0-18.7,9.5-17.6,16.4c1.1,7,22.7,35.4,22.7,35.4s40.4,35.4,42.8,24.1
			c2.4-11.3-16.1-31.2-20-41.5s-2.3-15.1-2.3-15.1L3117.7,148.3z"/>
		<path id="XMLID_875_" class="st18" d="M3122.5,147.9c0,0-17.9,9-16.8,15.7c1.1,6.7,21.9,34.1,21.9,34.1s38.9,34.1,41.2,23.3
			s-15.5-30-19.4-39.8s-2.3-14.5-2.3-14.5L3122.5,147.9z"/>
		<path id="XMLID_677_" class="st17" d="M3226.6,153.2c0,0-8.3,18.2-3.3,22.8s38.4,12.9,38.4,12.9s51.7,2.3,46.7-7.6
			s-30.9-13.7-40-19c-9.2-5.3-10.8-9.9-10.8-9.9L3226.6,153.2z"/>
		<path id="XMLID_662_" class="st18" d="M3227.1,148.3c0,0-8.3,18.2-3.3,22.8s38.4,12.9,38.4,12.9s51.7,2.3,46.7-7.6
			c-5-9.9-30.9-13.7-40-19c-9.2-5.3-10.8-9.9-10.8-9.9L3227.1,148.3z"/>
		<path id="XMLID_131_" class="st19" d="M3186.4-50c0,0,113.1,46.3,113.1,57.7s-33.7,144.7-33.7,144.7l-37.4-5.2l17.2-107.4
			l-106.5-81.3L3186.4-50z"/>
		<path id="XMLID_614_" class="st19" d="M3143.4,170.9l125.6-123c2.9-2.9,3.1-7.6,0.4-10.7L3186-50l-69.3,9.7l3.2,35.1l76,43.8
			l-77.3,108.2L3143.4,170.9z"/>
	</g>
	<polyline id="XMLID_746_" class="st17" points="3145,-169.9 3216.5,-113.5 3326.1,-97.1 3321.7,-81.9 3181.1,-84.4 3132.3,-163.6 	
		"/>
	<path id="XMLID_853_" class="st17" d="M3116.6-39.7l69.7-10.7c0,0,2.6-20,10.5-48.1c8.2-29.5,19.6-79.9,19-84.3
		c-0.6-4.4-17.4-12.5-17.4-12.5l-10,10.4l-11.5,10l-9.9-33.5c-1.4-0.5-13.5,0.1-16.8,0.5c-3.5-0.7-14.9,1.7-18.4,2.6
		c-4.3,1.1-9,1.7-12.4,5.1c-3.4,3.3-3.8,8.4-3.6,13.2c0.2,4.3,0.3,8.7,0.5,13c0.4,8.2,0.8,16.5,1.3,24.5c0.8,12,1.6,24,2.5,36.1
		l0.3,0.1L3116.6-39.7z"/>
	<path id="XMLID_623_" class="st20" d="M3292.8-110.7c0,0,9-5.3,12.3-5.6c3.3-0.3,33.2,16.9,31.5,18.3c-1.7,1.3-20.9-0.3-21.9-0.3
		s-14.2,3-14.2,3L3292.8-110.7z"/>
	<g id="XMLID_610_">
		<g id="XMLID_548_">
			<polygon id="XMLID_549_" class="st17" points="3193.7,-147.1 3231.7,-107.2 3299.5,-83.8 3316,-100.9 3262.8,-128.7 
				3214.6,-185.4 3186.1,-163.6 			"/>
		</g>
	</g>
	
		<rect id="XMLID_528_" x="3294.4" y="-128.1" transform="matrix(0.9909 -0.1348 0.1348 0.9909 45.8158 443.5593)" class="st21" width="8.1" height="23"/>
	
		<rect id="XMLID_494_" x="3290.8" y="-117.8" transform="matrix(0.9909 -0.1348 0.1348 0.9909 44.4046 443.1655)" class="st21" width="8.1" height="23"/>
	<path id="XMLID_209_" class="st22" d="M3306.4-87.7h-80.8v4.3h82C3307.6-83.4,3305.2-87.7,3306.4-87.7z"/>
	<polygon id="XMLID_272_" class="st22" points="3398.9,-143.4 3367.2,-82.6 3268,-82.5 3304,-145 	"/>
	<line id="XMLID_748_" class="st23" x1="3189.9" y1="-86.3" x2="3129.1" y2="-143.3"/>
	<line id="XMLID_750_" class="st23" x1="3203.9" y1="-124.3" x2="3153.8" y2="-173.7"/>
	<polyline id="XMLID_124_" class="st24" points="3203,-191.9 3175.5,-167.9 3158.3,-208.3 	"/>
</g>
<g id="XMLID_38_">
	<path id="XMLID_837_" class="st16" d="M3167.2-237.1l0.3,1.3l1.7,8.8l0.2,1.2c1.9,9.7,8.9,17.7,18.4,20.7l7.4,3
		c5.1,1.5,14.8-4.5,16.3-9.6l0.7-1.7l13.3-33.9l0.8-2c0,0,0.7-1.2,0.7-1.3l-0.9-3.8c0.3-0.9,0.4-1.8,0.4-2.6c0-4.3-2.8-8.2-7-9.4
		l-34.7-10c-3.9-1.1-7.9,0.3-10.3,3.3l-0.1,0.1c-0.8,1-1.3,2.1-1.7,3.3l-2,12.1l0,0l-0.3,1.6l-0.2,1.1l-1.6,9.5l-1.3,8.1
		L3167.2-237.1z"/>
	<g id="XMLID_805_">
		<g id="XMLID_646_">
			<line id="XMLID_648_" class="st18" x1="3192.2" y1="-251.9" x2="3202.1" y2="-247.6"/>
			<line id="XMLID_647_" class="st18" x1="3210.4" y1="-244.1" x2="3220.3" y2="-239.8"/>
		</g>
	</g>
	<path id="XMLID_802_" class="st25" d="M3203.5-234.7l-0.7,8.4c-0.1,1.2-1.4,2.1-2.5,1.6l-3.5-1.3"/>
	<g id="XMLID_773_">
		<path id="XMLID_801_" class="st26" d="M3195.2-236.3l-4.8-2.2c-0.8-0.4-1.1-1.3-0.7-2.1l2.4-5.1c0.4-0.8,1.3-1.1,2.1-0.7l4.8,2.2
			c0.8,0.4,1.1,1.3,0.7,2.1l-2.4,5.1C3196.9-236.2,3196-235.9,3195.2-236.3z"/>
		<path id="XMLID_800_" class="st27" d="M3195.9-237.6l-2-0.9c-0.8-0.4-1.1-1.3-0.7-2.1l1-2.1c0.4-0.8,1.3-1.1,2.1-0.7l2,0.9
			c0.8,0.4,1.1,1.3,0.7,2.1l-1,2.1C3197.6-237.6,3196.7-237.3,3195.9-237.6z"/>
		<path id="XMLID_778_" d="M3195.9-237.6l-2-0.9c-0.8-0.4-1.1-1.3-0.7-2.1l0.9-2c0.4-0.8,1.3-1.1,2.1-0.7l2,0.9
			c0.8,0.4,1.1,1.3,0.7,2.1l-0.9,2C3197.6-237.6,3196.7-237.3,3195.9-237.6z"/>
		<circle id="XMLID_775_" class="st26" cx="3197.1" cy="-239.5" r="1.1"/>
	</g>
	<g id="XMLID_768_">
		<path id="XMLID_772_" class="st26" d="M3212.9-228.4l-4.8-2.2c-0.8-0.4-1.1-1.3-0.7-2.1l2.4-5.1c0.4-0.8,1.3-1.1,2.1-0.7l4.8,2.2
			c0.8,0.4,1.1,1.3,0.7,2.1l-2.4,5.1C3214.6-228.4,3213.6-228,3212.9-228.4z"/>
		<path id="XMLID_771_" class="st27" d="M3213.6-229.8l-2-0.9c-0.8-0.4-1.1-1.3-0.7-2.1l1-2.1c0.4-0.8,1.3-1.1,2.1-0.7l2,0.9
			c0.8,0.4,1.1,1.3,0.7,2.1l-1,2.1C3215.3-229.7,3214.3-229.4,3213.6-229.8z"/>
		<path id="XMLID_770_" d="M3213.6-229.8l-2-0.9c-0.8-0.4-1.1-1.3-0.7-2.1l0.9-2c0.4-0.8,1.3-1.1,2.1-0.7l2,0.9
			c0.8,0.4,1.1,1.3,0.7,2.1l-0.9,2C3215.3-229.7,3214.3-229.4,3213.6-229.8z"/>
		<circle id="XMLID_769_" class="st26" cx="3214.8" cy="-231.6" r="1.1"/>
	</g>
	<path id="XMLID_37_" class="st16" d="M3186.8-264.9c9.8,6.1,11.3,5.3,20.9,10.3c6.8,4.8,20.5,8.5,28.5,9.6c4.6,0.6,10-0.8,12-4.9
		c2.1-4.1-1.8-10.4-6.2-8.9c5.8-3.4,9.3-9.9,10-16.6c0.8-6.7-1-13.4-4-19.4c-3.5-7-10.8-14-18.2-11.4c0.1,2.5,0.3,5.1,0.4,7.6
		c-5.3-12.9-20-21.2-33.7-19.1c-1.6,0.2-3.2,0.6-4.6,1.5c-4.7,3.2-3.4,10.2-4.1,15.9c-0.6-6.9-9.3-11.3-15.5-8.2s-8.2,12-4.5,17.8
		c-1-1.5-4.2,4-4.4,4.7c-0.5,2.5,0.9,4.7,1.2,6.9"/>
	<g id="XMLID_180_">
		<g id="XMLID_193_">
			<g>
				<path id="XMLID_613_" class="st28" d="M3206.2-217.8c0,0-0.1,1.2-0.7,2.6c-0.6,1.2-1.6,2.6-3.4,3.2c-1.6,0.5-3.7,0.5-6.7-0.7
					c-4.2-1.7-5.4-4.1-5.4-6.3c0-1.1,0.3-2.2,0.6-3c0.6-1.4,1.4-2.4,1.4-2.4C3197.4-221.5,3200.3-220.2,3206.2-217.8z"/>
			</g>
			<g>
				<g>
					<defs>
						<path id="SVGID_1_" d="M3206.2-217.8c0,0-0.1,1.2-0.7,2.6c-0.6,1.2-1.6,2.6-3.4,3.2c-1.6,0.5-3.7,0.5-6.7-0.7
							c-4.2-1.7-5.4-4.1-5.4-6.3c0-1.1,0.3-2.2,0.6-3c0.6-1.4,1.4-2.4,1.4-2.4C3197.4-221.5,3200.3-220.2,3206.2-217.8z"/>
					</defs>
					<clipPath id="SVGID_2_">
						<use xlink:href="#SVGID_1_"  style="overflow:visible;"/>
					</clipPath>
					<path id="XMLID_663_" class="st29" d="M3191.9-225.3c0,0-0.2,2.1-0.2,2.7s11.9,6.6,12.6,6.3c0.7-0.4,2.6-2,2.6-2L3191.9-225.3z
						"/>
				</g>
			</g>
			<g>
				<path id="XMLID_1_" class="st18" d="M3206.2-217.8c0,0-0.1,1.2-0.7,2.6c-0.6,1.2-1.6,2.6-3.4,3.2c-1.6,0.5-3.7,0.5-6.7-0.7
					c-4.2-1.7-5.4-4.1-5.4-6.3c0-1.1,0.3-2.2,0.6-3c0.6-1.4,1.4-2.4,1.4-2.4C3197.4-221.5,3200.3-220.2,3206.2-217.8z"/>
			</g>
		</g>
	</g>
	<path id="XMLID_32_" class="st30" d="M3164.9-239.3c1,1.4,2,2.5,2.6,3l1.7,8.5l0.2,1.1c1.9,9.4,8.8,17.1,18.1,20l7.3,2.9
		c5.1,1.4,14.6-4.3,16-9.3l0.6-1.6l-0.1-0.1c0,0-6.5,7.2-13.5,7.2c-6.9,0-25.1-11-21.6-28.4l0.4-6.8l0.4-6.1l-5-2.6l-0.1,0.1
		l-0.5,0.9l-2.9,4.8L3164.9-239.3z"/>
	<path id="XMLID_33_" class="st16" d="M3165.3-280.3c0,0,0,0-0.1,0.1c-0.4,0.8-1,1.5-1.4,2.4c-3.3,7.4-4.2,11.1-2.7,18
		c0.9,4.3-0.5,7.1-0.1,9c0.1-0.1,0.1-0.3,0.2-0.4c3.3-7.7,8.4-6.1,10.3-1.3c2,4.8,3.2,8.7,3.2,8.7l2.2,1.5c0,0,0.9-15.5,4.5-15.7
		c3.5-0.2,5.3,1.1,6.1-0.8c0.6-1.3-1.2-4.2-0.9-6.3l-0.4-0.9"/>
	<path id="XMLID_35_" class="st16" d="M3164.9-238.9c1,1.5,2.1,2.6,2.6,3.1c0.3,0.3,0.4,0.4,0.4,0.4l3.6-15l0.3-1.5l0.2-0.9
		l-1.7-3.3l-0.9-1.8c0,0-3.6-0.6-5.9,2.7l0,0c-0.8,1.1-1.4,2.7-1.7,4.8C3161.1-245.5,3163-241.5,3164.9-238.9z"/>
</g>
<g id="XMLID_43_">
	<g id="XMLID_44_">
		<g id="XMLID_46_">
			<path id="XMLID_309_" d="M3438.1-169.6l11.7,36.7c0.8,2.5,3.4,3.8,5.9,3l31.1-9.9c2.5-0.8,3.8-3.4,3-5.9l-14.1-44.4
				c-0.8-2.5-3.4-3.8-5.9-3l-23.3,7.4c-0.3,0.1-0.5,0.3-0.7,0.6l-7.6,14.6C3438-170.2,3438-169.9,3438.1-169.6z M3448.1-176.5
				c0.4,1.2-0.3,2.5-1.5,2.9l-5.1,1.6l5-9.6L3448.1-176.5z M3440.6-169.2l6.7-2.1c2.5-0.8,3.8-3.4,3-5.9l-2.1-6.7l22.2-7.1
				c1.2-0.4,2.5,0.3,2.9,1.5l14.1,44.4c0.4,1.2-0.3,2.5-1.5,2.9l-31.1,9.9c-1.2,0.4-2.5-0.3-2.9-1.5L3440.6-169.2z"/>
			<path id="XMLID_55_" d="M3455.5-153.1c-1.4,0.5-4.4,1.4-3.6,4c0.4,1.3,1.5,2.7,4.3,1.9c1-0.3,2.6-2.3,4-4.4
				c2.5-0.3,5.6-0.5,8.3-0.4c3.8,3.9,7.8,5.7,9.8,5c1.6-0.5,3-2,2.5-3.6c-0.7-2.2-3.4-2.6-7.5-3.1c-0.9-0.1-1.9-0.3-2.9-0.4
				c-0.3,0-0.6-0.1-0.9-0.1c-0.5-0.6-1.1-1.3-1.6-2c-1.1-1.6-2.1-2.9-3-4.2c1.1-2.9,1.3-5.2,0.8-6.9c-1.2-3.8-3.3-4-4.8-3.5
				c-2,0.6-3.1,1.8-1.9,5.5c0.3,0.9,1.2,2.4,3.3,5.2c-0.4,1-0.9,2-1.5,3.2c-0.4,0.9-1.2,2-1.9,3.1
				C3457.2-153.5,3456-153.3,3455.5-153.1z M3472.5-151.4c0.2,0,0.3,0,0.5,0.1c2.6,0.4,5.3,0.7,5.6,1.5c0,0.1-0.4,0.5-1,0.7
				S3474.9-149.5,3472.5-151.4z M3463.2-162.8c-1.2-1.6-1.8-2.7-2-3.2c-0.7-2.2-0.4-2.3,0.4-2.6c0.4-0.1,1.1-0.4,1.9,2
				C3463.8-165.7,3463.7-164.4,3463.2-162.8z M3461.9-154.1c0.5-0.8,0.9-1.4,1-1.7c0.4-0.7,0.7-1.4,1-2c0.6,0.9,1.4,1.9,2.2,3
				c0.1,0.2,0.3,0.4,0.4,0.5C3464.9-154.4,3463.3-154.3,3461.9-154.1z M3456.2-150.9c0.1,0,0.4-0.1,0.7-0.2
				c-0.7,0.9-1.2,1.5-1.5,1.7c-1,0.3-1.1,0.1-1.3-0.4C3454.2-150.1,3454.6-150.4,3456.2-150.9z"/>
		</g>
	</g>
</g>
<g id="XMLID_533_">
	<g id="XMLID_834_">
		<path id="XMLID_836_" d="M3351.5-232.5l-7-6.5c-0.4-0.4-0.5-0.9-0.3-1.4l3-5.9c-3.1-5.2-9.2-5.6-11.1-5.6c-0.2,0-0.4,0-0.5,0h-1.5
			c-0.5,0-0.9-0.3-1.1-0.8c-0.2-0.5-0.1-1,0.3-1.3c3.1-2.8,6.9-4.3,11.4-4.3c8.9,0,18.2,5.9,20.1,9.9c2.2,4.7,5,7.6,5.1,7.6
			c0.2,0.2,0.4,0.5,0.3,0.9c0,0.3-0.2,0.6-0.4,0.8l-7.3,6.5c-0.3,0.2-0.6,0.3-1,0.3c-0.4-0.1-0.7-0.3-0.8-0.6
			c-0.1-0.1-0.7-1.3-2.9-1.1c-2.8,0.3-4.7,1.5-4.7,1.6l0,0c-0.2,0.1-0.4,0.2-0.7,0.2C3352-232.2,3351.7-232.3,3351.5-232.5z
			 M3361.8-235.1l5.5-4.9c-1.1-1.3-3-3.8-4.7-7.3c-1.4-3-9.8-8.6-18-8.6c-2.6,0-5,0.6-7.1,1.7c3.2,0.3,8.9,1.6,11.9,7.3
			c0.2,0.3,0.2,0.7,0,1.1l-2.8,5.7l5.8,5.3c1-0.5,2.7-1.3,5-1.5c0.3,0,0.5,0,0.7,0C3359.9-236.3,3361.1-235.7,3361.8-235.1z"/>
	</g>
	<g id="XMLID_820_">
		<path id="XMLID_822_" d="M3367.5-224.6c-0.3,0-0.6-0.2-0.8-0.4l-4.1-5c-0.4-0.5-0.3-1.2,0.1-1.6l7.6-6.8c0.2-0.2,0.5-0.3,0.9-0.3
			c0.3,0,0.6,0.2,0.8,0.4l4.4,5c0.2,0.2,0.3,0.5,0.3,0.9c0,0.3-0.2,0.6-0.4,0.8l-7.9,6.8c-0.2,0.2-0.5,0.3-0.8,0.3
			C3367.5-224.6,3367.5-224.6,3367.5-224.6z M3371-235.8l-5.9,5.2l2.6,3.2l6.1-5.2L3371-235.8z"/>
	</g>
	<g id="XMLID_806_">
		<path id="XMLID_807_" d="M3308.1-195.6c-2.7-2.7-3.9-5.8-3.1-7.8c0.1-0.1,0.2-0.3,0.3-0.4l20.1-19.3l16.1-15.7
			c0.4-0.4,1.1-0.4,1.6,0l8.1,7c0.2,0.2,0.4,0.5,0.4,0.8s-0.1,0.6-0.3,0.9l-34.7,37.1c-0.1,0.1-0.2,0.2-0.3,0.2
			c-0.5,0.3-1.1,0.4-1.7,0.4l0,0C3312.6-192.3,3310.1-193.6,3308.1-195.6z M3348.6-230.8l-6.3-5.5l-15.3,14.9l-19.9,19.1
			c-0.2,0.9,0.6,3,2.6,5c2.1,2.1,4.3,2.8,5.2,2.6L3348.6-230.8z"/>
	</g>
	<g id="XMLID_489_">
		<g id="XMLID_731_">
			<path id="XMLID_56_" d="M3374.3-211.7l-4-2.8c-0.5-0.4-0.7-1-0.5-1.6s0.7-1,1.3-1h8.1c0.6,0,1.2,0.4,1.3,1c0.2,0.6,0,1.2-0.5,1.6
				l-4,2.8c-0.2,0.2-0.5,0.2-0.8,0.2C3374.8-211.4,3374.5-211.5,3374.3-211.7z"/>
		</g>
		<g id="XMLID_661_">
			<path id="XMLID_42_" d="M3373.7-192.6v-20.2c0-0.8,0.6-1.4,1.4-1.4c0.8,0,1.4,0.6,1.4,1.4v20.2c0,0.8-0.6,1.4-1.4,1.4
				C3374.3-191.2,3373.7-191.8,3373.7-192.6z"/>
		</g>
	</g>
</g>
<path id="XMLID_824_" d="M3499.7-223.7l9.9-7.5l0.5-6l13.3-21.7l6.4,3.9l2-3.2l-3.2-2l16.4-26.7l-16-9.8l-16.4,26.7l-3.2-2l-2,3.2
	l6.4,3.9l-13.3,21.7l-5.1,3.2l-2.2,12.2L3499.7-223.7z M3525.4-262.2l-9.6-5.9l14.4-23.5l9.6,5.9L3525.4-262.2z M3499.5-228.3
	l-2.1-1.3l1.4-8.1l4.4-2.8L3517-263l3.2,2l-13.8,22.5l-0.4,5.2L3499.5-228.3z"/>
<g id="XMLID_841_">
	<path id="XMLID_925_" d="M3391.5-272.3c4.6,4.6,11.4,6.1,17.3,4.1l11.9,11.8c2,2,3.2,4.7,3.8,8.2c0.6,3.6,2.5,6.7,5.6,8.8
		c4.4,3,10.5,3,14.8,0c6.8-4.8,7.5-14.4,1.8-20.1c-2.1-2.1-4.7-3.4-7.6-3.7c-3.8-0.5-6.8-2.8-8.7-4.6l-11-10.9
		c2-5.9,0.6-12.7-4.1-17.3c-4.9-4.9-12.3-6.2-18.5-3.6l-2.6,1.1l11.1,11.1l-0.9,4.4l-4.4,0.9l-11-11.2l-1.1,2.6
		C3385.3-284.5,3386.6-277.2,3391.5-272.3z M3390.5-286.5l8.3,8.3l8.8-1.8l1.8-8.8l-8.3-8.3c0.8-0.1,1.6-0.2,2.3-0.2
		c3.4,0,6.7,1.3,9.3,3.9c3.8,3.8,4.9,9.5,2.8,14.4l-0.5,1.2l12.7,12.7c3.3,3.3,7,5.2,10.9,5.7c2.1,0.3,4,1.2,5.5,2.7
		c4,4,3.7,10.9-1.3,14.4c-3.1,2.2-7.4,2.2-10.6,0c-2.2-1.5-3.6-3.7-4-6.3c-0.7-4.3-2.3-7.7-4.8-10.3l-13.6-13.6l-1.2,0.5
		c-4.9,2.1-10.6,1-14.4-2.8C3391.1-278,3389.8-282.3,3390.5-286.5z"/>
	<path id="XMLID_850_" d="M3433.5-254.2c-2.2,2.2-2.2,5.8,0,8s5.8,2.2,8,0s2.2-5.8,0-8C3439.2-256.4,3435.7-256.4,3433.5-254.2z
		 M3436.1-251.5c0.7-0.7,1.9-0.7,2.7,0c0.7,0.7,0.7,1.9,0,2.7c-0.7,0.7-1.9,0.7-2.7,0C3435.4-249.6,3435.4-250.8,3436.1-251.5z"/>
</g>
<g id="XMLID_118_">
	<path id="XMLID_120_" class="st31" d="M2438.6,651c0,0,25.5,15,48,15"/>
	<path id="XMLID_144_" class="st31" d="M2439.3,770.9c0,0,29.5,1.6,49.5-8.8"/>
	<path id="XMLID_164_" class="st31" d="M2442.3,731.9c0,0,29.5,1.6,49.5-8.8"/>
</g>
<g id="XMLID_170_">
	<path id="XMLID_390_" class="st31" d="M2222,198.4c0,0,33.4,16.1,62.9,16.1"/>
	<path id="XMLID_388_" class="st31" d="M2226.3,343.9c0,0,35.8-14.8,64.2-13.3"/>
	<path id="XMLID_304_" class="st31" d="M2224.9,248.1c0,0,38.7,1.7,64.9-9.4"/>
</g>
<g id="XMLID_476_" class="st32">
	<path id="XMLID_479_" class="st31" d="M2263.2,12.9c0,0,33.4,16.1,62.9,16.1"/>
	<path id="XMLID_478_" class="st31" d="M2265.2,135.4c0,0,35.8-14.8,64.2-13.3"/>
	<path id="XMLID_477_" class="st31" d="M2266.2,62.5c0,0,38.7,1.7,64.9-9.4"/>
</g>
<g id="XMLID_350_">
	<path id="XMLID_379_" class="st6" d="M2417,722c0,0-6.3,3.6-11.5,13.3c-5.1,9.6-17.3,26.3-18.3,26.9s-22.2,15.4-22.2,15.4l5.3,8.5
		c0,0,25.9-17.5,28.2-18.9c2.3-1.3,29-26.9,29-26.9L2417,722z"/>
	<path id="XMLID_378_" class="st1" d="M2348.2,753.7c0,0-5.9,0.8-6.4,2.6s1.9,11.1,1.9,11.1s6.5,12.6,8.4,10
		c1.9-2.7-0.6-9.4-0.5-12.4s1.1-4.1,1.1-4.1L2348.2,753.7z"/>
	<path id="XMLID_375_" class="st7" d="M2349,753.2c0,0-5.9,0.8-6.4,2.6c-0.5,1.9,1.9,11.1,1.9,11.1s6.5,12.6,8.4,10
		c1.9-2.7-0.6-9.4-0.5-12.4s1.1-4.1,1.1-4.1L2349,753.2z"/>
	<path id="XMLID_374_" class="st1" d="M2364.7,778.4c0,0-5.9,0.8-6.4,2.6s1.9,11.1,1.9,11.1s6.5,12.6,8.4,10
		c1.9-2.7-0.6-9.4-0.5-12.4s1.1-4.1,1.1-4.1L2364.7,778.4z"/>
	<path id="XMLID_371_" class="st7" d="M2365.5,777.9c0,0-5.9,0.8-6.4,2.6c-0.5,1.9,1.9,11.1,1.9,11.1s6.5,12.6,8.4,10
		c1.9-2.7-0.6-9.4-0.5-12.4s1.1-4.1,1.1-4.1L2365.5,777.9z"/>
	<path id="XMLID_370_" class="st6" d="M2406.4,734.1l-23.4,10.5l-33.5,8.7l4,7.5c0,0,31.2-4,32.2-4.2c0.3-0.1,3.6-1.2,7.9-2.7"/>
	<path id="XMLID_369_" class="st8" d="M2447.8,728.1l-3.9,9.4c-0.9,2.1,0,4.4,2,5.5l16.4,8.3l4.6-8.7l-11.6-6.3l7.9-17L2447.8,728.1
		z"/>
	<path id="XMLID_368_" class="st9" d="M2481.2,706.6c1.5-0.9,2.6-2.9,4.3-3.3c1.9-0.4,3.6,1,5.6,0.2c1,1.7,2.9,2.8,4.9,2.6
		c1.3-0.1,2.7-0.9,2.8-2.2c0.2-1.3-1.7-2.4-2.5-1.3c1.6-1.5,3.2-3.1,4.1-5.1c0.9-2,1-4.5-0.3-6.3c-0.6,1.8-2.5,3-4.3,2.8
		c0.8-1.7,0.6-3.9-0.8-5c-1.5-1.1-4.1-0.2-4.1,1.7c-0.7-2.9-1.8-5.8-3.4-8.4c-0.9-1.5-2.5-3.1-4.1-2.4c0.9,1.1,1.8,2.3,1.8,3.7
		s-1.6,2.8-2.8,2c-0.7-0.5-0.9-1.4-1.4-2.2c-1.1-1.8-3.6-2.1-5.6-1.6c-3.6,0.7-6.8,3-8.6,6.1c2.6-1.1,5.8-0.7,7.9,1.1
		c-3.5,5-8.6,7.8-13.8,10.8"/>
	<path id="XMLID_367_" class="st9" d="M2466.3,707.4c0,0,2.7,5,6.7,3.5c0.8-0.3,1.7-0.7,2.6-1.1"/>
	<path id="XMLID_366_" class="st9" d="M2485.5,703.3c0,0-4.8-2.8-5.9-7.2l-4.9,2.2c0,0,0.1-1.5-1.7-1.2s-2.8,3.4-2.8,3.4l-2.6-4.4"
		/>
	<path id="XMLID_365_" class="st9" d="M2481.2,706.6c0,0-2.7,6.4-3.6,6.2c-0.9-0.2-2.1-3.1-2.1-3.1"/>
	<path id="XMLID_364_" class="st9" d="M2471.3,705.9c0,0-1,2.7,1.9,3.3"/>
	<g id="XMLID_359_">
		<path id="XMLID_363_" class="st9" d="M2466.1,743.9c0,0,4.8-1.3,5.8-0.2c1,1,4.2,3.1,3.2,3.9s-4.7-1.5-4.7-1.5l6.4,4.1
			c0,0,0.6,1.4-1.1,1.6l1.1,0.8c0,0,0.4,1.1-0.8,1.4l-3.2-1.8"/>
		<path id="XMLID_362_" class="st9" d="M2475.3,753.6c0,0,0.3,1.1-0.7,1.2s-4.9-2.3-4.9-2.3"/>
		<path id="XMLID_361_" class="st9" d="M2473.3,754.3c0,0,0.4,1.6-0.7,1.5s-10.1-5.3-10.1-5.3"/>
		<line id="XMLID_360_" class="st9" x1="2472.7" y1="750.1" x2="2475.7" y2="751.8"/>
	</g>
	<g id="XMLID_354_">
		<path id="XMLID_358_" class="st6" d="M2402.6,718c0,0-3.3,3.7-4.7,3.4s-5.2-0.2-4.8-1.4c0.5-1.2,4.7-1.3,4.7-1.3l-7.7,0.2
			c0,0-1.3-0.9,0-1.9h-1.4c0,0-0.9-0.7-0.1-1.6l3.6-0.3"/>
		<path id="XMLID_357_" class="st6" d="M2389.6,715.2c0,0-0.9-0.7-0.1-1.4s5.4-0.8,5.4-0.8"/>
		<path id="XMLID_356_" class="st6" d="M2390.8,713.4c0,0-1.2-1.1-0.3-1.6s11.3-1.3,11.3-1.3"/>
		<line id="XMLID_355_" class="st9" x1="2393.6" y1="716.7" x2="2390.2" y2="716.9"/>
	</g>
	<path id="XMLID_353_" class="st9" d="M2477.6,702.9c0,0-0.7,1.5,1.3,2.3"/>
	<path id="XMLID_352_" class="st1" d="M2459.3,699l-57.7,10.1l1.3,10.8l26.1-4.8l-12.1,6.6l11,19l34.7-20.5
		C2462.6,720.2,2473.3,705.6,2459.3,699z"/>
	<line id="XMLID_351_" class="st10" x1="2459.4" y1="709.9" x2="2429" y2="715.1"/>
</g>
<g id="XMLID_284_">
	<path id="XMLID_319_" class="st6" d="M2217.4,258.3c0,0-7.3-0.2-16.7,6.5s-28.4,16.3-29.6,16.3s-27,2.1-27,2.1l0.2,12
		c0,0,33.2,8.5,35.9,8.6s36.7-20.1,36.7-20.1L2217.4,258.3z"/>
	<path id="XMLID_316_" class="st1" d="M2142.1,248.1c0,0-5.4-2.9-6.8-1.3c-1.4,1.6-4.1,12.5-4.1,12.5s-1,17,2,15.4s4.3-10,6-13
		s3-3.5,3-3.5L2142.1,248.1z"/>
	<path id="XMLID_313_" class="st7" d="M2143,248.1c0,0-5.4-2.9-6.8-1.3c-1.4,1.6-4.1,12.5-4.1,12.5s-1,17,2,15.4s4.3-10,6-13
		s3-3.5,3-3.5L2143,248.1z"/>
	<path id="XMLID_310_" class="st1" d="M2143.5,283.7c0,0-5.4-2.9-6.8-1.3c-1.4,1.6-4.1,12.5-4.1,12.5s-1,17,2,15.4s4.3-10,6-13
		s3-3.5,3-3.5L2143.5,283.7z"/>
	<path id="XMLID_307_" class="st7" d="M2144.4,283.7c0,0-5.4-2.9-6.8-1.3c-1.4,1.6-4.1,12.5-4.1,12.5s-1,17,2,15.4s4.3-10,6-13
		s3-3.5,3-3.5L2144.4,283.7z"/>
	<path id="XMLID_306_" class="st6" d="M2210.2,259.7l-33.6,0.7l-33.2-11.9l-0.4,10.1c0,0,23.1,15.8,24,16.1c0.3,0.1,4.9,2.8,9.3,4"
		/>
	<path id="XMLID_305_" class="st8" d="M2240.6,283.7l-8.2,7.2c-1.8,1.6-2.3,4.6-1.1,6.9l9.7,18.7l8.5-6.1l-6.7-13.7l15.6-12.5
		L2240.6,283.7z"/>
	<path id="XMLID_142_" class="st9" d="M2257,266.9c0,0,4.8-5.5,6.4-7.4c2.7-3.1,2.8-8.3,5.1-11.7c1.3-1.9,3.5-4.3,6-4.9
		c2.1-0.5,5.1,0.5,6.6,2.6c1.3-2.4,5.7-1.7,8.7,0.6s4.9,5.6,6.5,8.7c0.9,1.8,1.7,3.7,3.3,5.1s4.1,2.1,5,0.9c-1,2.4-2.1,4.8-4.2,6.3
		c-2.1,1.5-5.3,2-8.4,0.5c-5-2.4-4,0.9-6,3.5c0,0,1.9,21.1-25.8,7.3"/>
	<path id="XMLID_302_" class="st9" d="M2289,265.7c0,0-7.6-2.5-11.9-7.9l-4.4,3.9c0,0-0.8-1.9-2.8-1.2s-1.1,4.9-1.1,4.9l-6-5.1"/>
	<path id="XMLID_300_" class="st9" d="M2275.3,274.1c0,0,0.6,3.7,4.5,3.8"/>
	<g id="XMLID_295_">
		<path id="XMLID_299_" class="st9" d="M2248,311.2c0,0,4.8,1.7,5.1,3.4c0.3,1.7,2,5.8,0.7,5.9s-3.2-4.4-3.2-4.4l3.4,8.3
			c0,0-0.3,1.8-1.8,0.9l0.6,1.5c0,0-0.3,1.4-1.4,0.9l-1.8-3.8"/>
		<path id="XMLID_298_" class="st9" d="M2250.9,326.8c0,0-0.3,1.3-1.2,0.8s-3-5.4-3-5.4"/>
		<path id="XMLID_297_" class="st9" d="M2248.8,326.3c0,0-0.5,1.9-1.4,1.1c-0.8-0.8-5.9-11.6-5.9-11.6"/>
		<line id="XMLID_296_" class="st9" x1="2250.6" y1="321.6" x2="2252.2" y2="325.2"/>
	</g>
	<g id="XMLID_290_">
		<path id="XMLID_294_" class="st6" d="M2216.5,237.8c0,0-4.7,1.8-5.8,0.6s-4.4-3.5-3.4-4.4s4.7,1.5,4.7,1.5l-6.6-4.6
			c0,0-0.6-1.7,1-2l-1.2-0.9c0,0-0.4-1.3,0.8-1.7l3.3,1.9"/>
		<path id="XMLID_293_" class="st6" d="M2206.8,226.8c0,0-0.4-1.3,0.6-1.5s5,2.5,5,2.5"/>
		<path id="XMLID_292_" class="st6" d="M2208.8,225.7c0,0-0.5-1.9,0.6-1.8c1.1,0.1,10.3,5.7,10.3,5.7"/>
		<line id="XMLID_291_" class="st9" x1="2209.5" y1="230.8" x2="2206.4" y2="228.9"/>
	</g>
	<path id="XMLID_289_" class="st9" d="M2280.2,267.1c0,0,0.1,2.1,3.1,2.6"/>
	<path id="XMLID_286_" class="st1" d="M2265.5,260.9l-44.5-33.5l-7,12.6l27.6,20.6l-24.1-2.8l-0.4,26.4l35.8,3.8
		C2252.9,288.1,2274.1,276.4,2265.5,260.9z"/>
</g>
<g id="XMLID_212_">
	<path id="XMLID_244_" class="st1" d="M2094.1,323.8c0,0-5.9-0.9-6.9,1.1s-1,13.1-1,13.1s3.1,16.2,5.6,13.8
		c2.5-2.5,1.7-10.8,2.6-14.2c0.9-3.3,2.1-4.3,2.1-4.3L2094.1,323.8z"/>
	<path id="XMLID_241_" class="st7" d="M2095,323.5c0,0-5.9-0.9-6.9,1.1s-1,13.1-1,13.1s3.1,16.2,5.6,13.8c2.5-2.5,1.7-10.8,2.6-14.2
		c0.9-3.3,2.1-4.3,2.1-4.3L2095,323.5z"/>
	<g id="XMLID_127_">
		<path id="XMLID_247_" class="st6" d="M2169.9,307.5c0,0-6.4,3.6-11.8,14.3c-5.3,10.7-17.8,29-18.8,29.6s-22.6,15.9-22.6,15.9
			l5.2,10.3c0,0,26.4-18,28.7-19.3c2.4-1.3,29.6-28.5,29.6-28.5L2169.9,307.5z"/>
		<path id="XMLID_238_" class="st1" d="M2116.3,368.2c0,0-6,0.3-6.5,2.5c-0.5,2.1,1.7,13,1.7,13s6.3,15.3,8.3,12.3
			c2-2.9-0.5-11-0.3-14.4s1.2-4.6,1.2-4.6L2116.3,368.2z"/>
		<path id="XMLID_235_" class="st7" d="M2117,367.7c0,0-6,0.3-6.5,2.5c-0.5,2.1,1.7,13,1.7,13s6.3,15.3,8.3,12.3
			c2-2.9-0.5-11-0.3-14.4s1.2-4.6,1.2-4.6L2117,367.7z"/>
	</g>
	<path id="XMLID_234_" class="st6" d="M2162.5,314.5l-32.4,9.3h-34.6l2,9.6c0,0,31.2,4.7,32.2,4.7c0.3,0,14.6-0.3,19.1-0.7"/>
	<path id="XMLID_233_" class="st8" d="M2197,324.2l-6.2,9.5c-1.4,2.1-1.1,5,0.6,6.8l13.7,14.2l6.7-8.5l-9.7-10.6l11.9-16.9
		L2197,324.2z"/>
	<path id="XMLID_232_" class="st9" d="M2234.3,300.6c1-1.4,1.3-3.8,2.9-4.5c1.7-0.7,4.3,0.6,6.3-0.3c2.1-1,3.7-2.7,5.2-4.4
		c0.8-1,1.7-2.1,1.8-3.6c0.1-2.1-1.6-4.1-3.1-5.7c-2.4-2.6-5.1-5.4-8.3-6.1c-1.3-0.3-2.6-0.2-3.8,0.1c-3.1,0.6-6.2,2.7-6.3,6.2
		c2.5-5.2-4.6-3.5-6.3-1.1c-2.2,3.2-2.8,7.8-5.2,10.7c-1.4,1.7-5.8,6.9-5.8,6.9"/>
	<path id="XMLID_231_" class="st9" d="M2220.1,305.5c0,0,4.7,4.7,7.9,2c0.6-0.6,1.4-1.2,2.1-2"/>
	<path id="XMLID_230_" class="st9" d="M2237.1,295.8c0,0-5.7-1.7-8.7-6.3l-3.9,3.7c0,0-0.4-1.6-2.1-0.9c-1.7,0.8-1.4,4.4-1.4,4.4
		l-4.3-4.2"/>
	<path id="XMLID_229_" class="st9" d="M2234.3,300.6c0,0-0.1,7.7-1,7.7s-3.2-2.8-3.2-2.8"/>
	<path id="XMLID_228_" class="st9" d="M2224.3,302.5c0,0,0.1,3.2,3.2,3.1"/>
	<g id="XMLID_223_">
		<path id="XMLID_227_" class="st9" d="M2210.6,347.5c0,0,5,0,5.7,1.5s3.3,4.8,2.1,5.3s-4.1-3.1-4.1-3.1l5.2,6.6
			c0,0,0.2,1.8-1.5,1.5l0.9,1.2c0,0,0.1,1.4-1.2,1.3l-2.6-3"/>
		<path id="XMLID_226_" class="st9" d="M2217.1,361.1c0,0,0.1,1.3-0.9,1.2c-1-0.2-4.2-4.1-4.2-4.1"/>
		<path id="XMLID_225_" class="st9" d="M2215,361.4c0,0,0,1.9-1,1.5s-8.4-8.9-8.4-8.9"/>
		<line id="XMLID_224_" class="st9" x1="2215.5" y1="356.4" x2="2218" y2="359.2"/>
	</g>
	<g id="XMLID_218_">
		<path id="XMLID_222_" class="st6" d="M2155.7,299.5c0,0-4.1,3.3-5.4,2.5c-1.3-0.8-5-1.8-4.3-3s4.9-0.1,4.9-0.1l-7.5-2.1
			c0,0-1-1.4,0.5-2.2l-1.3-0.4c0,0-0.7-1.1,0.3-1.8l3.6,0.7"/>
		<path id="XMLID_221_" class="st6" d="M2143.8,292.4c0,0-0.7-1,0.2-1.6c0.9-0.5,5.4,0.6,5.4,0.6"/>
		<path id="XMLID_220_" class="st6" d="M2145.5,290.7c0,0-0.9-1.6,0.2-1.9c1-0.3,11.2,1.9,11.2,1.9"/>
		<line id="XMLID_219_" class="st9" x1="2147.4" y1="295.3" x2="2144" y2="294.5"/>
	</g>
	<path id="XMLID_217_" class="st9" d="M2229.3,297.5c0,0-0.1,1.8,2.2,2.1"/>
	<path id="XMLID_214_" class="st1" d="M2215.4,294.6L2157,289l-1.4,12.6l26.5,2.3l-13.1,3.3l7.5,26l36.8-13.6
		C2213.3,319.6,2227.3,306.2,2215.4,294.6z"/>
	<line id="XMLID_213_" class="st10" x1="2212.8" y1="307" x2="2182.1" y2="303.9"/>
</g>
<g id="XMLID_248_">
	<path id="XMLID_283_" class="st6" d="M2110.2,233.3c0,0-7.1,1.8-14.6,9.7s-23.6,20.8-24.7,21.1c-1.1,0.3-25.5,9-25.5,9l2.9,9.6
		c0,0,29.6-10.1,32.2-10.7c2.6-0.7,35-18.2,35-18.2L2110.2,233.3z"/>
	<path id="XMLID_280_" class="st1" d="M2035.4,245.6c0,0-5.9-0.8-6.9,0.8c-1,1.7-1.1,11.2-1.1,11.2s2.9,13.9,5.4,11.8
		s1.9-9.2,2.8-12.1c0.9-2.8,2.1-3.6,2.1-3.6L2035.4,245.6z"/>
	<path id="XMLID_277_" class="st7" d="M2036.3,245.4c0,0-5.9-0.8-6.9,0.8c-1,1.7-1.1,11.2-1.1,11.2s2.9,13.9,5.4,11.8
		s1.9-9.2,2.8-12.1c0.9-2.8,2.1-3.6,2.1-3.6L2036.3,245.4z"/>
	<path id="XMLID_274_" class="st1" d="M2044.9,273.8c0,0-5.9-0.8-6.9,0.8c-1,1.7-1.1,11.2-1.1,11.2s2.9,13.9,5.4,11.8
		s1.9-9.2,2.8-12.1c0.9-2.8,2.1-3.6,2.1-3.6L2044.9,273.8z"/>
	<path id="XMLID_271_" class="st7" d="M2045.7,273.6c0,0-5.9-0.8-6.9,0.8c-1,1.7-1.1,11.2-1.1,11.2s2.9,13.9,5.4,11.8
		s1.9-9.2,2.8-12.1c0.9-2.8,2.1-3.6,2.1-3.6L2045.7,273.6z"/>
	<path id="XMLID_270_" class="st6" d="M2096.7,242.1l-25.3,4l-34.6-0.5l1.9,8.3c0,0,31.2,4.4,32.1,4.4c0.3,0,3.8-0.2,8.4-0.5"/>
	<path id="XMLID_269_" class="st8" d="M2138.3,247.3l-6.3,8c-1.4,1.8-1.2,4.3,0.5,5.8l13.6,12.3l6.8-7.2l-9.5-9.2l12.1-14.3
		L2138.3,247.3z"/>
	<path id="XMLID_268_" class="st9" d="M2174.1,231.6c1.9-1.5,2.8-3.8,5.3-4.1c2.8-0.4,5.5,1.3,8.5,0.4c0.5-0.1,1-0.3,1.5-0.6
		c1.7-0.8,3.4-1.7,4.5-3.3c1.1-1.5,1.4-3.7,0.4-5.3c-1.1-1.6-3.7-1.9-4.8-0.4c0.6-0.4,1.2-0.9,1.5-1.5s0.3-1.5-0.3-1.9
		c-0.5-0.4-1.1-0.3-1.7-0.2c-2,0.4-3.8,1.7-4.8,3.4c1.4-2.2,2.3-4.3,1.6-7.1c-0.8-2.8-3.6-6.6-6.7-4.3c-1.7,1.3-3.4,3.2-3.7,5.5
		c0.4-3.4-6.8,1.3-7.6,2c-2.6,2.4-4.5,5.4-7.4,7.5c-1.8,1.3-7.3,5.1-7.3,5.1"/>
	<path id="XMLID_267_" class="st9" d="M2159.4,233.7c0,0,3.2,4.7,7,2.8c0.8-0.4,1.6-0.9,2.5-1.4"/>
	<path id="XMLID_266_" class="st9" d="M2178.1,227.8c0,0-5-2.3-6.6-6.7l-4.6,2.6c0,0,0-1.5-1.8-1c-1.8,0.4-2.5,3.6-2.5,3.6l-3-4.2"
		/>
	<path id="XMLID_265_" class="st9" d="M2174.1,231.6c0,0-2.1,6.6-3,6.5c-0.9-0.2-2.3-2.9-2.3-2.9"/>
	<path id="XMLID_264_" class="st9" d="M2164.2,231.8c0,0-0.7,2.8,2.2,3.1"/>
	<g id="XMLID_259_">
		<path id="XMLID_263_" class="st9" d="M2151.7,267.4c0,0,5,0,5.7,1.3s3.3,4.1,2,4.6c-1.2,0.4-4.1-2.7-4.1-2.7l5.1,5.7
			c0,0,0.2,1.5-1.5,1.2l0.9,1.1c0,0,0.1,1.2-1.2,1.1l-2.6-2.6"/>
		<path id="XMLID_262_" class="st9" d="M2158,279.1c0,0,0,1.1-1,1s-4.1-3.5-4.1-3.5"/>
		<path id="XMLID_261_" class="st9" d="M2155.9,279.3c0,0-0.1,1.6-1.1,1.2s-8.3-7.7-8.3-7.7"/>
		<line id="XMLID_260_" class="st9" x1="2156.5" y1="275.1" x2="2158.9" y2="277.5"/>
	</g>
	<g id="XMLID_254_">
		<path id="XMLID_258_" class="st6" d="M2097.3,225.6c0,0-4.2,2.7-5.4,2.1c-1.2-0.6-5-1.6-4.2-2.7c0.8-1.1,4.9-0.1,4.9-0.1l-7.4-1.9
			c0,0-1-1.2,0.6-1.9l-1.3-0.4c0,0-0.7-1,0.3-1.6l3.6,0.7"/>
		<path id="XMLID_257_" class="st6" d="M2085.5,219.4c0,0-0.7-0.9,0.3-1.3c0.9-0.4,5.4,0.6,5.4,0.6"/>
		<path id="XMLID_256_" class="st6" d="M2087.2,218.1c0,0-0.9-1.4,0.2-1.6c1-0.2,11.2,1.8,11.2,1.8"/>
		<line id="XMLID_255_" class="st9" x1="2089.1" y1="221.9" x2="2085.7" y2="221.3"/>
	</g>
	<path id="XMLID_253_" class="st9" d="M2170.1,228.2c0,0-0.6,1.6,1.5,2.1"/>
	<path id="XMLID_250_" class="st1" d="M2157.1,222.3l-58.3-5.6l-1.6,10.7l26.4,2.3l-13.4,3.1l5.6,21.3l38.9-10.6
		C2154.7,243.6,2168.8,232.4,2157.1,222.3z"/>
	<line id="XMLID_249_" class="st10" x1="2154.3" y1="232.8" x2="2123.6" y2="229.8"/>
</g>
<g id="XMLID_947_" class="st5">
	<path id="XMLID_1005_" class="st1" d="M2219.8,67.8c0,0-4.2-1.9-5.3-0.8c-1.1,1-3.2,8.2-3.2,8.2s-0.8,11.1,1.6,10
		c2.3-1,3.4-6.5,4.7-8.5s2.4-2.3,2.4-2.3L2219.8,67.8z"/>
	<path id="XMLID_1002_" class="st7" d="M2220.5,67.9c0,0-4.2-1.9-5.3-0.8c-1.1,1-3.2,8.2-3.2,8.2s-0.8,11.1,1.6,10
		c2.3-1,3.4-6.5,4.7-8.5c1.3-1.9,2.4-2.3,2.4-2.3L2220.5,67.9z"/>
	<g id="XMLID_997_">
		<path id="XMLID_1001_" class="st6" d="M2279.2,74.5c0,0-5.7,0.5-12.5,5.7c-6.8,5.1-20.8,13.1-21.7,13.1
			c-0.9,0.1-20.8,3.7-20.8,3.7l1,7.8c0,0,24.1-4,26.2-4.2s29.3-9.6,29.3-9.6L2279.2,74.5z"/>
		<path id="XMLID_998_" class="st1" d="M2223.7,97.5c0,0-4.4-1.4-5.4-0.2c-1,1.2-2.3,8.5-2.3,8.5s0.5,11.1,2.7,9.8s2.6-6.9,3.7-8.9
			c1.1-2.1,2.1-2.5,2.1-2.5L2223.7,97.5z"/>
	</g>
	<path id="XMLID_994_" class="st7" d="M2224.7,97.6c0,0-4.2-1.9-5.3-0.8c-1.1,1-3.2,8.2-3.2,8.2s-0.8,11.1,1.6,10
		c2.3-1,3.4-6.5,4.7-8.5c1.3-1.9,2.4-2.3,2.4-2.3L2224.7,97.6z"/>
	<path id="XMLID_993_" class="st6" d="M2271.3,78.7l-24.6-2.8l-25.9-7.7l-0.3,6.6c0,0,22.5,10,23.2,10.2c0.2,0.1,8.4,1.8,11.8,2.6"
		/>
	<path id="XMLID_992_" class="st9" d="M2296.8,91l-6.4,4.7c-1.4,1-1.8,3-0.9,4.5l7.6,12.2l6.6-4l-5.2-8.9l12.1-8.2L2296.8,91z"/>
	<g id="XMLID_987_">
		<path id="XMLID_991_" class="st9" d="M2302.6,108.9c0,0,3.7,1.1,4,2.2c0.3,1.1,1.6,3.8,0.6,3.9s-2.5-2.9-2.5-2.9l2.6,5.4
			c0,0-0.2,1.2-1.4,0.6l0.4,1c0,0-0.2,0.9-1.1,0.6l-1.4-2.5"/>
		<path id="XMLID_990_" class="st9" d="M2304.8,119.1c0,0-0.2,0.9-0.9,0.5s-2.4-3.5-2.4-3.5"/>
		<path id="XMLID_989_" class="st9" d="M2303.2,118.8c0,0-0.4,1.2-1.1,0.7c-0.7-0.5-4.6-7.6-4.6-7.6"/>
		<line id="XMLID_988_" class="st9" x1="2304.5" y1="115.7" x2="2305.8" y2="118"/>
	</g>
	<g id="XMLID_982_">
		<path id="XMLID_986_" class="st6" d="M2270.6,66c0,0-3.7,1.2-4.5,0.4c-0.8-0.8-3.4-2.3-2.6-2.9s3.7,1,3.7,1l-5.2-3
			c0,0-0.5-1.1,0.8-1.3l-0.9-0.6c0,0-0.3-0.9,0.6-1.1l2.6,1.3"/>
		<path id="XMLID_985_" class="st6" d="M2263,58.8c0,0-0.3-0.8,0.5-1c0.8-0.1,3.9,1.6,3.9,1.6"/>
		<path id="XMLID_984_" class="st6" d="M2264.6,58.1c0,0-0.4-1.2,0.5-1.2c0.8,0,8,3.7,8,3.7"/>
		<line id="XMLID_983_" class="st9" x1="2265.2" y1="61.5" x2="2262.7" y2="60.3"/>
	</g>
	<g id="XMLID_975_">
		<path id="XMLID_981_" class="st9" d="M2330.8,74.4c0.3-1.1,0.2-2.7,0.5-3.7c0.4-1.1,2-1.5,2.9-2.2c1-0.8,1.6-1.9,2.1-3.1
			c0.2-0.7,0.4-1.4,0.3-2.1c-0.1-0.6-0.5-1.2-0.9-1.7c-1-1.2-2.4-2.1-4-2.5c0.8,0.7,1,1.9,0.5,2.9c-0.5,0.9-1.6,1.5-2.6,1.4
			c0.7-1.3,0.8-2.9,0.1-4.2c-0.7-1.3-2.1-2.2-3.5-2.3c0.6,0.4,0.9,1.2,0.9,2s-0.2,1.5-0.5,2.2c-0.3,1-0.9,2.2-1.9,2.3
			c0.6-0.9,0.7-2.1,0.3-3.1s-1.3-1.8-2.4-2.1c0.6,0.1,0.1,2.1,0,2.4c-0.4,0.9-1,1.3-1.9,1.7c-1.4,0.8-2,1.8-2.4,3.5
			c-0.7,2.9,0.1,6.1-0.8,8.9c-0.5,1.7-2.1,6.6-2.1,6.6"/>
		<path id="XMLID_980_" class="st9" d="M2329.2,79.1c-0.3,0.7-0.6,1.4-0.9,2c-1.5,3-5.7,1.5-5.7,1.5s-6.3,5.5-8.8,4.9"/>
		<path id="XMLID_979_" class="st9" d="M2331.5,70.2c0,0-4.2,0.9-7.2-1.1l-1.6,3.8c0,0-0.7-0.9-1.6,0.2s0.2,3.4,0.2,3.4l-3.8-1.2"/>
		<path id="XMLID_978_" class="st9" d="M2330.7,74.4c0,0,1.8,5.1,1.2,5.4s-2.8-0.7-2.8-0.7"/>
		<path id="XMLID_977_" class="st9" d="M2324.7,79.2c0,0,0.9,2.1,2.8,0.9"/>
		<path id="XMLID_976_" class="st9" d="M2326.7,74.2c0,0,0.4,1.2,1.9,0.6"/>
	</g>
	<path id="XMLID_972_" class="st1" d="M2316.2,76.2l-42.6-16.6l-3.5,7.7l19.4,7.3l-10.8-0.5l-0.3,17.2l31.4,0.3
		C2309.8,91.7,2322.9,86.2,2316.2,76.2z"/>
	<line id="XMLID_971_" class="st10" x1="2311.8" y1="83.5" x2="2289.5" y2="74.7"/>
</g>
<text id="XMLID_39_" transform="matrix(1 0 0 1 1687.0565 692.9952)" class="st33 st34 st35">Learning</text>
<text id="XMLID_62_" transform="matrix(1 0 0 1 3298.6382 -22.6563)" class="st33 st34 st35">Applying</text>
<g id="XMLID_480_">
	<g id="XMLID_24_">
		<path id="XMLID_398_" class="st36" d="M2459.6-124.9c0,0-7.2-5.3-10.9,0.3c-3.6,5.6,1.9,26.8,13.3,19.9L2459.6-124.9z"/>
		<polygon id="XMLID_728_" class="st16" points="2472.3,-83.8 2471.1,-33.5 2501.9,-49.3 2503.1,-96.2 		"/>
		<path id="XMLID_724_" class="st36" d="M2498.4-163.9c19.4,5.3,18.3,18.8,18.3,18.8s-1.1,10.4-2,22.7c1.9-2.4,5-3.3,8.1-1.8
			c6.6,3.1,0.7,24-9.4,21.7c-0.6,5.2-0.7,10.2-3.7,14.6c-2.9,4.4-7,8-11.7,10.3c-6.6,3.2-14.5,3.7-21.5,1.3c-2.1-0.7-4.2-1.8-6-3.1
			c-13.3-10.1-10.2-30.6-9.6-45c0.3-7.5,0.6-14.9,0.9-22.4c0.1-3.1-0.4-7.1,0.4-10.2C2462.3-157,2466.3-172.7,2498.4-163.9z"/>
		<g id="XMLID_141_">
			<g id="XMLID_493_">
				<path id="XMLID_510_" class="st16" d="M2502-108.2c-4.6-0.7-6.9-0.9-11.4-1.1"/>
				<path id="XMLID_503_" class="st16" d="M2481.1-109.4c-4.6,0.2-6.9,0.4-11.5,1"/>
			</g>
		</g>
		<g id="XMLID_668_">
			<path id="XMLID_483_" d="M2492.8-108.6v1.7c0,0.8,0.7,1.5,1.6,1.5l2.5-0.1c0.8,0,1.5-0.7,1.5-1.6v-1.6L2492.8-108.6L2492.8-108.6
				z"/>
			<circle id="XMLID_669_" class="st26" cx="2496.9" cy="-106.5" r="1.1"/>
		</g>
		<g id="XMLID_653_">
			<path id="XMLID_481_" d="M2472.7-108.3v1.8c0,0.8,0.7,1.5,1.6,1.5l2.5-0.1c0.8,0,1.5-0.7,1.5-1.6v-1.7L2472.7-108.3L2472.7-108.3
				z"/>
			<circle id="XMLID_658_" class="st26" cx="2476.9" cy="-106" r="1.1"/>
		</g>
		<g id="XMLID_637_">
			<g id="XMLID_638_">
				<g>
					<path id="XMLID_538_" class="st28" d="M2478-92.6c0,0-0.4,1.2-0.3,2.8c0.1,1.4,0.5,3.1,2,4.4c1.3,1.2,3.4,2,6.7,2
						c4.8,0,6.9-1.8,7.8-3.9c0.5-1.1,0.6-2.2,0.6-3.2c0-1.6-0.4-2.9-0.4-2.9C2487.9-92.7,2484.6-92.5,2478-92.6z"/>
				</g>
				<g>
					<g>
						<defs>
							<path id="SVGID_3_" d="M2478-92.6c0,0-0.4,1.2-0.3,2.8c0.1,1.4,0.5,3.1,2,4.4c1.3,1.2,3.4,2,6.7,2c4.8,0,6.9-1.8,7.8-3.9
								c0.5-1.1,0.6-2.2,0.6-3.2c0-1.6-0.4-2.9-0.4-2.9C2487.9-92.7,2484.6-92.5,2478-92.6z"/>
						</defs>
						<clipPath id="SVGID_4_">
							<use xlink:href="#SVGID_3_"  style="overflow:visible;"/>
						</clipPath>
						<path id="XMLID_642_" class="st37" d="M2494.7-94.1c0,0-0.6,2.2-0.9,2.7c-0.3,0.5-14.2,1.7-14.7,1s-1.7-3-1.7-3L2494.7-94.1z"
							/>
					</g>
				</g>
				<g>
					<path id="XMLID_2_" class="st18" d="M2478-92.6c0,0-0.4,1.2-0.3,2.8c0.1,1.4,0.5,3.1,2,4.4c1.3,1.2,3.4,2,6.7,2
						c4.8,0,6.9-1.8,7.8-3.9c0.5-1.1,0.6-2.2,0.6-3.2c0-1.6-0.4-2.9-0.4-2.9C2487.9-92.7,2484.6-92.5,2478-92.6z"/>
				</g>
			</g>
		</g>
		<path id="XMLID_636_" class="st13" d="M2460.1,344.8c0,0,9.5,18.1,4.7,23s-38,15.4-38,15.4s-52.2,5.4-47.7-5s30.4-15.8,39.4-21.7
			c9-6,10.4-10.7,10.4-10.7L2460.1,344.8z"/>
		<path id="XMLID_560_" class="st18" d="M2456.5,341.7c0,0,9.2,17.3,4.5,22c-4.6,4.7-36.6,14.8-36.6,14.8s-50.3,5.2-45.9-4.7
			c4.3-9.9,29.3-15.1,37.9-20.8c8.6-5.7,10-10.2,10-10.2L2456.5,341.7z"/>
		<path id="XMLID_559_" class="st13" d="M2498.5,345.3c0,0-9.4,17.8-4.7,22.7s37.6,15.2,37.6,15.2s51.5,5.3,47.1-4.9
			s-30-15.6-38.9-21.4c-8.9-5.9-10.3-10.6-10.3-10.6L2498.5,345.3z"/>
		<path id="XMLID_558_" class="st18" d="M2502.1,342.3c0,0-9.1,17.1-4.5,21.7c4.6,4.7,36.2,14.6,36.2,14.6s49.6,5.1,45.4-4.7
			c-4.3-9.8-28.9-14.9-37.5-20.5c-8.5-5.6-9.9-10.1-9.9-10.1L2502.1,342.3z"/>
		<path id="XMLID_554_" class="st19" d="M2449.5,86.6l-34.8,133.2l10.7,125.3c0,0,12.9,4.4,34.7,0.7l5.3-122.7l20.7-77.3l4.7-0.7
			l12.3,80.4l-8.9,119c0,0,21.9,6.7,39.3,0l13.7-121.1L2530,89.9L2449.5,86.6z"/>
		<path id="XMLID_551_" class="st13" d="M2440.4-26.1c0,0,3.1,67.3,8.4,113.7c0,0,20.2,10.1,52.4,8.7c22.7-1,29.3-6.5,29.3-6.5
			l10.9-134.9c0,0,12.2-21-29.3-24.3c-0.9-0.1-1.6,0.2-2.5,0.6c-1.9,0.7-3.5,2-5.5,2.4c-3.1,0.7-6.4-0.2-9.4,0.8
			c-2.9,1-5,3.5-8.2,3.9c-2.6,0.3-5-1-7.3-2.2c-2.9-1.6-5.9-3.1-8.8-4.7c-2.8-3.2-13.7,0.6-17.4,1.7c-7.1,2.1-13.9,5.2-20.5,8.5
			L2440.4-26.1z"/>
		<polygon id="XMLID_550_" class="st38" points="2464.6,-68 2471.5,-49 2481,-65.1 2470,-75 		"/>
		<polygon id="XMLID_475_" class="st38" points="2511.4,-69.6 2500.7,-49.9 2492.8,-66.5 2504.2,-75.5 		"/>
		<g id="XMLID_23_">
			<path id="XMLID_531_" class="st22" d="M2468.9,93.5c-6.2-4.5-11.5-7.2-11.8-9.1c-0.4-2.3,3.7-0.4,3.7-0.4c9.8,2.6,9-2.1,8.8-3.6
				c-0.1-1.5-6.6,0-11.4-2.9c-4.6-2.8-8.6-2.1-13.8-0.8c-2.6-3.4-6.4-8.3-10.6-13.6c-4.2,3.5-8.4,7.1-12.6,10.6
				c4.6,5.2,9.2,10.1,13.2,13.7c-0.1,0.2-0.1,0.3-0.1,0.3c0,5.1,4.2,9,6.5,11.6c2.3,2.7,3.1,4.2,5.5,7.1c2,2.5,5.3,6.5,6.5,4.6
				s-5.5-9.6-4.8-10.4c0.8-1,15.4,15.5,16.3,10.1c0.3-1.7-9.7-10.5-10.4-12.8s15.4,12,17.3,8.4c1.2-2.2-15.3-13.6-12.8-13
				c3.2,0.9,13.1,6.7,14.9,6.5C2475.1,99.7,2477.4,99.7,2468.9,93.5z"/>
			<g id="XMLID_413_">
				<path id="XMLID_25_" class="st13" d="M2442.5,73.1l-18-53.9l27.6-35.7c7.7-44.4-10.4-45.6-20.1-41.5l-41.8,78.2l35.3,64.8
					L2442.5,73.1z"/>
			</g>
		</g>
		<g id="XMLID_58_">
			<path id="XMLID_139_" class="st22" d="M2510.9,97.5c6.2-4.5,11.5-7.2,11.8-9.1c0.4-2.3-3.7-0.4-3.7-0.4c-9.8,2.6-9-2.1-8.8-3.6
				c0.1-1.5,6.6,0,11.4-2.9c4.6-2.8,8.6-2.1,13.8-0.8c2.6-3.4,6.4-8.3,10.6-13.6c4.2,3.5,8.4,7.1,12.6,10.6
				c-4.6,5.2-9.2,10.1-13.2,13.7c0.1,0.2,0.1,0.3,0.1,0.3c0,5.1-4.2,9-6.5,11.6c-2.3,2.7-3.1,4.2-5.5,7.1c-2,2.5-5.3,6.5-6.5,4.6
				s5.5-9.6,4.8-10.4c-0.8-1-15.4,15.5-16.3,10.1c-0.3-1.7,9.7-10.5,10.4-12.8s-15.4,12-17.3,8.4c-1.2-2.2,15.3-13.6,12.8-13
				c-3.2,0.9-13.1,6.7-14.9,6.5C2504.7,103.7,2502.4,103.7,2510.9,97.5z"/>
			<g id="XMLID_136_">
				<path id="XMLID_138_" class="st13" d="M2537.3,77.1l18-53.9l-27.6-35.7c-7.7-44.4,2.7-51.4,12.4-47.4l49.5,84.1L2554.3,89
					L2537.3,77.1z"/>
			</g>
		</g>
		<polyline id="XMLID_161_" class="st39" points="2492.8,-65.2 2496.9,-56.7 2490.5,-49.6 2498,47.6 2484.3,62.4 2470.2,46.1 
			2483.4,-49.4 2476.3,-55.8 2480.8,-64.5 		"/>
		<path id="XMLID_308_" class="st40" d="M2460.3-112.1c0,0,3.4-0.2,3.9-0.3c0.5-0.2-0.7-13.4-0.7-13.4s4.5-6,4-13.3l-15.6-12
			c0,0-9.2,12,1.3,23.7C2453.2-127.4,2460.9-124.9,2460.3-112.1z"/>
		<path id="XMLID_695_" class="st19" d="M2444-152.5c0,0,21.8,25,56.5,18.1c0.4,7.2,9.3,7.3,9.3,7.3l0.4,4.9v-0.1c0,0.3,0,0.6,0,0.8
			c-0.1,3-0.7,5.7-0.7,8.8c1.1,0,2.3,0,3.4,0c0.1-2.7,0.5-6.1,1.7-8.5c0.4-0.8,0.8-1.5,1.5-2.2c0.4-0.4,2.7-1.4,2.8-1.5
			c3-6.9,10.7-12.4,11.8-17.8c3.4-15.9-12.7-15.3-12.7-15.3s-0.3-2.3-0.5-3.2c-5.1-23.4-24.3-19.9-36.9-15.6
			c-1.7,0.5-3.5,1.2-5.1,2.1c-1.2,0.6-2.4,1.1-3.4,1.7c-11.1,6.1-15.4-1.1-15.4-1.1c0.6,2.2,4.1,8.2,4.1,8.2
			c-6.4-0.3-14.7-7.2-14.7-7.2c-3.3,8.3,5,17.6,9,18.3C2450.6-154.1,2444-152.5,2444-152.5z"/>
		<g id="XMLID_179_">
			<path id="XMLID_486_" class="st41" d="M2481.7-99.3c3.1,1.2,5,1.1,8-0.1"/>
		</g>
	</g>
	<path id="XMLID_482_" class="st41" d="M2468.5-112.8c0,0,6.3-2.5,11.1-1.8"/>
	<path id="XMLID_484_" class="st41" d="M2490.7-114.6c0,0,6.7-1.2,11.3,0.5"/>
</g>
<path id="XMLID_416_" class="st42" d="M1004-61.6c125.7-3.2,324.4-0.3,450.1-3.5c6.3-0.2,12.8-0.4,18.4-3.2
	c5.3-2.7,9.2-7.6,12.2-12.8c14.1-24.5,7.7-58.9-14.4-76.7c-10.4-8.3-24.6-13.1-37.3-9c-24.3,7.8-29,39.7-29.2,65.2
	c-0.5,57.1-0.2,114-1.1,171.1c-2,125.1-4,250.1-6,375.2c-0.3,16.1,0,33.6,10.1,46c12.6,15.3,35.1,16.9,54.9,17.2
	c199.4,3.1,398.8,3.8,598.3,2.1"/>
<g id="XMLID_114_">
	<path id="XMLID_197_" d="M1713.6,297.7c0.2,0.4,0.5,0.6,0.9,0.7l14.5,2.3c0.2,0,0.4,0,0.6-0.1s0.3-0.2,0.4-0.3
		c0.3-0.3,0.3-0.8,0.1-1.1l-6.3-14.5c-0.2-0.4-0.5-0.6-0.9-0.7c-0.4,0-0.8,0.2-1,0.5l-8.2,12.2
		C1713.5,297,1713.5,297.4,1713.6,297.7z M1716.6,296.4l6.1-9l4.7,10.7L1716.6,296.4z"/>
	<path id="XMLID_117_" d="M1682,284.5l5,11.4l5,11.4l5,11.4l5,11.4c0.2,0.6,0.9,0.8,1.5,0.6l10.3-4.5l37.2-16.3l10.3-4.5
		c0.6-0.2,0.8-0.9,0.6-1.5l-5-11.4l-5-11.4l-5-11.4l-5-11.4c-0.2-0.6-0.9-0.8-1.5-0.6l-10.3,4.5l-37.2,16.3l-10.3,4.5
		C1682,283.2,1681.7,283.9,1682,284.5z M1737,275.2l8.3-3.6l4.1,9.3l-8.3,3.6L1737,275.2z M1754.4,292.3l-8.3,3.6l-4.1-9.3l8.3-3.6
		L1754.4,292.3z M1749,308.2l-35.2,15.4l-4.5-10.3l-5-11.4l-5-11.4l-4.5-10.3l35.2-15.4l4.5,10.3l5,11.4l5,11.4L1749,308.2z
		 M1689.5,296l8.3-3.6l4.1,9.3l-8.3,3.6L1689.5,296z M1706.8,313l-8.3,3.6l-4.1-9.3l8.3-3.6L1706.8,313z M1692.8,281l4.1,9.3
		l-8.3,3.6l-4.1-9.3L1692.8,281z M1744.4,269.5l-8.3,3.6l-4.1-9.3l8.3-3.6L1744.4,269.5z M1751,307.3l-4.1-9.3l8.3-3.6l4.1,9.3
		L1751,307.3z M1699.4,318.7l8.3-3.6l4.1,9.3l-8.3,3.6L1699.4,318.7z"/>
</g>
<g id="XMLID_28_">
	<g id="XMLID_236_">
		<g id="XMLID_125_">
			<g id="XMLID_103_">
				<path id="XMLID_202_" class="st43" d="M1534.5,404.2c0,0,6.9-15.3,3.1-19.3s-29.3-11.8-29.3-11.8s-39.9-3.1-36.3,5.4
					s23.5,12.3,30.5,17s8.1,8.6,8.1,8.6L1534.5,404.2z"/>
				<path id="XMLID_199_" class="st17" d="M1534.4,406.7c0,0,6.9-15.3,3.1-19.3s-29.3-11.8-29.3-11.8s-39.9-3.1-36.3,5.4
					s23.5,12.3,30.5,17s8.1,8.6,8.1,8.6L1534.4,406.7z"/>
			</g>
			<g id="XMLID_59_">
				<path id="XMLID_208_" class="st17" d="M1399.3,447.4c0,0-8.5-14.5-13.9-13.7s-26.6,17.1-26.6,17.1s-25.7,30.7-16.6,32.7
					c9,2,23.7-12,31.5-15c7.9-2.9,11.7-1.6,11.7-1.6L1399.3,447.4z"/>
				<path id="XMLID_205_" class="st18" d="M1401.3,448.9c0,0-8.5-14.5-13.9-13.7s-26.6,17.1-26.6,17.1s-25.7,30.7-16.7,32.7
					s23.7-12,31.5-15c7.9-2.9,11.7-1.6,11.7-1.6L1401.3,448.9z"/>
			</g>
			<polygon id="XMLID_100_" class="st19" points="1510.1,402.4 1482.5,516.6 1520.4,541.6 1534.3,408.5 			"/>
			<path id="XMLID_102_" class="st19" d="M1666.3,515.7l-138.2,18.4l-127-88.8l-19.6,23.9c0,0,130.1,103.7,132.6,111.9
				s176.7,10,176.7,10L1666.3,515.7z"/>
		</g>
		<path id="XMLID_96_" class="st19" d="M1766.2,525c0,0,67.5,67.7,84.5,69.3c17.1,1.7,84.2-57.9,84.2-57.9l-8.9-16.1l-75,43.6
			l-62.5-51.3L1766.2,525z"/>
		<polyline id="XMLID_123_" class="st44" points="1808,484.3 1795.3,506.6 1770.7,488.5 1787.6,463.5 		"/>
		<g id="XMLID_115_">
			<g id="XMLID_110_">
				<path id="XMLID_112_" class="st45" d="M1958.8,479.2c0,0,1.9,4.2-1.1,4.4s-30.6-9.3-30.6-9.3l-7.3,9.7l-5.4-8.1l10.4-15.4
					l8.6-6.5c0,0,12.7-6.1,16-3.7s13.3,6.4,10.8,9s-13.7-1.8-13.7-1.8l20,8.1c0,0,2.3,3.7-2.3,5l3.6,1.6c0,0,1.7,2.9-1.6,4.3
					l-9.8-3.3"/>
				<path id="XMLID_113_" class="st45" d="M1963.9,476c0,0,1.5,2.8-1.2,3.7c-2.7,0.9-14.9-3.8-14.9-3.8"/>
				<line id="XMLID_111_" class="st46" x1="1955" y1="467.7" x2="1964.2" y2="470.8"/>
			</g>
			<g id="XMLID_187_">
				<path id="XMLID_109_" class="st43" d="M1956.4,473.4l9.8,3.3c3.2-1.3,1.6-4.3,1.6-4.3l-3.6-1.6c4.6-1.3,2.3-5,2.3-5l-20-8.1
					c0,0,11.2,4.4,13.7,1.8s-7.5-6.7-10.8-9c-3.3-2.4-16,3.7-16,3.7l-8.6,6.5"/>
				<path id="XMLID_190_" class="st43" d="M1963.9,476c0,0,1.5,2.8-1.2,3.7c-2.7,0.9-14.9-3.8-14.9-3.8"/>
				<path id="XMLID_189_" class="st43" d="M1958.8,479.2c0,0,1.9,4.2-1.1,4.4s-30.6-9.3-30.6-9.3"/>
				<line id="XMLID_188_" class="st43" x1="1955" y1="467.7" x2="1964.2" y2="470.8"/>
			</g>
		</g>
		<g id="XMLID_176_">
			<path id="XMLID_386_" class="st47" d="M1919.2,481l29.8,36c0.4,0.5,1.2,0.6,1.8,0.2l44.9-37.2c0.5-0.4,0.6-1.2,0.2-1.8l-29.8-36
				c-0.4-0.5-1.2-0.6-1.8-0.2l-44.9,37.2C1918.8,479.7,1918.7,480.5,1919.2,481z"/>
			<g id="XMLID_627_">
				<path id="XMLID_659_" d="M1967.5,442.5l-41.8,33c-1.8,1.4-2.1,4-0.7,5.8l26.9,34c1.4,1.8,4,2.1,5.8,0.7l41.8-33
					c1.8-1.4,2.1-4,0.7-5.8l-4.4-5.5l1.6-1.3c0.4-0.3,0.5-0.9,0.1-1.3l-18-22.8c-0.3-0.4-0.9-0.5-1.3-0.1l-1.6,1.3l-3.4-4.3
					C1971.9,441.4,1969.3,441.1,1967.5,442.5z M1992.7,471.9l-16.9-21.4l2.9-2.3l16.9,21.4L1992.7,471.9z M1968.6,443.9
					c1-0.8,2.5-0.6,3.3,0.4l3.4,4.3l-1.3,1c-0.4,0.3-0.5,0.9-0.1,1.3l18,22.8c0.3,0.4,0.9,0.5,1.3,0.1l1.3-1l4.4,5.5
					c0.8,1,0.6,2.5-0.4,3.3l-41.8,33c-1,0.8-2.5,0.6-3.3-0.4l-26.9-34c-0.8-1-0.6-2.5,0.4-3.3L1968.6,443.9z"/>
				<path id="XMLID_609_" d="M1952.4,464.5c-0.4,0.3-0.5,0.9-0.1,1.3l4.4,5.5c0.3,0.4,0.9,0.5,1.3,0.1c0.4-0.3,0.5-0.9,0.1-1.3
					l-4.4-5.5C1953.4,464.3,1952.8,464.2,1952.4,464.5z"/>
				<path id="XMLID_608_" d="M1959.4,473.3c-0.4,0.3-0.5,0.9-0.1,1.3l10.2,12.9c0.3,0.4,0.9,0.5,1.3,0.1c0.4-0.3,0.5-0.9,0.1-1.3
					l-10.2-12.9C1960.3,473.1,1959.7,473,1959.4,473.3z"/>
				<path id="XMLID_455_" d="M1971.8,489.1c-0.4,0.3-0.5,0.9-0.1,1.3l1.6,2c0.3,0.4,0.9,0.5,1.3,0.1c0.4-0.3,0.5-0.9,0.1-1.3l-1.6-2
					C1972.8,488.9,1972.2,488.8,1971.8,489.1z"/>
				<path id="XMLID_427_" d="M1944.2,471c-0.4,0.3-0.5,0.9-0.1,1.3l12.1,15.4c0.3,0.4,0.9,0.5,1.3,0.1s0.5-0.9,0.1-1.3l-12.1-15.4
					C1945.2,470.8,1944.6,470.7,1944.2,471z"/>
				<path id="XMLID_426_" d="M1959,489.6c-0.4,0.3-0.5,0.9-0.1,1.3l6.3,8c0.3,0.4,0.9,0.5,1.3,0.1s0.5-0.9,0.1-1.3l-6.3-8
					C1959.9,489.4,1959.3,489.3,1959,489.6z"/>
				<path id="XMLID_425_" d="M1936.7,477c-0.4,0.3-0.5,0.9-0.1,1.3l0.5,0.6c0.3,0.4,0.9,0.5,1.3,0.1c0.4-0.3,0.5-0.9,0.1-1.3
					l-0.5-0.6C1937.6,476.7,1937.1,476.7,1936.7,477z"/>
				<path id="XMLID_424_" d="M1939.7,480.9c-0.4,0.3-0.5,0.9-0.1,1.3l1,1.3c0.3,0.4,0.9,0.5,1.3,0.1c0.4-0.3,0.5-0.9,0.1-1.3l-1-1.3
					C1940.7,480.6,1940.1,480.6,1939.7,480.9z"/>
				<path id="XMLID_423_" d="M1943.4,485.5c-0.4,0.3-0.5,0.9-0.1,1.3l14.3,18.1c0.3,0.4,0.9,0.5,1.3,0.1c0.4-0.3,0.5-0.9,0.1-1.3
					l-14.3-18.1C1944.4,485.3,1943.8,485.2,1943.4,485.5z"/>
				<path id="XMLID_632_" d="M1977.1,469.6l-6.3,5c-0.4,0.3-0.5,0.9-0.1,1.3l9.1,11.5c0.3,0.4,0.9,0.5,1.3,0.1l6.3-5
					c0.4-0.3,0.5-0.9,0.1-1.3l-9.1-11.5C1978.1,469.4,1977.5,469.3,1977.1,469.6z M1977.5,471.6l8,10.1l-4.9,3.9l-8-10.1
					L1977.5,471.6z"/>
				<path id="XMLID_420_" d="M1958.9,459.4c-0.4,0.3-0.5,0.9-0.1,1.3l0.4,0.5c0.3,0.4,0.9,0.5,1.3,0.1s0.5-0.9,0.1-1.3l-0.4-0.5
					C1959.8,459.2,1959.2,459.1,1958.9,459.4z"/>
				<path id="XMLID_419_" d="M1961.8,463.2c-0.4,0.3-0.5,0.9-0.1,1.3l4.2,5.4c0.3,0.4,0.9,0.5,1.3,0.1s0.5-0.9,0.1-1.3l-4.2-5.4
					C1962.8,463,1962.2,462.9,1961.8,463.2z"/>
				<path id="XMLID_418_" d="M1965.2,454.5c-0.4,0.3-0.5,0.9-0.1,1.3l4.3,5.4c0.3,0.4,0.9,0.5,1.3,0.1c0.4-0.3,0.5-0.9,0.1-1.3
					l-4.3-5.4C1966.1,454.2,1965.5,454.2,1965.2,454.5z"/>
				<path id="XMLID_385_" d="M1972,463.1c-0.4,0.3-0.5,0.9-0.1,1.3l0.4,0.4c0.3,0.4,0.9,0.5,1.3,0.1c0.4-0.3,0.5-0.9,0.1-1.3
					l-0.4-0.4C1972.9,462.9,1972.4,462.8,1972,463.1z"/>
			</g>
		</g>
		<g id="XMLID_65_">
			<g id="XMLID_279_">
				<path id="XMLID_237_" d="M1944.9,518l17.8-25.3l0,0l0,0c0,0,0-0.1,0.1-0.1c0,0,0,0,0-0.1l0,0l0.6-9.2c0-0.1,0-0.1,0-0.2
					s0-0.2-0.1-0.2c0-0.1-0.1-0.1-0.2-0.2s-0.1-0.1-0.2-0.1l0,0c-0.1,0-0.1,0-0.2,0l0,0c-0.1,0-0.1,0-0.1,0l-8.5,3.6l0,0l0,0
					c-0.1,0-0.1,0.1-0.1,0.1l0,0l0,0l-18,25.4c-1.7,2.5-1.1,5.9,1.3,7.6C1939.8,521.1,1943.2,520.5,1944.9,518z M1959.1,492.7
					l-0.2-3.1c0,0,0,0,0-0.1v-0.1c0,0,0,0,0-0.1v-0.1l-0.1-0.1l-0.1-0.1h-0.1h-0.1h-0.1l0,0h-0.1h-0.1l-3,0.9l-0.2-2.7l6.1-2.6
					l-0.4,0.5c-0.2,0.3-0.1,0.6,0.1,0.8c0.3,0.2,0.7,0.1,0.8-0.1l0.4-0.5l-0.4,6.7L1959.1,492.7z M1947.1,512.9l-6.9-4.9l13.7-19.4
					l0.1,1.9l-11,15.7c-0.2,0.3-0.1,0.6,0.1,0.8c0.3,0.2,0.7,0.1,0.9-0.1l11-15.7l2.8-0.8l0.2,2.9l-11,15.7
					c-0.2,0.3-0.1,0.6,0.1,0.8c0.3,0.2,0.7,0.1,0.9-0.1l11-15.7l1.9-0.5L1947.1,512.9z M1945.7,514.8l-7-4.9l0.7-1l6.9,4.9
					L1945.7,514.8z M1944.3,516.8l-6.9-4.9l0.7-1l6.9,4.9L1944.3,516.8z M1938,518.3c-1.7-1.2-2.3-3.5-1.3-5.4l6.9,4.8
					C1942.1,519.3,1939.8,519.6,1938,518.3z"/>
				<polygon id="XMLID_393_" class="st28" points="1945.7,514.8 1946.4,513.9 1939.4,509 1938.7,510 				"/>
				<polygon id="XMLID_391_" class="st28" points="1944.3,516.8 1945,515.8 1938,510.9 1937.4,512 				"/>
				<path id="XMLID_315_" class="st28" d="M1943.6,517.8l-6.9-4.8c-0.9,1.9-0.4,4.2,1.3,5.4C1939.8,519.6,1942.1,519.3,1943.6,517.8
					z"/>
				<path id="XMLID_273_" class="st28" d="M1947,509.8c-0.3-0.2-0.3-0.6-0.1-0.8l11-15.7l-0.2-2.9l-2.8,0.8l-11,15.7
					c-0.2,0.3-0.6,0.3-0.9,0.1s-0.3-0.6-0.1-0.8l11-15.7l-0.1-1.9l-13.7,19.4l6.9,4.9l13.7-19.4l-1.9,0.5l-11,15.7
					C1947.6,510,1947.3,510,1947,509.8z"/>
				<path id="XMLID_644_" class="st28" d="M1959.1,492.7l2.6-0.8l0.4-6.7l-0.4,0.5c-0.2,0.3-0.6,0.3-0.8,0.1
					c-0.3-0.2-0.3-0.6-0.1-0.8l0.4-0.5l-6.1,2.6l0.2,2.7l3-0.9c0,0,0,0,0.1,0c0,0,0,0,0.1,0l0,0h0.1h0.1h0.1l0.1,0.1
					c0,0,0,0,0.1,0.1v0.1c0,0,0,0,0,0.1v0.1c0,0,0,0,0,0.1L1959.1,492.7z"/>
			</g>
			<g id="XMLID_159_">
				<path id="XMLID_177_" class="st28" d="M1964.5,517.2c0,0-34.3,25.4-40,22.7s0.2-20.2,0.2-20.2l8.1-16.5c0,0,12.4-3.5,12,1.6
					l12.1-6.8C1956.8,498,1966.5,510.1,1964.5,517.2z"/>
				<g id="XMLID_182_">
					<path id="XMLID_186_" class="st19" d="M1923.4,522.6c0,0,6.7-19.7,10.7-20.9c3.9-1.1,13.3-6.4,13.8-2.8
						c0.5,3.6-9.9,9.6-9.9,9.6l18.8-10.6c0,0,4.3,0.5,2.5,4.9l3.5-1.8c0,0,3.3,0.5,2.3,3.9l-8.6,5.6"/>
					<path id="XMLID_108_" class="st19" d="M1962.5,512.3c0,0,4.5,1.2,2.8,3.6c-1.7,2.5-33.8,23.4-33.8,23.4"/>
					<line id="XMLID_183_" class="st43" x1="1951.1" y1="508.1" x2="1959.2" y2="502.8"/>
					<path id="XMLID_185_" class="st43" d="M1963.1,506.3c0,0,3.1,0.5,2.1,3.2s-12.2,9.3-12.2,9.3"/>
				</g>
			</g>
		</g>
		<path id="XMLID_128_" class="st19" d="M1925.2,460.8l-64.9,70.1l-75.1-29.8l-17.6,18.6c0,0,84.9,43.9,101.6,40.3
			s68.3-91.8,68.3-91.8"/>
		<path id="XMLID_97_" class="st17" d="M1663.4,514.9c0,0,94.3-33.8,104.3-34.8s60.8,34.5,60.8,34.5l-37.1,40.7l-16.3-16.9
			l-85.6,54.1L1663.4,514.9z"/>
		<g id="XMLID_104_">
			<g id="XMLID_167_">
				<g id="XMLID_561_">
					<g id="XMLID_565_">
						<path id="XMLID_571_" class="st28" d="M1852.8,436.9l1.1,4.4c0,0.1-0.8,1.4-0.9,1.5l-17,43.3c-1.7,5.9-12.8,12.8-18.8,11.1
							l-8.6-3.5c-10.9-3.5-19-12.6-21.2-23.9l-0.3-1.4l-2.3-11.6v-0.2l3.9-23.5l0,0l2.3-13.9c1.7-5.9,8-9.4,13.9-7.7L1845,423
							c4.9,1.4,8.2,5.9,8.1,10.9C1853.2,434.9,1853.1,435.9,1852.8,436.9z"/>
						<path id="XMLID_568_" class="st48" d="M1852.8,436.9l1.1,4.4c0,0.1-0.8,1.4-0.9,1.5l-17,43.3c-1.7,5.9-12.8,12.8-18.8,11.1
							l-8.6-3.5c-10.9-3.5-19-12.6-21.2-23.9l-0.3-1.4l-2.3-11.6v-0.2l3.9-23.5l0,0l2.3-13.9c1.7-5.9,8-9.4,13.9-7.7L1845,423
							c4.9,1.4,8.2,5.9,8.1,10.9C1853.2,434.9,1853.1,435.9,1852.8,436.9z"/>
					</g>
					<g id="XMLID_562_">
						<path id="XMLID_564_" class="st28" d="M1790.5,438.9l-3-5.8c0,0-7.4-1.2-8.8,8.7c-1.4,9.9,7.1,17.1,7.1,17.1L1790.5,438.9z"/>
						<path id="XMLID_563_" class="st48" d="M1790.5,438.9l-3-5.8c0,0-7.4-1.2-8.8,8.7c-1.4,9.9,7.1,17.1,7.1,17.1L1790.5,438.9z"/>
					</g>
				</g>
			</g>
			<g id="XMLID_162_">
				<g id="XMLID_520_">
					<line id="XMLID_522_" class="st18" x1="1813.7" y1="439.8" x2="1825.2" y2="444.7"/>
					<line id="XMLID_521_" class="st18" x1="1834.7" y1="448.8" x2="1846.2" y2="453.7"/>
				</g>
			</g>
			<path id="XMLID_158_" class="st25" d="M1826.8,459.5l-0.8,9.7c-0.1,1.4-1.6,2.4-2.9,1.9l-4.1-1.5"/>
			<g id="XMLID_148_">
				<path id="XMLID_157_" class="st26" d="M1817.4,457.9l-5.9-2.8c-0.8-0.4-1.1-1.3-0.7-2.1l2.9-6.3c0.4-0.8,1.3-1.1,2.1-0.7
					l5.9,2.8c0.8,0.4,1.1,1.3,0.7,2.1l-2.9,6.3C1819.1,457.9,1818.2,458.2,1817.4,457.9z"/>
				<path id="XMLID_156_" class="st27" d="M1818.2,456.3l-2.8-1.3c-0.8-0.4-1.1-1.3-0.7-2.1l1.3-2.8c0.4-0.8,1.3-1.1,2.1-0.7
					l2.8,1.3c0.8,0.4,1.1,1.3,0.7,2.1l-1.3,2.8C1819.9,456.3,1819,456.7,1818.2,456.3z"/>
				<path id="XMLID_150_" d="M1818.2,456.3l-2.8-1.3c-0.8-0.4-1.1-1.3-0.7-2.1l1.3-2.8c0.4-0.8,1.3-1.1,2.1-0.7l2.8,1.3
					c0.8,0.4,1.1,1.3,0.7,2.1l-1.3,2.8C1819.9,456.3,1819,456.7,1818.2,456.3z"/>
				<circle id="XMLID_149_" class="st26" cx="1819.4" cy="454.1" r="1.2"/>
			</g>
			<g id="XMLID_135_">
				<path id="XMLID_147_" class="st26" d="M1837.8,467l-5.9-2.8c-0.8-0.4-1.1-1.3-0.7-2.1l2.9-6.3c0.4-0.8,1.3-1.1,2.1-0.7l5.9,2.8
					c0.8,0.4,1.1,1.3,0.7,2.1l-2.9,6.3C1839.5,467,1838.6,467.3,1837.8,467z"/>
				<path id="XMLID_145_" class="st27" d="M1838.6,465.4l-2.8-1.3c-0.8-0.4-1.1-1.3-0.7-2.1l1.3-2.8c0.4-0.8,1.3-1.1,2.1-0.7
					l2.8,1.3c0.8,0.4,1.1,1.3,0.7,2.1l-1.3,2.8C1840.3,465.4,1839.4,465.7,1838.6,465.4z"/>
				<path id="XMLID_143_" d="M1838.6,465.4l-2.8-1.3c-0.8-0.4-1.1-1.3-0.7-2.1l1.3-2.8c0.4-0.8,1.3-1.1,2.1-0.7l2.8,1.3
					c0.8,0.4,1.1,1.3,0.7,2.1l-1.3,2.8C1840.3,465.4,1839.4,465.7,1838.6,465.4z"/>
				<circle id="XMLID_137_" class="st26" cx="1839.8" cy="463.1" r="1.2"/>
			</g>
			<path id="XMLID_31_" class="st36" d="M1806.7,423.7c3.5,4.6,38.4,18.7,40.9,19.1c1.8,0.3,4.3,0.4,6.9-1.2
				c5-3.2,8.3-10.2,10.2-15.7c2.7-7.8,1.7-16.7-2-24.2c-1.5-3.1-3.6-6-6.7-7.5c-3.1-1.4-7.4-0.8-9.1,2.2c-0.3-6.1-8.2-10.5-13.6-7.5
				c-0.2,1.4-0.4,2.8-0.6,4.2c-1.1-6-8-10.4-14.1-8.8c-0.2,2.3-0.4,4.7-0.7,7c-3.3-3.7-8.6-5.5-13.6-4.6c-0.7,2.3-0.9,4.7-0.7,7
				c-4.5-2.9-10.9-2.6-15.1,0.8s-4.5,9-6.6,13.8c0.1,0,0.1-0.1,0.1-0.1"/>
			<path id="XMLID_54_" class="st36" d="M1782.5,407.1c-0.4,1-1.1,1.8-1.6,2.7c-3.8,8.6-4.9,12.8-3.2,20.8c1.1,5-0.5,8.2-0.1,10.4
				c0.1-0.2,0.1-0.3,0.2-0.5c3.8-8.9,9.7-7.1,11.9-1.5c2.3,5.6,3.6,10.1,3.6,10.1l2.6,1.7c0,0,1.1-17.9,5.2-18.2
				c4.1-0.2,6.1,1.3,7-1c0.6-1.5-1.4-4.9-1-7.3l-0.4-1.1"/>
			<g id="XMLID_116_">
				<g id="XMLID_119_">
					<g>
						<path id="XMLID_400_" class="st28" d="M1829.8,479c0,0-0.1,1.4-0.8,3c-0.7,1.4-1.9,2.9-3.9,3.6c-1.8,0.6-4.3,0.6-7.7-0.8
							c-4.8-2-6.2-4.7-6.3-7.2c0-1.3,0.3-2.5,0.7-3.5c0.7-1.6,1.6-2.7,1.6-2.7C1819.8,474.8,1823.1,476.3,1829.8,479z"/>
					</g>
					<g>
						<g>
							<defs>
								<path id="SVGID_5_" d="M1829.8,479c0,0-0.1,1.4-0.8,3c-0.7,1.4-1.9,2.9-3.9,3.6c-1.8,0.6-4.3,0.6-7.7-0.8
									c-4.8-2-6.2-4.7-6.3-7.2c0-1.3,0.3-2.5,0.7-3.5c0.7-1.6,1.6-2.7,1.6-2.7C1819.8,474.8,1823.1,476.3,1829.8,479z"/>
							</defs>
							<clipPath id="SVGID_6_">
								<use xlink:href="#SVGID_5_"  style="overflow:visible;"/>
							</clipPath>
							<path id="XMLID_122_" class="st49" d="M1813.4,470.5c0,0-0.3,2.5-0.2,3.1c0.1,0.6,13.8,7.7,14.5,7.2c0.8-0.5,3-2.3,3-2.3
								L1813.4,470.5z"/>
						</g>
					</g>
					<g>
						<path id="XMLID_26_" class="st18" d="M1829.8,479c0,0-0.1,1.4-0.8,3c-0.7,1.4-1.9,2.9-3.9,3.6c-1.8,0.6-4.3,0.6-7.7-0.8
							c-4.8-2-6.2-4.7-6.3-7.2c0-1.3,0.3-2.5,0.7-3.5c0.7-1.6,1.6-2.7,1.6-2.7C1819.8,474.8,1823.1,476.3,1829.8,479z"/>
					</g>
				</g>
			</g>
		</g>
		<polyline id="XMLID_106_" class="st23" points="1805.4,537.9 1774.2,515.4 1691.7,591.8 		"/>
	</g>
	<path id="XMLID_27_" class="st1" d="M1796.7,452.1c0,0-3,14.5-3,17.9s18.8,32.6,36.2,22.3c0,0-6.6,4.8-11.6,4.2
		c-5-0.7-16.6-6.5-19.9-9.5s-12.6-15.9-12-27.6l4.2-15.9l2,6.5L1796.7,452.1z"/>
</g>
<g>
	<polyline class="st50" points="1208.9,-119.8 1259.5,-66.1 1215.4,-8.3 	"/>
	<polyline class="st50" points="1171.3,-119.8 1221.9,-66.1 1177.8,-8.3 	"/>
</g>
<g>
	<path id="XMLID_154_" class="st51" d="M3081.8,179.4c47.9-35.8,90.8-100.8,154.1-112.9c153.3-29.3,172.3,142.5,207.7,233.7
		c16.5,42.6,3.1,89.1,10.6,133.2c4.5,26.3,26.1,54,49.3,71.8c20.1,15.4,48.8,24.6,74.1,12.4c32.6-15.7,18.8-59.4,0.8-80.1
		c-32.3-37.1-95.8-14.4-120.1,16.8c-35.4,45.4-41.7,99.2-54.2,150.7c-14.7,60.7-29.7,121.2-53.4,180
		c-55.3,136.7-198.5,159.3-390.5,156.5c0,0-550.7-62.1-476.2,141"/>
	<g>
		<polyline class="st52" points="2537.4,1037.4 2483.7,1088 2425.8,1043.9 		"/>
		<polyline class="st52" points="2537.4,999.8 2483.7,1050.4 2425.8,1006.3 		"/>
	</g>
</g>
</svg>
