<?xml version="1.0" encoding="utf-8"?>
<!-- Generator: Adobe Illustrator 21.1.0, SVG Export Plug-In . SVG Version: 6.00 Build 0)  -->
<svg version="1.1" xmlns="http://www.w3.org/2000/svg" xmlns:xlink="http://www.w3.org/1999/xlink" x="0px" y="0px"
	 viewBox="0 0 947 424" style="enable-background:new 0 0 947 424;" xml:space="preserve">
<style type="text/css">
	.st0{opacity:0.45;}
	.st1{fill:#FFFFFF;}
	.st2{fill:#3E9DFF;}
	.st3{fill:#FFCD7A;}
	.st4{fill:#C7E3EF;}
	.st5{fill:#2A74D4;}
	.st6{fill:#2089F7;}
	.st7{fill:#FFA0BD;}
	.st8{opacity:0.5;fill:#F182A6;}
	.st9{fill:#284D99;}
	.st10{fill:#F182A6;}
	.st11{fill:#213F84;}
	.st12{fill:#193670;}
	.st13{opacity:0.5;}
	.st14{fill:#DDF3FF;}
	.st15{fill:#B6DCFF;}
	.st16{fill:#D9F3FF;}
	.st17{fill:#B9DDEA;}
</style>
<g id="Layer_1">
</g>
<g id="Layer_2">
	<g class="st0">
		
			<image style="overflow:visible;" width="1313" height="1312" xlink:href="AFC61532.png"  transform="matrix(0.24 0 0 0.24 68.76 114.52)">
		</image>
	</g>
	<g class="st0">
		
			<image style="overflow:visible;" width="541" height="539" xlink:href="AFC61536.png"  transform="matrix(0.24 0 0 0.24 692.52 148.12)">
		</image>
	</g>
	<g>
		
			<rect x="180.6" y="222.3" transform="matrix(0.1958 -0.9807 0.9807 0.1958 -82.4273 452.2285)" class="st1" width="107.7" height="108.2"/>
		
			<rect x="235.1" y="229.8" transform="matrix(0.9807 0.1958 -0.1958 0.9807 50.0915 -43.6158)" class="st2" width="21.1" height="3.7"/>
		
			<rect x="194.3" y="188.9" transform="matrix(0.9807 0.1958 -0.1958 0.9807 45.2738 -44.6279)" class="st2" width="108.3" height="35.6"/>
		
			<rect x="169" y="329.1" transform="matrix(0.9807 0.1958 -0.1958 0.9807 69.6334 -37.2109)" class="st2" width="108.2" height="9.1"/>
		<path d="M180.6,319.3"/>
		<path d="M181,318.2"/>
		<g>
			<path class="st3" d="M231.2,231.8l0.3-1.7l1.4,0.3l-0.3,1.3c-0.1,0.6-0.2,1.1-0.4,1.3c-0.3,0.3-0.6,0.6-1.1,0.7l-0.2-0.6
				c0.3-0.1,0.5-0.1,0.7-0.3c0.2-0.2,0.3-0.3,0.4-0.8L231.2,231.8z M229,231.3l0.3-1.7l1.5,0.3l-0.3,1.3c-0.1,0.6-0.2,1.1-0.5,1.3
				c-0.3,0.3-0.6,0.6-1.1,0.7l-0.2-0.6c0.3-0.1,0.5-0.1,0.7-0.3c0.2-0.2,0.3-0.3,0.4-0.8L229,231.3z"/>
		</g>
		<g>
			<g>
				
					<rect x="182.7" y="278.1" transform="matrix(0.1958 -0.9807 0.9807 0.1958 -95.0692 440.5513)" class="st4" width="76.6" height="0.3"/>
			</g>
		</g>
		
			<rect x="230.1" y="290.3" transform="matrix(0.9807 0.1958 -0.1958 0.9807 61.8048 -41.4672)" class="st2" width="21.1" height="3.1"/>
		
			<rect x="237.4" y="253.8" transform="matrix(0.9807 0.1958 -0.1958 0.9807 54.7963 -43.6012)" class="st2" width="21.1" height="3.1"/>
		<path class="st4" d="M239,269.6c0.1-0.5-0.2-1-0.7-1.1l1.6-8.2c0.5,0.1,1-0.2,1.1-0.7c0.1-0.5-0.2-1-0.7-1.1
			c-0.5-0.1-1,0.2-1.1,0.7c-0.1,0.4,0.1,0.8,0.4,1l-1.7,8.3c-0.4,0.1-0.7,0.3-0.7,0.7c-0.1,0.4,0.1,0.8,0.4,1l-1.6,7.9
			c-0.4,0.1-0.7,0.3-0.7,0.7s0.1,0.8,0.4,1l-1.1,5.7l0.3,0.1l1.1-5.6c0.5,0.1,1-0.2,1.1-0.7c0.1-0.5-0.2-1-0.7-1.1l1.6-7.8
			C238.5,270.4,238.9,270.1,239,269.6z M239.6,259.3c0.1-0.3,0.4-0.5,0.7-0.4c0.3,0.1,0.5,0.4,0.4,0.7c-0.1,0.3-0.4,0.5-0.7,0.4
			C239.7,259.9,239.5,259.6,239.6,259.3z M237.6,269.3c0.1-0.3,0.4-0.5,0.7-0.4c0.3,0.1,0.5,0.4,0.4,0.7c-0.1,0.3-0.4,0.5-0.7,0.4
			C237.7,269.9,237.5,269.6,237.6,269.3z M236.8,279.1c-0.1,0.3-0.4,0.5-0.7,0.4c-0.3-0.1-0.5-0.4-0.4-0.7c0.1-0.3,0.4-0.5,0.7-0.4
			S236.8,278.8,236.8,279.1z"/>
		
			<rect x="201.2" y="230.9" transform="matrix(0.9807 0.1958 -0.1958 0.9807 49.6642 -36.9436)" class="st5" width="21.1" height="3.7"/>
		
			<rect x="194.5" y="240.2" transform="matrix(0.9807 0.1958 -0.1958 0.9807 51.1697 -35.9883)" class="st4" width="26.3" height="1.4"/>
		
			<rect x="234.2" y="238.5" transform="matrix(0.9807 0.1958 -0.1958 0.9807 51.8864 -46.6276)" class="st4" width="55.3" height="1.4"/>
		
			<rect x="233.4" y="242.2" transform="matrix(0.9807 0.1958 -0.1958 0.9807 52.5972 -46.4112)" class="st4" width="55.3" height="1.4"/>
		
			<rect x="232.9" y="243.2" transform="matrix(0.9807 0.1958 -0.1958 0.9807 52.5154 -43.4478)" class="st4" width="26.3" height="1.4"/>
		
			<rect x="229.9" y="257.4" transform="matrix(0.9807 0.1958 -0.1958 0.9807 55.046 -40.7335)" class="st4" width="7.3" height="1.4"/>
		
			<rect x="243.2" y="260.1" transform="matrix(0.9807 0.1958 -0.1958 0.9807 55.8239 -43.2883)" class="st3" width="7.3" height="1.4"/>
		
			<rect x="242.2" y="266.9" transform="matrix(0.9807 0.1958 -0.1958 0.9807 57.4761 -46.3614)" class="st4" width="42.1" height="1.4"/>
		
			<rect x="241.3" y="269.7" transform="matrix(0.9807 0.1958 -0.1958 0.9807 57.6802 -42.7231)" class="st3" width="7.3" height="1.4"/>
		
			<rect x="240.3" y="276.6" transform="matrix(0.9807 0.1958 -0.1958 0.9807 59.3324 -45.7962)" class="st4" width="42.1" height="1.4"/>
		
			<rect x="239.4" y="279.4" transform="matrix(0.9807 0.1958 -0.1958 0.9807 59.5398 -42.1569)" class="st3" width="7.3" height="1.4"/>
		
			<rect x="238.3" y="286.2" transform="matrix(0.9807 0.1958 -0.1958 0.9807 61.192 -45.2299)" class="st4" width="42.1" height="1.4"/>
		
			<rect x="228" y="267.1" transform="matrix(0.9807 0.1958 -0.1958 0.9807 56.9023 -40.1683)" class="st4" width="7.3" height="1.4"/>
		<rect x="226" y="277" transform="matrix(0.9807 0.1958 -0.1958 0.9807 58.806 -39.5886)" class="st4" width="7.3" height="1.4"/>
		<path class="st4" d="M231.7,306.3c0.1-0.5-0.2-1-0.7-1.1l1.6-8.2c0.5,0.1,1-0.2,1.1-0.7c0.1-0.5-0.2-1-0.7-1.1
			c-0.5-0.1-1,0.2-1.1,0.7c-0.1,0.4,0.1,0.8,0.4,1l-1.7,8.3c-0.4,0.1-0.7,0.3-0.7,0.7c-0.1,0.4,0.1,0.8,0.4,1l-1.6,7.9
			c-0.4,0.1-0.7,0.3-0.7,0.7c-0.1,0.4,0.1,0.8,0.4,1l-1.1,5.7l0.3,0.1l1.1-5.6c0.5,0.1,1-0.2,1.1-0.7c0.1-0.5-0.2-1-0.7-1.1l1.6-7.8
			C231.1,307.1,231.6,306.8,231.7,306.3z M232.2,296c0.1-0.3,0.4-0.5,0.7-0.4c0.3,0.1,0.5,0.4,0.4,0.7s-0.4,0.5-0.7,0.4
			C232.4,296.6,232.2,296.3,232.2,296z M230.3,306c0.1-0.3,0.4-0.5,0.7-0.4c0.3,0.1,0.5,0.4,0.4,0.7c-0.1,0.3-0.4,0.5-0.7,0.4
			C230.4,306.6,230.2,306.3,230.3,306z M229.4,315.8c-0.1,0.3-0.4,0.5-0.7,0.4c-0.3-0.1-0.5-0.4-0.4-0.7c0.1-0.3,0.4-0.5,0.7-0.4
			C229.3,315.2,229.5,315.5,229.4,315.8z"/>
		
			<rect x="222.6" y="294.1" transform="matrix(0.9807 0.1958 -0.1958 0.9807 62.0912 -38.5883)" class="st4" width="7.3" height="1.4"/>
		
			<rect x="235.9" y="296.8" transform="matrix(0.9807 0.1958 -0.1958 0.9807 62.8691 -41.1431)" class="st3" width="7.3" height="1.4"/>
		
			<rect x="234.9" y="303.6" transform="matrix(0.9807 0.1958 -0.1958 0.9807 64.5213 -44.2162)" class="st4" width="42.1" height="1.4"/>
		
			<rect x="234" y="306.4" transform="matrix(0.9807 0.1958 -0.1958 0.9807 64.7254 -40.5779)" class="st3" width="7.3" height="1.4"/>
		
			<rect x="232.9" y="313.3" transform="matrix(0.9807 0.1958 -0.1958 0.9807 66.3776 -43.651)" class="st4" width="42.1" height="1.4"/>
		
			<rect x="232" y="316.1" transform="matrix(0.9807 0.1958 -0.1958 0.9807 66.585 -40.0117)" class="st3" width="7.3" height="1.4"/>
		
			<rect x="231" y="323" transform="matrix(0.9807 0.1958 -0.1958 0.9807 68.2373 -43.0848)" class="st4" width="42.1" height="1.4"/>
		
			<rect x="220.6" y="303.8" transform="matrix(0.9807 0.1958 -0.1958 0.9807 63.9475 -38.0231)" class="st4" width="7.3" height="1.4"/>
		
			<rect x="218.7" y="313.7" transform="matrix(0.9807 0.1958 -0.1958 0.9807 65.8512 -37.4435)" class="st4" width="7.3" height="1.4"/>
		
			<rect x="193.3" y="245.7" transform="matrix(0.9807 0.1958 -0.1958 0.9807 52.152 -34.9165)" class="st4" width="18.7" height="1.4"/>
		
			<rect x="191.9" y="252.8" transform="matrix(0.9807 0.1958 -0.1958 0.9807 53.5192 -34.5002)" class="st4" width="18.7" height="1.4"/>
		
			<rect x="190.6" y="259.7" transform="matrix(0.9807 0.1958 -0.1958 0.9807 54.9252 -34.8296)" class="st4" width="26.1" height="1.4"/>
		
			<rect x="187" y="277.3" transform="matrix(0.9807 0.1958 -0.1958 0.9807 58.1999 -32.8443)" class="st4" width="16.5" height="1.4"/>
		
			<rect x="185.7" y="283.8" transform="matrix(0.9807 0.1958 -0.1958 0.9807 59.4253 -32.2771)" class="st4" width="14.6" height="1.4"/>
		
			<rect x="185" y="287" transform="matrix(0.9807 0.1958 -0.1958 0.9807 60.0474 -32.0876)" class="st4" width="14.6" height="1.4"/>
		
			<rect x="184.4" y="290.3" transform="matrix(0.9807 0.1958 -0.1958 0.9807 60.6909 -31.9686)" class="st4" width="15.4" height="1.4"/>
		
			<rect x="181.1" y="306.6" transform="matrix(0.9807 0.1958 -0.1958 0.9807 63.7915 -30.7489)" class="st4" width="12.7" height="1.4"/>
		
			<rect x="179.8" y="313.2" transform="matrix(0.9807 0.1958 -0.1958 0.9807 65.0528 -30.3649)" class="st4" width="12.7" height="1.4"/>
		<rect x="198" y="310" transform="matrix(0.9807 0.1958 -0.1958 0.9807 64.781 -33.9988)" class="st4" width="12.7" height="1.4"/>
		
			<rect x="196.7" y="316.6" transform="matrix(0.9807 0.1958 -0.1958 0.9807 66.0423 -33.6148)" class="st4" width="12.7" height="1.4"/>
		
			<rect x="186.3" y="281" transform="matrix(0.9807 0.1958 -0.1958 0.9807 58.9384 -32.9857)" class="st4" width="20.1" height="1.4"/>
		
			<rect x="187.5" y="299.4" transform="matrix(0.9807 0.1958 -0.1958 0.9807 62.7551 -32.9577)" class="st5" width="21.1" height="3.1"/>
		
			<rect x="193.5" y="269.7" transform="matrix(0.9807 0.1958 -0.1958 0.9807 57.0622 -34.6911)" class="st5" width="21.1" height="3.3"/>
		<g>
			<path class="st1" d="M232.4,203.9c-0.7,3.6-2.7,6.6-5.4,8.7c-0.1,0.1-0.3,0.2-0.4,0.3l-21.2-4.2c-0.1-0.2-0.3-0.4-0.4-0.7
				c-1.6-2.9-2.2-6.4-1.5-9.9c1.6-8,9.3-13.2,17.3-11.6C228.8,188.1,234,195.9,232.4,203.9z"/>
			<path class="st6" d="M227,212.6c-3.3,2.5-7.6,3.7-11.9,2.8c-4.4-0.9-8-3.7-10-7.4c3.8-1,7.5-0.7,7.5-0.7l5.4,1.1
				c0,0,4.8,0,8.4,3.4C226.6,212,226.8,212.3,227,212.6z"/>
			<path class="st7" d="M220.7,209.3c0,0-1.1,3.3-4.8,2.5c-3.7-0.8-3.6-3.5-3.6-3.5l1.1-3.8l0.4-1.2l7,1.1l-0.1,4.1L220.7,209.3z"/>
			<path class="st8" d="M220.7,208.4c-4.6,0.1-6.6-2.7-7.3-3.9l0.4-1.2l7,1.1L220.7,208.4z"/>
			<path class="st9" d="M212.2,199c0,0-1.3-1.4-0.5-3.8c1-3,3-2.4,3-2.4s4-4.6,9.2-2.4c5.2,2.1,0.8,5.5,0.8,5.5s1.7,0.7,1.3,2.5
				c-0.4,1.7-3,2.7-3,2.7l-3,2l-3.5-1.2l-3.4-1L212.2,199z"/>
			<path class="st7" d="M213.5,201.5c0,0,0.1,4.4,3.4,5.4c0,0,3,0.4,4.3-3.7c0,0,1.4,0.5,1.7-1.3c0.3-1.7-1.4-0.8-1.4-0.8
				s-0.2-1.1,0-2.1c0,0-4.2-0.5-5.4-3.8l-0.7,0.4c0,0-0.3,3.9-2,4.6c0,0,0.3-1.3-0.4-1.6c-0.6-0.3-1.6,1.1-1,2.3
				C212.7,202.2,213.5,201.5,213.5,201.5z"/>
		</g>
		
			<rect x="234" y="215.5" transform="matrix(0.9807 0.1958 -0.1958 0.9807 47.8601 -47.4595)" class="st6" width="59.9" height="5.8"/>
		<g>
			<path class="st1" d="M241.7,196.4l0.7,5l2.6-4.3l1.7,0.3l-1.3,6.4l-1.3-0.3l0.3-1.8l0.7-3l-2.7,4.4l-0.9-0.2l-0.8-5.1l-0.5,3
				l-0.3,1.8l-1.3-0.3l1.3-6.4L241.7,196.4z"/>
			<path class="st1" d="M249.9,201l1.9-2.6l1.4,0.3l-2.9,3.7l-0.5,2.3l-1.3-0.3l0.5-2.3l-1.3-4.5l1.4,0.3L249.9,201z"/>
			<path class="st1" d="M261,205l1.8-4.4l1.3,0.3l-2.7,6.1l-1.3-0.3l-0.2-4.5l-1.9,4.1l-1.3-0.3l-0.1-6.7l1.3,0.3l0,4.7l2-4.3
				l1.1,0.2L261,205z"/>
			<path class="st1" d="M269.9,205.5c-0.1,0.6-0.3,1.2-0.7,1.6c-0.3,0.4-0.7,0.7-1.2,0.9c-0.5,0.2-1,0.2-1.5,0.1
				c-0.5-0.1-1-0.3-1.3-0.7c-0.4-0.3-0.6-0.8-0.7-1.3s-0.1-1.1,0-1.7l0.1-0.3c0.1-0.6,0.4-1.2,0.7-1.6c0.3-0.4,0.7-0.7,1.2-0.9
				c0.5-0.2,1-0.2,1.5-0.1c0.5,0.1,1,0.3,1.3,0.7c0.4,0.3,0.6,0.8,0.7,1.3c0.1,0.5,0.1,1.1,0,1.7L269.9,205.5z M268.6,204.9
				c0.1-0.7,0.1-1.2-0.1-1.6c-0.2-0.4-0.5-0.6-0.9-0.7c-0.4-0.1-0.8,0-1.1,0.3c-0.3,0.3-0.5,0.8-0.7,1.4l-0.1,0.3
				c-0.1,0.7-0.1,1.2,0.1,1.6c0.2,0.4,0.5,0.7,0.9,0.7c0.4,0.1,0.8,0,1.1-0.3c0.3-0.3,0.5-0.8,0.7-1.4L268.6,204.9z"/>
			<path class="st1" d="M273.5,207l-1.1-0.2l-0.5,2.3l-1.3-0.3l1.3-6.4l2.4,0.5c0.8,0.2,1.3,0.4,1.7,0.9c0.3,0.4,0.5,0.9,0.3,1.6
				c-0.1,0.4-0.3,0.8-0.5,1c-0.2,0.3-0.6,0.4-1,0.5l0.9,2.9l0,0.1l-1.4-0.3L273.5,207z M272.7,205.7l1.1,0.2c0.3,0.1,0.6,0,0.8-0.1
				c0.2-0.1,0.4-0.3,0.4-0.6c0.1-0.3,0-0.6-0.1-0.8c-0.1-0.2-0.4-0.3-0.7-0.4l-1.1-0.2L272.7,205.7z"/>
			<path class="st1" d="M279.4,207.9l-0.8,0.6l-0.4,1.8l-1.3-0.3l1.3-6.4l1.3,0.3l-0.6,2.9l0.7-0.7l2.1-1.8l1.6,0.3l-2.8,2.4l1.6,4
				l-1.6-0.3L279.4,207.9z"/>
			<path class="st1" d="M241,211.3l-2.5-0.5l-0.3,1.7l3,0.6l-0.2,1.1l-4.3-0.9l1.3-6.4l4.3,0.9l-0.2,1.1l-3-0.6l-0.3,1.5l2.5,0.5
				L241,211.3z"/>
			<path class="st1" d="M245.2,210.6l1.6-2l1.5,0.3l-2.5,2.8l1.3,3.6l-1.5-0.3l-0.8-2.5l-1.7,2l-1.5-0.3l2.6-2.8l-1.2-3.5l1.5,0.3
				L245.2,210.6z"/>
			<path class="st1" d="M250,213.6l-0.5,2.3l-1.3-0.3l1.3-6.4l2.5,0.5c0.5,0.1,0.9,0.3,1.2,0.5c0.3,0.2,0.6,0.6,0.7,0.9
				c0.1,0.4,0.2,0.8,0.1,1.2c-0.1,0.6-0.4,1.1-0.9,1.4c-0.5,0.3-1.1,0.3-1.9,0.2L250,213.6z M250.2,212.6l1.2,0.2
				c0.3,0.1,0.6,0,0.8-0.1c0.2-0.1,0.4-0.3,0.4-0.6c0.1-0.3,0-0.6-0.1-0.8s-0.4-0.4-0.7-0.5l-1.2-0.2L250.2,212.6z"/>
			<path class="st1" d="M258.9,214.9l-2.5-0.5l-0.3,1.7l3,0.6l-0.2,1.1l-4.3-0.9l1.3-6.4l4.3,0.9l-0.2,1.1l-3-0.6l-0.3,1.5l2.5,0.5
				L258.9,214.9z"/>
			<path class="st1" d="M262.9,216.1l-1.1-0.2l-0.5,2.3L260,218l1.3-6.4l2.4,0.5c0.8,0.2,1.3,0.4,1.7,0.9c0.3,0.4,0.5,0.9,0.3,1.6
				c-0.1,0.4-0.3,0.8-0.5,1c-0.2,0.3-0.6,0.4-1,0.5l0.9,2.9l0,0.1l-1.4-0.3L262.9,216.1z M262.1,214.8l1.1,0.2
				c0.3,0.1,0.6,0,0.8-0.1s0.4-0.3,0.4-0.6c0.1-0.3,0-0.6-0.1-0.8c-0.1-0.2-0.4-0.3-0.7-0.4l-1.1-0.2L262.1,214.8z"/>
			<path class="st1" d="M267.7,219.5l-1.3-0.3l1.3-6.4l1.3,0.3L267.7,219.5z"/>
			<path class="st1" d="M273.7,217.8l-2.5-0.5l-0.3,1.7l3,0.6l-0.2,1.1l-4.3-0.9l1.3-6.4l4.3,0.9l-0.2,1.1l-3-0.6l-0.3,1.5l2.5,0.5
				L273.7,217.8z"/>
			<path class="st1" d="M280.1,222l-1.3-0.3L277,217l-0.8,4.2l-1.3-0.3l1.3-6.4l1.3,0.3l1.7,4.7l0.8-4.2l1.3,0.3L280.1,222z"/>
			<path class="st1" d="M287.1,221.2c-0.2,0.7-0.6,1.2-1.1,1.5s-1.2,0.4-1.9,0.2c-0.8-0.2-1.4-0.6-1.8-1.2c-0.4-0.6-0.4-1.5-0.3-2.4
				l0.1-0.4c0.1-0.6,0.3-1.1,0.7-1.6c0.3-0.4,0.7-0.7,1.1-0.9c0.5-0.2,0.9-0.2,1.5-0.1c0.7,0.1,1.3,0.5,1.7,1
				c0.4,0.5,0.5,1.1,0.5,1.8l-1.3-0.3c0.1-0.4,0-0.7-0.2-1c-0.2-0.2-0.4-0.4-0.8-0.5c-0.4-0.1-0.8,0-1.1,0.3
				c-0.3,0.3-0.5,0.7-0.6,1.4l-0.1,0.5c-0.1,0.7-0.1,1.2,0,1.6c0.1,0.4,0.4,0.6,0.9,0.7c0.4,0.1,0.7,0,1-0.1
				c0.2-0.1,0.4-0.4,0.5-0.8L287.1,221.2z"/>
			<path class="st1" d="M292.4,221.5l-2.5-0.5l-0.3,1.7l3,0.6l-0.2,1.1l-4.3-0.9l1.3-6.4l4.3,0.9l-0.2,1.1l-3-0.6l-0.3,1.5l2.5,0.5
				L292.4,221.5z"/>
		</g>
	</g>
	<path class="st7" d="M193.5,248.8c0,0-5.6,2.7-9.5,4.4c0,0-0.1,0.1-0.1,0.1l0.1,0l-2.6,13.6l-9.2,45.2c-3.6,0-6.5-0.3-9.2-0.7
		c-10.3-1.8-18.8-4.1-25-5.1c-1.3-0.2-2.5-0.4-3.6-0.5c-0.3,0-0.6,0-0.9-0.1c-0.6,0-1.9,0-3.7,0c-12,0.1-46.7,1-46.7,1l-1-42
		l41.8,0.5l5.2,0.1l3-0.2l8.5-0.4c0,0,9.4-8.2,15.8-15.8c6.4-7.7,6.7-8,14.8-10.9c6.9-2.4,13.3-5,17.1-6.4c0.7-0.3,1.4-0.5,1.9-0.7
		c3.3-1.1,4,0.4,11,3.8c7,3.4,13.2,4.6,16.6,5.3C221.1,240.7,215.7,255.4,193.5,248.8z"/>
	<path class="st1" d="M140.5,264.7c2.7-2.7,5.4-5.3,8-8.1c2.6-2.7,5.1-5.6,7.5-8.5c1.2-1.5,2.4-3,3.6-4.4c1.3-1.4,2.8-2.9,4.5-3.9
		c1.8-1,3.6-1.6,5.4-2.3l5.3-1.9c3.6-1.3,7.1-2.7,10.6-4l2.7-1c0.9-0.3,1.8-0.7,2.9-0.9c1.1-0.2,2.3,0,3.3,0.4
		c1,0.4,1.8,0.9,2.6,1.4c3.3,1.9,6.6,3.6,10.1,5c3.5,1.4,7.1,2.4,10.8,3.4c-3.8-0.6-7.5-1.4-11.1-2.5c-3.6-1.2-7.2-2.8-10.5-4.6
		c-0.8-0.4-1.7-0.9-2.5-1.2c-0.8-0.3-1.5-0.4-2.3-0.2c-0.8,0.2-1.7,0.5-2.6,0.9l-2.6,1c-3.5,1.4-7.1,2.8-10.6,4.1l-5.4,1.9
		c-1.8,0.6-3.5,1.3-5.1,2.1c-1.6,0.8-2.9,2-4.2,3.4c-1.3,1.4-2.5,2.8-3.7,4.2C152.1,254.8,146.4,259.9,140.5,264.7z"/>
	<path class="st7" d="M840.1,266.7v40.1h-59.9c-25.9,0.6-39.7-8.2-41.3-8.8c0,0,0,0-0.1,0c0,0,0,0,0,0c-1.7-0.5-3.1-1.3-4.2-2.3
		c-0.8-0.7-1.4-1.6-1.8-2.6c-0.9-2.1-0.7-4-0.2-5.5c0.5-1.7,1.4-2.8,1.4-2.8c-5.5-3.4-5.2-8-4.3-10.9c0.5-1.6,1.2-2.6,1.2-2.6
		s-3.7-2.2-4.3-8.6c-0.2-2.4,0.4-4.2,1.2-5.5c1.4-2.1,3.4-2.8,3.4-2.8c-2.8-2.1-4.5-5.1-5.1-8.1c-1-4.9,0.8-9.7,5.1-10.7
		c2.1-0.5,4.6-0.7,7.1-0.9h17.1c-1.7-3.2-2-6.4-2-6.4s-3.2-2.1-7.7-13.6c-4.9-12.5,3.4-20.4,7.9-22.8c0.1,0,0.1,0,0.2-0.1
		c2.9-1.3,6,0.9,6,4.1c0,6,3,14.7,5.3,19.5c2.3,4.9,13.7,16,17.1,19.3h0.1c2.7,2.4,5.2,5.5,7.3,9.8c4.1,8.4,9,13.8,13.2,17.1
		c0.6,0.5,1.2,0.9,1.8,1.3c0.8,0.6,1.7,1.1,2.4,1.5c0,0,0,0,0,0c0.2,0.1,0.4,0.2,0.6,0.3c0.3,0.1,0.5,0.3,0.7,0.4
		c0.4,0.2,1,0.4,1.7,0.5c1.7,0.4,4.2,0.6,7.1,0.8c0,0,0,0,0.1,0C825.5,266.9,836.4,266.8,840.1,266.7z"/>
	<path class="st1" d="M759.8,195.9c0.3,3.9,1.4,7.6,2.7,11.2c0.6,1.8,1.3,3.6,2.1,5.3c0.4,0.9,0.8,1.7,1.2,2.6
		c0.4,0.8,0.9,1.6,1.5,2.3c2.2,3,4.9,5.8,7.5,8.6c2.7,2.8,5.4,5.5,8.1,8.2l-0.7-0.3l0.1,0l0.4,0l0.3,0.2c2.2,2,4.1,4.3,5.6,6.7
		c0.8,1.2,1.4,2.6,2,3.8c0.6,1.3,1.2,2.5,1.9,3.7c1.4,2.5,2.9,4.8,4.6,7.1c1.7,2.2,3.6,4.3,5.8,6.2c-2.4-1.6-4.5-3.6-6.4-5.7
		c-1.9-2.1-3.7-4.4-5.2-6.9c-0.8-1.2-1.5-2.5-2.1-3.7c-0.7-1.3-1.3-2.5-2.1-3.6c-1.5-2.3-3.3-4.4-5.4-6.2l0.6,0.2l-0.1,0l-0.4,0
		l-0.3-0.3c-2.8-2.7-5.6-5.4-8.2-8.2c-1.3-1.4-2.6-2.8-3.9-4.3c-1.3-1.5-2.5-3-3.6-4.6c-0.6-0.8-1.1-1.7-1.5-2.6
		c-0.4-0.9-0.8-1.8-1.1-2.7c-0.7-1.8-1.3-3.7-1.8-5.6c-0.5-1.9-0.9-3.8-1.2-5.7C759.8,199.8,759.7,197.9,759.8,195.9z"/>
	<path class="st10" d="M767.4,279.6l1.4-1.4c4.9-6.3-1.8-10.7-2.4-11l0-0.1c2.7-9-2.9-11.8-2.9-11.8c0.2-2.4-0.2-4.3-0.8-5.8
		c0.5-2.8,1.5-6.2,3.7-8.8c0,0-3.9,1.6-5.3,6.1c-1.1-1.3-2.4-2.1-3.5-2.6c-5.3-3.7-26-3.7-26-3.7s15.8,3.7,22.5,5.6
		c5.1,1.5,5.7,5.3,5.7,7.1c0,0.3,0,0.7-0.1,1c0,0-14.6,4.5-28.3,0.2c0,0-2,0.7-3.4,2.8c5.5,2,18.6,5.7,31.5,0c0,0,6.3,0.9,3.3,10
		c0,0-9.7,8-31.6,4.1c0,0-0.7,1-1.2,2.6c7.6,1.8,23.1,4.1,33.4-4.3c0,0,6.8,1.4,0.8,10.4c0,0-6.6,5.6-29.9,4.8c0,0-0.9,1.1-1.4,2.8
		c5.2,0.8,19.1,2.1,30.3-3.9c0,0,1.9,1.2,1.6,3.7c-0.3,2.5-0.9,6.7-11.3,9.1c-7.3,1.7-14.3,0.6-18.7-0.8c1,1,2.4,1.7,4.2,2.3
		c0,0,0,0,0,0c0,0,0,0,0.1,0c7.5,2.5,25-1.1,27.9-7c0.9-1.8,1.1-3.4,0.9-4.7c3.4,3.4,9.1,7.3,15.5,9.1
		C783.2,295.4,768.8,287.7,767.4,279.6z"/>
	<path class="st10" d="M840.1,266.7v40.1h-33.7l10.9-40.4c0,0,0,0,0.1,0C825.5,266.9,836.4,266.8,840.1,266.7z"/>
	<path class="st8" d="M184,253.3l-2.6,13.6c-15,18.5-34.3,19-34.3,19c25.3-3.7,36.8-32.5,36.8-32.6L184,253.3z"/>
	<path class="st8" d="M253.5,274.3c-0.2,0.1-0.4,0.1-0.5,0.1L253.5,274.3z"/>
	
		<rect x="812.9" y="271.2" transform="matrix(-1.836970e-16 1 -1 -1.836970e-16 1121.7396 -549.382)" class="st1" width="45.3" height="29.9"/>
	<rect x="829.2" y="263" class="st9" width="117.8" height="51.8"/>
	<rect x="829.2" y="261.9" class="st1" width="117.8" height="1.6"/>
	<rect x="829.2" y="296.2" class="st11" width="117.8" height="18.5"/>
	
		<ellipse transform="matrix(0.8139 -0.5811 0.5811 0.8139 -24.4534 546.0018)" class="st12" cx="840" cy="311.2" rx="4.9" ry="4.9"/>
	
		<ellipse transform="matrix(0.8139 -0.5811 0.5811 0.8139 -22.0303 553.5654)" class="st12" cx="853" cy="311.2" rx="4.9" ry="4.9"/>
	<rect x="752" y="290.8" class="st10" width="2.7" height="2.7"/>
	<rect x="754.7" y="288.2" class="st10" width="2.7" height="2.7"/>
	
		<rect x="810.4" y="284.5" transform="matrix(6.123234e-17 -1 1 6.123234e-17 525.875 1097.625)" class="st10" width="2.7" height="2.7"/>
	
		<rect x="807.8" y="281.9" transform="matrix(6.123234e-17 -1 1 6.123234e-17 525.875 1092.2916)" class="st10" width="2.7" height="2.7"/>
	<g class="st13">
		
			<rect x="771.2" y="244.4" transform="matrix(0.7071 0.7071 -0.7071 0.7071 400.0055 -474.3074)" class="st1" width="2.6" height="2.6"/>
		
			<rect x="774.9" y="244.4" transform="matrix(0.7071 0.7071 -0.7071 0.7071 401.0789 -476.8988)" class="st1" width="2.6" height="2.6"/>
		
			<rect x="774.9" y="248.1" transform="matrix(0.7071 0.7071 -0.7071 0.7071 403.6703 -475.8254)" class="st1" width="2.6" height="2.6"/>
		
			<rect x="778.6" y="248.1" transform="matrix(0.7071 0.7071 -0.7071 0.7071 404.7437 -478.4168)" class="st1" width="2.6" height="2.6"/>
		
			<rect x="778.6" y="251.7" transform="matrix(0.7071 0.7071 -0.7071 0.7071 407.3351 -477.3434)" class="st1" width="2.6" height="2.6"/>
		
			<rect x="782.2" y="251.7" transform="matrix(0.7071 0.7071 -0.7071 0.7071 408.4085 -479.9348)" class="st1" width="2.6" height="2.6"/>
	</g>
	<g class="st13">
		
			<rect x="176.2" y="244.3" transform="matrix(-0.7071 0.7071 -0.7071 -0.7071 476.6078 293.8422)" class="st1" width="2.6" height="2.6"/>
		
			<rect x="172.5" y="244.3" transform="matrix(-0.7071 0.7071 -0.7071 -0.7071 470.3516 296.4337)" class="st1" width="2.6" height="2.6"/>
		
			<rect x="172.5" y="248" transform="matrix(-0.7071 0.7071 -0.7071 -0.7071 472.943 302.6899)" class="st1" width="2.6" height="2.6"/>
		
			<rect x="168.8" y="248" transform="matrix(-0.7071 0.7071 -0.7071 -0.7071 466.6868 305.2813)" class="st1" width="2.6" height="2.6"/>
		
			<rect x="168.8" y="251.7" transform="matrix(-0.7071 0.7071 -0.7071 -0.7071 469.2782 311.5376)" class="st1" width="2.6" height="2.6"/>
		
			<rect x="165.2" y="251.7" transform="matrix(-0.7071 0.7071 -0.7071 -0.7071 463.0219 314.129)" class="st1" width="2.6" height="2.6"/>
	</g>
	<rect x="820.6" y="293.3" class="st14" width="8.6" height="15.6"/>
	<g>
		<path class="st3" d="M177.4,213.3c-4.1,0-7.5-3.3-7.5-7.5c0-4.1,3.3-7.5,7.5-7.5s7.5,3.3,7.5,7.5
			C184.9,210,181.6,213.3,177.4,213.3z M177.4,200.4c-3,0-5.5,2.5-5.5,5.5s2.5,5.5,5.5,5.5c3,0,5.5-2.5,5.5-5.5
			S180.5,200.4,177.4,200.4z"/>
	</g>
	<circle class="st15" cx="295.7" cy="177.5" r="3.6"/>
	<circle class="st15" cx="80.3" cy="247.9" r="2.8"/>
	<circle class="st15" cx="155.5" cy="320.2" r="3.6"/>
	<g>
		<path class="st3" d="M711.3,248.3c-3,0-5.5-2.5-5.5-5.5c0-3,2.5-5.5,5.5-5.5c3,0,5.5,2.5,5.5,5.5
			C716.9,245.9,714.4,248.3,711.3,248.3z M711.3,238.8c-2.2,0-4,1.8-4,4c0,2.2,1.8,4,4,4c2.2,0,4-1.8,4-4
			C715.4,240.6,713.6,238.8,711.3,238.8z"/>
	</g>
	<g>
		<g>
			<path class="st15" d="M757.3,323.4c-2.8,0-5-2.3-5-5c0-2.8,2.3-5,5-5c2.8,0,5,2.3,5,5C762.4,321.1,760.1,323.4,757.3,323.4z
				 M757.3,314.7c-2,0-3.7,1.7-3.7,3.7s1.7,3.7,3.7,3.7c2,0,3.7-1.7,3.7-3.7S759.4,314.7,757.3,314.7z"/>
		</g>
	</g>
	<circle class="st15" cx="919.3" cy="253" r="2.7"/>
	<circle class="st15" cx="720.4" cy="185.6" r="1.3"/>
	<circle class="st15" cx="712.7" cy="213.3" r="1.3"/>
	<circle class="st1" cx="794.4" cy="229.8" r="1.3"/>
	<circle class="st3" cx="889.4" cy="314.8" r="3.6"/>
	<polygon class="st3" points="315,246.4 317.1,248.5 320.1,247.9 318.7,250.6 320.1,253.2 317.2,252.7 315.2,254.9 314.7,252 
		312,250.7 314.6,249.3 	"/>
	<polygon class="st15" points="748.6,172.4 750.6,174.4 753.2,173.9 752,176.3 753.3,178.7 750.6,178.3 748.7,180.3 748.3,177.6 
		745.8,176.4 748.3,175.2 	"/>
	<polygon class="st3" points="799.5,216.7 799.3,218.4 800.5,219.5 798.8,219.8 798.2,221.4 797.3,219.9 795.6,219.7 796.8,218.5 
		796.4,216.8 798,217.5 	"/>
	<polygon class="st3" points="732.6,211 732.4,212.7 733.7,213.8 732,214.1 731.3,215.7 730.4,214.2 728.7,214 729.9,212.8 
		729.5,211.1 731.1,211.8 	"/>
	<polygon class="st15" points="773.9,200.3 773.7,202 775,203.2 773.3,203.5 772.6,205 771.8,203.5 770.1,203.4 771.3,202.1 
		770.9,200.4 772.5,201.2 	"/>
	<polygon class="st15" points="770.2,178.7 770.1,179.8 770.9,180.6 769.8,180.8 769.3,181.9 768.8,180.9 767.6,180.8 768.4,179.9 
		768.2,178.8 769.2,179.3 	"/>
	<polygon class="st15" points="291.1,307.2 293.2,309.3 296.1,308.8 294.8,311.4 296.2,314.1 293.3,313.6 291.2,315.8 290.7,312.8 
		288.1,311.6 290.7,310.2 	"/>
	<rect x="164.6" y="301" class="st10" width="2.7" height="2.7"/>
	<rect x="167.3" y="298.3" class="st10" width="2.7" height="2.7"/>
	
		<rect x="125.2" y="274.9" transform="matrix(-1.836970e-16 1 -1 -1.836970e-16 402.75 149.75)" class="st10" width="2.7" height="2.7"/>
	
		<rect x="127.8" y="277.6" transform="matrix(-1.836970e-16 1 -1 -1.836970e-16 408.0833 149.75)" class="st10" width="2.7" height="2.7"/>
	<path class="st10" d="M129.7,305.7c-12,0.1-46.7,1-46.7,1l-1-42l41.8,0.5L129.7,305.7z"/>
	<rect y="262.7" class="st2" width="96" height="52"/>
	<rect y="261.9" class="st1" width="96" height="1.6"/>
	<rect y="293.2" class="st6" width="96" height="21.5"/>
	<circle class="st15" cx="29.8" cy="314.8" r="5.4"/>
	<path class="st16" d="M117.6,310.2h-12.3c-1.1,0-2-0.9-2-2v-45.1c0-1.1,0.9-2,2-2h12.3c1.1,0,2,0.9,2,2v45.1
		C119.6,309.3,118.7,310.2,117.6,310.2z"/>
	<path class="st1" d="M117.6,273.9h-12.3c-1.1,0-2,0.9-2,2v32.4c0,1.1,0.9,2,2,2h12.3c1.1,0,2-0.9,2-2v-32.4
		C119.6,274.8,118.7,273.9,117.6,273.9z"/>
	<path class="st17" d="M120.6,302.4h-18.4c-0.4,0-0.6-0.3-0.6-0.6v-5.6c0-0.4,0.3-0.6,0.6-0.6h18.4c0.4,0,0.6,0.3,0.6,0.6v5.6
		C121.3,302.1,121,302.4,120.6,302.4z"/>
	<path class="st17" d="M119,279.1h-6.8v-1.5c0-0.4-0.3-0.8-0.8-0.8s-0.8,0.3-0.8,0.8v1.5h-6.8c-1.4,0-2.5,1.1-2.5,2.5v5.8
		c0,1.4,1.1,2.5,2.5,2.5H119c1.4,0,2.5-1.1,2.5-2.5v-5.8C121.5,280.2,120.4,279.1,119,279.1z M110.7,288.4h-6.8c-0.6,0-1-0.5-1-1
		v-5.8c0-0.6,0.5-1,1-1h6.8V288.4z M120,287.4c0,0.6-0.5,1-1,1h-6.8v-7.8h6.8c0.6,0,1,0.5,1,1V287.4z"/>
</g>
</svg>
