<?xml version="1.0" encoding="utf-8"?>
<!-- Generator: Adobe Illustrator 12.0.0, SVG Export Plug-In . SVG Version: 6.00 Build 51448)  -->
<!DOCTYPE svg PUBLIC "-//W3C//DTD SVG 1.1//EN" "http://www.w3.org/Graphics/SVG/1.1/DTD/svg11.dtd" [
	<!ENTITY ns_svg "http://www.w3.org/2000/svg">
	<!ENTITY ns_xlink "http://www.w3.org/1999/xlink">
]>
<svg  version="1.1" id="Layer_1" xmlns="&ns_svg;" xmlns:xlink="&ns_xlink;" width="512" height="512" viewBox="0 0 512 512"
	 overflow="visible" enable-background="new 0 0 512 512" xml:space="preserve">
<path fill="#FFFFFF" d="M489.764,30.129L387.796,6.595c-11.077-2.551-22.453,3.238-26.96,13.628l-47.063,109.812
	c-4.118,9.608-1.37,20.884,6.768,27.453l59.416,48.635C344.66,281.32,282.989,343.876,206.22,379.858l-48.633-59.416
	c-6.665-8.138-17.844-10.885-27.453-6.768L20.322,360.737C9.831,365.346,4.046,376.721,6.598,387.8l23.534,101.971
	c2.443,10.584,11.856,18.231,22.935,18.231C304.165,508.002,508,304.56,508,53.069C508,42.09,500.45,32.578,489.764,30.129z"/>
</svg>
