<?xml version="1.0" encoding="utf-8"?>
<!-- Generator: Adobe Illustrator 19.0.0, SVG Export Plug-In . SVG Version: 6.00 Build 0)  -->
<svg version="1.1" id="Layer_1" xmlns="http://www.w3.org/2000/svg" xmlns:xlink="http://www.w3.org/1999/xlink" x="0px" y="0px"
	 viewBox="0 0 1005.7 845.8" style="enable-background:new 0 0 1005.7 845.8;" xml:space="preserve">
<style type="text/css">
	.st0{fill:#FFFFFF;}
	.st1{fill:#529ADB;}
	.st2{font-family:'Ubuntu Medium';}
	.st3{font-size:55.5px;}
	.st4{fill:#CFFFF0;}
	.st5{fill:#E6FFFC;}
	.st6{fill:none;stroke:#000000;stroke-width:8;stroke-miterlimit:10;}
	.st7{fill:#00FFB6;}
	.st8{fill:none;stroke:#000000;stroke-width:14;stroke-miterlimit:10;}
	.st9{fill:#05E29E;}
	.st10{fill:#FF6C88;}
	.st11{fill:#FCFCFC;}
	.st12{fill:#FCFCFC;stroke:#000000;stroke-width:8;stroke-linecap:round;stroke-linejoin:round;stroke-miterlimit:10;}
	.st13{fill:#FCFCFC;stroke:#000000;stroke-width:6;stroke-linecap:round;stroke-linejoin:round;stroke-miterlimit:10;}
	.st14{fill:#FCFCFC;stroke:#000000;stroke-width:2;stroke-linecap:round;stroke-linejoin:round;stroke-miterlimit:10;}
</style>
<rect id="XMLID_301_" y="-4" class="st0" width="1005.7" height="845.8"/>
<g id="XMLID_3_">
	<text id="XMLID_54_" transform="matrix(1 0 0 1 392.9 750.6142)"><tspan x="0" y="0" class="st1 st2 st3"> </tspan><tspan x="12.9" y="0" class="st2 st3">PICK</tspan></text>
</g>
<g id="XMLID_447_">
	<g id="XMLID_196_">
		<g id="XMLID_343_">
			<g id="XMLID_309_">
				<g id="XMLID_322_">
					<path id="XMLID_323_" class="st4" d="M311.2,253h417.7c4.4,0,8-3.6,8-8v-48.7c0-4.4-3.6-8-8-8H311.2c-4.4,0-8,3.6-8,8V245
						C303.2,249.4,306.8,253,311.2,253z"/>
				</g>
				<g id="XMLID_320_">
					<path id="XMLID_321_" class="st4" d="M337.7,278.9h417.7c4.4,0,8-3.6,8-8v-48.7c0-4.4-3.6-8-8-8H337.7c-4.4,0-8,3.6-8,8v48.7
						C329.7,275.3,333.3,278.9,337.7,278.9z"/>
				</g>
				<g id="XMLID_318_">
					<path id="XMLID_319_" class="st4" d="M243.3,350.6h403.8c8.2,0,14.9-6.7,14.9-14.9v-84.2c0-8.2-6.7-14.9-14.9-14.9H243.3
						c-8.2,0-14.9,6.7-14.9,14.9v84.2C228.3,343.9,235.1,350.6,243.3,350.6z"/>
				</g>
				<g id="XMLID_316_">
					<path id="XMLID_317_" class="st4" d="M302.7,404.8h403.8c8.2,0,14.9-6.7,14.9-14.9v-33.7c0-8.2-6.7-14.9-14.9-14.9H302.7
						c-8.2,0-14.9,6.7-14.9,14.9v33.7C287.8,398,294.5,404.8,302.7,404.8z"/>
				</g>
				<g id="XMLID_314_">
					<path id="XMLID_315_" class="st4" d="M184.6,449.5h403.8c8.2,0,14.9-6.7,14.9-14.9v-50.1c0-8.2-6.7-14.9-14.9-14.9H184.6
						c-8.2,0-14.9,6.7-14.9,14.9v50.1C169.6,442.7,176.3,449.5,184.6,449.5z"/>
				</g>
				<g id="XMLID_312_">
					<path id="XMLID_313_" class="st4" d="M367.6,488.3h403.8c8.2,0,14.9-6.7,14.9-14.9v-21.9c0-8.2-6.7-14.9-14.9-14.9H367.6
						c-8.2,0-14.9,6.7-14.9,14.9v21.9C352.7,481.5,359.4,488.3,367.6,488.3z"/>
				</g>
				<g id="XMLID_310_">
					<path id="XMLID_311_" class="st4" d="M308.2,548.3h410.4c8.2,0,14.9-6.7,14.9-14.9v-47.8c0-8.2-6.7-14.9-14.9-14.9H308.2
						c-8.2,0-14.9,6.7-14.9,14.9v47.8C293.3,541.5,300,548.3,308.2,548.3z"/>
				</g>
			</g>
		</g>
		<path id="XMLID_340_" class="st5" d="M604.4,291.7h-359c-4.4,0-8-3.6-8-8v-44.8c0-4.4,3.6-8,8-8h359c4.4,0,8,3.6,8,8v44.8
			C612.4,288.1,608.8,291.7,604.4,291.7z"/>
		<g id="XMLID_303_">
			<g id="XMLID_207_">
				<g id="XMLID_232_">
					<g id="XMLID_233_">
						<line id="XMLID_234_" class="st6" x1="159.5" y1="138" x2="309.9" y2="138"/>
					</g>
				</g>
				<g id="XMLID_208_">
					<g id="XMLID_230_">
						<line id="XMLID_231_" class="st6" x1="169.5" y1="109.8" x2="229.2" y2="109.8"/>
					</g>
					<g id="XMLID_209_">
						<line id="XMLID_229_" class="st6" x1="241.4" y1="109.8" x2="276.8" y2="109.8"/>
					</g>
				</g>
			</g>
		</g>
		<g id="XMLID_265_">
			<g id="XMLID_210_">
				<g id="XMLID_226_">
					<g id="XMLID_227_">
						<line id="XMLID_228_" class="st6" x1="734.5" y1="353.3" x2="804" y2="353.3"/>
					</g>
				</g>
				<g id="XMLID_211_">
					<g id="XMLID_224_">
						<line id="XMLID_225_" class="st6" x1="739.1" y1="381.5" x2="766.7" y2="381.5"/>
					</g>
					<g id="XMLID_212_">
						<line id="XMLID_223_" class="st6" x1="772.3" y1="381.5" x2="788.7" y2="381.5"/>
					</g>
				</g>
			</g>
		</g>
		<g id="XMLID_197_">
			<g id="XMLID_213_">
				<g id="XMLID_220_">
					<g id="XMLID_221_">
						<line id="XMLID_222_" class="st6" x1="299.1" y1="584.3" x2="401.5" y2="584.3"/>
					</g>
				</g>
				<g id="XMLID_214_">
					<g id="XMLID_217_">
						<line id="XMLID_218_" class="st6" x1="305.9" y1="612.6" x2="346.6" y2="612.6"/>
					</g>
					<g id="XMLID_215_">
						<line id="XMLID_216_" class="st6" x1="354.8" y1="612.6" x2="378.9" y2="612.6"/>
					</g>
				</g>
			</g>
		</g>
	</g>
	<path id="XMLID_189_" class="st7" d="M703.7,524.1H304.6c-10.4,0-19-8.5-19-19V179.3c0-10.4,8.5-19,19-19h399.1
		c10.4,0,19,8.5,19,19v325.8C722.7,515.6,714.1,524.1,703.7,524.1z"/>
	<polyline id="XMLID_188_" class="st8" points="406.6,195.4 649.6,195.4 673.6,195.4 	"/>
	<path id="XMLID_187_" class="st8" d="M691.3,321.8v211.7c0,10.4-8,19-17.7,19H277c-9.7,0-17.7-8.5-17.7-19v-319
		c0-10.4,8-19,17.7-19h54.5"/>
	<g id="XMLID_162_">
		<path id="XMLID_184_" class="st9" d="M385.3,339.4h-52c-10.4,0-19-8.5-19-19v-52c0-10.4,8.5-19,19-19h52c10.4,0,19,8.5,19,19v52
			C404.3,330.8,395.8,339.4,385.3,339.4z"/>
		<path id="XMLID_5_" class="st10" d="M333.3,332.4c-6.6,0-12-5.4-12-12v-52c0-6.6,5.4-12,12-12h52c6.6,0,12,5.4,12,12v52
			c0,6.6-5.4,12-12,12H333.3z"/>
		<path id="XMLID_175_" class="st9" d="M506.8,339.4h-52c-10.4,0-19-8.5-19-19v-52c0-10.4,8.5-19,19-19h52c10.4,0,19,8.5,19,19v52
			C525.8,330.8,517.3,339.4,506.8,339.4z"/>
		<path id="XMLID_172_" class="st9" d="M628.3,339.4h-52c-10.4,0-19-8.5-19-19v-52c0-10.4,8.5-19,19-19h52c10.4,0,19,8.5,19,19v52
			C647.3,330.8,638.8,339.4,628.3,339.4z"/>
		<path id="XMLID_169_" class="st9" d="M385.3,468.4h-52c-10.4,0-19-8.5-19-19v-52c0-10.4,8.5-19,19-19h52c10.4,0,19,8.5,19,19v52
			C404.3,459.8,395.8,468.4,385.3,468.4z"/>
		<path id="XMLID_166_" class="st9" d="M506.8,468.4h-52c-10.4,0-19-8.5-19-19v-52c0-10.4,8.5-19,19-19h52c10.4,0,19,8.5,19,19v52
			C525.8,459.8,517.3,468.4,506.8,468.4z"/>
		<path id="XMLID_163_" class="st9" d="M628.3,468.4h-52c-10.4,0-19-8.5-19-19v-52c0-10.4,8.5-19,19-19h52c10.4,0,19,8.5,19,19v52
			C647.3,459.8,638.8,468.4,628.3,468.4z"/>
	</g>
	<g id="XMLID_7_">
		<path id="XMLID_158_" class="st11" d="M377.6,391.1l-33.9,29.4l9.1,11.9l70.3,0.2c0,0,11.7-22.6,11.7-27.8s-0.8-30.2-0.8-30.2
			L377.6,391.1z"/>
		<g id="XMLID_8_">
			<path id="XMLID_143_" class="st12" d="M423.8,430.5c0,0,7.2-12.2,8.3-14.9s2.7-8,2.7-8l-1.6-50.5c0-5.6-4.5-10.1-10.1-10.1l0,0
				c-5.6,0-10.1,4.5-10.1,10.1"/>
			<path id="XMLID_98_" class="st13" d="M413.4,383.8l-0.5-32.5c0-5.6-4.5-10.1-10.1-10.1h0c-5.6,0-10.1,4.5-10.1,10.1l0.5,36.7
				v-40.4c0-5.6-4.5-10.1-10.1-10.1h0c-5.6,0-10.1,4.5-10.1,10.1l-1,31.1v-79.2c0-5.6-4.5-10.1-10.1-10.1h0
				c-5.6,0-10.1,4.5-10.1,10.1v54.8l-0.7,3.5c0,0-12.7,8.3-13.7,15.8s1.1,28.7,1.1,35.6c0,6.9,12.8,21.3,12.8,21.3"/>
			<path id="XMLID_96_" class="st14" d="M367.4,305.2v-5.5c0-2.3-1.9-4.3-4.3-4.3h-2.7c-2.3,0-4.3,1.9-4.3,4.3v5.5H367.4z"/>
			<g id="XMLID_88_">
				<polyline id="XMLID_93_" class="st14" points="357.6,327.2 357.6,327.2 366.3,327.2 				"/>
				<polyline id="XMLID_91_" class="st14" points="357.5,323.9 357.5,323.9 366.2,323.9 				"/>
			</g>
		</g>
	</g>
</g>
</svg>
