<svg width="388" height="636" viewBox="0 0 388 636" fill="none" xmlns="http://www.w3.org/2000/svg">
<path d="M238.3 216C240.7 213.2 241.3 210.2 239.5 207C234.6 198.6 228.8 190.8 221.1 184.6C215.7 180.3 209.8 177.8 202.6 178C191.6 178.3 180.6 178.3 169.6 178C163.1 177.9 157.5 179.8 152.4 183.6C145.1 188.9 139.7 195.8 134.9 203.3C130.2 210.6 130.4 211.9 135.9 218.3C140.8 224 145.7 229.8 150.6 235.5C147.8 239.2 146.1 243 149.4 246.9C152.8 250.9 156.9 249.9 161 246.9C160.8 249.5 160.7 251.5 160.6 253.5C158.4 280.2 156.2 306.9 154.1 333.5C153.6 340.3 157.9 345.7 164.2 346.2C170.8 346.7 175.8 342.2 176.4 335.2C178.2 313.3 179.9 291.3 181.8 269.4C182.2 264.3 182.7 259.1 183.2 254H189.4C190.3 264.6 191.1 275 192 285.4C193.3 302 194.6 318.5 196 335.1C196.6 342.4 201.6 346.8 208.4 346.2C214.8 345.6 218.9 340.2 218.3 333.1C216.5 310.8 214.6 288.6 212.8 266.3C212.3 260 211.8 253.7 211.3 247.3C211.8 247.3 212.1 247.3 212.2 247.4C216.6 250.1 219.8 250.1 222.5 247.4C225.2 244.7 225.4 241.3 222.7 237.1C221.6 235.5 222.3 234.6 223.3 233.5C228.2 227.8 233.2 221.9 238.3 216Z" fill="white" stroke="black" stroke-width="5" stroke-miterlimit="10"/>
<path d="M161.3 225.6C160.1 224.3 159.3 223.4 158.5 222.5C155.5 219 152.4 215.5 149.4 211.9C148.8 211.2 148.1 209.7 148.4 209.2C151.8 204 155.8 199.2 161.3 195V225.6Z" fill="white" stroke="black" stroke-width="5" stroke-miterlimit="10" stroke-linecap="round" stroke-linejoin="round"/>
<path d="M210.8 225.8V195.7C211.1 195.5 211.3 195.3 211.6 195.1C215.9 199.9 220.2 204.7 224.6 209.7C219.9 215.2 215.6 220.2 210.8 225.8Z" fill="white" stroke="black" stroke-width="5" stroke-miterlimit="10" stroke-linecap="round" stroke-linejoin="round"/>
<path d="M206.4 152.6C206.4 163.9 197.3 173 186 173C174.8 173.1 165.7 163.8 165.7 152.5C166.7 141.4 173.6 132.4 185.9 132.3C197.2 132.2 206.4 141.4 206.4 152.6Z" fill="white" stroke="black" stroke-width="5" stroke-miterlimit="10"/>
<path d="M239 506.8H371.9V628.1C371.9 630.9 369 633.2 365.4 633.2H239V506.8Z" fill="#EFEFEF" stroke="black" stroke-width="5" stroke-miterlimit="10"/>
<path d="M16.1 521.5H146.8V633.2H22.5999C18.9999 633.2 16.1 630.7 16.1 627.5V521.5Z" fill="#EFEFEF" stroke="black" stroke-width="5" stroke-miterlimit="10"/>
<path d="M9.5 508.1H133.5V530.8H9.5C5.9 530.8 3 528.3 3 525.1V513.8C3 510.7 5.9 508.1 9.5 508.1Z" fill="#D7D7D7" stroke="black" stroke-width="5" stroke-miterlimit="10"/>
<path d="M254.5 507.2H378.5C382.1 507.2 385 509.7 385 512.9V524.3C385 527.4 382.1 530 378.5 530H254.5V507.2Z" fill="#D7D7D7" stroke="black" stroke-width="5" stroke-miterlimit="10"/>
<path d="M271.4 382.2H114V632.2H271.4V382.2Z" fill="#FFEC00" stroke="black" stroke-width="7" stroke-miterlimit="10"/>
<path d="M112.4 348.3H269.8C274.6 348.3 278.5 351.7 278.5 355.9V371.1C278.5 375.3 274.6 378.7 269.8 378.7H112.4C107.6 378.7 103.7 375.3 103.7 371.1V355.9C103.7 351.7 107.6 348.3 112.4 348.3Z" fill="#F4DC03" stroke="black" stroke-width="7" stroke-miterlimit="10"/>
<path d="M141.4 3.29998C137.3 7.39998 137.3 14 141.4 18.1C145.5 22.2 152.1 22.2 156.2 18.1C160.3 14 160.3 7.39998 156.2 3.29998C152.1 -0.800025 145.4 -0.800025 141.4 3.29998ZM151.2 13.1C149.8 14.5 147.6 14.5 146.3 13.1C145 11.7 144.9 9.49998 146.3 8.19998C147.7 6.79998 149.9 6.79998 151.2 8.19998C152.5 9.59998 152.5 11.8 151.2 13.1Z" fill="black"/>
<path d="M104.4 88.8C103.1 87.9 101.3 88.3 100.4 89.6C99.4999 90.9 99.8999 92.7 101.2 93.6C101.2 93.6 101.3 93.6 101.3 93.7C115.5 102.7 126.5 116 132.9 131.6L137 141.8C137.6 143.3 139.3 144 140.8 143.4C141.2 143.3 141.5 143 141.7 142.8C142.5 142 142.8 140.7 142.3 139.6L138.1 129.4C131.5 112.7 119.6 98.5 104.4 88.8Z" fill="black"/>
<path d="M89.9 89.3999C93.1033 89.3999 95.7 86.8032 95.7 83.5999C95.7 80.3967 93.1033 77.7999 89.9 77.7999C86.6968 77.7999 84.1 80.3967 84.1 83.5999C84.1 86.8032 86.6968 89.3999 89.9 89.3999Z" fill="black"/>
<path d="M66.2 126.9C64.7 126.4 63 127.1 62.5 128.7C62 130.3 62.7 131.9 64.3 132.4H64.4C80.4 137.8 94.3 147.9 104.2 161.6L110.7 170.5C111.6 171.8 113.5 172.1 114.7 171.1C115 170.9 115.3 170.6 115.5 170.3C116.1 169.3 116.1 168 115.4 167.1L108.9 158.2C98.2 143.6 83.3 132.7 66.2 126.9Z" fill="black"/>
<path d="M50.8 131.2C54.0032 131.2 56.6 128.603 56.6 125.4C56.6 122.197 54.0032 119.6 50.8 119.6C47.5967 119.6 45 122.197 45 125.4C45 128.603 47.5967 131.2 50.8 131.2Z" fill="black"/>
<path d="M187.2 10.5L174.6 22.9999C173.2 24.3999 173.2 26.5999 174.6 27.9999L187.1 40.6C188.5 42 190.7 42 192.1 40.6L204.7 28.1C206.1 26.7 206.1 24.5 204.7 23.1L192.2 10.5C190.8 9.09995 188.6 9.09995 187.2 10.5ZM197.2 25.6L189.6 33.1L182.1 25.4999L189.7 18L197.2 25.6Z" fill="black"/>
<path d="M188.6 58C186.5 58 184.7 59.7 184.6 61.8L183.7 115.6C183.7 117.8 185.4 119.6 187.6 119.7C189.8 119.7 191.6 118 191.7 115.8L192.6 62C192.6 59.8 190.8 58 188.6 58Z" fill="black"/>
<path d="M128.3 29.8C127.1 29.2 125.7 29.3 124.6 30.1L116.3 36.3L106.5 33C104.6 32.5 102.6 33.7 102.1 35.6C101.9 36.2 101.9 36.8 102.1 37.4L105.4 47.2L99.2001 55.5C98.0001 57 98.4001 59.2 99.9001 60.4C100.5 60.9 101.3 61.1 102 61.1L112.3 61L118.3 69.4C119.4 71 121.6 71.4 123.1 70.3C123.7 69.9 124.2 69.2 124.4 68.5L127.5 58.6L137.4 55.6C139.2 55 140.3 53.1 139.7 51.2C139.5 50.5 139 49.8 138.4 49.4L130 43.4L130.2 33.1C130.2 31.6 129.5 30.4 128.3 29.8ZM123.1 45C123.1 46.1 123.6 47.2 124.6 47.9L128.8 50.9L123.9 52.4C122.8 52.7 121.9 53.6 121.6 54.7L120.1 59.6L117.2 55.4C116.5 54.5 115.5 53.9 114.3 53.9L109.2 54L112.3 49.9C113 49 113.2 47.8 112.8 46.7L111 41.8L115.8 43.4C116.9 43.8 118.1 43.6 119 42.9L123.1 39.9V45Z" fill="black"/>
<path d="M226.5 26.9C222.4 31 222.4 37.6 226.5 41.7C230.6 45.8 237.2 45.8 241.3 41.7C245.4 37.6 245.4 31 241.3 26.9C237.2 22.8 230.6 22.8 226.5 26.9ZM231.4 31.8C232.8 30.4 235 30.4 236.3 31.8C237.7 33.2 237.7 35.4 236.3 36.7C234.9 38.1 232.7 38.1 231.4 36.7C230.1 35.3 230.1 33.1 231.4 31.8Z" fill="black"/>
<path d="M232.6 118.8L228.4 129C228 130.1 228.2 131.3 229 132.2C229.3 132.5 229.6 132.7 229.9 132.8C231.4 133.4 233.1 132.7 233.7 131.2L237.9 121C244.3 105.4 255.3 92.2 269.5 83.1C269.5 83.1 269.6 83.1 269.6 83C270.9 82.1 271.3 80.3 270.4 79C269.5 77.7 267.7 77.3 266.4 78.2C251.2 87.9 239.4 102.1 232.6 118.8Z" fill="black"/>
<path d="M281 78.7999C284.203 78.7999 286.8 76.2032 286.8 72.9999C286.8 69.7967 284.203 67.2 281 67.2C277.797 67.2 275.2 69.7967 275.2 72.9999C275.2 76.2032 277.797 78.7999 281 78.7999Z" fill="black"/>
<path d="M273.8 156.7L267.3 165.6C266.6 166.5 266.6 167.8 267.2 168.8C267.4 169.1 267.7 169.4 268 169.6C269.3 170.5 271.1 170.3 272 169L278.5 160.1C288.4 146.5 302.3 136.3 318.3 130.9H318.4C319.9 130.4 320.7 128.7 320.2 127.2C319.7 125.7 318 124.9 316.5 125.4C299.3 131.2 284.5 142.1 273.8 156.7Z" fill="black"/>
<path d="M331.8 129.8C335.003 129.8 337.6 127.203 337.6 124C337.6 120.797 335.003 118.2 331.8 118.2C328.597 118.2 326 120.797 326 124C326 127.203 328.597 129.8 331.8 129.8Z" fill="black"/>
<path d="M312.4 63.4999L312.6 73.7999L304.2 79.7999C303.6 80.1999 303.1 80.8999 302.9 81.5999C302.3 83.3999 303.4 85.3999 305.2 85.9999L315.1 88.9999L318.2 98.8999C318.4 99.5999 318.9 100.3 319.5 100.7C321.1 101.8 323.2 101.4 324.3 99.7999L330.2 91.3999L340.5 91.4999C341.3 91.4999 342 91.2999 342.6 90.7999C344.1 89.5999 344.4 87.4999 343.3 85.8999L337.1 77.5999L340.4 67.7999C340.6 67.1999 340.6 66.5999 340.4 65.9999C339.9 64.0999 337.9 62.8999 336 63.3999L326.2 66.6999L317.9 60.4999C316.8 59.6999 315.4 59.5999 314.2 60.1999C313.2 60.8999 312.4 62.0999 312.4 63.4999ZM319.5 70.3999L323.6 73.3999C324.5 74.0999 325.7 74.2999 326.8 73.8999L331.6 72.2999L330 77.0999C329.6 78.1999 329.8 79.3999 330.5 80.2999L333.6 84.3999L328.5 84.2999C327.4 84.2999 326.3 84.7999 325.6 85.7999L322.7 89.9999L321.2 85.0999C320.9 83.9999 320 83.1999 318.9 82.7999L314 81.2999L318.2 78.2999C319.1 77.5999 319.7 76.5999 319.7 75.3999L319.5 70.3999Z" fill="black"/>
<path d="M131 522.2L163.1 554.3C164.4 555.6 166.3 556.4 168.2 556.4C170.1 556.4 172 555.6 173.3 554.3L258.7 468.9C261.5 466.1 261.5 461.5 258.7 458.7C255.9 455.9 251.3 455.9 248.5 458.7L168.2 539L141.2 512C138.4 509.2 133.8 509.2 131 512C128.2 514.8 128.2 519.4 131 522.2Z" fill="#00FFB6" stroke="black" stroke-width="4" stroke-miterlimit="10"/>
</svg>
