<?xml version="1.0" encoding="utf-8"?>
<!-- Generator: Adobe Illustrator 19.0.0, SVG Export Plug-In . SVG Version: 6.00 Build 0)  -->
<svg version="1.1" id="Layer_1" xmlns="http://www.w3.org/2000/svg" xmlns:xlink="http://www.w3.org/1999/xlink" x="0px" y="0px"
	 viewBox="197 -26.8 1005.7 845.8" style="enable-background:new 197 -26.8 1005.7 845.8;" xml:space="preserve">
<style type="text/css">
	.st0{fill:#00FFB6;}
	.st1{fill:none;stroke:#0560BC;stroke-width:8;stroke-linecap:round;stroke-linejoin:round;stroke-miterlimit:10;}
	.st2{font-family:'Ubuntu Medium';}
	.st3{font-size:55.5px;}
	.st4{fill:#FFFFFF;stroke:#000000;stroke-width:5;stroke-miterlimit:10;}
	.st5{fill:#FFFFFF;stroke:#000000;stroke-width:5;stroke-linecap:round;stroke-linejoin:round;stroke-miterlimit:10;}
	.st6{fill:#EFEFEF;stroke:#000000;stroke-width:5;stroke-miterlimit:10;}
	.st7{fill:#D7D7D7;stroke:#000000;stroke-width:5;stroke-miterlimit:10;}
	.st8{fill:#FFEC00;stroke:#000000;stroke-width:7;stroke-miterlimit:10;}
	.st9{fill:#F4DC03;stroke:#000000;stroke-width:7;stroke-miterlimit:10;}
	.st10{fill:#00FFB6;stroke:#000000;stroke-width:4;stroke-miterlimit:10;}
</style>
<path id="XMLID_276_" class="st0" d="M1053.1,771.8H341.9c-48.2,0-87.2-39-87.2-87.2V106.8c0-48.2,39-87.2,87.2-87.2h711.2
	c48.2,0,87.2,39,87.2,87.2v577.8C1140.3,732.8,1101.3,771.8,1053.1,771.8z"/>
<path id="XMLID_160_" class="st1" d="M1125.7,668.5"/>
<g id="XMLID_148_">
	<text id="XMLID_199_" transform="matrix(1 0 0 1 505.7417 733.6573)" class="st2 st3">RECOGNITION</text>
</g>
<g>
	<path class="st4" d="M732.3,257.2c2.4-2.8,3-5.8,1.2-9c-4.9-8.4-10.7-16.2-18.4-22.4c-5.4-4.3-11.3-6.8-18.5-6.6
		c-11,0.3-22,0.3-33,0c-6.5-0.1-12.1,1.8-17.2,5.6c-7.3,5.3-12.7,12.2-17.5,19.7c-4.7,7.3-4.5,8.6,1,15c4.9,5.7,9.8,11.5,14.7,17.2
		c-2.8,3.7-4.5,7.5-1.2,11.4c3.4,4,7.5,3,11.6,0c-0.2,2.6-0.3,4.6-0.4,6.6c-2.2,26.7-4.4,53.4-6.5,80c-0.5,6.8,3.8,12.2,10.1,12.7
		c6.6,0.5,11.6-4,12.2-11c1.8-21.9,3.5-43.9,5.4-65.8c0.4-5.1,0.9-10.3,1.4-15.4h6.2c0.9,10.6,1.7,21,2.6,31.4
		c1.3,16.6,2.6,33.1,4,49.7c0.6,7.3,5.6,11.7,12.4,11.1c6.4-0.6,10.5-6,9.9-13.1c-1.8-22.3-3.7-44.5-5.5-66.8
		c-0.5-6.3-1-12.6-1.5-19c0.5,0,0.8,0,0.9,0.1c4.4,2.7,7.6,2.7,10.3,0s2.9-6.1,0.2-10.3c-1.1-1.6-0.4-2.5,0.6-3.6
		C722.2,269,727.2,263.1,732.3,257.2z"/>
	<path class="st5" d="M655.3,266.8c-1.2-1.3-2-2.2-2.8-3.1c-3-3.5-6.1-7-9.1-10.6c-0.6-0.7-1.3-2.2-1-2.7c3.4-5.2,7.4-10,12.9-14.2
		V266.8z"/>
	<path class="st5" d="M704.8,267v-30.1c0.3-0.2,0.5-0.4,0.8-0.6c4.3,4.8,8.6,9.6,13,14.6C713.9,256.4,709.6,261.4,704.8,267z"/>
	<path class="st4" d="M700.4,193.8c0,11.3-9.1,20.4-20.4,20.4c-11.2,0.1-20.3-9.2-20.3-20.5c1-11.1,7.9-20.1,20.2-20.2
		C691.2,173.4,700.4,182.6,700.4,193.8z"/>
</g>
<path id="Shape" class="st6" d="M733,548h132.9v121.3c0,2.8-2.9,5.1-6.5,5.1H733V548z"/>
<path id="Shape_5_" class="st6" d="M510.1,562.7h130.7v111.7H516.6c-3.6,0-6.5-2.5-6.5-5.7V562.7z"/>
<path id="Shape_14_" class="st7" d="M503.5,549.3h124v22.7h-124c-3.6,0-6.5-2.5-6.5-5.7V555C497,551.9,499.9,549.3,503.5,549.3z"/>
<path id="Shape_15_" class="st7" d="M748.5,548.4h124c3.6,0,6.5,2.5,6.5,5.7v11.4c0,3.1-2.9,5.7-6.5,5.7h-124V548.4z"/>
<g>
	<rect id="Rectangle-path" x="608" y="423.4" class="st8" width="157.4" height="250"/>
	<path id="Rectangle-path_1_" class="st9" d="M606.4,389.5h157.4c4.8,0,8.7,3.4,8.7,7.6v15.2c0,4.2-3.9,7.6-8.7,7.6H606.4
		c-4.8,0-8.7-3.4-8.7-7.6v-15.2C597.7,392.9,601.6,389.5,606.4,389.5z"/>
</g>
<g>
	<g>
		<g>
			<g>
				<path d="M635.4,44.5c-4.1,4.1-4.1,10.7,0,14.8s10.7,4.1,14.8,0c4.1-4.1,4.1-10.7,0-14.8S639.4,40.4,635.4,44.5z M645.2,54.3
					c-1.4,1.4-3.6,1.4-4.9,0s-1.4-3.6,0-4.9c1.4-1.4,3.6-1.4,4.9,0C646.5,50.8,646.5,53,645.2,54.3z"/>
			</g>
		</g>
		<g>
			<g>
				<g>
					<path d="M598.4,130c-1.3-0.9-3.1-0.5-4,0.8s-0.5,3.1,0.8,4c0,0,0.1,0,0.1,0.1c14.2,9,25.2,22.3,31.6,37.9L631,183
						c0.6,1.5,2.3,2.2,3.8,1.6c0.4-0.1,0.7-0.4,0.9-0.6c0.8-0.8,1.1-2.1,0.6-3.2l-4.2-10.2C625.5,153.9,613.6,139.7,598.4,130z"/>
				</g>
			</g>
			<g>
				<g>
					<circle cx="583.9" cy="124.8" r="5.8"/>
				</g>
			</g>
		</g>
		<g>
			<g>
				<g>
					<path d="M560.2,168.1c-1.5-0.5-3.2,0.2-3.7,1.8s0.2,3.2,1.8,3.7c0,0,0.1,0,0.1,0c16,5.4,29.9,15.5,39.8,29.2l6.5,8.9
						c0.9,1.3,2.8,1.6,4,0.6c0.3-0.2,0.6-0.5,0.8-0.8c0.6-1,0.6-2.3-0.1-3.2l-6.5-8.9C592.2,184.8,577.3,173.9,560.2,168.1z"/>
				</g>
			</g>
			<g>
				<g>
					<circle cx="544.8" cy="166.6" r="5.8"/>
				</g>
			</g>
		</g>
		<g>
			<g>
				<path d="M681.2,51.7l-12.6,12.5c-1.4,1.4-1.4,3.6,0,5l12.5,12.6c1.4,1.4,3.6,1.4,5,0l12.6-12.5c1.4-1.4,1.4-3.6,0-5l-12.5-12.6
					C684.8,50.3,682.6,50.3,681.2,51.7z M691.2,66.8l-7.6,7.5l-7.5-7.6l7.6-7.5L691.2,66.8z"/>
			</g>
		</g>
		<g>
			<g>
				<path d="M682.6,99.2c-2.1,0-3.9,1.7-4,3.8l-0.9,53.8c0,2.2,1.7,4,3.9,4.1c2.2,0,4-1.7,4.1-3.9l0.9-53.8
					C686.6,101,684.8,99.2,682.6,99.2z"/>
			</g>
		</g>
		<g>
			<g>
				<path d="M622.3,71c-1.2-0.6-2.6-0.5-3.7,0.3l-8.3,6.2l-9.8-3.3c-1.9-0.5-3.9,0.7-4.4,2.6c-0.2,0.6-0.2,1.2,0,1.8l3.3,9.8
					l-6.2,8.3c-1.2,1.5-0.8,3.7,0.7,4.9c0.6,0.5,1.4,0.7,2.1,0.7l10.3-0.1l6,8.4c1.1,1.6,3.3,2,4.8,0.9c0.6-0.4,1.1-1.1,1.3-1.8
					l3.1-9.9l9.9-3c1.8-0.6,2.9-2.5,2.3-4.4c-0.2-0.7-0.7-1.4-1.3-1.8l-8.4-6l0.2-10.3C624.2,72.8,623.5,71.6,622.3,71z M617.1,86.2
					c0,1.1,0.5,2.2,1.5,2.9l4.2,3l-4.9,1.5c-1.1,0.3-2,1.2-2.3,2.3l-1.5,4.9l-2.9-4.2c-0.7-0.9-1.7-1.5-2.9-1.5l-5.1,0.1l3.1-4.1
					c0.7-0.9,0.9-2.1,0.5-3.2L605,83l4.8,1.6c1.1,0.4,2.3,0.2,3.2-0.5l4.1-3L617.1,86.2z"/>
			</g>
		</g>
	</g>
	<g>
		<g>
			<g>
				<path d="M720.5,68.1c-4.1,4.1-4.1,10.7,0,14.8s10.7,4.1,14.8,0s4.1-10.7,0-14.8S724.6,64,720.5,68.1z M725.4,73
					c1.4-1.4,3.6-1.4,4.9,0c1.4,1.4,1.4,3.6,0,4.9c-1.4,1.4-3.6,1.4-4.9,0C724.1,76.5,724.1,74.3,725.4,73z"/>
			</g>
		</g>
		<g>
			<g>
				<g>
					<path d="M726.6,160l-4.2,10.2c-0.4,1.1-0.2,2.3,0.6,3.2c0.3,0.3,0.6,0.5,0.9,0.6c1.5,0.6,3.2-0.1,3.8-1.6l4.2-10.2
						c6.4-15.6,17.4-28.8,31.6-37.9c0,0,0.1,0,0.1-0.1c1.3-0.9,1.7-2.7,0.8-4c-0.9-1.3-2.7-1.7-4-0.8
						C745.2,129.1,733.4,143.3,726.6,160z"/>
				</g>
			</g>
			<g>
				<g>
					<circle cx="775" cy="114.2" r="5.8"/>
				</g>
			</g>
		</g>
		<g>
			<g>
				<g>
					<path d="M767.8,197.9l-6.5,8.9c-0.7,0.9-0.7,2.2-0.1,3.2c0.2,0.3,0.5,0.6,0.8,0.8c1.3,0.9,3.1,0.7,4-0.6l6.5-8.9
						c9.9-13.6,23.8-23.8,39.8-29.2c0,0,0.1,0,0.1,0c1.5-0.5,2.3-2.2,1.8-3.7s-2.2-2.3-3.7-1.8C793.3,172.4,778.5,183.3,767.8,197.9
						z"/>
				</g>
			</g>
			<g>
				<g>
					<circle cx="825.8" cy="165.2" r="5.8"/>
				</g>
			</g>
		</g>
		<g>
			<g>
				<path d="M806.4,104.7l0.2,10.3l-8.4,6c-0.6,0.4-1.1,1.1-1.3,1.8c-0.6,1.8,0.5,3.8,2.3,4.4l9.9,3l3.1,9.9
					c0.2,0.7,0.7,1.4,1.3,1.8c1.6,1.1,3.7,0.7,4.8-0.9l5.9-8.4l10.3,0.1c0.8,0,1.5-0.2,2.1-0.7c1.5-1.2,1.8-3.3,0.7-4.9l-6.2-8.3
					l3.3-9.8c0.2-0.6,0.2-1.2,0-1.8c-0.5-1.9-2.5-3.1-4.4-2.6l-9.8,3.3l-8.3-6.2c-1.1-0.8-2.5-0.9-3.7-0.3
					C807.2,102.1,806.4,103.3,806.4,104.7z M813.5,111.6l4.1,3c0.9,0.7,2.1,0.9,3.2,0.5l4.8-1.6l-1.6,4.8c-0.4,1.1-0.2,2.3,0.5,3.2
					l3.1,4.1l-5.1-0.1c-1.1,0-2.2,0.5-2.9,1.5l-2.9,4.2l-1.5-4.9c-0.3-1.1-1.2-1.9-2.3-2.3l-4.9-1.5l4.2-3c0.9-0.7,1.5-1.7,1.5-2.9
					L813.5,111.6z"/>
			</g>
		</g>
	</g>
</g>
<path class="st10" d="M625,563.4l32.1,32.1c1.3,1.3,3.2,2.1,5.1,2.1c1.9,0,3.8-0.8,5.1-2.1l85.4-85.4c2.8-2.8,2.8-7.4,0-10.2
	c-2.8-2.8-7.4-2.8-10.2,0l-80.3,80.3l-27-27c-2.8-2.8-7.4-2.8-10.2,0C622.2,556,622.2,560.6,625,563.4L625,563.4z"/>
</svg>
