<?xml version="1.0" encoding="utf-8"?>
<!-- Generator: Adobe Illustrator 19.0.0, SVG Export Plug-In . SVG Version: 6.00 Build 0)  -->
<svg version="1.1" id="Layer_1" xmlns="http://www.w3.org/2000/svg" xmlns:xlink="http://www.w3.org/1999/xlink" x="0px" y="0px"
	 viewBox="0 0 1009 857" style="enable-background:new 0 0 1009 857;" xml:space="preserve">
<style type="text/css">
	.st0{font-family:'Ubuntu';}
	.st1{font-size:55.5px;}
	.st2{fill:#CFFFF0;}
	.st3{fill:none;stroke:#000000;stroke-width:8;stroke-miterlimit:10;}
	.st4{fill:#FFE70B;}
	.st5{fill:#00FFB6;stroke:#000000;stroke-width:8;stroke-miterlimit:10;}
	.st6{font-size:30.8867px;}
	.st7{fill:#FFFFFF;}
</style>
<g id="XMLID_1046_">
	<text id="XMLID_23_" transform="matrix(1 0 0 1 382.7784 694.2098)" class="st0 st1">SHARE</text>
</g>
<g id="XMLID_1029_">
	<g id="XMLID_1030_">
		<g id="XMLID_1112_">
			<g id="XMLID_586_">
				<g id="XMLID_599_">
					<path id="XMLID_600_" class="st2" d="M681.5,295.5H263.8c-4.4,0-8-3.6-8-8v-48.7c0-4.4,3.6-8,8-8h417.7c4.4,0,8,3.6,8,8v48.7
						C689.5,291.9,685.9,295.5,681.5,295.5z"/>
				</g>
				<g id="XMLID_597_">
					<path id="XMLID_598_" class="st2" d="M655,321.4H237.3c-4.4,0-8-3.6-8-8v-48.7c0-4.4,3.6-8,8-8H655c4.4,0,8,3.6,8,8v48.7
						C663,317.8,659.4,321.4,655,321.4z"/>
				</g>
				<g id="XMLID_595_">
					<path id="XMLID_596_" class="st2" d="M749.4,393.1H345.6c-8.2,0-14.9-6.7-14.9-14.9v-84.2c0-8.2,6.7-14.9,14.9-14.9h403.8
						c8.2,0,14.9,6.7,14.9,14.9v84.2C764.3,386.4,757.6,393.1,749.4,393.1z"/>
				</g>
				<g id="XMLID_593_">
					<path id="XMLID_594_" class="st2" d="M690,447.2H286.2c-8.2,0-14.9-6.7-14.9-14.9v-33.7c0-8.2,6.7-14.9,14.9-14.9H690
						c8.2,0,14.9,6.7,14.9,14.9v33.7C704.9,440.5,698.2,447.2,690,447.2z"/>
				</g>
				<g id="XMLID_591_">
					<path id="XMLID_592_" class="st2" d="M808.1,491.9H404.3c-8.2,0-14.9-6.7-14.9-14.9v-50.1c0-8.2,6.7-14.9,14.9-14.9h403.8
						c8.2,0,14.9,6.7,14.9,14.9V477C823,485.2,816.3,491.9,808.1,491.9z"/>
				</g>
				<g id="XMLID_589_">
					<path id="XMLID_590_" class="st2" d="M625,530.7H221.2c-8.2,0-14.9-6.7-14.9-14.9v-21.9c0-8.2,6.7-14.9,14.9-14.9H625
						c8.2,0,14.9,6.7,14.9,14.9v21.9C640,524,633.2,530.7,625,530.7z"/>
				</g>
				<g id="XMLID_587_">
					<path id="XMLID_588_" class="st2" d="M684.5,590.7H274.1c-8.2,0-14.9-6.7-14.9-14.9V528c0-8.2,6.7-14.9,14.9-14.9h410.4
						c8.2,0,14.9,6.7,14.9,14.9v47.8C699.4,584,692.7,590.7,684.5,590.7z"/>
				</g>
			</g>
		</g>
		<path id="XMLID_1109_" class="st2" d="M388.2,334.2h359c4.4,0,8-3.6,8-8v-44.8c0-4.4-3.6-8-8-8h-359c-4.4,0-8,3.6-8,8v44.8
			C380.2,330.6,383.8,334.2,388.2,334.2z"/>
		<g id="XMLID_1087_">
			<g id="XMLID_502_">
				<g id="XMLID_508_">
					<g id="XMLID_509_">
						<line id="XMLID_525_" class="st3" x1="440.1" y1="189.5" x2="289.7" y2="189.5"/>
					</g>
				</g>
				<g id="XMLID_503_">
					<g id="XMLID_506_">
						<line id="XMLID_507_" class="st3" x1="430.1" y1="161.2" x2="370.4" y2="161.2"/>
					</g>
					<g id="XMLID_504_">
						<line id="XMLID_505_" class="st3" x1="358.3" y1="161.2" x2="322.9" y2="161.2"/>
					</g>
				</g>
			</g>
		</g>
		<g id="XMLID_1065_">
			<g id="XMLID_485_">
				<g id="XMLID_491_">
					<g id="XMLID_492_">
						<line id="XMLID_493_" class="st3" x1="813.2" y1="497.8" x2="743.7" y2="497.8"/>
					</g>
				</g>
				<g id="XMLID_486_">
					<g id="XMLID_489_">
						<line id="XMLID_490_" class="st3" x1="808.6" y1="526" x2="781" y2="526"/>
					</g>
					<g id="XMLID_487_">
						<line id="XMLID_488_" class="st3" x1="775.4" y1="526" x2="759" y2="526"/>
					</g>
				</g>
			</g>
		</g>
	</g>
</g>
<path id="XMLID_240_" class="st4" d="M700.7,521.2H265.9c-10.4,0-19-8.5-19-19v-42.2c0-10.4,8.5-19,19-19h434.7c10.4,0,19,8.5,19,19
	v42.2C719.7,512.6,711.1,521.2,700.7,521.2z"/>
<g id="XMLID_239_">
	<path id="XMLID_806_" d="M339.9,360.9c-1-0.7-1.9-1.6-2.4-2.6l-38.5-64.1c-1.1-1.9-1-3.6,0.4-4.6c1.3-1,3.6-1,6-0.1l385.2,156.9
		c3.2,1.3,5.5,4.1,5.4,6.4c-0.1,2.3-2.7,3.4-5.9,2.6l-346.8-92.7C342.1,362.2,340.9,361.6,339.9,360.9z M315.7,302.9l30.8,51.4
		l277.7,74.3L315.7,302.9z"/>
	<path id="XMLID_737_" d="M325.5,449.7c-2.2-1.6-3.4-3.7-3.1-5.4l14.4-88.8c0.3-2.1,2.8-3,5.8-2.2l346.8,92.7c3.2,0.9,6,3.4,6.5,5.8
		c0.5,2.5-1.5,4.1-4.5,3.7l-308.7-35.3L333.5,451c-1.7,1.1-4.7,0.7-7.3-0.8C326,450,325.7,449.8,325.5,449.7z M348.5,363.9
		l-11.3,69.9l36.9-23.1c0.8-0.5,2-0.7,3.3-0.6L629.1,439L348.5,363.9z"/>
	<path id="XMLID_714_" d="M243.5,354.3c-1.4-1-2.5-2.3-2.9-3.6c-0.9-2.7,1-4.6,4.3-4.3l59.4,6.1c3.3,0.3,6.8,2.8,7.7,5.5
		s-1,4.6-4.3,4.3l-59.4-6.1C246.6,356,244.9,355.3,243.5,354.3z"/>
	<path id="XMLID_712_" d="M194.8,402.7c-1.4-1-2.5-2.3-2.9-3.6c-0.9-2.7,1-4.6,4.3-4.3l17,1.8c3.3,0.3,6.7,2.8,7.7,5.5
		c0.9,2.7-1,4.6-4.3,4.3l-17-1.8C197.9,404.4,196.2,403.7,194.8,402.7z"/>
	<path id="XMLID_699_" d="M237.2,407.1c-1.4-1-2.5-2.3-3-3.7c-0.9-2.7,1-4.6,4.3-4.3l50.9,5.3c3.3,0.3,6.8,2.8,7.7,5.5
		c0.9,2.7-1,4.6-4.3,4.3L242,409C240.3,408.8,238.6,408.1,237.2,407.1z"/>
	<path id="XMLID_688_" d="M303.5,480.8c-1.4-1-2.5-2.3-3-3.6c-0.9-2.7,1-4.6,4.3-4.3l8.5,0.9c3.3,0.3,6.8,2.8,7.7,5.5
		c0.9,2.7-1,4.6-4.3,4.3l-8.5-0.9C306.6,482.5,304.9,481.8,303.5,480.8z"/>
	<path id="XMLID_687_" d="M337.5,484.3c-1.4-1-2.5-2.3-3-3.6c-0.9-2.7,1-4.6,4.3-4.3l42.4,4.4c3.3,0.3,6.8,2.8,7.7,5.5
		c0.9,2.7-1,4.6-4.3,4.3l-42.4-4.4C340.5,486,338.9,485.3,337.5,484.3z"/>
	<polygon id="XMLID_989_" class="st5" points="402.1,412.3 582,436 598.8,347.8 419.3,314.2 	"/>
	<text id="XMLID_1171_" transform="matrix(0.9879 0.1552 -0.1552 0.9879 423.5332 353.7755)"><tspan x="0" y="0" class="st0 st6">My Work</tspan><tspan x="0" y="29.3" class="st0 st6">Experience</tspan></text>
	<g id="XMLID_733_">
		<polygon id="XMLID_1191_" class="st7" points="662.2,452.9 448.5,513 386.8,425.2 		"/>
		<path id="XMLID_721_" d="M695.4,450.5c-1.4-2.3-4.4-4.2-7.3-4.5l-312.9-31.4c-1.9-0.2-3.5,0.4-4.2,1.5c-0.7,1.1-0.5,2.7,0.6,4.2
			l70.2,99.7c0.6,0.8,1.4,1.6,2.3,2.3c0.6,0.4,1.3,0.8,2,1.1c1.8,0.7,3.6,0.9,5,0.6l242.8-68.3C696.1,455,696.8,452.9,695.4,450.5z
			 M448.5,513l-61.7-87.8l275.4,27.7L448.5,513z"/>
	</g>
</g>
</svg>
