<?xml version="1.0" encoding="utf-8"?>
<!-- Generator: Adobe Illustrator 19.0.0, SVG Export Plug-In . SVG Version: 6.00 Build 0)  -->
<svg version="1.1" id="Layer_1" xmlns="http://www.w3.org/2000/svg" xmlns:xlink="http://www.w3.org/1999/xlink" x="0px" y="0px"
	 viewBox="199 -32 1009 857" style="enable-background:new 199 -32 1009 857;" xml:space="preserve">
<style type="text/css">
	.st0{font-family:'Ubuntu-Medium';}
	.st1{font-size:55.5px;}
	.st2{fill:#CFFFF0;}
	.st3{fill:none;stroke:#000000;stroke-width:8;stroke-miterlimit:10;}
	.st4{fill:#FFE70B;}
	.st5{fill:#00FFB6;stroke:#000000;stroke-width:8;stroke-miterlimit:10;}
	.st6{font-size:30.8867px;}
	.st7{fill:#FFFFFF;}
</style>
<g id="XMLID_1046_">
	<text id="XMLID_23_" transform="matrix(1 0 0 1 591.7784 670.2098)" class="st0 st1">SHARE</text>
</g>
<g id="XMLID_1029_">
	<g id="XMLID_1030_">
		<g id="XMLID_1112_">
			<g id="XMLID_586_">
				<g id="XMLID_599_">
					<path id="XMLID_600_" class="st2" d="M890.5,271.5H472.8c-4.4,0-8-3.6-8-8v-48.7c0-4.4,3.6-8,8-8h417.7c4.4,0,8,3.6,8,8v48.7
						C898.5,267.9,894.9,271.5,890.5,271.5z"/>
				</g>
				<g id="XMLID_597_">
					<path id="XMLID_598_" class="st2" d="M864,297.4H446.3c-4.4,0-8-3.6-8-8v-48.7c0-4.4,3.6-8,8-8H864c4.4,0,8,3.6,8,8v48.7
						C872,293.8,868.4,297.4,864,297.4z"/>
				</g>
				<g id="XMLID_595_">
					<path id="XMLID_596_" class="st2" d="M958.4,369.1H554.6c-8.2,0-14.9-6.7-14.9-14.9V270c0-8.2,6.7-14.9,14.9-14.9h403.8
						c8.2,0,14.9,6.7,14.9,14.9v84.2C973.3,362.4,966.6,369.1,958.4,369.1z"/>
				</g>
				<g id="XMLID_593_">
					<path id="XMLID_594_" class="st2" d="M899,423.2H495.2c-8.2,0-14.9-6.7-14.9-14.9v-33.7c0-8.2,6.7-14.9,14.9-14.9H899
						c8.2,0,14.9,6.7,14.9,14.9v33.7C913.9,416.5,907.2,423.2,899,423.2z"/>
				</g>
				<g id="XMLID_591_">
					<path id="XMLID_592_" class="st2" d="M1017.1,467.9H613.3c-8.2,0-14.9-6.7-14.9-14.9v-50.1c0-8.2,6.7-14.9,14.9-14.9h403.8
						c8.2,0,14.9,6.7,14.9,14.9V453C1032,461.2,1025.3,467.9,1017.1,467.9z"/>
				</g>
				<g id="XMLID_589_">
					<path id="XMLID_590_" class="st2" d="M834,506.7H430.2c-8.2,0-14.9-6.7-14.9-14.9v-21.9c0-8.2,6.7-14.9,14.9-14.9H834
						c8.2,0,14.9,6.7,14.9,14.9v21.9C849,500,842.2,506.7,834,506.7z"/>
				</g>
				<g id="XMLID_587_">
					<path id="XMLID_588_" class="st2" d="M893.5,566.7H483.1c-8.2,0-14.9-6.7-14.9-14.9V504c0-8.2,6.7-14.9,14.9-14.9h410.4
						c8.2,0,14.9,6.7,14.9,14.9v47.8C908.4,560,901.7,566.7,893.5,566.7z"/>
				</g>
			</g>
		</g>
		<path id="XMLID_1109_" class="st2" d="M597.2,310.2h359c4.4,0,8-3.6,8-8v-44.8c0-4.4-3.6-8-8-8h-359c-4.4,0-8,3.6-8,8v44.8
			C589.2,306.6,592.8,310.2,597.2,310.2z"/>
		<g id="XMLID_1087_">
			<g id="XMLID_502_">
				<g id="XMLID_508_">
					<g id="XMLID_509_">
						<line id="XMLID_525_" class="st3" x1="649.1" y1="165.5" x2="498.7" y2="165.5"/>
					</g>
				</g>
				<g id="XMLID_503_">
					<g id="XMLID_506_">
						<line id="XMLID_507_" class="st3" x1="639.1" y1="137.2" x2="579.4" y2="137.2"/>
					</g>
					<g id="XMLID_504_">
						<line id="XMLID_505_" class="st3" x1="567.3" y1="137.2" x2="531.9" y2="137.2"/>
					</g>
				</g>
			</g>
		</g>
		<g id="XMLID_1065_">
			<g id="XMLID_485_">
				<g id="XMLID_491_">
					<g id="XMLID_492_">
						<line id="XMLID_493_" class="st3" x1="1022.2" y1="473.8" x2="952.7" y2="473.8"/>
					</g>
				</g>
				<g id="XMLID_486_">
					<g id="XMLID_489_">
						<line id="XMLID_490_" class="st3" x1="1017.6" y1="502" x2="990" y2="502"/>
					</g>
					<g id="XMLID_487_">
						<line id="XMLID_488_" class="st3" x1="984.4" y1="502" x2="968" y2="502"/>
					</g>
				</g>
			</g>
		</g>
	</g>
</g>
<path id="XMLID_240_" class="st4" d="M909.7,497.2H474.9c-10.4,0-19-8.5-19-19V436c0-10.4,8.5-19,19-19h434.7c10.4,0,19,8.5,19,19
	v42.2C928.7,488.6,920.1,497.2,909.7,497.2z"/>
<g id="XMLID_239_">
	<path id="XMLID_806_" d="M548.9,336.9c-1-0.7-1.9-1.6-2.4-2.6L508,270.2c-1.1-1.9-1-3.6,0.4-4.6c1.3-1,3.6-1,6-0.1l385.2,156.9
		c3.2,1.3,5.5,4.1,5.4,6.4s-2.7,3.4-5.9,2.6l-346.8-92.7C551.1,338.2,549.9,337.6,548.9,336.9z M524.7,278.9l30.8,51.4l277.7,74.3
		L524.7,278.9z"/>
	<path id="XMLID_737_" d="M534.5,425.7c-2.2-1.6-3.4-3.7-3.1-5.4l14.4-88.8c0.3-2.1,2.8-3,5.8-2.2L898.4,422c3.2,0.9,6,3.4,6.5,5.8
		c0.5,2.5-1.5,4.1-4.5,3.7l-308.7-35.3L542.5,427c-1.7,1.1-4.7,0.7-7.3-0.8C535,426,534.7,425.8,534.5,425.7z M557.5,339.9
		l-11.3,69.9l36.9-23.1c0.8-0.5,2-0.7,3.3-0.6L838.1,415L557.5,339.9z"/>
	<path id="XMLID_714_" d="M452.5,330.3c-1.4-1-2.5-2.3-2.9-3.6c-0.9-2.7,1-4.6,4.3-4.3l59.4,6.1c3.3,0.3,6.8,2.8,7.7,5.5
		s-1,4.6-4.3,4.3l-59.4-6.1C455.6,332,453.9,331.3,452.5,330.3z"/>
	<path id="XMLID_712_" d="M403.8,378.7c-1.4-1-2.5-2.3-2.9-3.6c-0.9-2.7,1-4.6,4.3-4.3l17,1.8c3.3,0.3,6.7,2.8,7.7,5.5
		c0.9,2.7-1,4.6-4.3,4.3l-17-1.8C406.9,380.4,405.2,379.7,403.8,378.7z"/>
	<path id="XMLID_699_" d="M446.2,383.1c-1.4-1-2.5-2.3-3-3.7c-0.9-2.7,1-4.6,4.3-4.3l50.9,5.3c3.3,0.3,6.8,2.8,7.7,5.5
		c0.9,2.7-1,4.6-4.3,4.3L451,385C449.3,384.8,447.6,384.1,446.2,383.1z"/>
	<path id="XMLID_688_" d="M512.5,456.8c-1.4-1-2.5-2.3-3-3.6c-0.9-2.7,1-4.6,4.3-4.3l8.5,0.9c3.3,0.3,6.8,2.8,7.7,5.5
		s-1,4.6-4.3,4.3l-8.5-0.9C515.6,458.5,513.9,457.8,512.5,456.8z"/>
	<path id="XMLID_687_" d="M546.5,460.3c-1.4-1-2.5-2.3-3-3.6c-0.9-2.7,1-4.6,4.3-4.3l42.4,4.4c3.3,0.3,6.8,2.8,7.7,5.5
		s-1,4.6-4.3,4.3l-42.4-4.4C549.5,462,547.9,461.3,546.5,460.3z"/>
	<polygon id="XMLID_989_" class="st5" points="611.1,388.3 791,412 807.8,323.8 628.3,290.2 	"/>
	<text transform="matrix(0.9879 0.1552 -0.1552 0.9879 632.5332 329.7755)" class="st0 st6">My Work</text>
	<text transform="matrix(0.9879 0.1552 -0.1552 0.9879 627.9858 358.721)" class="st0 st6">Experience</text>
	<g id="XMLID_733_">
		<polygon id="XMLID_1191_" class="st7" points="871.2,428.9 657.5,489 595.8,401.2 		"/>
		<path id="XMLID_721_" d="M904.4,426.5c-1.4-2.3-4.4-4.2-7.3-4.5l-312.9-31.4c-1.9-0.2-3.5,0.4-4.2,1.5s-0.5,2.7,0.6,4.2l70.2,99.7
			c0.6,0.8,1.4,1.6,2.3,2.3c0.6,0.4,1.3,0.8,2,1.1c1.8,0.7,3.6,0.9,5,0.6l242.8-68.3C905.1,431,905.8,428.9,904.4,426.5z M657.5,489
			l-61.7-87.8l275.4,27.7L657.5,489z"/>
	</g>
</g>
</svg>
