<?xml version="1.0" encoding="utf-8"?>
<!-- Generator: Adobe Illustrator 19.0.0, SVG Export Plug-In . SVG Version: 6.00 Build 0)  -->
<svg version="1.1" id="Layer_1" xmlns="http://www.w3.org/2000/svg" xmlns:xlink="http://www.w3.org/1999/xlink" x="0px" y="0px"
	 viewBox="0 0 1009 857" style="enable-background:new 0 0 1009 857;" xml:space="preserve">
<style type="text/css">
	.st0{fill:#FFEC00;}
	.st1{stroke:#000000;stroke-width:0.75;stroke-miterlimit:10;}
	.st2{fill:#FFFFFF;stroke:#000000;stroke-width:0.75;stroke-miterlimit:10;}
	.st3{fill:#FCFCFC;stroke:#000000;stroke-width:7;stroke-linecap:round;stroke-linejoin:round;stroke-miterlimit:10;}
	.st4{fill:#FFFFFF;}
	.st5{fill:none;stroke:#000000;stroke-width:8;stroke-linecap:round;stroke-linejoin:round;stroke-miterlimit:10;}
	.st6{fill:#FFFFFF;stroke:#000000;stroke-width:8;stroke-linecap:round;stroke-linejoin:round;stroke-miterlimit:10;}
	.st7{fill:#00FFB6;stroke:#000000;stroke-width:8;stroke-miterlimit:10;}
	.st8{font-family:'Ubuntu-Medium';}
	.st9{font-size:55.5px;}
</style>
<path id="XMLID_276_" class="st0" d="M860.1,804.6H148.9c-48.2,0-87.2-39-87.2-87.2V139.6c0-48.2,39-87.2,87.2-87.2h711.2
	c48.2,0,87.2,39,87.2,87.2v577.8C947.3,765.6,908.3,804.6,860.1,804.6z"/>
<g id="XMLID_274_">
	<path id="XMLID_294_" class="st1" d="M509.6,523.8c-1.3-13.3-6.3-26.1-0.7-39.5c3.6-8.6-1.7-14.6-10.9-14.7c-2.9,0-5.8,0-8.8,0
		c-10,0-14.2,5.1-11.1,14.7c2.2,6.7,3.2,13.2,2.2,20.1c-0.6,4.3-2.3,18.5-2.8,22.7c2.2,6.1,4.4,2.5,4.5,9.1h11.3v0c4.7,0,9.3,0,14,0
		c1.1-5.1,3.2-0.6,5.7-5.4c0,0-0.9-2.2-0.9-2.2 M502.5,481.1c-7,15.4-1.9,30.9-1,46.3c0,0.4-0.2,0.8-0.5,2h-16
		c1-17.6,6.5-34.8-2.2-52.8c6.9,0,11.7-0.3,16.4,0.2C500.5,476.9,502.9,480.3,502.5,481.1z"/>
	<path id="XMLID_767_" class="st1" d="M440.4,382.9c1.3-17.9,5.5-37.1,20.2-52.3c16.6-17.1,48.9-20.9,67.2-5.9
		c11.6,9.5,20.2,22.7,25.1,37.1c2,5.9,1.1,13.3,0.1,19.7c-1.5,9.8-4.3,19.4-6.3,29.2c-3.7,18.4-15.3,30.6-30.7,39.9
		c-6.2,3.8-12.7,7.1-19.2,10.4c-1.1,0.6-3.2,0.1-4.4-0.6c-4.4-2.4-8.6-5.1-12.9-7.6C453.7,438,440.3,414.9,440.4,382.9z
		 M524.1,368.9c-17.8,11.5-35.3,11.7-53.2,3.3c-1.6-0.7-4.1-0.6-5.8,0.2c-9.5,4.6-17.3,23-15,33.3c5.5,24,22.1,37.4,43.2,46.8
		c1,0.4,2.5,0.6,3.5,0.2c14.9-6.5,29.3-14.1,37.5-28.9c5.9-10.6,10.7-22.3,4-34.4C534.4,382.4,529.2,376.1,524.1,368.9z
		 M544.1,384.1c0.7,0,1.4,0,2.2,0c0.2-6.3,2.2-13.2,0.3-18.7c-5-14.5-12.9-28.3-25.6-36.9c-15.5-10.4-32.7-8-48,1.5
		c-17.8,11.1-22.5,29.6-24.7,49c2.8-2.6,4.9-5.7,7.5-8.2c5.9-5.6,11.7-8.8,20.5-4.1c13.2,7,27.1,6.3,40.1-1.2
		c4.4-2.5,8.3-6,12.5-9.1C529.7,365.6,529.7,365.6,544.1,384.1z"/>
	<path id="XMLID_579_" class="st2" d="M501,529.3c-5.4,0-10.5,0-16,0c1-17.6,6.5-34.8-2.2-52.8c6.9,0,11.7-0.3,16.4,0.2
		c1.3,0.2,3.7,3.5,3.3,4.3c-7,15.3-2,30.8-1,46.3C501.5,527.8,501.3,528.2,501,529.3z"/>
	<path id="XMLID_135_" class="st2" d="M524.1,368.9c5.1,7.2,10.3,13.5,14.2,20.5c6.7,12.1,1.9,23.8-4,34.4
		c-8.2,14.7-22.6,22.4-37.5,28.9c-1,0.4-2.5,0.2-3.5-0.2c-21.2-9.3-37.8-22.8-43.2-46.8c-2.3-10.3,5.5-28.6,15-33.3
		c1.6-0.8,4.2-1,5.8-0.2C488.8,380.6,506.3,380.4,524.1,368.9z"/>
	<path id="XMLID_110_" class="st2" d="M544.1,384.1c-14.4-18.5-14.4-18.5-15.2-27.7c-4.2,3.1-8.1,6.5-12.5,9.1
		c-13.1,7.5-27,8.2-40.1,1.2c-8.8-4.7-14.6-1.4-20.5,4.1c-2.6,2.5-4.7,5.6-7.5,8.2c2.1-19.4,6.8-37.9,24.7-49
		c15.3-9.5,32.5-11.9,48-1.5c12.7,8.6,20.7,22.4,25.6,36.9c1.9,5.6-0.1,12.4-0.3,18.7C545.5,384.1,544.8,384.1,544.1,384.1z"/>
	<g id="XMLID_889_">
		<g id="XMLID_444_">
			<g id="XMLID_445_">
				<g id="XMLID_448_">
					<g id="XMLID_449_">
						<path id="XMLID_460_" class="st3" d="M319.5,355.8c-3.5,3.5-3.5,9.2,0,12.7c1.8,1.8,4.1,2.6,6.4,2.6s4.6-0.9,6.4-2.6
							l29.6-29.6l-12.7-12.7L319.5,355.8z"/>
						<polygon id="XMLID_451_" class="st3" points="393.4,301 406.3,294.3 413.1,281.3 406.8,275 393.7,281.7 387.1,294.6 
							371.4,310.3 377.8,316.6 						"/>
						<path id="XMLID_450_" class="st3" d="M396.3,335.1l-1.2-0.1c-2.2,0-4.3,0.5-6.2,1.2l-37-37c0.7-1.9,1.2-4,1.2-6.2l-0.1-1.2
							c-0.6-9.4-8.4-16.8-17.9-16.8c-2.8,0-5.4,0.7-7.7,1.8l12,12c0.6,0.6,1.1,1.4,1.4,2.2c0.8,2.1,0.4,4.6-1.4,6.3
							c-1.2,1.2-2.7,1.8-4.2,1.8c-0.7,0-1.4-0.2-2.1-0.4c-0.8-0.3-1.5-0.7-2.2-1.4l-12-12c-1.1,2.3-1.8,4.9-1.8,7.7
							c0,9.5,7.4,17.3,16.8,17.9l1.2,0.1c2.2,0,4.3-0.5,6.2-1.2l37,37c-0.7,1.9-1.2,4-1.2,6.2l0.1,1.2c0.6,9.4,8.4,16.8,17.9,16.8
							c2.8,0,5.4-0.7,7.7-1.8l-12-12c-0.6-0.6-1.1-1.4-1.4-2.2c-0.8-2.1-0.4-4.6,1.4-6.3c1.2-1.2,2.7-1.8,4.2-1.8
							c0.7,0,1.4,0.2,2.1,0.4c0.8,0.3,1.5,0.7,2.2,1.4l12,12c1.1-2.4,1.8-4.9,1.8-7.7C413.1,343.5,405.6,335.8,396.3,335.1z"/>
					</g>
				</g>
			</g>
		</g>
	</g>
	<g id="XMLID_205_">
		<circle id="XMLID_281_" class="st4" cx="626.3" cy="263.1" r="2.6"/>
		<circle id="XMLID_339_" class="st4" cx="583" cy="304.8" r="2.6"/>
		<path id="XMLID_243_" class="st5" d="M682.9,298.4c6.6-7,10.2-15.8,10.2-24.9c0-22.7-22.7-39.1-45.9-39.1
			c-23.5,0-42.8,16.2-44.3,36.6c-22.4,1.1-43.4,17.3-43.4,39.1c0,9.1,3.6,17.9,10.2,24.9c1.3,5.4-0.3,11-4.2,14.9
			c-0.8,0.8-1,1.9-0.6,2.9c0.4,1,1.4,1.6,2.4,1.6c7.4,0,14.6-2.9,19.9-8.1c5.2,1.8,12,2.8,18.1,2.8c23.5,0,42.8-16.2,44.3-36.6
			c5.5-0.2,11.1-1.3,15.6-2.8c5.3,5.1,12.5,8,19.9,8c1.1,0,2-0.6,2.4-1.6c0.4-1,0.2-2.1-0.6-2.8
			C683.2,309.5,681.6,303.8,682.9,298.4z M605.4,343.9c-6.2,0-13.2-1.2-17.9-3.1c-1-0.4-2.2-0.1-2.9,0.7c-3.2,3.4-7.3,5.8-11.7,6.9
			c2.5-4.7,3.1-10.3,1.6-15.5c-0.1-0.4-0.3-0.8-0.6-1.1c-5.9-6.1-9.2-13.8-9.2-21.8c0-18.4,18.6-33.9,40.7-33.9
			c20.8,0,39.1,14.5,39.1,33.9C644.6,328.7,627,343.9,605.4,343.9z M667.9,305c-0.7-0.8-1.9-1.1-2.9-0.7c-4.1,1.6-9.9,2.7-15.4,3
			c-0.8-9.9-5.7-19.1-14.1-26h34c1.4,0,2.6-1.2,2.6-2.6s-1.2-2.6-2.6-2.6h-42c-5.9-3-12.6-4.8-19.4-5.1c1.5-17.5,18.4-31.4,39-31.4
			c22.1,0,40.7,15.5,40.7,33.9c0,8-3.3,15.7-9.2,21.8c-0.3,0.3-0.5,0.7-0.6,1.1c-1.5,5.3-0.9,10.8,1.6,15.5
			C675.2,310.8,671.1,308.4,667.9,305z"/>
		<path id="XMLID_474_" class="st4" d="M678.1,296.4c0.1-0.4,0.3-0.8,0.6-1.1c5.9-6.1,9.2-13.8,9.2-21.8c0-18.4-18.6-33.9-40.7-33.9
			c-20.6,0-37.5,13.9-39,31.4c6.8,0.4,13.5,2.1,19.4,5.1h42c1.4,0,2.6,1.2,2.6,2.6s-1.2,2.6-2.6,2.6h-34c8.4,6.9,13.3,16.2,14.1,26
			c5.5-0.3,11.3-1.4,15.4-3c1-0.4,2.2-0.1,2.9,0.7c3.2,3.4,7.2,5.8,11.7,6.9C677.2,307.2,676.6,301.7,678.1,296.4z M626.3,265.7
			c-1.4,0-2.6-1.2-2.6-2.6c0-1.4,1.2-2.6,2.6-2.6s2.6,1.2,2.6,2.6C628.9,264.5,627.7,265.7,626.3,265.7z M669.6,265.7h-32.9
			c-1.4,0-2.6-1.2-2.6-2.6c0-1.4,1.2-2.6,2.6-2.6h32.9c1.4,0,2.6,1.2,2.6,2.6C672.2,264.5,671,265.7,669.6,265.7z"/>
		<path id="XMLID_388_" class="st4" d="M605.4,276.1c-22.1,0-40.7,15.5-40.7,33.9c0,8,3.3,15.7,9.2,21.8c0.3,0.3,0.5,0.7,0.6,1.1
			c1.5,5.3,0.9,10.8-1.6,15.5c4.5-1.1,8.6-3.5,11.7-6.9c0.7-0.8,1.9-1.1,2.9-0.7c4.7,1.9,11.7,3.1,17.9,3.1
			c21.6,0,39.1-15.2,39.1-33.9C644.6,290.6,626.3,276.1,605.4,276.1z M583,302.2c1.4,0,2.6,1.2,2.6,2.6c0,1.4-1.2,2.6-2.6,2.6
			s-2.6-1.2-2.6-2.6C580.4,303.4,581.6,302.2,583,302.2z M626.3,323.1H583c-1.4,0-2.6-1.2-2.6-2.6c0-1.4,1.2-2.6,2.6-2.6h43.3
			c1.4,0,2.6,1.2,2.6,2.6C628.9,321.9,627.7,323.1,626.3,323.1z M626.3,307.4h-32.9c-1.4,0-2.6-1.2-2.6-2.6c0-1.4,1.2-2.6,2.6-2.6
			h32.9c1.4,0,2.6,1.2,2.6,2.6C628.9,306.2,627.7,307.4,626.3,307.4z"/>
		<path id="XMLID_334_" d="M628.9,304.8c0,1.4-1.2,2.6-2.6,2.6h-32.9c-1.4,0-2.6-1.2-2.6-2.6c0-1.4,1.2-2.6,2.6-2.6h32.9
			C627.7,302.2,628.9,303.4,628.9,304.8z"/>
		<path id="XMLID_331_" d="M628.9,320.5c0,1.4-1.2,2.6-2.6,2.6H583c-1.4,0-2.6-1.2-2.6-2.6c0-1.4,1.2-2.6,2.6-2.6h43.3
			C627.7,317.8,628.9,319,628.9,320.5z"/>
		<path id="XMLID_200_" d="M672.2,263.1c0,1.4-1.2,2.6-2.6,2.6h-32.9c-1.4,0-2.6-1.2-2.6-2.6c0-1.4,1.2-2.6,2.6-2.6h32.9
			C671,260.5,672.2,261.6,672.2,263.1z"/>
	</g>
	<g id="XMLID_6_">
		<path id="XMLID_255_" class="st6" d="M490.7,678c-0.5,0.1-1,0.1-1.4,0.2c-28.2,2.4-56.4,4.7-84.6,7.1c-1.3,0.1-2.6,0.2-3.6-0.6
			c-1.1-0.8-1.3-2.3-1.5-3.7c-5.2-43.4-10.5-86.8-15.7-130.2c-13.2-7.8-26.3-15.6-39.5-23.4c-12.6-7.5-25.6-15.2-34.8-26.6
			c-7-8.7-11.6-19-16.1-29.2c-13.8-31.2-27.5-62.4-41.3-93.6c7.7-4.3,15.4-8.5,23.1-12.8c1.8-1,3.7-2,5.5-3.1c2.6-1.5,3-2.2,4.6,0.5
			c2.3,3.8,4.5,7.6,6.8,11.4c9.1,15.2,18.2,30.4,27.3,45.5c3.9,6.5,7.8,13.1,11.7,19.6c2.5,4.2,5.1,8.4,8.4,11.9
			c4.5,4.6,10.3,7.8,16,10.8c14.9,8,29.8,16,44.7,24c20.5-3.2,41.1-6.1,61.7-8.9c1.2-0.2,2.6-0.3,3.6,0.4c1,0.8,1.3,2.1,1.4,3.4
			c8.8,64.1,17.5,128.3,26.3,192.4c0.2,1.4,0.3,2.9-0.6,4C492.1,677.5,491.4,677.8,490.7,678z"/>
		<path id="XMLID_2_" class="st6" d="M256.8,374.6l-12.3-18.9c0,0-13.3-3.6-17.1-14.7c-3.8-11.1,24.2-23.6,29.5-22.4
			c5.3,1.3,15.5,11.9,11,24.2l9.5,19.6L256.8,374.6z"/>
	</g>
	<g id="XMLID_7_">
		<path id="XMLID_9_" class="st6" d="M497,678c0.5,0.1,1,0.1,1.4,0.2c28.2,2.4,56.4,4.7,84.6,7.1c1.3,0.1,2.6,0.2,3.6-0.6
			c1.1-0.8,1.3-2.3,1.5-3.7c5.2-43.4,10.5-86.8,15.7-130.2c13.2-7.8,26.3-15.6,39.5-23.4c12.6-7.5,25.6-15.2,34.8-26.6
			c7-8.7,11.6-19,16.1-29.2c13.8-31.2,27.5-62.4,41.3-93.6c-7.7-4.3-15.4-8.5-23.1-12.8c-1.8-1-3.7-2-5.5-3.1
			c-2.6-1.5-3-2.2-4.6,0.5c-2.3,3.8-4.5,7.6-6.8,11.4c-9.1,15.2-18.2,30.4-27.3,45.5c-3.9,6.5-7.8,13.1-11.7,19.6
			c-2.5,4.2-5.1,8.4-8.4,11.9c-4.5,4.6-10.3,7.8-16,10.8c-14.9,8-29.8,16-44.7,24c-20.5-3.2-41.1-6.1-61.7-8.9
			c-1.2-0.2-2.6-0.3-3.6,0.4c-1,0.8-1.3,2.1-1.4,3.4c-8.8,64.1-17.5,128.3-26.3,192.4c-0.2,1.4-0.3,2.9,0.6,4
			C495.5,677.5,496.2,677.8,497,678z"/>
		<path id="XMLID_8_" class="st6" d="M730.9,374.6l12.3-18.9c0,0,13.3-3.6,17.1-14.7c3.8-11.1-24.2-23.6-29.5-22.4
			c-5.3,1.3-15.5,11.9-11,24.2l-9.5,19.6L730.9,374.6z"/>
	</g>
	<g id="XMLID_352_">
		<path id="XMLID_760_" class="st7" d="M592.4,528.7c-33.6,0-67.3,0-100.9,0v0h-23.2c-26.3,0-52.7,0-79,0c-9.6,0-12.7,3.5-12.1,13.1
			c0.1,1.5,0.2,2.9,0.3,4.4c2.9,28.9,5.8,57.8,8.8,86.6c1.4,14.1,2.7,28.3,4.6,42.3c1.2,8.9,5.5,11.9,14.5,11.9
			c57.1,0,114.1,0,171.2,0c10.3,0,14.9-3.9,15.9-14.3c4.4-43.4,8.8-86.8,13.1-130.3C606.6,531.7,603.5,528.7,592.4,528.7z
			 M491.6,629.1c-12,0.1-21.7-9.5-21.6-21.3c0.1-12,9.6-21.4,21.6-21.4c11.8,0,21.1,9.3,21.2,21C513,619.5,503.6,629.1,491.6,629.1z
			"/>
		<path id="XMLID_739_" class="st1" d="M491.6,586.4c-12,0-21.6,9.4-21.6,21.4c-0.1,11.8,9.7,21.4,21.6,21.3
			c12-0.1,21.4-9.6,21.2-21.7C512.7,595.7,503.4,586.5,491.6,586.4z M491.3,622.4c-7.9,0.1-14.5-6.8-14.3-15c0.2-8,6.4-14,14.5-14
			c7.9,0,14.4,6.4,14.4,14.2C506.1,615.6,499.4,622.2,491.3,622.4z"/>
		<path id="XMLID_32_" class="st2" d="M491.6,593.4c7.9,0,14.4,6.4,14.4,14.2c0,8-6.6,14.7-14.7,14.8c-7.9,0.1-14.5-6.8-14.3-15
			C477.3,599.3,483.5,593.3,491.6,593.4z"/>
	</g>
	<g id="XMLID_183_">
		<path id="XMLID_57_" class="st3" d="M337.3,212.4l-22.7-9.2c-0.2-0.1-0.3-0.1-0.5,0l-22.5,9.6c-0.4,0.2-0.9-0.2-0.9-0.6l1.8-24.4
			c0-0.2,0-0.3-0.2-0.5l-16.1-18.5c-0.3-0.4-0.1-0.9,0.3-1.1l23.8-5.9c0.2,0,0.3-0.1,0.4-0.3l12.6-21c0.3-0.4,0.9-0.4,1.1,0
			l12.9,20.8c0.1,0.1,0.2,0.3,0.4,0.3l23.9,5.5c0.5,0.1,0.7,0.7,0.4,1.1l-15.8,18.7c-0.1,0.1-0.2,0.3-0.2,0.5l2.2,24.4
			C338.3,212.3,337.8,212.6,337.3,212.4z"/>
		<g id="XMLID_165_">
			<path id="XMLID_179_" class="st3" d="M418.3,183.1l-22.7-9.2c-0.2-0.1-0.3-0.1-0.5,0l-22.5,9.6c-0.4,0.2-0.9-0.2-0.9-0.6
				l1.8-24.4c0-0.2,0-0.3-0.2-0.5l-16.1-18.5c-0.3-0.4-0.1-0.9,0.3-1.1l23.8-5.9c0.2,0,0.3-0.1,0.4-0.3l12.6-21
				c0.3-0.4,0.9-0.4,1.1,0l12.9,20.8c0.1,0.1,0.2,0.3,0.4,0.3l23.9,5.5c0.5,0.1,0.7,0.7,0.4,1.1l-15.8,18.7
				c-0.1,0.1-0.2,0.3-0.2,0.5l2.2,24.4C419.2,182.9,418.7,183.2,418.3,183.1z"/>
			<path id="XMLID_180_" class="st3" d="M509.3,168.1l-22.7-9.2c-0.2-0.1-0.3-0.1-0.5,0l-22.5,9.6c-0.4,0.2-0.9-0.2-0.9-0.6
				l1.8-24.4c0-0.2,0-0.3-0.2-0.5l-16.1-18.5c-0.3-0.4-0.1-0.9,0.3-1.1l23.8-5.9c0.2,0,0.3-0.1,0.4-0.3l12.6-21
				c0.3-0.4,0.9-0.4,1.1,0l12.9,20.8c0.1,0.1,0.2,0.3,0.4,0.3l23.9,5.5c0.5,0.1,0.7,0.7,0.4,1.1l-15.8,18.7
				c-0.1,0.1-0.2,0.3-0.2,0.5l2.2,24.4C510.2,167.9,509.7,168.2,509.3,168.1z"/>
			<path id="XMLID_181_" class="st3" d="M600.3,183.1l-22.7-9.2c-0.2-0.1-0.3-0.1-0.5,0l-22.5,9.6c-0.4,0.2-0.9-0.2-0.9-0.6
				l1.8-24.4c0-0.2,0-0.3-0.2-0.5l-16.1-18.5c-0.3-0.4-0.1-0.9,0.3-1.1l23.8-5.9c0.2,0,0.3-0.1,0.4-0.3l12.6-21
				c0.3-0.4,0.9-0.4,1.1,0l12.9,20.8c0.1,0.1,0.2,0.3,0.4,0.3l23.9,5.5c0.5,0.1,0.7,0.7,0.4,1.1l-15.8,18.7
				c-0.1,0.1-0.2,0.3-0.2,0.5l2.2,24.4C601.2,182.9,600.7,183.2,600.3,183.1z"/>
		</g>
		<path id="XMLID_182_" class="st3" d="M686.3,212.4l-22.7-9.2c-0.2-0.1-0.3-0.1-0.5,0l-22.5,9.6c-0.4,0.2-0.9-0.2-0.9-0.6l1.8-24.4
			c0-0.2,0-0.3-0.2-0.5l-16.1-18.5c-0.3-0.4-0.1-0.9,0.3-1.1l23.8-5.9c0.2,0,0.3-0.1,0.4-0.3l12.6-21c0.3-0.4,0.9-0.4,1.1,0
			l12.9,20.8c0.1,0.1,0.2,0.3,0.4,0.3l23.9,5.5c0.5,0.1,0.7,0.7,0.4,1.1l-15.8,18.7c-0.1,0.1-0.2,0.3-0.2,0.5l2.2,24.4
			C687.2,212.3,686.7,212.6,686.3,212.4z"/>
	</g>
</g>
<g id="XMLID_935_">
	<text id="XMLID_29_" transform="matrix(1 0 0 1 398.2136 771.4366)" class="st8 st9">WORK</text>
</g>
</svg>
